<?xml version="1.0" encoding="iso-8859-1"?>
<!-- Generator: Adobe Illustrator 16.0.0, SVG Export Plug-In . SVG Version: 6.00 Build 0)  -->
<!DOCTYPE svg PUBLIC "-//W3C//DTD SVG 1.1//EN" "http://www.w3.org/Graphics/SVG/1.1/DTD/svg11.dtd">
<svg version="1.1" id="Capa_1" xmlns="http://www.w3.org/2000/svg" xmlns:xlink="http://www.w3.org/1999/xlink" x="0px" y="0px"
	 width="29.509px" height="29.51px" viewBox="0 0 29.509 29.51" style="enable-background:new 0 0 29.509 29.51; fill: #DA6E43"
	 xml:space="preserve">
<g>
	<g>
		<path d="M18.307,4.482c-0.119,0-0.236,0.01-0.352,0.024c0.136,0.153,0.22,0.344,0.22,0.554c0,0.499-0.458,0.904-1.022,0.904
			c-0.397,0-0.738-0.204-0.909-0.499c-0.255,0.344-0.404,0.755-0.404,1.196c0,1.205,1.104,2.181,2.467,2.181
			c1.363,0,2.468-0.976,2.468-2.181S19.67,4.482,18.307,4.482z"/>
		<path d="M9.923,8.854c1.37,0,2.48-0.98,2.48-2.192c0-1.21-1.11-2.191-2.48-2.191c-0.261,0-0.512,0.036-0.748,0.102
			C9.279,4.713,9.34,4.88,9.34,5.06c0,0.499-0.458,0.904-1.022,0.904c-0.249,0-0.473-0.082-0.651-0.212
			c-0.143,0.277-0.226,0.584-0.226,0.91C7.442,7.873,8.553,8.854,9.923,8.854z"/>
		<path d="M22.545,10.541c0,0-0.093,0.072-0.247,0.208c0.479-0.862,0.747-1.856,0.747-2.973c0-1.707-0.333-2.921-1.39-4.204
			c0.938-0.994,0.486-3.104,0.486-3.104s-0.344-0.456-0.71-0.456c-0.2,0-0.405,0.135-0.565,0.55c0.007,0.42-0.483,0.929-1.104,0.929
			c-0.229,0-0.478-0.068-0.724-0.238c-1.374-0.79-3.014-1.25-4.775-1.253c-1.761,0.003-3.401,0.463-4.775,1.253
			C9.241,1.422,8.994,1.491,8.765,1.491c-0.622,0-1.111-0.508-1.106-0.929c-0.161-0.415-0.366-0.55-0.564-0.55
			c-0.366,0-0.71,0.456-0.71,0.456S5.932,2.578,6.87,3.572C5.814,4.855,5.481,6.069,5.481,7.776c0,1.213,0.315,2.285,0.876,3.197
			c-0.042,0.064-0.086,0.128-0.126,0.194c-1.283,0.38-4.937,1.966-3.5,7.513c1.73,6.682,6.598,9.476,6.598,9.476
			s0.182-0.271,0.436-0.774c0.18,1.199,1.395,2.129,2.867,2.129c1.054,0,1.976-0.479,2.481-1.189
			c0.531,0.529,1.324,0.867,2.21,0.867c1.596,0,2.894-1.092,2.894-2.434c0-0.023-0.003-0.044-0.004-0.066
			c0.364,0.677,0.641,1.043,0.641,1.043s4.701-3.008,6.049-9.756C28.25,11.227,22.545,10.541,22.545,10.541z M21.988,6.662
			c0,1.793-1.649,3.252-3.681,3.252c-2.029,0-3.68-1.458-3.68-3.252c0-1.793,1.651-3.252,3.68-3.252
			C20.338,3.41,21.988,4.869,21.988,6.662z M15.15,9.101l-0.87,1.004l-1.048-1.004c0,0,0.166-0.9,1.01-0.853
			C15.085,8.298,15.15,9.101,15.15,9.101z M7.032,1.05c0.09,0.214,0.236,0.416,0.431,0.59C7.82,1.958,8.282,2.134,8.766,2.134
			c0.397,0,0.792-0.122,1.142-0.354c1.298-0.741,2.803-1.134,4.356-1.137c1.553,0.003,3.058,0.396,4.355,1.137
			c0.351,0.232,0.745,0.354,1.144,0.354c0.483,0,0.946-0.176,1.303-0.494c0.194-0.175,0.341-0.376,0.432-0.59
			c0.063,0.643,0.053,1.631-0.398,2.109L20.813,3.46c-0.712-0.436-1.574-0.694-2.505-0.694c-1.879,0-3.483,1.046-4.116,2.513
			c-0.633-1.467-2.237-2.513-4.117-2.513c-0.891,0-1.718,0.236-2.413,0.639L7.43,3.159C6.979,2.682,6.967,1.693,7.032,1.05z
			 M10.074,3.41c2.029,0,3.681,1.459,3.681,3.252s-1.651,3.252-3.681,3.252c-2.029,0-3.68-1.458-3.68-3.252
			C6.394,4.869,8.046,3.41,10.074,3.41z M10.074,10.558c1.209,0,2.305-0.433,3.103-1.131l0.089,0.085l0.998,1.334l1.003-1.373
			c0.792,0.67,1.862,1.084,3.041,1.084c1.758,0,3.275-0.917,3.982-2.235c-0.321,3.586-3.795,5.61-8.027,5.62
			c-4.112-0.009-7.509-1.92-7.993-5.32C7.037,9.779,8.453,10.558,10.074,10.558z M12.63,28.545c-0.992,0-1.799-0.659-1.799-1.468
			c0-0.812,0.808-1.47,1.799-1.47c0.992,0,1.8,0.658,1.8,1.47C14.43,27.886,13.623,28.545,12.63,28.545z M17.322,28.223
			c-0.991,0-1.799-0.658-1.799-1.468c0-0.812,0.808-1.47,1.799-1.47c0.992,0,1.8,0.658,1.8,1.47
			C19.123,27.564,18.315,28.223,17.322,28.223z M17.322,24.318c-1.055,0-1.976,0.479-2.481,1.19
			c-0.531-0.53-1.325-0.868-2.211-0.868c-0.797,0-1.521,0.273-2.043,0.715c0.489-1.524,0.893-3.6,0.7-6.053
			c-0.202-2.562-1.287-4.567-2.354-5.96c1.479,0.807,3.325,1.24,5.331,1.244c2.451-0.004,4.666-0.648,6.258-1.836
			c-1.026,1.443-2.071,3.558-2.13,6.228c-0.055,2.552,0.507,4.666,1.108,6.179C18.969,24.645,18.191,24.318,17.322,24.318z"/>
	</g>
</g>
<g>
</g>
<g>
</g>
<g>
</g>
<g>
</g>
<g>
</g>
<g>
</g>
<g>
</g>
<g>
</g>
<g>
</g>
<g>
</g>
<g>
</g>
<g>
</g>
<g>
</g>
<g>
</g>
<g>
</g>
</svg>
