<?xml version="1.0" encoding="utf-8"?>
<!-- Generator: Adobe Illustrator 18.1.1, SVG Export Plug-In . SVG Version: 6.00 Build 0)  -->
<!DOCTYPE svg PUBLIC "-//W3C//DTD SVG 1.1//EN" "http://www.w3.org/Graphics/SVG/1.1/DTD/svg11.dtd">
<svg version="1.1" id="Vrstva_1" xmlns="http://www.w3.org/2000/svg" xmlns:xlink="http://www.w3.org/1999/xlink" x="0px" y="0px"
	 viewBox="0 0 960 606" enable-background="new 0 0 960 606" xml:space="preserve">
<g id="Vrstva_1_2_">
	<g id="Vrstva_1_1_" display="none">
		<path display="inline" fill="none" stroke="#000000" stroke-miterlimit="10" d="M478.5,63.4"/>
		<rect x="93.8" y="-224.6" display="inline" fill="none" stroke="#0A0000" stroke-miterlimit="10" width="772.4" height="974.5"/>
	</g>
	<g id="base">
		<path fill="#AF8C69" d="M479.1,306.8c52.2-0.2,98-23.5,123.6-58.1l0.2,0.2c33.3,32.8,46.4,72.1,44,123.4
			c-1.7,36.8-13.1,95.1-42.1,141.9c-13.1,21-29.7,39.8-50.5,53l0,0c-5.5-10.3-17-16.7-30.5-17c-20.2-0.5-28.9,10.1-30.9,22.1l0,0
			c-0.8,4.6-0.6,9.3,0.3,13.9c-4.6,0.5-9.3,0.6-14,0.6s-9.5-0.2-14-0.6c0.9-4.6,1.1-9.3,0.3-13.9l0,0c-2.1-12-10.9-22.6-30.9-22.1
			c-13.3,0.2-24.9,6.8-30.5,17l0,0c-20.8-13.3-37.4-32-50.5-53c-29-46.9-40.7-105.1-42.4-141.9c-2.2-51.1,10.9-90.7,44-123.4
			l0.2-0.2C381,283.5,426.8,306.7,479.1,306.8z"/>
	</g>
	<g id="mirror">
		<g>
			<g>
				<g id="XMLID_13_">
					<g id="fill_x5F_bottom_12_">
						<path fill="#C4731A" d="M434.5,550c27.8-0.6,34.1,19.7,30.6,36c-1.6,7.6-5.4,14-9.9,17.4l-12.8-18.8l-12.1,18.8l-12.9-23
							l-9.9,16.4c-4.1-3-7.1-8.7-7.1-15c0-5.4,1.3-10.3,3.6-14.4C409.7,556.8,421.1,550.1,434.5,550z"/>
						<path fill="#AF8C69" d="M479.1,550v36.6c-4.7,0-9.5-0.2-14-0.6c3.5-16.3-3-36.6-30.6-36c-13.3,0.2-24.8,6.8-30.5,17l0,0
							c-20.8-13.3-37.4-32-50.5-53c-29-46.9-40.7-105.1-42.4-141.9c-2.2-51.1,10.9-90.7,44-123.4l0.2-0.2
							c25.7,34.7,71.5,57.9,123.6,58.1V343c0,0-68,5.5-80.3-15.1c-16.6-27.5-40.6-35-62.6-23c-27.6,14.7,1.1,177.8,22.2,193
							c27.6,19.7,42.9-0.8,62.3,21.1C438.6,539.6,455.6,539.3,479.1,550z"/>
						<path fill="#42210B" d="M395.5,230.8c38.8,11.5,62.3-14.7,66.9-20.4c-2.2,3.2-3.8,6.8-3.9,10.9c-0.2,14.8,15,30.3,20.7,30.3
							v55.2c-52.2-0.2-98-23.5-123.6-58.1c-4.4-6.2-8.4-12.5-11.4-19.1c-6.6-14-10.3-29.2-10.3-45.3c0-10.4,1.6-20.7,4.6-30.5
							c0.6-2.2,1.3-4.4,2.2-6.5c3-7.3,7.4-15.5,8.5-17.8c0,0,0-0.2,0.2-0.2c0.2-0.2,0.2-0.5,0.2-0.5c-6.8-8.4-27.9-12-27.9-12
							l40.6-5.2l-46.5-20.4c0,0,46.2-5.5,61.4,3.9c9.9,6.3-14.5-32.7-15-33.6l68.5,44.2l-0.2,0.5c-10.3-3.9-22.4-5.4-37.9,1.7
							c-2.2,0.9-4.6,2.2-6.6,3.3C316.5,148.6,353.5,218.3,395.5,230.8z"/>
						<path fill="#C7B299" d="M479.1,65.4v131.9c0,0-1.1,0.6-2.8,1.4c0,0-3.9-71.5-40.9-89.9c-1.7-0.8-3.5-1.6-5.2-2.4l0.2-0.5
							l-68.5-44.1l0,0l60.7,1.7L479.1,65.4z"/>
						<path fill="#EFDECE" d="M395.5,230.8c-42.1-12.5-79.2-82.4-9.6-119.1c2.1-1.3,4.4-2.2,6.6-3.3c15.5-7.1,27.8-5.7,37.9-1.7
							c1.7,0.8,3.6,1.6,5.2,2.4c36.9,18.3,40.9,89.9,40.9,89.9c-3.5,1.7-9.2,5.5-13.1,10.7c0,0-0.2,0.5-0.8,0.9
							C457.8,216.1,434.5,242.5,395.5,230.8z M455.6,186C455.6,186,455.6,185.6,455.6,186c1.9-5.5,2.8-11.2,2.8-17.2
							c0-29-22.6-52.5-50.5-52.5s-50.5,23.5-50.5,52.5s22.6,52.5,50.5,52.5C430.1,221.3,448.8,206.5,455.6,186z"/>
						<path fill="#42210B" d="M407.8,136.6c-17,0-30.8,14.4-30.8,32c0,17.8,13.9,32,30.8,32c17,0,30.8-14.4,30.8-32
							C438.7,150.9,424.9,136.6,407.8,136.6z M357.3,168.5c0-29,22.6-52.5,50.5-52.5s50.5,23.5,50.5,52.5c0,6.2-0.9,11.8-2.8,17.2
							c0,0,0,0,0,0.2c-6.8,20.5-25.7,35.3-47.7,35.3C379.9,221.3,357.3,197.5,357.3,168.5z"/>
						<path fill="#0F0602" d="M377,168.5c0-17.8,13.9-32,30.8-32c17,0,30.8,14.4,30.8,32c0,17.8-13.9,32-30.8,32
							C390.9,200.8,377,186.3,377,168.5z"/>
						<path fill="#42210B" d="M262.2,415.9c-26.4-109,82.1-186.4,82.1-186.4c3.2,6.8,7.1,13.1,11.4,19.1l-0.2,0.2
							c-33.3,32.8-46.4,72.3-44.2,123.4c1.7,36.8,13.1,95.1,42.4,141.9l-1.1,0.8l0,0C350.9,515,283.8,504.5,262.2,415.9z"/>
						<path fill="#FBB03B" d="M479.1,197.3v54.3c-5.7,0-20.8-15.5-20.7-30.3c0-4.1,1.7-7.7,3.9-10.9c0.6-0.6,0.8-0.9,0.8-0.9
							c3.9-5.2,9.9-8.8,13.1-10.7C478.2,197.8,479.1,197.3,479.1,197.3z"/>
						<path fill="#51260E" d="M348.6,130.4c0.2-0.2,0.2-0.5,0.3-0.6c-1.1,2.2-5.5,10.3-8.5,17.8
							C342.8,141.6,345.5,135.9,348.6,130.4z"/>
						<g id="fill_x5F_bottom_15_">
							<path fill="#C4731A" d="M522.5,550c-27.8-0.6-34.1,19.7-30.6,36c1.6,7.6,5.4,14,9.9,17.4l12.8-18.8l12.1,18.8l12.9-23
								l9.9,16.4c4.1-3,7.1-8.7,7.1-15c0-5.4-1.3-10.3-3.6-14.4C547.3,556.8,535.9,550.1,522.5,550z"/>
							<path fill="#AF8C69" d="M477.9,550v36.6c4.7,0,9.5-0.2,14-0.6c-3.5-16.3,3-36.6,30.6-36c13.3,0.2,24.8,6.8,30.5,17l0,0
								c20.8-13.3,37.4-32,50.5-53c29-46.9,40.7-105.1,42.4-141.9c2.2-51.1-10.9-90.7-44-123.4l-0.2-0.2
								c-25.7,34.7-71.5,57.9-123.6,58.1V343c0,0,68,5.5,80.3-15.1c16.6-27.5,40.6-35,62.6-23c27.6,14.7-1.1,177.8-22.2,193
								c-27.3,19.7-42.9-0.8-62.3,21.1C518.6,539.6,501.4,539.3,477.9,550z"/>
							<path fill="#42210B" d="M561.5,230.8c-38.8,11.5-62.3-14.7-66.9-20.4c2.2,3.2,3.8,6.8,3.9,10.9c0.2,14.8-15,30.3-20.7,30.3
								v55.2c52.2-0.2,98-23.5,123.6-58.1c4.6-6.2,8.4-12.5,11.5-19.1c6.6-14,10.3-29.2,10.3-45.3c0-10.4-1.6-20.7-4.6-30.5
								c-0.6-2.2-1.3-4.4-2.2-6.5c-2.8-7.3-7.4-15.5-8.5-17.8c0,0,0-0.2-0.2-0.2c-0.2-0.2-0.2-0.5-0.2-0.5c6.8-8.4,27.9-12,27.9-12
								l-40.6-5.2L641,91.1c0,0-46.2-5.5-61.4,3.9c-9.9,6.3,14.5-32.7,15-33.6l-68.5,44.2l0.2,0.5c10.3-3.9,22.4-5.4,37.9,1.7
								c2.2,0.9,4.6,2.2,6.6,3.3C640.7,148.6,603.8,218.3,561.5,230.8z"/>
							<path fill="#C7B299" d="M473.9,65.4l3.9,131.9c0,0,1.1,0.6,2.8,1.4c0,0,3.9-71.5,40.9-89.9c1.7-0.8,3.5-1.6,5.2-2.4l-0.2-0.5
								L595,61.7l0,0l-61.1,1.7L473.9,65.4z"/>
							<path fill="#EFDECE" d="M561.5,230.8c42.1-12.5,79.2-82.4,9.6-119.1c-2.1-1.3-4.4-2.2-6.6-3.3c-15.5-7.1-27.8-5.7-37.9-1.7
								c-1.7,0.8-3.6,1.6-5.2,2.4c-36.9,18.3-40.9,89.9-40.9,89.9c3.5,1.7,9.2,5.5,13.1,10.7c0,0,0.2,0.5,0.8,0.9
								C499.2,216.1,522.8,242.5,561.5,230.8z M501.5,186C501.4,186,501.4,185.6,501.5,186c-1.9-5.5-2.8-11.2-2.8-17.2
								c0-29,22.6-52.5,50.5-52.5s50.5,23.5,50.5,52.5s-22.6,52.5-50.5,52.5C527.1,221.3,508.3,206.5,501.5,186z"/>
							<path fill="#42210B" d="M549.2,136.6c17,0,30.8,14.4,30.8,32c0,17.8-13.9,32-30.8,32c-17,0-30.8-14.4-30.8-32
								S532.2,136.6,549.2,136.6z M599.7,168.5c0-29-22.6-52.5-50.5-52.5s-50.5,23.5-50.5,52.5c0,6.2,0.9,11.8,2.8,17.2
								c0,0,0,0,0,0.2c6.8,20.5,25.7,35.3,47.7,35.3C577.1,221.3,599.7,197.5,599.7,168.5z"/>
							<path fill="#0F0602" d="M580,168.5c0-17.8-13.9-32-30.8-32c-17,0-30.8,14.4-30.8,32c0,17.8,13.9,32,30.8,32
								C566.2,200.8,580,186.3,580,168.5z"/>
							<path fill="#42210B" d="M694.8,415.9c26.4-109-81.7-186.4-81.7-186.4c-3.2,6.8-7.1,13.1-11.5,19.1l0.2,0.2
								c33.3,32.7,46.5,72.1,44,123.2c-1.7,36.8-13.1,95.1-42.4,141.9l1.1,0.8l0,0C606.5,515,673.5,504.5,694.8,415.9z"/>
							<path fill="#FBB03B" d="M477.9,197.3v54.3c5.7,0,20.8-15.5,20.7-30.3c0-4.1-1.7-7.7-3.9-10.9c-0.6-0.6-0.8-0.9-0.8-0.9
								c-3.9-5.2-9.9-8.8-13.1-10.7C479.1,197.8,477.9,197.3,477.9,197.3z"/>
							<path fill="#51260E" d="M608.4,130.4c-0.2-0.2-0.2-0.5-0.3-0.6c1.1,2.2,5.7,10.3,8.5,17.8
								C614.4,141.6,611.5,135.9,608.4,130.4z"/>
						</g>
						<path fill="#C7B299" d="M595,424.4C589.5,486.9,541.8,538,476.2,538s-116-51-118.8-113.6c-4.9-108.6,53.2-101,118.8-101
							S604.4,317.9,595,424.4z"/>
					</g>
					<g id="fill_x5F_top_12_">
						<path display="none" fill="#AF8C69" d="M479.1,550v36.6c-4.7,0-9.5-0.2-14-0.6c0.9-4.6,1.1-9.3,0.3-13.9l0,0
							c-2.1-12-10.9-22.6-30.9-22.1c-13.3,0.2-24.9,6.8-30.5,17l0,0c-20.8-13.3-37.4-32-50.5-53c-29-46.9-40.7-105.1-42.4-141.9
							c-2.2-51.1,10.9-90.7,44-123.4l0.2-0.2c25.7,34.7,71.3,57.9,123.6,58.1v243.3L479.1,550L479.1,550z"/>
						<path fill="#FBB03B" d="M479.1,197.8v54c-5.7,0-20.8-15.5-20.7-30.3c0-4.1,1.7-7.7,3.9-10.9c0.6-0.6,0.8-0.9,0.8-0.9
							c3.9-5.2,9.9-8.8,13.1-10.7C477.9,197.8,479.1,197.8,479.1,197.8z"/>
						<path fill="#AF8C69" d="M479.1,120.5l2.5,1.6l-2.2,74.8c0,0-1.7,0.9-3.5,1.9c0,0-3.9-68.5-40.9-86.9c-1.7-0.8-3.5-1.6-5.2-2.4
							l0.2-0.5l-4.4-2.8"/>
						<path fill="#EFDECE" d="M455.5,186C455.5,186,455.6,185.6,455.5,186c1.9-5.5,2.8-11.2,2.8-17.2c0-29-22.6-52.5-50.5-52.5
							s-50.5,23.5-50.5,52.5c0,1.7,0,3.3,0.2,4.9c2.5,26.7,24.1,47.7,50.3,47.7C429.9,221.3,448.7,206.5,455.5,186z M347.5,158.5
							c2.7-17,13.9-33.9,38.2-46.9c2.1-1.3,4.4-2.2,6.6-3.3c15.5-7.1,27.8-5.7,37.9-1.7c1.7,0.8,3.5,1.6,5.2,2.4
							c36.9,18.3,40.9,89.9,40.9,89.9c-3.5,1.7-9.2,5.5-13.1,10.7c0,0-0.2,0.5-0.8,0.9c-4.6,5.5-27.9,31.9-66.9,20.4
							C368.1,222.6,342.8,190.2,347.5,158.5z"/>
						<path fill="#C4731A" d="M464.9,586c-1.6,7.6-5.4,14-9.9,17.4l-12.8-18.8l-12.1,18.8l-13.1-23l-9.9,16.4c-4.1-3-7.1-8.7-7.1-15
							c0-3.9,0.8-7.7,2.1-11c0,0,11.5-8.4,19.6-8.4c18.5,0,24.1,11.5,33.6,11.5c5.7,0,9-1.4,9-1.4l0.8-0.2l0,0
							C466.2,576.7,465.9,581.4,464.9,586z"/>
						<path fill="#51260E" d="M445.8,171.9c3.9,0.9,10.1,11,9.6,14c0,0,0,0,0,0.2c-6.8,20.5-25.7,35.3-47.7,35.3
							c-26.2,0-47.8-21-50.3-47.7h0.8c0,0,9.9-16.4,12.1-15.9c2.2,0.5,6.5,12,6.5,12l0,0c0.6,17.2,14.2,31.1,30.8,31.1
							c12.8,0,23.5-8,28.2-19.4l0,0C436.5,180.6,441.9,170.8,445.8,171.9z"/>
						<path fill="#230F07" d="M438.6,171.3c-0.2,3.6-1.1,6.9-2.2,10.1l0,0c-4.7,11.5-15.6,19.4-28.2,19.4
							c-16.7,0-30.1-13.9-30.8-31.1c0-0.5,0-0.8,0-1.3c0,0,9.6-1.6,14.7,12.5c5.2,14.2,27.6,11.2,32.3,4.4
							C429,178.4,434.2,171.3,438.6,171.3z"/>
						<path fill="#51260E" d="M349.1,129.6c0.2-0.2,0.2-0.5,0.2-0.5c-6.8-8.4-27.9-12-27.9-12l40.6-5.2c0,0,4.1,2.8,6.5-2.4
							c4.6-9.5-52.9-18.3-52.9-18.3s46.2-5.5,61.4,3.9c9.9,6.3-14.5-32.7-15-33.6L389.3,79l0,0c0.6,0.8,12.1,17,4.7,23.7
							c-4.7,4.4-8.4,8.4-8.4,8.4c-24.3,12.8-35.5,29.8-38.2,46.9c-0.9-0.2-1.7-0.5-2.5-0.8c-3.9-2.2-6.6-3.6-6.8-3.8
							c0.6-2.2,1.3-4.4,2.2-6.5C343.4,140,347.7,132,349.1,129.6C349.1,129.8,349.1,129.6,349.1,129.6z"/>
						<path fill="#51260E" d="M348.6,130.4c0.2-0.2,0.2-0.5,0.3-0.6c-1.1,2.2-5.5,10.3-8.5,17.8
							C342.6,141.6,345.5,135.9,348.6,130.4z"/>
						<path fill="#51260E" d="M333.7,237.9c0,0,5.4,13.1,0,23.4s-38.2,61.9-36.3,94.4c1.9,32.7-38.8,39.1-38.8,39.1
							C251.4,317.1,309.5,258.5,333.7,237.9z"/>
						<g id="fill_x5F_top_15_">
							<path display="none" fill="#AF8C69" d="M477.9,550v36.6c4.7,0,9.5-0.2,14-0.6c-0.9-4.6-1.1-9.3-0.3-13.9l0,0
								c2.1-12,10.9-22.6,30.9-22.1c13.3,0.2,24.9,6.8,30.5,17l0,0c20.8-13.3,37.4-32,50.5-53c29-46.9,40.7-105.1,42.1-141.9
								c2.2-51.1-10.9-90.7-44-123.4l-0.2-0.2c-25.7,34.7-71.3,57.9-123.6,58.1L477.9,550L477.9,550z"/>
							<path fill="#FBB03B" d="M477.9,197.8v54c5.7,0,20.8-15.5,20.7-30.3c0-4.1-1.7-7.7-3.9-10.9c-0.6-0.6-0.8-0.9-0.8-0.9
								c-3.9-5.2-9.9-8.8-13.1-10.7C479.1,197.8,477.9,197.8,477.9,197.8z"/>
							<path fill="#AF8C69" d="M477.6,120.3l0.3,77c0,0,1.1,0.5,2.8,1.4c0,0,3.9-68.5,40.9-86.9c1.7-0.8,3.5-1.6,5.2-2.4l-0.2-0.5
								l4.4-2.8C529.6,106.8,480.4,122.7,477.6,120.3z"/>
							<path fill="#EFDECE" d="M501.5,186C501.5,186,501.5,185.6,501.5,186c-1.9-5.5-2.8-11.2-2.8-17.2c0-29,22.6-52.5,50.5-52.5
								s50.5,23.5,50.5,52.5c0,1.7,0,3.3-0.2,4.9c-2.5,26.7-24,47.7-50.3,47.7C527.1,221.3,508.3,206.5,501.5,186z M609.5,158.5
								c-2.7-17-13.9-33.9-38-46.9c-2.1-1.3-4.4-2.2-6.6-3.3c-15.5-7.1-27.8-5.7-37.9-1.7c-1.7,0.8-3.5,1.6-5.2,2.4
								c-37,18.3-40.9,89.9-40.9,89.9c3.5,1.7,9.2,5.5,13.1,10.7c0,0,0.2,0.5,0.8,0.9c4.6,5.5,27.9,31.9,66.9,20.4
								C589.1,222.6,614.4,190.2,609.5,158.5z"/>
							<path fill="#C4731A" d="M491.9,586c1.6,7.6,5.4,14,9.9,17.4l12.8-18.8l12.1,18.8l13.1-23l9.9,16.4c4.1-3,7.1-8.7,7.1-15
								c0-3.9-0.8-7.7-2.1-11c0,0-11.5-8.4-19.6-8.4c-18.5,0-24.1,11.5-33.6,11.5c-5.7,0-9-1.4-9-1.4l-0.8-0.2l0,0
								C490.8,576.7,491,581.4,491.9,586z"/>
							<path fill="#51260E" d="M511.2,171.9c-3.9,0.9-10.1,11-9.6,14c0,0,0,0,0,0.2c6.8,20.5,25.7,35.3,47.7,35.3
								c26.4,0,47.8-21,50.3-47.7h-0.8c0,0-9.9-16.4-12.1-15.9c-2.2,0.5-6.5,12-6.5,12l0,0c-0.6,17.2-14.2,31.1-30.8,31.1
								c-12.8,0-23.5-8-28.2-19.4l0,0C520.5,180.6,515.1,170.8,511.2,171.9z"/>
							<path fill="#230F07" d="M518.6,171.3c0.2,3.6,1.1,6.9,2.2,10.1l0,0c4.7,11.5,15.6,19.4,28.2,19.4c16.7,0,30.1-13.9,30.8-31.1
								c0-0.5,0-0.8,0-1.3c0,0-9.6-1.6-14.7,12.5c-5.2,14.2-27.6,11.2-32.3,4.4C528.4,178.4,523,171.3,518.6,171.3z"/>
							<path fill="#51260E" d="M607.9,129.6c-0.2-0.2-0.2-0.5-0.2-0.5c6.8-8.4,27.9-12,27.9-12l-40.6-5.2c0,0-4.1,2.8-6.5-2.4
								c-4.6-9.5,52.9-18.3,52.9-18.3s-46.2-5.5-61.4,3.9c-9.9,6.3,14.5-32.7,15-33.6L567.7,79l0,0c-0.6,0.8-12.1,17-4.7,23.7
								c4.7,4.4,8.4,8.4,8.4,8.4c24.3,12.8,35.5,29.8,38,46.9c0.9-0.2,1.7-0.5,2.5-0.8c3.9-2.2,6.6-3.6,6.8-3.8
								c-0.6-2.2-1.3-4.4-2.2-6.5C613.6,140,609.3,132,607.9,129.6C608.1,129.8,607.9,129.6,607.9,129.6z"/>
							<path fill="#51260E" d="M608.5,130.4c-0.2-0.2-0.2-0.5-0.3-0.6c1.1,2.2,5.5,10.3,8.5,17.8
								C614.4,141.6,611.7,135.9,608.5,130.4z"/>
							<path fill="#51260E" d="M623.4,237.9c0,0-5.4,13.1,0,23.4s38.2,61.9,36.3,94.4c-1.9,32.7,38.8,39.3,38.8,39.3
								C705.6,317.1,647.7,258.5,623.4,237.9z"/>
						</g>
					</g>
					<g id="outlines_12_">
						<path fill="none" stroke="#000000" stroke-width="3" stroke-miterlimit="10" d="M349.1,129.6c0.9-1.4,2.1-2.8,3.5-3.9"/>
						<path fill="none" stroke="#000000" stroke-width="3" stroke-miterlimit="10" d="M338.2,153.9c0.6-2.2,1.3-4.4,2.2-6.5"/>
						<ellipse fill="none" stroke="#000000" stroke-width="3" stroke-miterlimit="10" cx="407.8" cy="168.5" rx="30.8" ry="32"/>
						<path fill="none" stroke="#000000" stroke-width="3" stroke-miterlimit="10" d="M479.1,306.8c-52.2-0.2-98-23.5-123.6-58.1
							c-4.4-6.2-8.4-12.5-11.4-19.1c-6.6-14-10.3-29.2-10.3-45.3c0-10.4,1.6-20.7,4.6-30.5"/>
						<path fill="none" stroke="#0A0000" stroke-width="3" stroke-miterlimit="10" d="M462.7,209.9c3.9-5.2,10.3-9.5,13.6-11.2
							c1.7-0.9,5.4-0.5,5.4-0.5"/>
						<path fill="none" stroke="#0A0000" stroke-width="3" stroke-miterlimit="10" d="M479.1,251.4c-5.7,0-20.8-15.5-20.7-30.3
							c0-4.1,1.7-7.7,3.9-10.9"/>
						<path fill="none" stroke="#000000" stroke-width="3" stroke-miterlimit="10" d="M455.5,186c-6.8,20.5-25.7,35.3-47.7,35.3
							c-26.2,0-47.8-21-50.3-47.7c-0.2-1.6-0.2-3.3-0.2-4.9c0-29,22.6-52.5,50.5-52.5s50.5,23.5,50.5,52.5
							C458.3,174.6,457.4,180.4,455.5,186"/>
						<path fill="none" stroke="#000000" stroke-width="3" stroke-miterlimit="10" d="M377,169.7c0-0.5,0-0.8,0-1.3
							c0-17.8,13.9-32,30.8-32c16.9,0,30.8,14.4,30.8,32c0,0.9,0,1.7-0.2,2.5c-0.2,3.6-1.1,6.9-2.2,10.1"/>
						<path fill="none" stroke="#000000" stroke-width="3" stroke-miterlimit="10" d="M463,209.5c0,0-0.2,0.5-0.8,0.9
							c-4.6,5.5-27.9,31.9-66.9,20.4c-27.3-8.2-52.5-40.6-47.8-72.3c2.7-17,13.9-33.9,38.2-46.9c2.1-1.3,4.4-2.2,6.6-3.3
							c15.5-7.1,27.8-5.7,37.9-1.7c1.7,0.8,3.5,1.6,5.2,2.4c36.9,18.3,40.9,89.9,40.9,89.9"/>
						<polyline fill="none" stroke="#000000" stroke-width="3" stroke-miterlimit="10" points="361.9,61.8 422.8,63.7 479.1,65.4 
													"/>
						<line fill="none" stroke="#000000" stroke-width="3" stroke-miterlimit="10" x1="389.2" y1="79.6" x2="361.9" y2="61.8"/>
						<line fill="none" stroke="#000000" stroke-width="3" stroke-miterlimit="10" x1="426.1" y1="103.3" x2="389.2" y2="79.6"/>
						<line fill="none" stroke="#000000" stroke-width="3" stroke-miterlimit="10" x1="430.4" y1="106.1" x2="426.1" y2="103.3"/>
						<path fill="none" stroke="#000000" stroke-width="3" stroke-miterlimit="10" d="M362.5,61.8c0,0,0,0-0.6,0
							c0.6,0.9,24.9,39.9,15,33.6c-15-9.5-61.4-3.9-61.4-3.9l46.2,20.5l-40.6,5.2c0,0,21.1,3.8,27.9,12c0,0,0,0.2-0.2,0.5
							c0,0,0,0.2-0.2,0.2c-1.1,2.2-5.5,10.3-8.5,17.8c-0.9,2.4-1.7,4.6-2.2,6.5"/>
						<path fill="none" stroke="#000000" stroke-width="3" stroke-miterlimit="10" d="M404,567c-20.8-13.3-37.4-32-50.5-53
							c-29-46.9-40.7-105.1-42.4-141.9c-2.2-51.1,10.9-90.7,44-123.4"/>
						<path fill="none" stroke="#000000" stroke-width="3" stroke-miterlimit="10" d="M479.1,586.3c-4.7,0-9.5-0.2-14-0.6
							c-0.2,0-0.3,0-0.3,0"/>
						<path fill="none" stroke="#000000" stroke-width="3" stroke-miterlimit="10" d="M352.3,515h-0.2"/>
						<path fill="none" stroke="#000000" stroke-width="3" stroke-miterlimit="10" d="M343.9,229.5c0,0-3.9,2.8-10.3,8.4
							c-24.1,20.7-82.2,79.2-75.1,156.8c0.6,6.9,1.7,13.9,3.6,21.1c21.5,88.7,88.5,98.9,90.1,98.9l0,0"/>
						<path fill="none" stroke="#000000" stroke-width="3" stroke-miterlimit="10" d="M464.9,586c-1.6,7.6-5.4,14-9.9,17.4
							l-12.8-18.8l-12.1,18.8l-13.1-23l-9.9,16.4c-4.1-3-7.1-8.7-7.1-15c0-3.9,0.8-7.7,2.1-11c0.3-1.3,0.9-2.2,1.6-3.3
							c5.5-10.3,17-16.7,30.5-17c20.2-0.5,28.9,10.1,30.9,22.1l0,0C466.2,576.7,465.9,581.4,464.9,586z"/>
						<polyline fill="none" stroke="#000000" stroke-width="3" stroke-miterlimit="10" points="344.2,328.3 358.9,350.7 374,328.3 
													"/>
						<polyline fill="none" stroke="#000000" stroke-width="3" stroke-miterlimit="10" points="374.5,383.7 387.6,405.9 
							400.4,385.6 						"/>
						<polyline fill="none" stroke="#000000" stroke-width="3" stroke-miterlimit="10" points="425.8,354 438.9,376.4 455.6,354 
													"/>
						<polyline fill="none" stroke="#000000" stroke-width="3" stroke-miterlimit="10" points="437.3,438.9 452.2,464.5 
							467.1,438.9 						"/>
						<polyline fill="none" stroke="#000000" stroke-width="3" stroke-miterlimit="10" points="358.9,468.6 372.5,491 389.2,468.6 
													"/>
						<polyline fill="none" stroke="#000000" stroke-width="3" stroke-miterlimit="10" points="425.8,508.2 438.9,530.4 
							455.6,508.2 						"/>
						<path fill="none" stroke="#000000" stroke-width="3" stroke-miterlimit="10" d="M389.2,79.6L389.2,79.6"/>
						<g id="outlines_15_">
							<path fill="none" stroke="#000000" stroke-width="3" stroke-miterlimit="10" d="M607.9,129.6c-0.9-1.4-2.1-2.8-3.5-3.9"/>
							<path fill="none" stroke="#000000" stroke-width="3" stroke-miterlimit="10" d="M618.8,153.9c-0.6-2.2-1.3-4.4-2.2-6.5"/>
							<ellipse fill="none" stroke="#000000" stroke-width="3" stroke-miterlimit="10" cx="549.2" cy="168.5" rx="30.8" ry="32"/>
							<path fill="none" stroke="#000000" stroke-width="3" stroke-miterlimit="10" d="M477.9,306.8c52.2-0.2,98-23.5,123.6-58.1
								c4.6-6.2,8.4-12.5,11.5-19.1c6.6-14,10.3-29.2,10.3-45.3c0-10.4-1.6-20.7-4.6-30.5"/>
							<path fill="none" stroke="#0A0000" stroke-width="3" stroke-miterlimit="10" d="M494.6,210.4c-3.9-5.2-10.6-9.9-13.9-11.7
								c-1.7-0.9-2.8-1.4-2.8-1.4"/>
							<path fill="none" stroke="#0A0000" stroke-width="3" stroke-miterlimit="10" d="M477.9,251.4c5.7,0,20.8-15.5,20.7-30.3
								c0-4.1-1.7-7.7-3.9-10.9"/>
							<path fill="none" stroke="#000000" stroke-width="3" stroke-miterlimit="10" d="M501.5,186c6.8,20.5,25.7,35.3,47.7,35.3
								c26.4,0,47.8-21,50.3-47.7c0.2-1.6,0.2-3.3,0.2-4.9c0-29-22.6-52.5-50.5-52.5s-50.5,23.5-50.5,52.5
								C498.7,174.6,499.6,180.4,501.5,186"/>
							<path fill="none" stroke="#000000" stroke-width="3" stroke-miterlimit="10" d="M580.1,169.7c0-0.5,0-0.8,0-1.3
								c0-17.8-13.9-32-30.8-32s-30.8,14.4-30.8,32c0,0.9,0,1.7,0.2,2.5c0.2,3.6,1.1,6.9,2.2,10.1"/>
							<path fill="none" stroke="#000000" stroke-width="3" stroke-miterlimit="10" d="M494,209.5c0,0,0.2,0.5,0.8,0.9
								c4.6,5.5,27.9,31.9,66.9,20.4c27.3-8.2,52.5-40.6,47.8-72.3c-2.7-17-13.9-33.9-38-46.9c-2.1-1.3-4.4-2.2-6.6-3.3
								c-15.5-7.1-27.8-5.7-37.9-1.7c-1.7,0.8-3.5,1.6-5.2,2.4c-37,18.3-40.9,89.9-40.9,89.9"/>
							<polyline fill="none" stroke="#000000" stroke-width="3" stroke-miterlimit="10" points="595.1,61.8 534.4,63.7 477.9,65.4 
															"/>
							<line fill="none" stroke="#000000" stroke-width="3" stroke-miterlimit="10" x1="567.8" y1="79.6" x2="595.1" y2="61.8"/>
							<line fill="none" stroke="#000000" stroke-width="3" stroke-miterlimit="10" x1="531.2" y1="103.3" x2="567.8" y2="79.6"/>
							<line fill="none" stroke="#000000" stroke-width="3" stroke-miterlimit="10" x1="526.8" y1="106.1" x2="531.2" y2="103.3"/>
							<path fill="none" stroke="#000000" stroke-width="3" stroke-miterlimit="10" d="M594.6,61.8c0,0,0,0,0.6,0
								c-0.6,0.9-24.9,39.9-15,33.6c15-9.5,61.4-3.9,61.4-3.9L595.4,112l40.6,5.2c0,0-21.1,3.8-27.9,12c0,0,0,0.2,0.2,0.5
								c0,0,0,0.2,0.2,0.2c1.1,2.2,5.5,10.3,8.5,17.8c0.9,2.4,1.7,4.6,2.2,6.5"/>
							<path fill="none" stroke="#000000" stroke-width="3" stroke-miterlimit="10" d="M553,567c20.8-13.3,37.4-32,50.5-53
								c29-46.9,40.7-105.1,42.1-141.9c2.2-51.1-10.9-90.7-44-123.4"/>
							<path fill="none" stroke="#000000" stroke-width="3" stroke-miterlimit="10" d="M477.9,586.3c4.7,0,9.5-0.2,14-0.6
								c0.2,0,0.3,0,0.3,0"/>
							<path fill="none" stroke="#000000" stroke-width="3" stroke-miterlimit="10" d="M604.7,515h0.2"/>
							<path fill="none" stroke="#000000" stroke-width="3" stroke-miterlimit="10" d="M613.1,229.5c0,0,3.9,2.8,10.3,8.4
								c24.1,20.7,82.2,79.4,75.1,156.8c-0.6,6.9-1.7,13.9-3.5,21.1c-21.5,88.7-88.5,98.9-90.1,98.9l0,0"/>
							<path fill="none" stroke="#000000" stroke-width="3" stroke-miterlimit="10" d="M491.9,586c1.6,7.6,5.4,14,9.9,17.4
								l12.8-18.8l12.1,18.8l13.1-23l9.9,16.4c4.1-3,7.1-8.7,7.1-15c0-3.9-0.8-7.7-2.1-11c-0.3-1.3-0.9-2.2-1.6-3.3
								c-5.5-10.3-17-16.7-30.5-17c-20.2-0.5-28.9,10.1-30.9,22.1l0,0C490.8,576.7,491,581.4,491.9,586z"/>
							<polyline fill="none" stroke="#000000" stroke-width="3" stroke-miterlimit="10" points="612.8,328.3 598.1,350.7 
								583.3,328.3 							"/>
							<polyline fill="none" stroke="#000000" stroke-width="3" stroke-miterlimit="10" points="582.5,383.7 569.6,405.9 
								556.6,385.6 							"/>
							<polyline fill="none" stroke="#000000" stroke-width="3" stroke-miterlimit="10" points="531.2,354 518.3,376.4 501.5,354 
															"/>
							<polyline fill="none" stroke="#000000" stroke-width="3" stroke-miterlimit="10" points="519.7,438.9 504.9,464.5 490,438.9 
															"/>
							<polyline fill="none" stroke="#000000" stroke-width="3" stroke-miterlimit="10" points="598.1,468.6 584.7,491 568,468.6 
															"/>
							<polyline fill="none" stroke="#000000" stroke-width="3" stroke-miterlimit="10" points="531.2,508.2 518.3,530.4 
								501.5,508.2 							"/>
							<path fill="none" stroke="#000000" stroke-width="3" stroke-miterlimit="10" d="M567.8,79.6L567.8,79.6"/>
						</g>
					</g>
				</g>
			</g>
		</g>
	</g>
	<g id="top">
		<g id="eye_lens">
			<path id="eye_lens_2" fill="#FFFFFF" d="M402,132.9c3.5,4.1,0.6,15.5-6.6,20.4c-7.4,4.9-13.7,5.7-17.4,1.7
				c-3.5-4.1-3.2-10.9,5.7-18.3C390.5,130.7,398.5,128.8,402,132.9z"/>
			<path id="eye_lens_1" fill="#FFFFFF" d="M391.4,162.9c1.6,1.7,0.2,6.2-1.7,7.9c-1.9,1.7-4.7,1.7-6.3,0s-1.1-4.7,0.8-6.5
				C386.2,162.6,390,161.2,391.4,162.9z"/>
		</g>
		<g id="eye_lens_1_">
			<path id="eye_lens_2_1_" fill="#FFFFFF" d="M544.5,132.9c3.5,4.1,0.6,15.5-6.6,20.4c-7.4,4.9-13.7,5.7-17.4,1.7
				c-3.6-3.9-3.2-10.9,5.7-18.3C533.1,130.7,541,128.8,544.5,132.9z"/>
			<path id="eye_lens_1_1_" fill="#FFFFFF" d="M532.2,162.9c1.6,1.7,0.2,6.2-1.7,7.9c-1.9,1.7-4.7,1.7-6.3,0s-1.1-4.7,0.8-6.5
				C526.8,162.6,530.6,161.2,532.2,162.9z"/>
		</g>
	</g>
</g>
<g id="Vrstva_2">
	<g>
		<path id="path1342" fill="#FFFF00" stroke="#000000" stroke-width="2.5" d="M549.7,114.8c0,0,5.1,19.7,1.3,38.5
			C593.4,52.8,512.9,4.4,451.7,16.9c-53-0.4-117.1,93.9-48,171.6c-7.6-11.1-25.4-74.2-18.7-87.5c-5.7,13.7,4.7,45.9,4.7,45.9
			c5,18.8,15.5,31.6,26.1,40.8c-23.5-33-24.8-80.2-18.3-93.7c-6.3,13.6-1.2,56.6,3,61.5c11,20,35.6,40.5,41.5,41.5
			c-23-20-44.9-91.4-38.5-108c-4.6,15.4,10.7,46.2,14.8,50.8c-2.5-7-4.3-50.9-0.8-59.8c-1,10.3,15,48.6,23,54
			c-5.5-7.8-7.1-56.9,0-64.5c-8.5,18.7,8,62.5,15.5,62.5c-10.8-21.3-3.5-59,5-67.5c-5.9,7.5-7.5,17-7.5,17c0,11,15.5,45,26.5,50
			c-9-13.5-8.5-58-2-69.5c-2.6,4.4-3.3,12.5-3.3,12.5c8.5,4.7,12.8,45,12.3,55c10.8-15.6,4-65.8,4-69.5
			c11.3,10.8,13.1,45.1,15.5,54.5c5.1-9.5,7.9-51.8,3.5-57c4.8,0.5,18.3,47.5,17,59c7.3-5.3-3-54.5-3-54.5
			c16.5,17.5,7.3,108.3,7,116.5c8.2-11.3,16.8-93.3,12.5-97c4,3.1-2.5,49-2.5,49c2,1,0,33,0,33c7.5-14.3,11.8-82.8,11.5-87
			C552.5,81.5,549.7,114.8,549.7,114.8L549.7,114.8z"/>
		<path id="path11907" fill="#FFFF00" stroke="#000000" stroke-width="2.5" d="M395.5,65c-69.6-49.6-125.5,102.5-119,156
			c2.2-23.3,27.8-88,41.1-107.1c-0.2,0.4,6.2-14.7,12.9-19.9c-21.3,19.1-44.4,114.5-26.5,146c-5.5-26.5,20-108,26.5-113.5
			C315.7,137.6,309,244,318.5,253c0.1-22.5,21.5-108.5,32-131c-9.4,21.3-10.4,30.2-10.5,30.2c-7.2,28,9.5,97.1,14.5,104.8
			c-0.8-34,5.5-118,10-129c5.5-9.6,14.5-9.5,16-17C389.8,103.2,400,70,395.5,65L395.5,65z"/>
		<path id="path11909" fill="#FFFF00" stroke="#000000" stroke-width="2.5" d="M550,65.5c7.2-29.4,31.5-30,42.5-23.5
			c64.3,33.8,76.8,143.6,75,155c-7-17-34-90.5-41-95c6.5,8.5,24.5,96.5,27,111c-23-10.5-37.5-81.5-44-91c11.5,19,17,80,12,99
			c-4-21.5-11-57.5-17.5-65c-1.7-5-3.5-32.5-9.5-45c4.9,13.5,18,100,16,119c-17.9-13.6-37.5-82-38-96C572.4,123.9,547,82,550,65.5z"
			/>
		
			<linearGradient id="path5900_1_" gradientUnits="userSpaceOnUse" x1="5.575" y1="-53.0959" x2="5.4997" y2="-53.0959" gradientTransform="matrix(42.1236 0 0 183.5972 -1267.4396 9908.5605)">
			<stop  offset="0" style="stop-color:#8A8A8A"/>
			<stop  offset="0.2969" style="stop-color:#9F9F9F"/>
			<stop  offset="1" style="stop-color:#6E6E6E"/>
		</linearGradient>
		<path id="path5900" fill="url(#path5900_1_)" d="M386.8,68.5c-34.1,52.1-42.8,118.9-34.1,183.6C331.9,187,354.5,87.9,386.8,68.5z"
			/>
		
			<linearGradient id="path5904_1_" gradientUnits="userSpaceOnUse" x1="4.059" y1="-54.3515" x2="4.0104" y2="-54.3515" gradientTransform="matrix(65.2155 0 0 180.0972 -4317.5098 9951.7949)">
			<stop  offset="0" style="stop-color:#8A8A8A"/>
			<stop  offset="0.2969" style="stop-color:#9F9F9F"/>
			<stop  offset="1" style="stop-color:#6E6E6E"/>
		</linearGradient>
		<path id="path5904" fill="url(#path5904_1_)" d="M380,73.2c-37.6,34.6-64.8,109.9-61.6,180.1C303.6,181.7,336.3,94.7,380,73.2z"/>
		
			<linearGradient id="path5908_1_" gradientUnits="userSpaceOnUse" x1="-7.9689" y1="-30.2006" x2="-8.0416" y2="-30.2006" gradientTransform="matrix(-43.5754 0 0 132.5972 32639.7617 4165.811)">
			<stop  offset="0" style="stop-color:#8A8A8A"/>
			<stop  offset="0.2969" style="stop-color:#9F9F9F"/>
			<stop  offset="1" style="stop-color:#6E6E6E"/>
		</linearGradient>
		<path id="path5908" fill="url(#path5908_1_)" d="M565.4,95c11.5,50.5,17.7,93.9,43.5,132.6C583.8,149.5,588.6,133.4,565.4,95z"/>
		
			<linearGradient id="path5912_1_" gradientUnits="userSpaceOnUse" x1="-18.5813" y1="-76.1458" x2="-18.7353" y2="-76.1458" gradientTransform="matrix(-20.5754 0 0 87.4722 15403.9287 6835.186)">
			<stop  offset="0" style="stop-color:#8A8A8A"/>
			<stop  offset="0.2969" style="stop-color:#9F9F9F"/>
			<stop  offset="1" style="stop-color:#6E6E6E"/>
		</linearGradient>
		<path id="path5912" fill="url(#path5912_1_)" d="M600.4,130.8c4.1,26.6,14.8,43.8,20.6,87.5C616.9,171.2,615.2,151.4,600.4,130.8z
			"/>
		<path id="path9328" fill="#FF007F" stroke="#000000" stroke-width="2.5" d="M374.8,61.3c-5.2-6.1-11.8-25.1-14.3-34.5
			c-2.3-7.6,3.4-11.1,5.7-10.3c4.2,0,7.4,0.6,10.3,1.8c4.4,1.2,3.9,3.7,7.4,3s2.1-3.2,6.7-5.7c4.6-2.4,8.6-4.4,11.8-4.1
			c2,0.8,4,2.7,3.2,6c0.2,3.9-4.7,13.9-8,21.6c-1.5,4.3-6.8,17.3-8.7,24C385.9,64.6,378.2,61.8,374.8,61.3L374.8,61.3z"/>
		<path id="path9330" fill="#FF007F" stroke="#000000" stroke-width="2.5" d="M375,70.5c-6.1,5.3-10.1,15.2-11.5,19.8
			c-3.1,3.9-4.5,20.3-3.9,22.6c2.7-2.1,4.9-4,6.2-3.4c2.4,1.3,3.1,4.8,5.5,7.2c3.3,1.2,5.4,0.9,6.2-0.9c0.8-4.8,5.9-36.9,6.7-43.1
			C380.5,71.2,377.8,70.8,375,70.5z"/>
		<path id="path9334" fill="#FF007F" stroke="#000000" stroke-width="2.5" d="M557.6,50c4.3-6.3,7.8-38.7,8.1-41.9
			c-2.3,1.9-1,0-1.9-0.7c-1-0.5-0.5-0.4-1.9-2.1c-5.1-2.6-15.6,1.7-20.2,3.9c-3.7,3.1-12.5,5-14.3,4.9c-3.6,2.6-0.7,7.2,0.5,10.4
			c1.7,4.4,5.1,8.8,6.4,10.8c4.8,7.6,10.1,15.1,12.7,18.4C549.6,53.3,554.3,51.7,557.6,50z"/>
		<path id="path9336" fill="#FF007F" stroke="#000000" stroke-width="2.5" d="M558.1,58.7c12.9,8.5,25.1,31.7,26.9,39.6
			c1.4,3.4,0.4,8.3-0.2,8.8c-2.2,0.9-7,1.3-9.4-0.2c-2.3-1.8-8.7-0.9-10.6,2.1c-4.7,3.4-5.3,6.1-5.5,5.8c-3.8-5.4-8.9-46.8-8.5-52.9
			C552.3,60.9,557.4,59,558.1,58.7z"/>
		<path id="path9332" fill="#FF007F" stroke="#000000" stroke-width="2.5" d="M558.1,46.1c-2.9-1.5-11.9,2-12.9,5.7
			c-0.3,2.6,5.4,10.2,7.4,11.8c1.6,1,3.6,0,7.6-3C561.1,56.8,560.1,48.5,558.1,46.1z"/>
		<path id="path9326" fill="#FF007F" stroke="#000000" stroke-width="2.5" d="M370.2,60.1c-0.7,2.5-2,7.3-0.9,11
			c3.8,3.4,7.7,4.2,13.1,4.9c2.4-3.2,3.3-6.1,4.2-10.6c1-4.5,0.4-2.7-0.4-7.2C383.4,56.8,374.3,56.5,370.2,60.1L370.2,60.1z"/>
		
			<linearGradient id="path4114_1_" gradientUnits="userSpaceOnUse" x1="-10.2656" y1="15.249" x2="-10.385" y2="15.249" gradientTransform="matrix(-26.5301 0 0 81.1426 17401.3027 -1153.0909)">
			<stop  offset="0" style="stop-color:#8A8A8A"/>
			<stop  offset="0.2969" style="stop-color:#9F9F9F"/>
			<stop  offset="1" style="stop-color:#6E6E6E"/>
		</linearGradient>
		<path id="path4114" fill="url(#path4114_1_)" d="M497.9,34.1c18.6,17.4,22.3,65-7.4,100.3C531.8,86.3,517.2,52.7,497.9,34.1z"/>
		
			<linearGradient id="path4122_1_" gradientUnits="userSpaceOnUse" x1="-10.6897" y1="24.5241" x2="-10.8091" y2="24.5241" gradientTransform="matrix(-26.5301 0 0 81.1426 17711.0156 -1913.1964)">
			<stop  offset="0" style="stop-color:#8A8A8A"/>
			<stop  offset="0.2969" style="stop-color:#9F9F9F"/>
			<stop  offset="1" style="stop-color:#6E6E6E"/>
		</linearGradient>
		<path id="path4122" fill="url(#path4122_1_)" d="M509.1,26.6c18.6,17.4,22.3,65-7.4,100.3C543.1,78.8,528.4,45.2,509.1,26.6z"/>
		
			<linearGradient id="path4126_1_" gradientUnits="userSpaceOnUse" x1="6.2126" y1="-0.5192" x2="6.0932" y2="-0.5192" gradientTransform="matrix(26.5301 0 0 81.1426 1255.8998 139.0809)">
			<stop  offset="0" style="stop-color:#8A8A8A"/>
			<stop  offset="0.2969" style="stop-color:#9F9F9F"/>
			<stop  offset="1" style="stop-color:#6E6E6E"/>
		</linearGradient>
		<path id="path4126" fill="url(#path4126_1_)" d="M433.8,46.8c-18.6,17.4-22.3,65,7.4,100.3C399.9,99,414.5,65.4,433.8,46.8z"/>
		
			<linearGradient id="path4130_1_" gradientUnits="userSpaceOnUse" x1="5.5153" y1="9.684" x2="5.3959" y2="9.684" gradientTransform="matrix(26.5301 0 0 81.1426 1765.2068 -697.0323)">
			<stop  offset="0" style="stop-color:#8A8A8A"/>
			<stop  offset="0.2969" style="stop-color:#9F9F9F"/>
			<stop  offset="1" style="stop-color:#6E6E6E"/>
		</linearGradient>
		<path id="path4130" fill="url(#path4130_1_)" d="M452.3,38.6c-18.6,17.4-22.3,65,7.4,100.3C418.4,90.8,433,57.2,452.3,38.6z"/>
		
			<linearGradient id="path2302_1_" gradientUnits="userSpaceOnUse" x1="7.6645" y1="9.665903e-002" x2="7.5451" y2="9.665903e-002" gradientTransform="matrix(26.5301 0 0 124.0972 195.4814 113.6548)">
			<stop  offset="0" style="stop-color:#8A8A8A"/>
			<stop  offset="0.2969" style="stop-color:#9F9F9F"/>
			<stop  offset="1" style="stop-color:#6E6E6E"/>
		</linearGradient>
		<path id="path2302" fill="url(#path2302_1_)" d="M395.3,63.6c-18.6,21.6-22.3,80.4,7.4,124.1C361.4,128.2,376,86.6,395.3,63.6z"/>
		
			<linearGradient id="path4066_1_" gradientUnits="userSpaceOnUse" x1="7.7508" y1="1.2912" x2="7.621" y2="1.2912" gradientTransform="matrix(24.4231 0 0 112.0972 464.4189 -14.2905)">
			<stop  offset="0" style="stop-color:#8A8A8A"/>
			<stop  offset="0.2969" style="stop-color:#9F9F9F"/>
			<stop  offset="1" style="stop-color:#6E6E6E"/>
		</linearGradient>
		<path id="path4066" fill="url(#path4066_1_)" d="M404,74.4c-13.1,24.1-18,70.2,10.7,112.1C377.8,140.2,390,98.9,404,74.4z"/>
		
			<linearGradient id="path4070_1_" gradientUnits="userSpaceOnUse" x1="4.5316" y1="-7.5344" x2="4.4518" y2="-7.5344" gradientTransform="matrix(39.7293 0 0 115.5972 1490.2589 1008.9517)">
			<stop  offset="0" style="stop-color:#8A8A8A"/>
			<stop  offset="0.2969" style="stop-color:#9F9F9F"/>
			<stop  offset="1" style="stop-color:#6E6E6E"/>
		</linearGradient>
		<path id="path4070" fill="url(#path4070_1_)" d="M408.3,80.2c-18.3,21.6,1.2,75.7,30.9,115.6C402.9,164.5,388.8,103.5,408.3,80.2z
			"/>
		
			<linearGradient id="path4074_1_" gradientUnits="userSpaceOnUse" x1="9.1985" y1="35.8614" x2="9.0265" y2="35.8614" gradientTransform="matrix(18.4198 0 0 95.3472 753.7548 -3329.3374)">
			<stop  offset="0" style="stop-color:#8A8A8A"/>
			<stop  offset="0.2969" style="stop-color:#9F9F9F"/>
			<stop  offset="1" style="stop-color:#6E6E6E"/>
		</linearGradient>
		<path id="path4074" fill="url(#path4074_1_)" d="M428.5,42.3c-14.6,26.1-16.8,52.2-11.6,95.3C403.3,81.8,411.5,65.5,428.5,42.3z"
			/>
		
			<linearGradient id="path4078_1_" gradientUnits="userSpaceOnUse" x1="11.1336" y1="39.2253" x2="10.8955" y2="39.2253" gradientTransform="matrix(13.3054 0 0 71.8472 864.6629 -2721.8257)">
			<stop  offset="0" style="stop-color:#8A8A8A"/>
			<stop  offset="0.2969" style="stop-color:#9F9F9F"/>
			<stop  offset="1" style="stop-color:#6E6E6E"/>
		</linearGradient>
		<path id="path4078" fill="url(#path4078_1_)" d="M444.7,60.5c-13.1,23.3-11.5,41.9-5.3,71.8C428,104,427.9,84.2,444.7,60.5z"/>
		
			<linearGradient id="path4082_1_" gradientUnits="userSpaceOnUse" x1="7.5707" y1="47.6998" x2="7.3924" y2="47.6998" gradientTransform="matrix(17.7676 0 0 70.8472 1348.0476 -3283.2983)">
			<stop  offset="0" style="stop-color:#8A8A8A"/>
			<stop  offset="0.2969" style="stop-color:#9F9F9F"/>
			<stop  offset="1" style="stop-color:#6E6E6E"/>
		</linearGradient>
		<path id="path4082" fill="url(#path4082_1_)" d="M462.8,60.7C448,84.5,446,102.1,455,131.5C437.1,98,445.5,84.5,462.8,60.7z"/>
		
			<linearGradient id="path4086_1_" gradientUnits="userSpaceOnUse" x1="6.0146" y1="49.779" x2="5.8585" y2="49.779" gradientTransform="matrix(20.3 0 0 66.8472 1932.1797 -3230.5874)">
			<stop  offset="0" style="stop-color:#8A8A8A"/>
			<stop  offset="0.2969" style="stop-color:#9F9F9F"/>
			<stop  offset="1" style="stop-color:#6E6E6E"/>
		</linearGradient>
		<path id="path4086" fill="url(#path4086_1_)" d="M463.5,63.6c-2.1,24.8,5.5,47.4,15.2,66.8C454.9,101.1,455.3,80.8,463.5,63.6z"/>
		
			<linearGradient id="path4090_1_" gradientUnits="userSpaceOnUse" x1="-23.5881" y1="48.9701" x2="-23.8745" y2="48.9701" gradientTransform="matrix(-11.0625 0 0 58.8472 7211.3062 -2783.5562)">
			<stop  offset="0" style="stop-color:#8A8A8A"/>
			<stop  offset="0.2969" style="stop-color:#9F9F9F"/>
			<stop  offset="1" style="stop-color:#6E6E6E"/>
		</linearGradient>
		<path id="path4090" fill="url(#path4090_1_)" d="M479.1,68.8c5.1,21.1,7,32.4,8.3,58.8C493.2,109.8,489.3,76.8,479.1,68.8z"/>
		
			<linearGradient id="path4094_1_" gradientUnits="userSpaceOnUse" x1="-22.8607" y1="52.0327" x2="-23.1181" y2="52.0327" gradientTransform="matrix(-12.3113 0 0 51.5972 8212.4189 -2598.3413)">
			<stop  offset="0" style="stop-color:#8A8A8A"/>
			<stop  offset="0.2969" style="stop-color:#9F9F9F"/>
			<stop  offset="1" style="stop-color:#6E6E6E"/>
		</linearGradient>
		<path id="path4094" fill="url(#path4094_1_)" d="M499.6,60.6c10.3,14.3,6.3,39.4,7.3,51.6C513,78.7,516.3,69.9,499.6,60.6z"/>
		
			<linearGradient id="path4098_1_" gradientUnits="userSpaceOnUse" x1="-18.4409" y1="38.443" x2="-18.6393" y2="38.443" gradientTransform="matrix(-15.9703 0 0 64.8472 10791.6416 -2410.8179)">
			<stop  offset="0" style="stop-color:#8A8A8A"/>
			<stop  offset="0.2969" style="stop-color:#9F9F9F"/>
			<stop  offset="1" style="stop-color:#6E6E6E"/>
		</linearGradient>
		<path id="path4098" fill="url(#path4098_1_)" d="M512.6,49.7c9.6,22.8,7.8,32.2,15.6,64.8C530,83.9,525.4,63.2,512.6,49.7z"/>
		
			<linearGradient id="path4102_1_" gradientUnits="userSpaceOnUse" x1="-25.5234" y1="18.1771" x2="-25.7815" y2="18.1771" gradientTransform="matrix(-12.2787 0 0 94.0973 8583.7207 -1580.6664)">
			<stop  offset="0" style="stop-color:#8A8A8A"/>
			<stop  offset="0.2969" style="stop-color:#9F9F9F"/>
			<stop  offset="1" style="stop-color:#6E6E6E"/>
		</linearGradient>
		<path id="path4102" fill="url(#path4102_1_)" d="M543.4,82.7c1.6,25.1-2,57.9-11.9,94.1C537.6,144,539.7,107.9,543.4,82.7z"/>
		
			<linearGradient id="path4106_1_" gradientUnits="userSpaceOnUse" x1="-15.446" y1="21.4085" x2="-15.5977" y2="21.4085" gradientTransform="matrix(-20.8787 0 0 103.9447 14558.4873 -2127.9551)">
			<stop  offset="0" style="stop-color:#8A8A8A"/>
			<stop  offset="0.2969" style="stop-color:#9F9F9F"/>
			<stop  offset="1" style="stop-color:#6E6E6E"/>
		</linearGradient>
		<path id="path4106" fill="url(#path4106_1_)" d="M540.6,45.4c18.6,21.6,16,60.5,11.1,103.9C570.4,91.6,559.9,68.4,540.6,45.4z"/>
		
			<linearGradient id="path4110_1_" gradientUnits="userSpaceOnUse" x1="-27.0155" y1="15.0924" x2="-27.2824" y2="15.0924" gradientTransform="matrix(-11.8725 0 0 115.4352 8545.4063 -1639.9991)">
			<stop  offset="0" style="stop-color:#8A8A8A"/>
			<stop  offset="0.2969" style="stop-color:#9F9F9F"/>
			<stop  offset="1" style="stop-color:#6E6E6E"/>
		</linearGradient>
		<path id="path4110" fill="url(#path4110_1_)" d="M538.8,44.5c11.1,23.7,5.8,61.3,3.2,115.4C554.7,90.9,553.3,67.2,538.8,44.5z"/>
	</g>
</g>
</svg>
