<?xml version="1.0" encoding="utf-8"?>
<!-- Generator: Adobe Illustrator 18.1.1, SVG Export Plug-In . SVG Version: 6.00 Build 0)  -->
<!DOCTYPE svg PUBLIC "-//W3C//DTD SVG 1.1//EN" "http://www.w3.org/Graphics/SVG/1.1/DTD/svg11.dtd">
<svg version="1.1" id="Vrstva_1" xmlns="http://www.w3.org/2000/svg" xmlns:xlink="http://www.w3.org/1999/xlink" x="0px" y="0px"
	 viewBox="0 0 960 560" enable-background="new 0 0 960 560" xml:space="preserve">
<g id="Vrstva_1_2_">
	<g id="Vrstva_1_1_" display="none">
		<path display="inline" fill="none" stroke="#000000" stroke-miterlimit="10" d="M478.5,12.9"/>
		<rect x="93.8" y="-275.1" display="inline" fill="none" stroke="#0A0000" stroke-miterlimit="10" width="772.4" height="974.5"/>
	</g>
	<g id="base">
		<path fill="#AF8C69" d="M479.1,256.3c52.2-0.2,98-23.5,123.6-58.1l0.2,0.2c33.3,32.8,46.4,72.1,44,123.4
			c-1.7,36.8-13.1,95.1-42.1,141.9c-13.1,21-29.7,39.8-50.5,53l0,0c-5.5-10.3-17-16.7-30.5-17c-20.2-0.5-28.9,10.1-30.9,22.1l0,0
			c-0.8,4.6-0.6,9.3,0.3,13.9c-4.6,0.5-9.3,0.6-14,0.6s-9.5-0.2-14-0.6c0.9-4.6,1.1-9.3,0.3-13.9l0,0c-2.1-12-10.9-22.6-30.9-22.1
			c-13.3,0.2-24.9,6.8-30.5,17l0,0c-20.8-13.3-37.4-32-50.5-53c-29-46.9-40.7-105.1-42.4-141.9c-2.2-51.1,10.9-90.7,44-123.4
			l0.2-0.2C381,233,426.8,256.2,479.1,256.3z"/>
	</g>
	<g id="mirror">
		<g>
			<g>
				<g id="XMLID_13_">
					<g id="fill_x5F_bottom_12_">
						<path fill="#C4731A" d="M434.5,499.5c27.8-0.6,34.1,19.7,30.6,36c-1.6,7.6-5.4,14-9.9,17.4l-12.8-18.8l-12.1,18.8l-12.9-23
							l-9.9,16.4c-4.1-3-7.1-8.7-7.1-15c0-5.4,1.3-10.3,3.6-14.4C409.7,506.3,421.1,499.6,434.5,499.5z"/>
						<path fill="#AF8C69" d="M479.1,499.5v36.6c-4.7,0-9.5-0.2-14-0.6c3.5-16.3-3-36.6-30.6-36c-13.3,0.2-24.8,6.8-30.5,17l0,0
							c-20.8-13.3-37.4-32-50.5-53c-29-46.9-40.7-105.1-42.4-141.9c-2.2-51.1,10.9-90.7,44-123.4l0.2-0.2
							c25.7,34.7,71.5,57.9,123.6,58.1v36.4c0,0-68,5.5-80.3-15.1c-16.6-27.5-40.6-35-62.6-23c-27.6,14.7,1.1,177.8,22.2,193
							c27.6,19.7,42.9-0.8,62.3,21.1C438.6,489.1,455.6,488.8,479.1,499.5z"/>
						<path fill="#42210B" d="M395.5,180.3c38.8,11.5,62.3-14.7,66.9-20.4c-2.2,3.2-3.8,6.8-3.9,10.9c-0.2,14.8,15,30.3,20.7,30.3
							v55.2c-52.2-0.2-98-23.5-123.6-58.1c-4.4-6.2-8.4-12.5-11.4-19.1c-6.6-14-10.3-29.2-10.3-45.3c0-10.4,1.6-20.7,4.6-30.5
							c0.6-2.2,1.3-4.4,2.2-6.5c3-7.3,7.4-15.5,8.5-17.8c0,0,0-0.2,0.2-0.2c0.2-0.2,0.2-0.5,0.2-0.5c-6.8-8.4-27.9-12-27.9-12
							l40.6-5.2l-46.5-20.4c0,0,46.2-5.5,61.4,3.9c9.9,6.3-14.5-32.7-15-33.6l81.7,61.2L428.4,63c-10.3-3.9-20.4-12.6-35.8-5.5
							c-2.2,0.9-4.6,2.2-6.6,3.3C316.5,98.1,353.5,167.8,395.5,180.3z"/>
						<path fill="#C7B299" d="M479.6,32.6L479.1,147c0,0-1.1,0.6-2.8,1.4c0,0-7.7-60.3-44.5-78.6c-1.7-0.8-5.5-7.3-7.3-8l-5-5.7
							l-57.3-44.7l0,0c0,0,45.9-0.9,60.7,1.7C437.6,15.9,479.6,32.6,479.6,32.6z"/>
						<path fill="#EFDECE" d="M395.5,180.3c-42.1-12.5-79.2-82.4-9.6-119.1c2.1-1.3,4.4-2.2,6.6-3.3c15.5-7.1,21.9-0.2,32,3.8
							c1.7,0.8,8.5,4.1,10.1,4.9c36.9,18.3,41.8,81.7,41.8,81.7c-3.5,1.7-9.2,5.5-13.1,10.7c0,0-0.2,0.5-0.8,0.9
							C457.8,165.6,434.5,192,395.5,180.3z M455.6,135.5C455.6,135.5,455.6,135.1,455.6,135.5c1.9-5.5,2.8-11.2,2.8-17.2
							c0-29-22.6-52.5-50.5-52.5s-50.5,23.5-50.5,52.5s22.6,52.5,50.5,52.5C430.1,170.8,448.8,156,455.6,135.5z"/>
						<path fill="#42210B" d="M407.8,86.1c-17,0-30.8,14.4-30.8,32c0,17.8,13.9,32,30.8,32c17,0,30.8-14.4,30.8-32
							C438.7,100.4,424.9,86.1,407.8,86.1z M357.3,118c0-29,20.5-45.4,48.4-45.4S458.4,89,458.4,118c0,6.2-0.9,11.8-2.8,17.2
							c0,0,0,0,0,0.2c-6.8,20.5-25.7,35.3-47.7,35.3C379.9,170.8,357.3,147,357.3,118z"/>
						<path fill="#0F0602" d="M377,118c0-17.8,13.9-32,30.8-32c17,0,30.8,14.4,30.8,32c0,17.8-13.9,32-30.8,32
							C390.9,150.3,377,135.8,377,118z"/>
						<path fill="#42210B" d="M262.2,365.4c-26.4-109,82.1-186.4,82.1-186.4c3.2,6.8,7.1,13.1,11.4,19.1l-0.2,0.2
							c-33.3,32.8-46.4,72.3-44.2,123.4c1.7,36.8,13.1,95.1,42.4,141.9l-1.1,0.8l0,0C350.9,464.5,283.8,454,262.2,365.4z"/>
						<path fill="#FBB03B" d="M479.1,146.8v54.3c-5.7,0-20.8-15.5-20.7-30.3c0-4.1,1.7-7.7,3.9-10.9c0.6-0.6,0.8-0.9,0.8-0.9
							c3.9-5.2,9.9-8.8,13.1-10.7C478.2,147.3,479.1,146.8,479.1,146.8z"/>
						<path fill="#51260E" d="M348.6,79.9c0.2-0.2,0.2-0.5,0.3-0.6c-1.1,2.2-5.5,10.3-8.5,17.8C342.8,91.1,345.5,85.4,348.6,79.9z"
							/>
						<g id="fill_x5F_bottom_15_">
							<path fill="#C4731A" d="M522.5,499.5c-27.8-0.6-34.1,19.7-30.6,36c1.6,7.6,5.4,14,9.9,17.4l12.8-18.8l12.1,18.8l12.9-23
								l9.9,16.4c4.1-3,7.1-8.7,7.1-15c0-5.4-1.3-10.3-3.6-14.4C547.3,506.3,535.9,499.6,522.5,499.5z"/>
							<path fill="#AF8C69" d="M477.9,499.5v36.6c4.7,0,9.5-0.2,14-0.6c-3.5-16.3,3-36.6,30.6-36c13.3,0.2,24.8,6.8,30.5,17l0,0
								c20.8-13.3,37.4-32,50.5-53c29-46.9,40.7-105.1,42.4-141.9c2.2-51.1-10.9-90.7-44-123.4l-0.2-0.2
								c-25.7,34.7-71.5,57.9-123.6,58.1v36.4c0,0,68,5.5,80.3-15.1c16.6-27.5,40.6-35,62.6-23c27.6,14.7-1.1,177.8-22.2,193
								c-27.3,19.7-42.9-0.8-62.3,21.1C518.6,489.1,501.4,488.8,477.9,499.5z"/>
							<path fill="#42210B" d="M561.5,180.3c-38.8,11.5-62.3-14.7-66.9-20.4c2.2,3.2,3.8,6.8,3.9,10.9c0.2,14.8-15,30.3-20.7,30.3
								v55.2c52.2-0.2,98-23.5,123.6-58.1c4.6-6.2,8.4-12.5,11.5-19.1c6.6-14,10.3-29.2,10.3-45.3c0-10.4-1.6-20.7-4.6-30.5
								c-0.6-2.2-1.3-4.4-2.2-6.5c-2.8-7.3-7.4-15.5-8.5-17.8c0,0,0-0.2-0.2-0.2c-0.2-0.2-0.2-0.5-0.2-0.5c6.8-8.4,27.9-12,27.9-12
								l-40.6-5.2L641,40.6c0,0-46.2-5.5-61.4,3.9c-9.9,6.3,14.5-32.7,15-33.6l-68.5,44.2l0.2,0.5c10.3-3.9,22.4-5.4,37.9,1.7
								c2.2,0.9,4.6,2.2,6.6,3.3C640.7,98.1,603.8,167.8,561.5,180.3z"/>
							<path fill="#C7B299" d="M479.6,32.6L478,147c0,0,1.1,0.6,2.8,1.4c0,0,3.9-71.5,40.9-89.9c1.7-0.8,4.9-2.8,4.9-2.8l68.5-44.2
								l0,0c0,0-46.1-1.1-61.1,1.7C519.8,15.9,479.6,32.6,479.6,32.6z"/>
							<path fill="#EFDECE" d="M561.5,180.3c42.1-12.5,79.2-82.4,9.6-119.1c-2.1-1.3-4.4-2.2-6.6-3.3c-15.5-7.1-27.8-5.7-37.9-1.7
								c-1.7,0.8-3.6,1.6-5.2,2.4c-36.9,18.3-40.9,89.9-40.9,89.9c3.5,1.7,9.2,5.5,13.1,10.7c0,0,0.2,0.5,0.8,0.9
								C499.2,165.6,522.8,192,561.5,180.3z M501.5,135.5C501.4,135.5,501.4,135.1,501.5,135.5c-1.9-5.5-2.8-11.2-2.8-17.2
								c0-29,22.6-52.5,50.5-52.5s50.5,23.5,50.5,52.5s-22.6,52.5-50.5,52.5C527.1,170.8,508.3,156,501.5,135.5z"/>
							<path fill="#42210B" d="M549.2,86.2c17,0,30.8,14.4,30.8,32c0,17.8-13.9,32-30.8,32c-17,0-30.8-14.4-30.8-32
								S532.2,86.2,549.2,86.2z M599.7,118.3c0-29-19.9-45.8-47.8-45.8s-53.2,16.7-53.2,45.8c0,6.2,0.9,11.8,2.8,17.2c0,0,0,0,0,0.2
								c6.8,20.5,25.7,35.3,47.7,35.3C577.1,171,599.7,147.3,599.7,118.3z"/>
							<path fill="#0F0602" d="M580,118c0-17.8-13.9-32-30.8-32c-17,0-30.8,14.4-30.8,32c0,17.8,13.9,32,30.8,32
								C566.2,150.3,580,135.8,580,118z"/>
							<path fill="#42210B" d="M694.8,365.4c26.4-109-81.7-186.4-81.7-186.4c-3.2,6.8-7.1,13.1-11.5,19.1l0.2,0.2
								c33.3,32.7,46.5,72.1,44,123.2c-1.7,36.8-13.1,95.1-42.4,141.9l1.1,0.8l0,0C606.5,464.5,673.5,454,694.8,365.4z"/>
							<path fill="#FBB03B" d="M477.9,146.8v54.3c5.7,0,20.8-15.5,20.7-30.3c0-4.1-1.7-7.7-3.9-10.9c-0.6-0.6-0.8-0.9-0.8-0.9
								c-3.9-5.2-9.9-8.8-13.1-10.7C479.1,147.3,477.9,146.8,477.9,146.8z"/>
							<path fill="#51260E" d="M608.4,79.9c-0.2-0.2-0.2-0.5-0.3-0.6c1.1,2.2,5.7,10.3,8.5,17.8C614.4,91.1,611.5,85.4,608.4,79.9z"
								/>
						</g>
						<path fill="#C7B299" d="M595,373.9c-5.5,62.5-53.2,113.6-118.8,113.6s-116-51-118.8-113.6c-4.9-108.6,53.2-101,118.8-101
							S604.4,267.4,595,373.9z"/>
					</g>
					<g id="fill_x5F_top_12_">
						<path display="none" fill="#AF8C69" d="M479.1,499.5v36.6c-4.7,0-9.5-0.2-14-0.6c0.9-4.6,1.1-9.3,0.3-13.9l0,0
							c-2.1-12-10.9-22.6-30.9-22.1c-13.3,0.2-24.9,6.8-30.5,17l0,0c-20.8-13.3-37.4-32-50.5-53c-29-46.9-40.7-105.1-42.4-141.9
							c-2.2-51.1,10.9-90.7,44-123.4l0.2-0.2c25.7,34.7,71.3,57.9,123.6,58.1v243.3L479.1,499.5L479.1,499.5z"/>
						<path fill="#C4731A" d="M479.1,147.3v54c-5.7,0-20.8-15.5-20.7-30.3c0-4.1,1.7-7.7,3.9-10.9c0.6-0.6,0.8-0.9,0.8-0.9
							c3.9-5.2,9.9-8.8,13.1-10.7C477.9,147.3,479.1,147.3,479.1,147.3z"/>
						<path fill="#EFDECE" d="M455.5,135.5C455.5,135.5,455.6,135.1,455.5,135.5c1.9-5.5,2.8-11.2,2.8-17.2
							c0-29-24.8-45.8-52.7-45.8s-48.4,16.7-48.4,45.8c0,1.7,0,3.3,0.2,4.9c2.5,26.7,24.1,47.7,50.3,47.7
							C429.9,170.8,448.7,156,455.5,135.5z M347.5,108c2.7-17,13.9-33.9,38.2-46.9c2.1-1.3,4.4-2.2,6.6-3.3
							c15.5-7.1,40.4,7.9,42.1,8.7c36.9,18.3,41.8,81.7,41.8,81.7c-3.5,1.7-9.2,5.5-13.1,10.7c0,0-0.2,0.5-0.8,0.9
							c-4.6,5.5-27.9,31.9-66.9,20.4C368.1,172.1,342.8,139.7,347.5,108z"/>
						<path fill="#C4731A" d="M464.9,535.5c-1.6,7.6-5.4,14-9.9,17.4l-12.8-18.8l-12.1,18.8l-13.1-23l-9.9,16.4
							c-4.1-3-7.1-8.7-7.1-15c0-3.9,0.8-7.7,2.1-11c0,0,11.5-8.4,19.6-8.4c18.5,0,24.1,11.5,33.6,11.5c5.7,0,9-1.4,9-1.4l0.8-0.2
							l0,0C466.2,526.2,465.9,530.9,464.9,535.5z"/>
						<path fill="#51260E" d="M445.8,121.4c3.9,0.9,10.1,11,9.6,14c0,0,0,0,0,0.2c-6.8,20.5-25.7,35.3-47.7,35.3
							c-26.2,0-47.8-21-50.3-47.7h0.8c0,0,9.9-16.4,12.1-15.9s6.5,12,6.5,12l0,0c0.6,17.2,14.2,31.1,30.8,31.1
							c12.8,0,23.5-8,28.2-19.4l0,0C436.5,130.1,441.9,120.3,445.8,121.4z"/>
						<path fill="#230F07" d="M438.6,120.8c-0.2,3.6-1.1,6.9-2.2,10.1l0,0c-4.7,11.5-15.6,19.4-28.2,19.4
							c-16.7,0-30.1-13.9-30.8-31.1c0-0.5,0-0.8,0-1.3c0,0,9.6-1.6,14.7,12.5c5.2,14.2,27.6,11.2,32.3,4.4
							C429,127.9,434.2,120.8,438.6,120.8z"/>
						<path fill="#51260E" d="M349.1,79.1c0.2-0.2,0.2-0.5,0.2-0.5c-6.8-8.4-27.9-12-27.9-12l40.6-5.2c0,0,4.1,2.8,6.5-2.4
							c4.6-9.5-52.9-18.3-52.9-18.3s46.2-5.5,61.4,3.9c9.9,6.3-14.5-32.7-15-33.6l27.3,17.5l0,0c0.6,0.8,12.1,17,4.7,23.7
							c-4.7,4.4-8.4,8.4-8.4,8.4c-24.3,12.8-35.5,29.8-38.2,46.9c-0.9-0.2-1.7-0.5-2.5-0.8c-3.9-2.2-6.6-3.6-6.8-3.8
							c0.6-2.2,1.3-4.4,2.2-6.5C343.4,89.5,347.7,81.5,349.1,79.1C349.1,79.3,349.1,79.1,349.1,79.1z"/>
						<path fill="#51260E" d="M348.6,79.9c0.2-0.2,0.2-0.5,0.3-0.6c-1.1,2.2-5.5,10.3-8.5,17.8C342.6,91.1,345.5,85.4,348.6,79.9z"
							/>
						<path fill="#51260E" d="M333.7,187.4c0,0,5.4,13.1,0,23.4s-38.2,61.9-36.3,94.4c1.9,32.7-38.8,39.1-38.8,39.1
							C251.4,266.6,309.5,208,333.7,187.4z"/>
						<g id="fill_x5F_top_15_">
							<path display="none" fill="#AF8C69" d="M477.9,499.5v36.6c4.7,0,9.5-0.2,14-0.6c-0.9-4.6-1.1-9.3-0.3-13.9l0,0
								c2.1-12,10.9-22.6,30.9-22.1c13.3,0.2,24.9,6.8,30.5,17l0,0c20.8-13.3,37.4-32,50.5-53c29-46.9,40.7-105.1,42.1-141.9
								c2.2-51.1-10.9-90.7-44-123.4l-0.2-0.2c-25.7,34.7-71.3,57.9-123.6,58.1L477.9,499.5L477.9,499.5z"/>
							<path fill="#C4731A" d="M477.9,147.3v54c5.7,0,20.8-15.5,20.7-30.3c0-4.1-1.7-7.7-3.9-10.9c-0.6-0.6-0.8-0.9-0.8-0.9
								c-3.9-5.2-9.9-8.8-13.1-10.7C479.1,147.3,477.9,147.3,477.9,147.3z"/>
							<path fill="#EFDECE" d="M501.5,135.5C501.5,135.5,501.5,135.1,501.5,135.5c-1.9-5.5-2.8-11.2-2.8-17.2
								c0-29,24-45.8,51.9-45.8s49.2,16.7,49.2,45.8c0,1.7,0,3.3-0.2,4.9c-2.5,26.7-24,47.7-50.3,47.7
								C527.1,170.8,508.3,156,501.5,135.5z M609.5,108c-2.7-17-13.9-33.9-38-46.9c-2.1-1.3-4.4-2.2-6.6-3.3
								c-15.5-7.1-20.2-2.4-30.3,1.6c-1.7,0.8-10.9-1.7-12.6-0.9c-36.9,18.3-40.9,89.9-40.9,89.9c3.5,1.7,9.2,5.5,13.1,10.7
								c0,0,0.2,0.5,0.8,0.9c4.6,5.5,27.9,31.9,66.9,20.4C589.1,172.1,614.4,139.7,609.5,108z"/>
							<path fill="#C4731A" d="M491.9,535.5c1.6,7.6,5.4,14,9.9,17.4l12.8-18.8l12.1,18.8l13.1-23l9.9,16.4c4.1-3,7.1-8.7,7.1-15
								c0-3.9-0.8-7.7-2.1-11c0,0-11.5-8.4-19.6-8.4c-18.5,0-24.1,11.5-33.6,11.5c-5.7,0-9-1.4-9-1.4l-0.8-0.2l0,0
								C490.8,526.2,491,530.9,491.9,535.5z"/>
							<path fill="#51260E" d="M511.2,121.4c-3.9,0.9-10.1,11-9.6,14c0,0,0,0,0,0.2c6.8,20.5,25.7,35.3,47.7,35.3
								c26.4,0,47.8-21,50.3-47.7h-0.8c0,0-9.9-16.4-12.1-15.9c-2.2,0.5-6.5,12-6.5,12l0,0c-0.6,17.2-14.2,31.1-30.8,31.1
								c-12.8,0-23.5-8-28.2-19.4l0,0C520.5,130.1,515.1,120.3,511.2,121.4z"/>
							<path fill="#230F07" d="M518.6,120.8c0.2,3.6,1.1,6.9,2.2,10.1l0,0c4.7,11.5,15.6,19.4,28.2,19.4c16.7,0,30.1-13.9,30.8-31.1
								c0-0.5,0-0.8,0-1.3c0,0-9.6-1.6-14.7,12.5c-5.2,14.2-27.6,11.2-32.3,4.4C528.4,127.9,523,120.8,518.6,120.8z"/>
							<path fill="#51260E" d="M607.9,79.1c-0.2-0.2-0.2-0.5-0.2-0.5c6.8-8.4,27.9-12,27.9-12L595,61.4c0,0-4.1,2.8-6.5-2.4
								c-4.6-9.5,52.9-18.3,52.9-18.3s-46.2-5.5-61.4,3.9c-9.9,6.3,14.5-32.7,15-33.6l-27.3,17.5l0,0c-0.6,0.8-12.1,17-4.7,23.7
								c4.7,4.4,8.4,8.4,8.4,8.4c24.3,12.8,35.5,29.8,38,46.9c0.9-0.2,1.7-0.5,2.5-0.8c3.9-2.2,6.6-3.6,6.8-3.8
								c-0.6-2.2-1.3-4.4-2.2-6.5C613.6,89.5,609.3,81.5,607.9,79.1C608.1,79.3,607.9,79.1,607.9,79.1z"/>
							<path fill="#51260E" d="M608.5,79.9c-0.2-0.2-0.2-0.5-0.3-0.6c1.1,2.2,5.5,10.3,8.5,17.8C614.4,91.1,611.7,85.4,608.5,79.9z"
								/>
							<path fill="#51260E" d="M623.4,187.4c0,0-5.4,13.1,0,23.4s38.2,61.9,36.3,94.4c-1.9,32.7,38.8,39.3,38.8,39.3
								C705.6,266.6,647.7,208,623.4,187.4z"/>
						</g>
					</g>
					<g id="outlines_12_">
						<path fill="none" stroke="#000000" stroke-width="3" stroke-miterlimit="10" d="M349.1,79.1c0.9-1.4,2.1-2.8,3.5-3.9"/>
						<path fill="none" stroke="#000000" stroke-width="3" stroke-miterlimit="10" d="M338.2,103.4c0.6-2.2,1.3-4.4,2.2-6.5"/>
						<ellipse fill="none" stroke="#000000" stroke-width="3" stroke-miterlimit="10" cx="407.8" cy="118" rx="30.8" ry="32"/>
						<path fill="none" stroke="#000000" stroke-width="3" stroke-miterlimit="10" d="M479.1,256.3c-52.2-0.2-98-23.5-123.6-58.1
							c-4.4-6.2-8.4-12.5-11.4-19.1c-6.6-14-10.3-29.2-10.3-45.3c0-10.4,1.6-20.7,4.6-30.5"/>
						<path fill="none" stroke="#0A0000" stroke-width="3" stroke-miterlimit="10" d="M462.7,159.4c3.9-5.2,10.3-9.5,13.6-11.2
							c1.7-0.9,5.4-0.5,5.4-0.5"/>
						<path fill="none" stroke="#0A0000" stroke-width="3" stroke-miterlimit="10" d="M479.1,200.9c-5.7,0-20.8-15.5-20.7-30.3
							c0-4.1,1.7-7.7,3.9-10.9"/>
						<path fill="none" stroke="#000000" stroke-width="3" stroke-miterlimit="10" d="M455.5,135.5c-6.8,20.5-25.7,35.3-47.7,35.3
							c-26.2,0-47.8-21-50.3-47.7c-0.2-1.6-0.2-3.3-0.2-4.9c0-29,18.8-45.8,46.7-45.8s54.3,16.7,54.3,45.8
							C458.3,124.1,457.4,129.9,455.5,135.5"/>
						<path fill="none" stroke="#000000" stroke-width="3" stroke-miterlimit="10" d="M377,119.2c0-0.5,0-0.8,0-1.3
							c0-17.8,13.9-32,30.8-32s30.8,14.4,30.8,32c0,0.9,0,1.7-0.2,2.5c-0.2,3.6-1.1,6.9-2.2,10.1"/>
						<path fill="none" stroke="#000000" stroke-width="3" stroke-miterlimit="10" d="M463,159c0,0-0.2,0.5-0.8,0.9
							c-4.6,5.5-27.9,31.9-66.9,20.4c-27.3-8.2-52.5-40.6-47.8-72.3c2.7-17,13.9-33.9,38.2-46.9c2.1-1.3,4.4-2.2,6.6-3.3
							c15.5-7.1,42.3,9,44,9.8c36.9,18.3,39.8,80.8,39.8,80.8"/>
						<path fill="none" stroke="#000000" stroke-width="3" stroke-miterlimit="10" d="M361.9,11.3c0,0,45.9-0.8,61.1,1.7
							c15.3,2.7,58.9,19.4,58.9,19.4"/>
						<path fill="#AF8C69" d="M479.1,70l2.5,1.6l-2.2,74.8c0,0-1.7,0.9-3.5,1.9c0,0-7.3-24.6-14.2-37.7
							c-14.4-26.8-46.7-54.4-47.8-54.9l-4.1-7.1"/>
						<line fill="none" stroke="#000000" stroke-width="3" stroke-miterlimit="10" x1="389.2" y1="29.1" x2="361.9" y2="11.3"/>
						<path fill="none" stroke="#000000" stroke-width="3" stroke-miterlimit="10" d="M473.9,148.2c0,0-5.8-26.2-12.5-36.6
							c-13.3-20.8-72.3-82.5-72.3-82.5"/>
						<path fill="none" stroke="#000000" stroke-width="3" stroke-miterlimit="10" d="M448.1,75.2"/>
						<path fill="none" stroke="#000000" stroke-width="3" stroke-miterlimit="10" d="M362.5,11.3c0,0,0,0-0.6,0
							c0.6,0.9,24.9,39.9,15,33.6c-15-9.5-61.4-3.9-61.4-3.9l46.2,20.5l-40.6,5.2c0,0,21.1,3.8,27.9,12c0,0,0,0.2-0.2,0.5
							c0,0,0,0.2-0.2,0.2c-1.1,2.2-5.5,10.3-8.5,17.8c-0.9,2.4-1.7,4.6-2.2,6.5"/>
						<path fill="none" stroke="#000000" stroke-width="3" stroke-miterlimit="10" d="M404,516.5c-20.8-13.3-37.4-32-50.5-53
							c-29-46.9-40.7-105.1-42.4-141.9c-2.2-51.1,10.9-90.7,44-123.4"/>
						<path fill="none" stroke="#000000" stroke-width="3" stroke-miterlimit="10" d="M479.1,535.8c-4.7,0-9.5-0.2-14-0.6
							c-0.2,0-0.3,0-0.3,0"/>
						<path fill="none" stroke="#000000" stroke-width="3" stroke-miterlimit="10" d="M352.3,464.5h-0.2"/>
						<path fill="none" stroke="#000000" stroke-width="3" stroke-miterlimit="10" d="M343.9,179c0,0-3.9,2.8-10.3,8.4
							c-24.1,20.7-82.2,79.2-75.1,156.8c0.6,6.9,1.7,13.9,3.6,21.1c21.5,88.7,88.5,98.9,90.1,98.9l0,0"/>
						<path fill="none" stroke="#000000" stroke-width="3" stroke-miterlimit="10" d="M464.9,535.5c-1.6,7.6-5.4,14-9.9,17.4
							l-12.8-18.8l-12.1,18.8l-13.1-23l-9.9,16.4c-4.1-3-7.1-8.7-7.1-15c0-3.9,0.8-7.7,2.1-11c0.3-1.3,0.9-2.2,1.6-3.3
							c5.5-10.3,17-16.7,30.5-17c20.2-0.5,28.9,10.1,30.9,22.1l0,0C466.2,526.2,465.9,530.9,464.9,535.5z"/>
						<polyline fill="none" stroke="#000000" stroke-width="3" stroke-miterlimit="10" points="344.2,277.8 358.9,300.2 374,277.8 
													"/>
						<polyline fill="none" stroke="#000000" stroke-width="3" stroke-miterlimit="10" points="374.5,333.2 387.6,355.4 
							400.4,335.1 						"/>
						<polyline fill="none" stroke="#000000" stroke-width="3" stroke-miterlimit="10" points="425.8,303.5 438.9,325.9 
							455.6,303.5 						"/>
						<polyline fill="none" stroke="#000000" stroke-width="3" stroke-miterlimit="10" points="437.3,388.4 452.2,414 467.1,388.4 
													"/>
						<polyline fill="none" stroke="#000000" stroke-width="3" stroke-miterlimit="10" points="358.9,418.1 372.5,440.5 
							389.2,418.1 						"/>
						<polyline fill="none" stroke="#000000" stroke-width="3" stroke-miterlimit="10" points="425.8,457.7 438.9,479.9 
							455.6,457.7 						"/>
						<path fill="none" stroke="#000000" stroke-width="3" stroke-miterlimit="10" d="M389.2,29.1L389.2,29.1"/>
						<g id="outlines_15_">
							<path fill="none" stroke="#000000" stroke-width="3" stroke-miterlimit="10" d="M607.9,79.1c-0.9-1.4-2.1-2.8-3.5-3.9"/>
							<path fill="none" stroke="#000000" stroke-width="3" stroke-miterlimit="10" d="M618.8,103.4c-0.6-2.2-1.3-4.4-2.2-6.5"/>
							<ellipse fill="none" stroke="#000000" stroke-width="3" stroke-miterlimit="10" cx="549.2" cy="118" rx="30.8" ry="32"/>
							<path fill="none" stroke="#000000" stroke-width="3" stroke-miterlimit="10" d="M477.9,256.3c52.2-0.2,98-23.5,123.6-58.1
								c4.6-6.2,8.4-12.5,11.5-19.1c6.6-14,10.3-29.2,10.3-45.3c0-10.4-1.6-20.7-4.6-30.5"/>
							<path fill="none" stroke="#0A0000" stroke-width="3" stroke-miterlimit="10" d="M494.6,159.9c-3.9-5.2-10.6-9.9-13.9-11.7
								c-1.7-0.9-2.8-1.4-2.8-1.4"/>
							<path fill="none" stroke="#0A0000" stroke-width="3" stroke-miterlimit="10" d="M477.9,200.9c5.7,0,20.8-15.5,20.7-30.3
								c0-4.1-1.7-7.7-3.9-10.9"/>
							<path fill="none" stroke="#000000" stroke-width="3" stroke-miterlimit="10" d="M501.5,135.5c6.8,20.5,25.7,35.3,47.7,35.3
								c26.4,0,47.8-21,50.3-47.7c0.2-1.6,0.2-3.3,0.2-4.9c0-29-18.8-45.8-46.7-45.8s-54.3,16.7-54.3,45.8
								C498.7,124.1,499.6,129.9,501.5,135.5"/>
							<path fill="none" stroke="#000000" stroke-width="3" stroke-miterlimit="10" d="M580.1,119.2c0-0.5,0-0.8,0-1.3
								c0-17.8-13.9-32-30.8-32s-30.8,14.4-30.8,32c0,0.9,0,1.7,0.2,2.5c0.2,3.6,1.1,6.9,2.2,10.1"/>
							<path fill="none" stroke="#000000" stroke-width="3" stroke-miterlimit="10" d="M494,159c0,0,0.2,0.5,0.8,0.9
								c4.6,5.5,27.9,31.9,66.9,20.4c27.3-8.2,52.5-40.6,47.8-72.3c-2.7-17-13.9-33.9-38-46.9c-2.1-1.3-4.4-2.2-6.6-3.3
								c-15.5-7.1-27.8-5.7-37.9-1.7c-1.7,0.8-3.5,1.6-5.2,2.4c-37,18.3-40.9,89.9-40.9,89.9"/>
							<path fill="none" stroke="#000000" stroke-width="3" stroke-miterlimit="10" d="M595.1,11.3c0,0-45.9-0.9-60.7,1.7
								c-14.4,2.7-54.8,19.4-54.8,19.4"/>
							<path fill="#AF8C69" d="M477.6,69.8l0.3,77c0,0,1.1,0.5,2.8,1.4c0,0-4.6-21.8,19.6-38.5c1.7-0.8,46.2-43.9,46.2-43.9
								l48.3-54.6C593.5,11.6,480.4,72.2,477.6,69.8z"/>
							<path fill="none" stroke="#000000" stroke-width="3" stroke-miterlimit="10" d="M479.6,149.4c0,0,4.7-21.9,8.7-28.2
								c9.9-15.9,54.8-51.3,54.8-51.3L595,11.2"/>
							<path fill="none" stroke="#000000" stroke-width="3" stroke-miterlimit="10" d="M531.2,52.8"/>
							<path fill="none" stroke="#000000" stroke-width="3" stroke-miterlimit="10" d="M594.6,11.3c0,0,0,0,0.6,0
								c-0.6,0.9-24.9,39.9-15,33.6c15-9.5,61.4-3.9,61.4-3.9l-46.2,20.5l40.6,5.2c0,0-21.1,3.8-27.9,12c0,0,0,0.2,0.2,0.5
								c0,0,0,0.2,0.2,0.2c1.1,2.2,5.5,10.3,8.5,17.8c0.9,2.4,1.7,4.6,2.2,6.5"/>
							<path fill="none" stroke="#000000" stroke-width="3" stroke-miterlimit="10" d="M553,516.5c20.8-13.3,37.4-32,50.5-53
								c29-46.9,40.7-105.1,42.1-141.9c2.2-51.1-10.9-90.7-44-123.4"/>
							<path fill="none" stroke="#000000" stroke-width="3" stroke-miterlimit="10" d="M477.9,535.8c4.7,0,9.5-0.2,14-0.6
								c0.2,0,0.3,0,0.3,0"/>
							<path fill="none" stroke="#000000" stroke-width="3" stroke-miterlimit="10" d="M604.7,464.5h0.2"/>
							<path fill="none" stroke="#000000" stroke-width="3" stroke-miterlimit="10" d="M613.1,179c0,0,3.9,2.8,10.3,8.4
								c24.1,20.7,82.2,79.4,75.1,156.8c-0.6,6.9-1.7,13.9-3.5,21.1c-21.5,88.7-88.5,98.9-90.1,98.9l0,0"/>
							<path fill="none" stroke="#000000" stroke-width="3" stroke-miterlimit="10" d="M491.9,535.5c1.6,7.6,5.4,14,9.9,17.4
								l12.8-18.8l12.1,18.8l13.1-23l9.9,16.4c4.1-3,7.1-8.7,7.1-15c0-3.9-0.8-7.7-2.1-11c-0.3-1.3-0.9-2.2-1.6-3.3
								c-5.5-10.3-17-16.7-30.5-17c-20.2-0.5-28.9,10.1-30.9,22.1l0,0C490.8,526.2,491,530.9,491.9,535.5z"/>
							<polyline fill="none" stroke="#000000" stroke-width="3" stroke-miterlimit="10" points="612.8,277.8 598.1,300.2 
								583.3,277.8 							"/>
							<polyline fill="none" stroke="#000000" stroke-width="3" stroke-miterlimit="10" points="582.5,333.2 569.6,355.4 
								556.6,335.1 							"/>
							<polyline fill="none" stroke="#000000" stroke-width="3" stroke-miterlimit="10" points="531.2,303.5 518.3,325.9 
								501.5,303.5 							"/>
							<polyline fill="none" stroke="#000000" stroke-width="3" stroke-miterlimit="10" points="519.7,388.4 504.9,414 490,388.4 
															"/>
							<polyline fill="none" stroke="#000000" stroke-width="3" stroke-miterlimit="10" points="598.1,418.1 584.7,440.5 568,418.1 
															"/>
							<polyline fill="none" stroke="#000000" stroke-width="3" stroke-miterlimit="10" points="531.2,457.7 518.3,479.9 
								501.5,457.7 							"/>
						</g>
					</g>
				</g>
			</g>
		</g>
	</g>
	<g id="top">
		<g id="eye_lens">
			<path id="eye_lens_2" fill="#FFFFFF" d="M393.8,94.3c4.3,3.3,3.9,15-2.1,21.3c-6.2,6.5-12.1,8.5-16.6,5.5
				c-4.3-3.3-5.5-9.9,1.6-19.1C382.3,94.6,389.5,91,393.8,94.3z"/>
			<path id="eye_lens_1" fill="#FFFFFF" d="M388.2,126.6c1.6,1.7,0.2,6.2-1.7,7.9c-1.9,1.7-4.7,1.7-6.3,0s-1.1-4.7,0.8-6.5
				C383,126.3,386.8,124.9,388.2,126.6z"/>
		</g>
		<g id="eye_lens_1_">
			<path id="eye_lens_2_1_" fill="#FFFFFF" d="M533.1,92.7c4.7,2.7,6,14.2,1.1,21.3c-5.2,7.3-10.7,10.3-15.5,7.9
				c-4.7-2.4-6.9-9-1.3-19.3C521.7,94.8,528.5,90,533.1,92.7z"/>
			<path id="eye_lens_1_1_" fill="#FFFFFF" d="M529,126.6c1.6,1.7,0.2,6.2-1.7,7.9s-4.7,1.7-6.3,0s-1.1-4.7,0.8-6.5
				C523.6,126.3,527.4,124.9,529,126.6z"/>
		</g>
	</g>
</g>
<g id="Vrstva_2">
	<g>
		<g id="g4808">
			<path id="path2830" stroke="#000000" d="M562.9,73.9c-23.7,0.2-46.4,7.6-69.4,10.4c-9.6,1.3-19.6,1.6-29.3,0.3
				c-12.9-1.6-25.4-5.5-38.2-7.4c-11.5-1.6-23.2-3.3-34.7-3.3c-20.2-0.2-39.8,6.2-59.6,9.6c0,5.8-1.1,13.3,1.7,17.4
				c3,4.3,8.2,8,9.6,13.7c3.2,13.6,7.7,26.8,13.4,39.4c2.8,6.2,8,10.4,14,13.4c14.2,7.1,31.1,8.2,46.5,6
				c22.2-3.2,34.2-19.9,43.4-38.8c3.5-7.7,3.8-16.7,8.4-23.7c2.7-4.3,9-2.4,13.4-2.5c6.6,0,8.2,7.4,9.6,12.3
				c4.9,17.5,13.1,36,29.3,45.1c24.3,13.7,62.5,11,78.3-13.6c6.2-9.6,7.9-21.3,10.9-32.3c1.9-6.6,3.6-14.5,10.3-18.3
				c2.7-1.4,0.8-7.4,1.3-10.7c0.5-3.8,1.3-7.1-4.1-7.7c-9.3-1.3-18.3-5.2-27.8-6.5C580.9,75.7,572,73.9,562.9,73.9z M407,80.2
				c6.6,0,13.4,0.5,19.9,1.9c38.8,8.2,39.6,24.1,23.7,57.3c-12.9,27-39.9,33.6-67.1,27.1c-12.5-3-21.1-11.7-25.1-23.7
				c-4.3-12.6-7.4-26-6.8-39.3c0.9-17.8,21.1-20.4,35.5-21.9C393.4,80.9,400.2,80.2,407,80.2z M548.5,80.2c6.6,0,13.4,0.6,20,1.4
				c14.4,1.6,34.6,4.1,35.5,21.9c0.8,13.3-2.5,26.7-6.8,39.3c-4.1,12-12.6,20.7-25.1,23.7C545,173,518,166.2,505,139.4
				c-15.9-33-15.1-49.1,23.7-57.3C535.1,80.7,541.9,80.1,548.5,80.2z"/>
			<path id="path2832" opacity="0.85" stroke="#000000" enable-background="new    " d="M386.9,81.5c13.3-1.4,26.8-2.4,39.9,0.5
				c38.8,8.2,39.6,24.1,23.7,57.3c-12.9,27-39.9,33.6-67.1,27.3c-12.5-3-21.1-11.7-25.1-23.7c-4.3-12.6-7.6-26-6.8-39.3
				C352.4,85.6,372.4,83.2,386.9,81.5L386.9,81.5z"/>
			<path id="path2832-1" opacity="0.85" stroke="#000000" enable-background="new    " d="M568.6,81.5c-13.3-1.4-26.8-2.4-39.9,0.5
				c-38.8,8.2-39.6,24.1-23.7,57.3c12.9,27,39.9,33.6,67.1,27.3c12.5-3,21.1-11.7,25.1-23.7c4.3-12.6,7.6-26,6.8-39.3
				C603.1,85.6,582.9,83.2,568.6,81.5L568.6,81.5z"/>
		</g>
		<title>Layer 1</title>
	</g>
</g>
</svg>
