<?xml version="1.0" encoding="utf-8"?>
<!-- Generator: Adobe Illustrator 18.1.1, SVG Export Plug-In . SVG Version: 6.00 Build 0)  -->
<!DOCTYPE svg PUBLIC "-//W3C//DTD SVG 1.1//EN" "http://www.w3.org/Graphics/SVG/1.1/DTD/svg11.dtd">
<svg version="1.1" id="Vrstva_1" xmlns="http://www.w3.org/2000/svg" xmlns:xlink="http://www.w3.org/1999/xlink" x="0px" y="0px"
	 viewBox="0 0 960 560" enable-background="new 0 0 960 560" xml:space="preserve">
<g id="Vrstva_1_2_">
	<g id="Vrstva_1_1_" display="none">
		<path display="inline" fill="none" stroke="#000000" stroke-miterlimit="10" d="M478.6,58.6"/>
		<rect x="123.1" y="-207.6" display="inline" fill="none" stroke="#0A0000" stroke-miterlimit="10" width="713.8" height="900.5"/>
	</g>
	<g id="base">
		<path fill="#AF8C69" d="M479.2,283.5c48.2-0.2,90.6-21.7,114.2-53.7l0.2,0.2c30.8,30.3,42.9,66.6,40.7,114
			c-1.6,34-12.1,87.9-38.9,131.1c-12.1,19.4-27.4,36.8-46.7,49l0,0c-5.1-9.5-15.7-15.4-28.2-15.7c-18.7-0.5-26.7,9.3-28.6,20.4l0,0
			c-0.7,4.3-0.6,8.6,0.3,12.8c-4.3,0.5-8.6,0.6-12.9,0.6c-4.3,0-8.8-0.2-12.9-0.6c0.8-4.3,1-8.6,0.3-12.8l0,0
			c-1.9-11.1-10.1-20.9-28.6-20.4c-12.3,0.2-23,6.3-28.2,15.7l0,0c-19.2-12.3-34.6-29.6-46.7-49C336.4,431.8,325.6,378,324,344
			c-2-47.2,10.1-83.8,40.7-114l0.2-0.2C388.5,262,430.8,283.4,479.2,283.5z"/>
	</g>
	<g id="mirror">
		<g>
			<g>
				<g id="XMLID_13_">
					<g id="fill_x5F_bottom_12_">
						<path fill="#C4731A" d="M438,508.3c25.7-0.6,31.5,18.2,28.3,33.3c-1.5,7-5,12.9-9.1,16.1l-11.8-17.4l-11.2,17.4l-11.9-21.3
							l-9.1,15.2c-3.8-2.8-6.6-8-6.6-13.9c0-5,1.2-9.5,3.3-13.3C415,514.5,425.6,508.3,438,508.3z"/>
						<path fill="#AF8C69" d="M479.2,508.3v33.8c-4.3,0-8.8-0.2-12.9-0.6c3.2-15.1-2.8-33.8-28.3-33.3c-12.3,0.2-22.9,6.3-28.2,15.7
							l0,0c-19.2-12.3-34.6-29.6-46.7-49c-26.8-43.3-37.6-97.1-39.2-131.1c-2-47.2,10.1-83.8,40.7-114l0.2-0.2
							c23.7,32.1,66.1,53.5,114.2,53.7V317c0,0-62.8,5.1-74.2-14c-15.3-25.4-37.5-32.3-57.8-21.3c-25.5,13.6,1,164.3,20.5,178.3
							c25.5,18.2,39.6-0.7,57.6,19.5C441.7,498.6,457.5,498.4,479.2,508.3z"/>
						<path fill="#42210B" d="M401.9,213.3c35.9,10.6,57.6-13.6,61.8-18.9c-2,3-3.5,6.3-3.6,10.1c-0.2,13.7,13.9,28,19.1,28v51
							c-48.2-0.2-90.6-21.7-114.2-53.7c-4.1-5.7-7.8-11.6-10.5-17.7c-6.1-12.9-9.5-27-9.5-41.9c0-9.6,1.5-19.1,4.3-28.2
							c0.6-2,1.2-4.1,2-6c2.8-6.7,6.8-14.3,7.9-16.4c0,0,0-0.2,0.2-0.2c0.2-0.2,0.2-0.5,0.2-0.5c-6.3-7.8-25.8-11.1-25.8-11.1
							l37.5-4.8l-43-18.9c0,0,42.7-5.1,56.7,3.6c9.1,5.8-13.4-30.2-13.9-31l63.3,40.8l-0.2,0.5c-9.5-3.6-20.7-5-35,1.6
							c-2,0.8-4.3,2-6.1,3C328.9,137.3,363.1,201.7,401.9,213.3z"/>
						<path fill="#C7B299" d="M479.2,60.4v121.9c0,0-1,0.6-2.6,1.3c0,0-3.6-66.1-37.8-83.1c-1.6-0.7-3.2-1.5-4.8-2.2l0.2-0.5
							l-63.3-40.8l0,0l56.1,1.6L479.2,60.4z"/>
						<path fill="#EFDECE" d="M401.9,213.3c-38.9-11.6-73.2-76.1-8.9-110.1c1.9-1.2,4.1-2,6.1-3c14.3-6.6,25.7-5.3,35-1.6
							c1.6,0.7,3.3,1.5,4.8,2.2c34.1,16.9,37.8,83.1,37.8,83.1c-3.2,1.6-8.5,5.1-12.1,9.9c0,0-0.2,0.5-0.7,0.8
							C459.5,199.7,438,224.1,401.9,213.3z M457.5,171.9C457.5,171.9,457.5,171.5,457.5,171.9c1.8-5.1,2.6-10.3,2.6-15.9
							c0-26.8-20.9-48.5-46.7-48.5s-46.7,21.7-46.7,48.5s20.9,48.5,46.7,48.5C433.9,204.5,451.2,190.8,457.5,171.9z"/>
						<path fill="#42210B" d="M413.3,126.2c-15.7,0-28.5,13.3-28.5,29.6c0,16.4,12.8,29.6,28.5,29.6c15.7,0,28.5-13.3,28.5-29.6
							C441.8,139.4,429.1,126.2,413.3,126.2z M366.6,155.7c0-26.8,20.9-48.5,46.7-48.5s46.7,21.7,46.7,48.5c0,5.7-0.8,10.9-2.6,15.9
							c0,0,0,0,0,0.2c-6.3,18.9-23.7,32.6-44.1,32.6C387.5,204.5,366.6,182.5,366.6,155.7z"/>
						<path fill="#0F0602" d="M384.8,155.7c0-16.4,12.8-29.6,28.5-29.6c15.7,0,28.5,13.3,28.5,29.6c0,16.4-12.8,29.6-28.5,29.6
							C397.7,185.6,384.8,172.2,384.8,155.7z"/>
						<path fill="#42210B" d="M278.7,384.3c-24.4-100.7,75.9-172.3,75.9-172.3c3,6.3,6.6,12.1,10.5,17.7l-0.2,0.2
							c-30.8,30.3-42.9,66.8-40.8,114c1.6,34,12.1,87.9,39.2,131.1l-1,0.7l0,0C360.7,475.9,298.7,466.2,278.7,384.3z"/>
						<path fill="#FBB03B" d="M479.2,182.3v50.2c-5.3,0-19.2-14.3-19.1-28c0-3.8,1.6-7.1,3.6-10.1c0.6-0.6,0.7-0.8,0.7-0.8
							c3.6-4.8,9.1-8.1,12.1-9.9C478.3,182.8,479.2,182.3,479.2,182.3z"/>
						<path fill="#51260E" d="M358.6,120.5c0.2-0.2,0.2-0.5,0.3-0.6c-1,2-5.1,9.5-7.9,16.4C353.2,130.9,355.7,125.6,358.6,120.5z"/>
						<g id="fill_x5F_bottom_15_">
							<path fill="#C4731A" d="M519.3,508.3c-25.7-0.6-31.5,18.2-28.3,33.3c1.5,7,5,12.9,9.1,16.1l11.8-17.4l11.2,17.4l11.9-21.3
								l9.1,15.2c3.8-2.8,6.6-8,6.6-13.9c0-5-1.2-9.5-3.3-13.3C542.2,514.5,531.7,508.3,519.3,508.3z"/>
							<path fill="#AF8C69" d="M478.1,508.3v33.8c4.3,0,8.8-0.2,12.9-0.6c-3.2-15.1,2.8-33.8,28.3-33.3c12.3,0.2,22.9,6.3,28.2,15.7
								l0,0c19.2-12.3,34.6-29.6,46.7-49c26.8-43.3,37.6-97.1,39.2-131.1c2-47.2-10.1-83.8-40.7-114l-0.2-0.2
								c-23.7,32.1-66.1,53.5-114.2,53.7V317c0,0,62.8,5.1,74.2-14c15.3-25.4,37.5-32.3,57.8-21.3c25.5,13.6-1,164.3-20.5,178.3
								c-25.2,18.2-39.6-0.7-57.6,19.5C515.7,498.6,499.8,498.4,478.1,508.3z"/>
							<path fill="#42210B" d="M555.3,213.3c-35.9,10.6-57.6-13.6-61.8-18.9c2,3,3.5,6.3,3.6,10.1c0.2,13.7-13.9,28-19.1,28v51
								c48.2-0.2,90.6-21.7,114.2-53.7c4.3-5.7,7.8-11.6,10.6-17.7c6.1-12.9,9.5-27,9.5-41.9c0-9.6-1.5-19.1-4.3-28.2
								c-0.6-2-1.2-4.1-2-6c-2.6-6.7-6.8-14.3-7.9-16.4c0,0,0-0.2-0.2-0.2c-0.2-0.2-0.2-0.5-0.2-0.5c6.3-7.8,25.8-11.1,25.8-11.1
								l-37.5-4.8l42.7-18.9c0,0-42.7-5.1-56.7,3.6c-9.1,5.8,13.4-30.2,13.9-31l-63.3,40.8l0.2,0.5c9.5-3.6,20.7-5,35,1.6
								c2,0.8,4.3,2,6.1,3C628.5,137.3,594.4,201.7,555.3,213.3z"/>
							<path fill="#C7B299" d="M474.4,60.4l3.6,121.9c0,0,1,0.6,2.6,1.3c0,0,3.6-66.1,37.8-83.1c1.6-0.7,3.2-1.5,4.8-2.2l-0.2-0.5
								L586.3,57l0,0l-56.5,1.6L474.4,60.4z"/>
							<path fill="#EFDECE" d="M555.3,213.3c38.9-11.6,73.2-76.1,8.9-110.1c-1.9-1.2-4.1-2-6.1-3c-14.3-6.6-25.7-5.3-35-1.6
								c-1.6,0.7-3.3,1.5-4.8,2.2c-34.1,16.9-37.8,83.1-37.8,83.1c3.2,1.6,8.5,5.1,12.1,9.9c0,0,0.2,0.5,0.7,0.8
								C497.7,199.7,519.6,224.1,555.3,213.3z M499.9,171.9C499.8,171.9,499.8,171.5,499.9,171.9c-1.8-5.1-2.6-10.3-2.6-15.9
								c0-26.8,20.9-48.5,46.7-48.5s46.7,21.7,46.7,48.5s-20.9,48.5-46.7,48.5C523.5,204.5,506.2,190.8,499.9,171.9z"/>
							<path fill="#42210B" d="M543.9,126.2c15.7,0,28.5,13.3,28.5,29.6c0,16.4-12.8,29.6-28.5,29.6c-15.7,0-28.5-13.3-28.5-29.6
								S528.2,126.2,543.9,126.2z M590.6,155.7c0-26.8-20.9-48.5-46.7-48.5s-46.7,21.7-46.7,48.5c0,5.7,0.8,10.9,2.6,15.9
								c0,0,0,0,0,0.2c6.3,18.9,23.7,32.6,44.1,32.6C569.7,204.5,590.6,182.5,590.6,155.7z"/>
							<path fill="#0F0602" d="M572.4,155.7c0-16.4-12.8-29.6-28.5-29.6c-15.7,0-28.5,13.3-28.5,29.6c0,16.4,12.8,29.6,28.5,29.6
								C559.7,185.6,572.4,172.2,572.4,155.7z"/>
							<path fill="#42210B" d="M678.5,384.3C702.9,283.6,603,212.1,603,212.1c-3,6.3-6.6,12.1-10.6,17.7l0.2,0.2
								c30.8,30.2,43,66.6,40.7,113.8c-1.6,34-12.1,87.9-39.2,131.1l1,0.7l0,0C596.9,475.9,658.8,466.2,678.5,384.3z"/>
							<path fill="#FBB03B" d="M478.1,182.3v50.2c5.3,0,19.2-14.3,19.1-28c0-3.8-1.6-7.1-3.6-10.1c-0.6-0.6-0.7-0.8-0.7-0.8
								c-3.6-4.8-9.1-8.1-12.1-9.9C479.2,182.8,478.1,182.3,478.1,182.3z"/>
							<path fill="#51260E" d="M598.7,120.5c-0.2-0.2-0.2-0.5-0.3-0.6c1,2,5.3,9.5,7.9,16.4C604.2,130.9,601.5,125.6,598.7,120.5z"
								/>
						</g>
						<path fill="#C7B299" d="M586.3,392.2c-5.1,57.8-49.2,105-109.8,105s-107.2-47.1-109.8-105c-4.5-100.4,49.2-93.3,109.8-93.3
							S595,293.8,586.3,392.2z"/>
					</g>
					<g id="fill_x5F_top_12_">
						<path display="none" fill="#AF8C69" d="M479.2,508.3v33.8c-4.3,0-8.8-0.2-12.9-0.6c0.8-4.3,1-8.6,0.3-12.8l0,0
							c-1.9-11.1-10.1-20.9-28.6-20.4c-12.3,0.2-23,6.3-28.2,15.7l0,0c-19.2-12.3-34.6-29.6-46.7-49
							c-26.8-43.3-37.6-97.1-39.2-131.1c-2-47.2,10.1-83.8,40.7-114l0.2-0.2c23.7,32.1,65.9,53.5,114.2,53.7v224.8L479.2,508.3
							L479.2,508.3z"/>
						<path fill="#C4731A" d="M479.2,182.8v49.9c-5.3,0-19.2-14.3-19.1-28c0-3.8,1.6-7.1,3.6-10.1c0.6-0.6,0.7-0.8,0.7-0.8
							c3.6-4.8,9.1-8.1,12.1-9.9C478.1,182.8,479.2,182.8,479.2,182.8z"/>
						<path fill="#AF8C69" d="M479.2,111.4l2.3,1.5l-2,69.1c0,0-1.6,0.8-3.2,1.8c0,0-3.6-63.3-37.8-80.3c-1.6-0.7-3.2-1.5-4.8-2.2
							l0.2-0.5l-4.1-2.6"/>
						<path fill="#EFDECE" d="M457.4,171.9C457.4,171.9,457.5,171.5,457.4,171.9c1.8-5.1,2.6-10.3,2.6-15.9
							c0-26.8-20.9-48.5-46.7-48.5s-46.7,21.7-46.7,48.5c0,1.6,0,3,0.2,4.5c2.3,24.7,22.3,44.1,46.5,44.1
							C433.7,204.5,451.1,190.8,457.4,171.9z M357.6,146.5c2.5-15.7,12.8-31.3,35.3-43.3c1.9-1.2,4.1-2,6.1-3
							c14.3-6.6,25.7-5.3,35-1.6c1.6,0.7,3.2,1.5,4.8,2.2c34.1,16.9,37.8,83.1,37.8,83.1c-3.2,1.6-8.5,5.1-12.1,9.9
							c0,0-0.2,0.5-0.7,0.8c-4.3,5.1-25.8,29.5-61.8,18.9C376.6,205.7,353.2,175.8,357.6,146.5z"/>
						<path fill="#C4731A" d="M466,541.5c-1.5,7-5,12.9-9.1,16.1l-11.8-17.4l-11.2,17.4l-12.1-21.3l-9.1,15.2
							c-3.8-2.8-6.6-8-6.6-13.9c0-3.6,0.7-7.1,1.9-10.2c0,0,10.6-7.8,18.1-7.8c17.1,0,22.3,10.6,31,10.6c5.3,0,8.3-1.3,8.3-1.3
							l0.7-0.2l0,0C467.2,532.9,467,537.3,466,541.5z"/>
						<path fill="#51260E" d="M448.4,158.9c3.6,0.8,9.3,10.2,8.9,12.9c0,0,0,0,0,0.2c-6.3,18.9-23.7,32.6-44.1,32.6
							c-24.2,0-44.2-19.4-46.5-44.1h0.7c0,0,9.1-15.2,11.2-14.7c2,0.5,6,11.1,6,11.1l0,0c0.6,15.9,13.1,28.7,28.5,28.7
							c11.8,0,21.7-7.4,26.1-17.9l0,0C439.8,166.9,444.8,157.8,448.4,158.9z"/>
						<path fill="#230F07" d="M441.7,158.3c-0.2,3.3-1,6.4-2,9.3l0,0c-4.3,10.6-14.4,17.9-26.1,17.9c-15.4,0-27.8-12.8-28.5-28.7
							c0-0.5,0-0.7,0-1.2c0,0,8.9-1.5,13.6,11.6c4.8,13.1,25.5,10.3,29.8,4.1C432.9,164.9,437.7,158.3,441.7,158.3z"/>
						<path fill="#51260E" d="M359,119.8c0.2-0.2,0.2-0.5,0.2-0.5c-6.3-7.8-25.8-11.1-25.8-11.1l37.5-4.8c0,0,3.8,2.6,6-2.2
							c4.3-8.8-48.9-16.9-48.9-16.9s42.7-5.1,56.7,3.6c9.1,5.8-13.4-30.2-13.9-31L396.2,73l0,0c0.6,0.7,11.2,15.7,4.3,21.9
							c-4.3,4.1-7.8,7.8-7.8,7.8c-22.5,11.8-32.8,27.5-35.3,43.3c-0.8-0.2-1.6-0.5-2.3-0.7c-3.6-2-6.1-3.3-6.3-3.5
							c0.6-2,1.2-4.1,2-6C353.8,129.4,357.7,122,359,119.8C359,119.9,359,119.8,359,119.8z"/>
						<path fill="#51260E" d="M358.6,120.5c0.2-0.2,0.2-0.5,0.3-0.6c-1,2-5.1,9.5-7.9,16.4C353,130.9,355.7,125.6,358.6,120.5z"/>
						<path fill="#51260E" d="M344.8,219.8c0,0,5,12.1,0,21.6c-5,9.5-35.3,57.2-33.5,87.2c1.8,30.2-35.9,36.1-35.9,36.1
							C268.8,293,322.4,238.9,344.8,219.8z"/>
						<g id="fill_x5F_top_15_">
							<path display="none" fill="#AF8C69" d="M478.1,508.3v33.8c4.3,0,8.8-0.2,12.9-0.6c-0.8-4.3-1-8.6-0.3-12.8l0,0
								c1.9-11.1,10.1-20.9,28.6-20.4c12.3,0.2,23,6.3,28.2,15.7l0,0c19.2-12.3,34.6-29.6,46.7-49c26.8-43.3,37.6-97.1,38.9-131.1
								c2-47.2-10.1-83.8-40.7-114l-0.2-0.2c-23.7,32.1-65.9,53.5-114.2,53.7L478.1,508.3L478.1,508.3z"/>
							<path fill="#C4731A" d="M478.1,182.8v49.9c5.3,0,19.2-14.3,19.1-28c0-3.8-1.6-7.1-3.6-10.1c-0.6-0.6-0.7-0.8-0.7-0.8
								c-3.6-4.8-9.1-8.1-12.1-9.9C479.2,182.8,478.1,182.8,478.1,182.8z"/>
							<path fill="#AF8C69" d="M477.8,111.2l0.3,71.2c0,0,1,0.5,2.6,1.3c0,0,3.6-63.3,37.8-80.3c1.6-0.7,3.2-1.5,4.8-2.2l-0.2-0.5
								l4.1-2.6C525.8,98.7,480.4,113.4,477.8,111.2z"/>
							<path fill="#EFDECE" d="M499.9,171.9C499.9,171.9,499.9,171.5,499.9,171.9c-1.8-5.1-2.6-10.3-2.6-15.9
								c0-26.8,20.9-48.5,46.7-48.5s46.7,21.7,46.7,48.5c0,1.6,0,3-0.2,4.5c-2.3,24.7-22.2,44.1-46.5,44.1
								C523.5,204.5,506.2,190.8,499.9,171.9z M599.7,146.5c-2.5-15.7-12.8-31.3-35.1-43.3c-1.9-1.2-4.1-2-6.1-3
								c-14.3-6.6-25.7-5.3-35-1.6c-1.6,0.7-3.2,1.5-4.8,2.2c-34.2,16.9-37.8,83.1-37.8,83.1c3.2,1.6,8.5,5.1,12.1,9.9
								c0,0,0.2,0.5,0.7,0.8c4.3,5.1,25.8,29.5,61.8,18.9C580.8,205.7,604.2,175.8,599.7,146.5z"/>
							<path fill="#C4731A" d="M491,541.5c1.5,7,5,12.9,9.1,16.1l11.8-17.4l11.2,17.4l12.1-21.3l9.1,15.2c3.8-2.8,6.6-8,6.6-13.9
								c0-3.6-0.7-7.1-1.9-10.2c0,0-10.6-7.8-18.1-7.8c-17.1,0-22.3,10.6-31,10.6c-5.3,0-8.3-1.3-8.3-1.3l-0.7-0.2l0,0
								C490,532.9,490.2,537.3,491,541.5z"/>
							<path fill="#51260E" d="M508.8,158.9c-3.6,0.8-9.3,10.2-8.9,12.9c0,0,0,0,0,0.2c6.3,18.9,23.7,32.6,44.1,32.6
								c24.4,0,44.2-19.4,46.5-44.1h-0.7c0,0-9.1-15.2-11.2-14.7c-2,0.5-6,11.1-6,11.1l0,0c-0.6,15.9-13.1,28.7-28.5,28.7
								c-11.8,0-21.7-7.4-26.1-17.9l0,0C517.4,166.9,512.4,157.8,508.8,158.9z"/>
							<path fill="#230F07" d="M515.7,158.3c0.2,3.3,1,6.4,2,9.3l0,0c4.3,10.6,14.4,17.9,26.1,17.9c15.4,0,27.8-12.8,28.5-28.7
								c0-0.5,0-0.7,0-1.2c0,0-8.9-1.5-13.6,11.6c-4.8,13.1-25.5,10.3-29.8,4.1C524.7,164.9,519.7,158.3,515.7,158.3z"/>
							<path fill="#51260E" d="M598.2,119.8c-0.2-0.2-0.2-0.5-0.2-0.5c6.3-7.8,25.8-11.1,25.8-11.1l-37.5-4.8c0,0-3.8,2.6-6-2.2
								c-4.3-8.8,48.9-16.9,48.9-16.9s-42.7-5.1-56.7,3.6c-9.1,5.8,13.4-30.2,13.9-31L561,73l0,0c-0.6,0.7-11.2,15.7-4.3,21.9
								c4.3,4.1,7.8,7.8,7.8,7.8c22.5,11.8,32.8,27.5,35.1,43.3c0.8-0.2,1.6-0.5,2.3-0.7c3.6-2,6.1-3.3,6.3-3.5c-0.6-2-1.2-4.1-2-6
								C603.5,129.4,599.5,122,598.2,119.8C598.4,119.9,598.2,119.8,598.2,119.8z"/>
							<path fill="#51260E" d="M598.7,120.5c-0.2-0.2-0.2-0.5-0.3-0.6c1,2,5.1,9.5,7.9,16.4C604.2,130.9,601.7,125.6,598.7,120.5z"
								/>
							<path fill="#51260E" d="M612.5,219.8c0,0-5,12.1,0,21.6c5,9.5,35.3,57.2,33.5,87.2c-1.8,30.2,35.9,36.3,35.9,36.3
								C688.5,293,635,238.9,612.5,219.8z"/>
						</g>
					</g>
					<g id="outlines_12_">
						<path fill="none" stroke="#000000" stroke-width="3" stroke-miterlimit="10" d="M359,119.8c0.8-1.3,1.9-2.6,3.2-3.6"/>
						<path fill="none" stroke="#000000" stroke-width="3" stroke-miterlimit="10" d="M349,142.2c0.6-2,1.2-4.1,2-6"/>
						<ellipse fill="none" stroke="#000000" stroke-width="3" stroke-miterlimit="10" cx="413.3" cy="155.7" rx="28.5" ry="29.6"/>
						<path fill="none" stroke="#000000" stroke-width="3" stroke-miterlimit="10" d="M479.2,283.5c-48.2-0.2-90.6-21.7-114.2-53.7
							c-4.1-5.7-7.8-11.6-10.5-17.7c-6.1-12.9-9.5-27-9.5-41.9c0-9.6,1.5-19.1,4.3-28.2"/>
						<path fill="none" stroke="#0A0000" stroke-width="3" stroke-miterlimit="10" d="M464,194c3.6-4.8,9.5-8.8,12.6-10.3
							c1.6-0.8,5-0.5,5-0.5"/>
						<path fill="none" stroke="#0A0000" stroke-width="3" stroke-miterlimit="10" d="M479.2,232.3c-5.3,0-19.2-14.3-19.1-28
							c0-3.8,1.6-7.1,3.6-10.1"/>
						<path fill="none" stroke="#000000" stroke-width="3" stroke-miterlimit="10" d="M457.4,171.9c-6.3,18.9-23.7,32.6-44.1,32.6
							c-24.2,0-44.2-19.4-46.5-44.1c-0.2-1.5-0.2-3-0.2-4.5c0-26.8,20.9-48.5,46.7-48.5s46.7,21.7,46.7,48.5
							C459.9,161.3,459.1,166.7,457.4,171.9"/>
						<path fill="none" stroke="#000000" stroke-width="3" stroke-miterlimit="10" d="M384.8,156.8c0-0.5,0-0.7,0-1.2
							c0-16.4,12.8-29.6,28.5-29.6s28.5,13.3,28.5,29.6c0,0.8,0,1.6-0.2,2.3c-0.2,3.3-1,6.4-2,9.3"/>
						<path fill="none" stroke="#000000" stroke-width="3" stroke-miterlimit="10" d="M464.3,193.6c0,0-0.2,0.5-0.7,0.8
							c-4.3,5.1-25.8,29.5-61.8,18.9c-25.2-7.6-48.5-37.5-44.2-66.8c2.5-15.7,12.8-31.3,35.3-43.3c1.9-1.2,4.1-2,6.1-3
							c14.3-6.6,25.7-5.3,35-1.6c1.6,0.7,3.2,1.5,4.8,2.2c34.1,16.9,37.8,83.1,37.8,83.1"/>
						<polyline fill="none" stroke="#000000" stroke-width="3" stroke-miterlimit="10" points="370.9,57.1 427.1,58.9 479.2,60.4 
													"/>
						<line fill="none" stroke="#000000" stroke-width="3" stroke-miterlimit="10" x1="396.1" y1="73.6" x2="370.9" y2="57.1"/>
						<line fill="none" stroke="#000000" stroke-width="3" stroke-miterlimit="10" x1="430.2" y1="95.5" x2="396.1" y2="73.6"/>
						<line fill="none" stroke="#000000" stroke-width="3" stroke-miterlimit="10" x1="434.2" y1="98" x2="430.2" y2="95.5"/>
						<path fill="none" stroke="#000000" stroke-width="3" stroke-miterlimit="10" d="M371.4,57.1c0,0,0,0-0.6,0
							c0.6,0.8,23,36.9,13.9,31c-13.9-8.8-56.7-3.6-56.7-3.6l42.7,18.9l-37.5,4.8c0,0,19.5,3.5,25.8,11.1c0,0,0,0.2-0.2,0.5
							c0,0,0,0.2-0.2,0.2c-1,2-5.1,9.5-7.9,16.4c-0.8,2.2-1.6,4.3-2,6"/>
						<path fill="none" stroke="#000000" stroke-width="3" stroke-miterlimit="10" d="M409.8,524c-19.2-12.3-34.6-29.6-46.7-49
							c-26.8-43.3-37.6-97.1-39.2-131.1c-2-47.2,10.1-83.8,40.7-114"/>
						<path fill="none" stroke="#000000" stroke-width="3" stroke-miterlimit="10" d="M479.2,541.8c-4.3,0-8.8-0.2-12.9-0.6
							c-0.2,0-0.3,0-0.3,0"/>
						<path fill="none" stroke="#000000" stroke-width="3" stroke-miterlimit="10" d="M362,475.9h-0.2"/>
						<path fill="none" stroke="#000000" stroke-width="3" stroke-miterlimit="10" d="M354.2,212.1c0,0-3.6,2.6-9.5,7.8
							c-22.3,19.1-76,73.2-69.4,144.9c0.6,6.4,1.6,12.8,3.3,19.5c19.9,82,81.8,91.4,83.3,91.4l0,0"/>
						<path fill="none" stroke="#000000" stroke-width="3" stroke-miterlimit="10" d="M466,541.5c-1.5,7-5,12.9-9.1,16.1l-11.8-17.4
							l-11.2,17.4l-12.1-21.3l-9.1,15.2c-3.8-2.8-6.6-8-6.6-13.9c0-3.6,0.7-7.1,1.9-10.2c0.3-1.2,0.8-2,1.5-3
							c5.1-9.5,15.7-15.4,28.2-15.7c18.7-0.5,26.7,9.3,28.6,20.4l0,0C467.2,532.9,467,537.3,466,541.5z"/>
						<polyline fill="none" stroke="#000000" stroke-width="3" stroke-miterlimit="10" points="354.5,303.4 368.1,324.1 382,303.4 
													"/>
						<polyline fill="none" stroke="#000000" stroke-width="3" stroke-miterlimit="10" points="382.5,354.6 394.6,375.1 
							406.4,356.3 						"/>
						<polyline fill="none" stroke="#000000" stroke-width="3" stroke-miterlimit="10" points="429.9,327.1 442,347.8 457.5,327.1 
													"/>
						<polyline fill="none" stroke="#000000" stroke-width="3" stroke-miterlimit="10" points="440.5,405.6 454.3,429.2 
							468.1,405.6 						"/>
						<polyline fill="none" stroke="#000000" stroke-width="3" stroke-miterlimit="10" points="368.1,433 380.7,453.7 396.1,433 
													"/>
						<polyline fill="none" stroke="#000000" stroke-width="3" stroke-miterlimit="10" points="429.9,469.6 442,490.1 457.5,469.6 
													"/>
						<path fill="none" stroke="#000000" stroke-width="3" stroke-miterlimit="10" d="M396.1,73.6L396.1,73.6"/>
						<g id="outlines_15_">
							<path fill="none" stroke="#000000" stroke-width="3" stroke-miterlimit="10" d="M598.2,119.8c-0.8-1.3-1.9-2.6-3.2-3.6"/>
							<path fill="none" stroke="#000000" stroke-width="3" stroke-miterlimit="10" d="M608.3,142.2c-0.6-2-1.2-4.1-2-6"/>
							<ellipse fill="none" stroke="#000000" stroke-width="3" stroke-miterlimit="10" cx="543.9" cy="155.7" rx="28.5" ry="29.6"/>
							<path fill="none" stroke="#000000" stroke-width="3" stroke-miterlimit="10" d="M478.1,283.5c48.2-0.2,90.6-21.7,114.2-53.7
								c4.3-5.7,7.8-11.6,10.6-17.7c6.1-12.9,9.5-27,9.5-41.9c0-9.6-1.5-19.1-4.3-28.2"/>
							<path fill="none" stroke="#0A0000" stroke-width="3" stroke-miterlimit="10" d="M493.5,194.4c-3.6-4.8-9.8-9.1-12.8-10.8
								c-1.6-0.8-2.6-1.3-2.6-1.3"/>
							<path fill="none" stroke="#0A0000" stroke-width="3" stroke-miterlimit="10" d="M478.1,232.3c5.3,0,19.2-14.3,19.1-28
								c0-3.8-1.6-7.1-3.6-10.1"/>
							<path fill="none" stroke="#000000" stroke-width="3" stroke-miterlimit="10" d="M499.9,171.9c6.3,18.9,23.7,32.6,44.1,32.6
								c24.4,0,44.2-19.4,46.5-44.1c0.2-1.5,0.2-3,0.2-4.5c0-26.8-20.9-48.5-46.7-48.5s-46.7,21.7-46.7,48.5
								C497.3,161.3,498.1,166.7,499.9,171.9"/>
							<path fill="none" stroke="#000000" stroke-width="3" stroke-miterlimit="10" d="M572.5,156.8c0-0.5,0-0.7,0-1.2
								c0-16.4-12.8-29.6-28.5-29.6s-28.5,13.3-28.5,29.6c0,0.8,0,1.6,0.2,2.3c0.2,3.3,1,6.4,2,9.3"/>
							<path fill="none" stroke="#000000" stroke-width="3" stroke-miterlimit="10" d="M492.9,193.6c0,0,0.2,0.5,0.7,0.8
								c4.3,5.1,25.8,29.5,61.8,18.9c25.2-7.6,48.5-37.5,44.2-66.8c-2.5-15.7-12.8-31.3-35.1-43.3c-1.9-1.2-4.1-2-6.1-3
								c-14.3-6.6-25.7-5.3-35-1.6c-1.6,0.7-3.2,1.5-4.8,2.2c-34.2,16.9-37.8,83.1-37.8,83.1"/>
							<polyline fill="none" stroke="#000000" stroke-width="3" stroke-miterlimit="10" points="586.4,57.1 530.3,58.9 478.1,60.4 
															"/>
							<line fill="none" stroke="#000000" stroke-width="3" stroke-miterlimit="10" x1="561.1" y1="73.6" x2="586.4" y2="57.1"/>
							<line fill="none" stroke="#000000" stroke-width="3" stroke-miterlimit="10" x1="527.3" y1="95.5" x2="561.1" y2="73.6"/>
							<line fill="none" stroke="#000000" stroke-width="3" stroke-miterlimit="10" x1="523.2" y1="98" x2="527.3" y2="95.5"/>
							<path fill="none" stroke="#000000" stroke-width="3" stroke-miterlimit="10" d="M585.9,57.1c0,0,0,0,0.6,0
								c-0.6,0.8-23,36.9-13.9,31c13.9-8.8,56.7-3.6,56.7-3.6l-42.7,18.9l37.5,4.8c0,0-19.5,3.5-25.8,11.1c0,0,0,0.2,0.2,0.5
								c0,0,0,0.2,0.2,0.2c1,2,5.1,9.5,7.9,16.4c0.8,2.2,1.6,4.3,2,6"/>
							<path fill="none" stroke="#000000" stroke-width="3" stroke-miterlimit="10" d="M547.5,524c19.2-12.3,34.6-29.6,46.7-49
								c26.8-43.3,37.6-97.1,38.9-131.1c2-47.2-10.1-83.8-40.7-114"/>
							<path fill="none" stroke="#000000" stroke-width="3" stroke-miterlimit="10" d="M478.1,541.8c4.3,0,8.8-0.2,12.9-0.6
								c0.2,0,0.3,0,0.3,0"/>
							<path fill="none" stroke="#000000" stroke-width="3" stroke-miterlimit="10" d="M595.2,475.9h0.2"/>
							<path fill="none" stroke="#000000" stroke-width="3" stroke-miterlimit="10" d="M603,212.1c0,0,3.6,2.6,9.5,7.8
								c22.3,19.1,76,73.4,69.4,144.9c-0.6,6.4-1.6,12.8-3.2,19.5c-19.9,82-81.8,91.4-83.3,91.4l0,0"/>
							<path fill="none" stroke="#000000" stroke-width="3" stroke-miterlimit="10" d="M491,541.5c1.5,7,5,12.9,9.1,16.1l11.8-17.4
								l11.2,17.4l12.1-21.3l9.1,15.2c3.8-2.8,6.6-8,6.6-13.9c0-3.6-0.7-7.1-1.9-10.2c-0.3-1.2-0.8-2-1.5-3
								c-5.1-9.5-15.7-15.4-28.2-15.7c-18.7-0.5-26.7,9.3-28.6,20.4l0,0C490,532.9,490.2,537.3,491,541.5z"/>
							<polyline fill="none" stroke="#000000" stroke-width="3" stroke-miterlimit="10" points="602.7,303.4 589.1,324.1 
								575.5,303.4 							"/>
							<polyline fill="none" stroke="#000000" stroke-width="3" stroke-miterlimit="10" points="574.7,354.6 562.8,375.1 
								550.8,356.3 							"/>
							<polyline fill="none" stroke="#000000" stroke-width="3" stroke-miterlimit="10" points="527.3,327.1 515.4,347.8 
								499.9,327.1 							"/>
							<polyline fill="none" stroke="#000000" stroke-width="3" stroke-miterlimit="10" points="516.7,405.6 503,429.2 489.2,405.6 
															"/>
							<polyline fill="none" stroke="#000000" stroke-width="3" stroke-miterlimit="10" points="589.1,433 576.8,453.7 561.3,433 
															"/>
							<polyline fill="none" stroke="#000000" stroke-width="3" stroke-miterlimit="10" points="527.3,469.6 515.4,490.1 
								499.9,469.6 							"/>
							<path fill="none" stroke="#000000" stroke-width="3" stroke-miterlimit="10" d="M561.1,73.6L561.1,73.6"/>
						</g>
					</g>
				</g>
			</g>
		</g>
	</g>
	<g id="top">
		<g id="eye_lens">
			<path id="eye_lens_2" fill="#FFFFFF" d="M407.9,122.8c3.2,3.8,0.6,14.3-6.1,18.9c-6.8,4.5-12.7,5.3-16.1,1.6
				c-3.2-3.8-3-10.1,5.3-16.9C397.3,120.8,404.7,119,407.9,122.8z"/>
			<path id="eye_lens_1" fill="#FFFFFF" d="M398.1,150.5c1.5,1.6,0.2,5.7-1.6,7.3c-1.8,1.6-4.3,1.6-5.8,0s-1-4.3,0.7-6
				C393.3,150.3,396.8,149,398.1,150.5z"/>
		</g>
		<g id="eye_lens_1_">
			<path id="eye_lens_2_1_" fill="#FFFFFF" d="M539.6,122.8c3.2,3.8,0.6,14.3-6.1,18.9c-6.8,4.5-12.7,5.3-16.1,1.6
				c-3.3-3.6-3-10.1,5.3-16.9C529.1,120.8,536.4,119,539.6,122.8z"/>
			<path id="eye_lens_1_1_" fill="#FFFFFF" d="M528.2,150.5c1.5,1.6,0.2,5.7-1.6,7.3s-4.3,1.6-5.8,0s-1-4.3,0.7-6
				C523.2,150.3,526.8,149,528.2,150.5z"/>
		</g>
	</g>
</g>
<g id="Vrstva_2">
	<g>
		<path id="path1342" fill="#FFFF00" stroke="#000000" stroke-width="2.5" d="M544.4,106.1c0,0,4.7,18.2,1.2,35.6
			c39.2-92.9-35.2-137.6-91.8-126c-49-0.4-108.2,86.8-44.4,158.6c-7-10.3-23.5-68.6-17.3-80.9c-5.3,12.7,4.3,42.4,4.3,42.4
			c4.6,17.4,14.3,29.2,24.1,37.7C399,143,397.8,99.3,403.8,86.9c-5.8,12.6-1.1,52.3,2.8,56.8c10.2,18.5,32.9,37.4,38.3,38.3
			c-21.3-18.5-41.5-84.5-35.6-99.8c-4.3,14.2,9.9,42.7,13.7,46.9c-2.3-6.5-4-47-0.7-55.3c-0.9,9.5,13.9,44.9,21.3,49.9
			c-5.1-7.2-6.6-52.6,0-59.6c-7.9,17.3,7.4,57.8,14.3,57.8c-10-19.7-3.2-54.5,4.6-62.4c-5.5,6.9-6.9,15.7-6.9,15.7
			c0,10.2,14.3,41.6,24.5,46.2c-8.3-12.5-7.9-53.6-1.8-64.2c-2.4,4.1-3,11.6-3,11.6c7.9,4.3,11.8,41.6,11.4,50.8
			c10-14.4,3.7-60.8,3.7-64.2c10.4,10,12.1,41.7,14.3,50.4c4.7-8.8,7.3-47.9,3.2-52.7c4.4,0.5,16.9,43.9,15.7,54.5
			c6.7-4.9-2.8-50.4-2.8-50.4c15.2,16.2,6.7,100.1,6.5,107.7c7.6-10.4,15.5-86.2,11.6-89.6c3.7,2.9-2.3,45.3-2.3,45.3
			c1.8,0.9,0,30.5,0,30.5c6.9-13.2,10.9-76.5,10.6-80.4C547,75.3,544.4,106.1,544.4,106.1L544.4,106.1z"/>
		<path id="path11907" fill="#FFFF00" stroke="#000000" stroke-width="2.5" d="M401.9,60.1c-64.3-45.8-116,94.7-110,144.2
			c2-21.5,25.7-81.3,38-99c-0.2,0.4,5.7-13.6,11.9-18.4c-19.7,17.7-41,105.8-24.5,134.9c-5.1-24.5,18.5-99.8,24.5-104.9
			c-13.7,10.3-19.9,108.6-11.1,116.9c0.1-20.8,19.9-100.3,29.6-121.1c-8.7,19.7-9.6,27.9-9.7,27.9c-6.7,25.9,8.8,89.7,13.4,96.8
			c-0.7-31.4,5.1-109,9.2-119.2c5.1-8.9,13.4-8.8,14.8-15.7C396.6,95.4,406.1,64.7,401.9,60.1L401.9,60.1z"/>
		<path id="path11909" fill="#FFFF00" stroke="#000000" stroke-width="2.5" d="M544.7,60.5c6.7-27.2,29.1-27.7,39.3-21.7
			c59.4,31.2,71,132.7,69.3,143.2c-6.5-15.7-31.4-83.6-37.9-87.8c6,7.9,22.6,89.2,25,102.6c-21.3-9.7-34.7-75.3-40.7-84.1
			c10.6,17.6,15.7,73.9,11.1,91.5c-3.7-19.9-10.2-53.1-16.2-60.1c-1.6-4.6-3.2-30-8.8-41.6c4.5,12.5,16.6,92.4,14.8,110
			c-16.5-12.6-34.7-75.8-35.1-88.7C565.4,114.5,541.9,75.8,544.7,60.5z"/>
		
			<linearGradient id="path5900_1_" gradientUnits="userSpaceOnUse" x1="5.575" y1="613.0959" x2="5.4997" y2="613.0959" gradientTransform="matrix(38.9261 0 0 -169.6608 -1134.7957 104166.4609)">
			<stop  offset="0" style="stop-color:#8A8A8A"/>
			<stop  offset="0.2969" style="stop-color:#9F9F9F"/>
			<stop  offset="1" style="stop-color:#6E6E6E"/>
		</linearGradient>
		<path id="path5900" fill="url(#path5900_1_)" d="M393.9,63.3c-31.5,48.1-39.6,109.9-31.5,169.7C343.1,172.8,364,81.2,393.9,63.3z"
			/>
		
			<linearGradient id="path5904_1_" gradientUnits="userSpaceOnUse" x1="4.059" y1="614.3514" x2="4.0104" y2="614.3514" gradientTransform="matrix(60.2651 0 0 -166.4265 -3953.3423 102395.1953)">
			<stop  offset="0" style="stop-color:#8A8A8A"/>
			<stop  offset="0.2969" style="stop-color:#9F9F9F"/>
			<stop  offset="1" style="stop-color:#6E6E6E"/>
		</linearGradient>
		<path id="path5904" fill="url(#path5904_1_)" d="M387.6,67.6c-34.7,32-59.9,101.6-56.9,166.4C317,167.9,347.2,87.5,387.6,67.6z"/>
		
			<linearGradient id="path5908_1_" gradientUnits="userSpaceOnUse" x1="-7.9689" y1="590.2006" x2="-8.0416" y2="590.2006" gradientTransform="matrix(-40.2677 0 0 -122.5321 30198.5918 72467.5469)">
			<stop  offset="0" style="stop-color:#8A8A8A"/>
			<stop  offset="0.2969" style="stop-color:#9F9F9F"/>
			<stop  offset="1" style="stop-color:#6E6E6E"/>
		</linearGradient>
		<path id="path5908" fill="url(#path5908_1_)" d="M558.9,87.8c10.6,46.7,16.4,86.8,40.2,122.5C575.9,138.2,580.4,123.3,558.9,87.8z
			"/>
		
			<linearGradient id="path5912_1_" gradientUnits="userSpaceOnUse" x1="-18.5813" y1="636.1458" x2="-18.7353" y2="636.1458" gradientTransform="matrix(-19.0136 0 0 -80.8324 14271.0889 51582.4844)">
			<stop  offset="0" style="stop-color:#8A8A8A"/>
			<stop  offset="0.2969" style="stop-color:#9F9F9F"/>
			<stop  offset="1" style="stop-color:#6E6E6E"/>
		</linearGradient>
		<path id="path5912" fill="url(#path5912_1_)" d="M591.3,120.9c3.8,24.6,13.7,40.5,19,80.9C606.5,158.2,604.9,139.9,591.3,120.9z"
			/>
		<path id="path9328" fill="#FF007F" stroke="#000000" stroke-width="2.5" d="M382.8,56.6c-4.8-5.6-10.9-23.2-13.2-31.9
			c-2.1-7,3.1-10.3,5.3-9.5c3.9,0,6.8,0.6,9.5,1.7c4.1,1.1,3.6,3.4,6.8,2.8c3.2-0.6,1.9-3,6.2-5.3c4.3-2.2,7.9-4.1,10.9-3.8
			c1.8,0.7,3.7,2.5,3,5.5c0.2,3.6-4.3,12.8-7.4,20c-1.4,4-6.3,16-8,22.2C393,59.7,385.9,57.1,382.8,56.6L382.8,56.6z"/>
		<path id="path9330" fill="#FF007F" stroke="#000000" stroke-width="2.5" d="M383,65.1c-5.6,4.9-9.3,14-10.6,18.3
			c-2.9,3.6-4.2,18.8-3.6,20.9c2.5-1.9,4.5-3.7,5.7-3.1c2.2,1.2,2.9,4.4,5.1,6.7c3,1.1,5,0.8,5.7-0.8c0.7-4.4,5.5-34.1,6.2-39.8
			C388.1,65.8,385.6,65.4,383,65.1z"/>
		<path id="path9334" fill="#FF007F" stroke="#000000" stroke-width="2.5" d="M551.7,46.2c4-5.8,7.2-35.8,7.5-38.7
			c-2.1,1.8-0.9,0-1.8-0.6c-0.9-0.5-0.5-0.4-1.8-1.9C551,2.5,541.3,6.5,537,8.5c-3.4,2.9-11.6,4.6-13.2,4.5
			c-3.3,2.4-0.6,6.7,0.5,9.6c1.6,4.1,4.7,8.1,5.9,10c4.4,7,9.3,14,11.7,17C544.3,49.3,548.7,47.8,551.7,46.2z"/>
		<path id="path9336" fill="#FF007F" stroke="#000000" stroke-width="2.5" d="M552.2,54.2c11.9,7.9,23.2,29.3,24.9,36.6
			c1.3,3.1,0.4,7.7-0.2,8.1c-2,0.8-6.5,1.2-8.7-0.2c-2.1-1.7-8-0.8-9.8,1.9c-4.3,3.1-4.9,5.6-5.1,5.4c-3.5-5-8.2-43.2-7.9-48.9
			C546.8,56.3,551.5,54.5,552.2,54.2z"/>
		<path id="path9332" fill="#FF007F" stroke="#000000" stroke-width="2.5" d="M552.2,42.6c-2.7-1.4-11,1.8-11.9,5.3
			c-0.3,2.4,5,9.4,6.8,10.9c1.5,0.9,3.3,0,7-2.8C554.9,52.5,554,44.8,552.2,42.6z"/>
		<path id="path9326" fill="#FF007F" stroke="#000000" stroke-width="2.5" d="M378.5,55.5c-0.6,2.3-1.8,6.7-0.8,10.2
			c3.5,3.1,7.1,3.9,12.1,4.5c2.2-3,3-5.6,3.9-9.8c0.9-4.2,0.4-2.5-0.4-6.7C390.7,52.5,382.3,52.2,378.5,55.5L378.5,55.5z"/>
		
			<linearGradient id="path4114_1_" gradientUnits="userSpaceOnUse" x1="-10.2656" y1="544.751" x2="-10.385" y2="544.751" gradientTransform="matrix(-24.5163 0 0 -74.9833 16116.8477 40925.0625)">
			<stop  offset="0" style="stop-color:#8A8A8A"/>
			<stop  offset="0.2969" style="stop-color:#9F9F9F"/>
			<stop  offset="1" style="stop-color:#6E6E6E"/>
		</linearGradient>
		<path id="path4114" fill="url(#path4114_1_)" d="M496.5,31.5c17.2,16.1,20.6,60.1-6.8,92.7C527.9,79.7,514.4,48.7,496.5,31.5z"/>
		
			<linearGradient id="path4122_1_" gradientUnits="userSpaceOnUse" x1="-10.6897" y1="535.476" x2="-10.8091" y2="535.476" gradientTransform="matrix(-24.5163 0 0 -74.9833 16403.0508 40222.6563)">
			<stop  offset="0" style="stop-color:#8A8A8A"/>
			<stop  offset="0.2969" style="stop-color:#9F9F9F"/>
			<stop  offset="1" style="stop-color:#6E6E6E"/>
		</linearGradient>
		<path id="path4122" fill="url(#path4122_1_)" d="M506.9,24.6c17.2,16.1,20.6,60.1-6.8,92.7C538.3,72.8,524.7,41.8,506.9,24.6z"/>
		
			<linearGradient id="path4126_1_" gradientUnits="userSpaceOnUse" x1="6.2126" y1="560.5192" x2="6.0932" y2="560.5192" gradientTransform="matrix(24.5163 0 0 -74.9833 1197.0031 42119.1484)">
			<stop  offset="0" style="stop-color:#8A8A8A"/>
			<stop  offset="0.2969" style="stop-color:#9F9F9F"/>
			<stop  offset="1" style="stop-color:#6E6E6E"/>
		</linearGradient>
		<path id="path4126" fill="url(#path4126_1_)" d="M437.3,43.2c-17.2,16.1-20.6,60.1,6.8,92.7C406,91.5,419.5,60.4,437.3,43.2z"/>
		
			<linearGradient id="path4130_1_" gradientUnits="userSpaceOnUse" x1="5.5153" y1="550.316" x2="5.3959" y2="550.316" gradientTransform="matrix(24.5163 0 0 -74.9833 1667.6498 41346.5039)">
			<stop  offset="0" style="stop-color:#8A8A8A"/>
			<stop  offset="0.2969" style="stop-color:#9F9F9F"/>
			<stop  offset="1" style="stop-color:#6E6E6E"/>
		</linearGradient>
		<path id="path4130" fill="url(#path4130_1_)" d="M454.4,35.7c-17.2,16.1-20.6,60.1,6.8,92.7C423.1,83.9,436.6,52.9,454.4,35.7z"/>
		
			<linearGradient id="path2302_1_" gradientUnits="userSpaceOnUse" x1="7.6645" y1="559.9033" x2="7.5451" y2="559.9033" gradientTransform="matrix(24.5163 0 0 -114.6773 217.0785 64324.3047)">
			<stop  offset="0" style="stop-color:#8A8A8A"/>
			<stop  offset="0.2969" style="stop-color:#9F9F9F"/>
			<stop  offset="1" style="stop-color:#6E6E6E"/>
		</linearGradient>
		<path id="path2302" fill="url(#path2302_1_)" d="M401.7,58.8c-17.2,20-20.6,74.3,6.8,114.7C370.4,118.5,383.9,80,401.7,58.8z"/>
		
			<linearGradient id="path4066_1_" gradientUnits="userSpaceOnUse" x1="7.7508" y1="558.7088" x2="7.621" y2="558.7088" gradientTransform="matrix(22.5692 0 0 -103.5882 465.6016 57996.168)">
			<stop  offset="0" style="stop-color:#8A8A8A"/>
			<stop  offset="0.2969" style="stop-color:#9F9F9F"/>
			<stop  offset="1" style="stop-color:#6E6E6E"/>
		</linearGradient>
		<path id="path4066" fill="url(#path4066_1_)" d="M409.8,68.8c-12.1,22.3-16.6,64.9,9.9,103.6C385.6,129.6,396.8,91.4,409.8,68.8z"
			/>
		
			<linearGradient id="path4070_1_" gradientUnits="userSpaceOnUse" x1="4.5316" y1="567.5344" x2="4.4518" y2="567.5344" gradientTransform="matrix(36.7135 0 0 -106.8225 1413.5726 60752.9609)">
			<stop  offset="0" style="stop-color:#8A8A8A"/>
			<stop  offset="0.2969" style="stop-color:#9F9F9F"/>
			<stop  offset="1" style="stop-color:#6E6E6E"/>
		</linearGradient>
		<path id="path4070" fill="url(#path4070_1_)" d="M413.7,74.1c-16.9,20,1.1,70,28.6,106.8C408.8,152,395.7,95.6,413.7,74.1z"/>
		
			<linearGradient id="path4074_1_" gradientUnits="userSpaceOnUse" x1="9.1985" y1="524.1385" x2="9.0265" y2="524.1385" gradientTransform="matrix(17.0216 0 0 -88.1096 732.9747 46264.7734)">
			<stop  offset="0" style="stop-color:#8A8A8A"/>
			<stop  offset="0.2969" style="stop-color:#9F9F9F"/>
			<stop  offset="1" style="stop-color:#6E6E6E"/>
		</linearGradient>
		<path id="path4074" fill="url(#path4074_1_)" d="M432.4,39.1c-13.5,24.1-15.5,48.2-10.7,88.1C409.1,75.6,416.7,60.5,432.4,39.1z"
			/>
		
			<linearGradient id="path4078_1_" gradientUnits="userSpaceOnUse" x1="11.1336" y1="520.7747" x2="10.8955" y2="520.7747" gradientTransform="matrix(12.2954 0 0 -66.3934 835.4641 34665.1133)">
			<stop  offset="0" style="stop-color:#8A8A8A"/>
			<stop  offset="0.2969" style="stop-color:#9F9F9F"/>
			<stop  offset="1" style="stop-color:#6E6E6E"/>
		</linearGradient>
		<path id="path4078" fill="url(#path4078_1_)" d="M447.4,55.9c-12.1,21.5-10.6,38.7-4.9,66.3C431.9,96.1,431.9,77.8,447.4,55.9z"/>
		
			<linearGradient id="path4082_1_" gradientUnits="userSpaceOnUse" x1="7.5707" y1="512.3002" x2="7.3924" y2="512.3002" gradientTransform="matrix(16.4189 0 0 -65.4694 1282.1563 33628.7695)">
			<stop  offset="0" style="stop-color:#8A8A8A"/>
			<stop  offset="0.2969" style="stop-color:#9F9F9F"/>
			<stop  offset="1" style="stop-color:#6E6E6E"/>
		</linearGradient>
		<path id="path4082" fill="url(#path4082_1_)" d="M464.1,56.1c-13.7,22-15.5,38.3-7.2,65.4C440.4,90.6,448.1,78.1,464.1,56.1z"/>
		
			<linearGradient id="path4086_1_" gradientUnits="userSpaceOnUse" x1="6.0146" y1="510.221" x2="5.8585" y2="510.221" gradientTransform="matrix(18.7591 0 0 -61.773 1821.9482 31607.5117)">
			<stop  offset="0" style="stop-color:#8A8A8A"/>
			<stop  offset="0.2969" style="stop-color:#9F9F9F"/>
			<stop  offset="1" style="stop-color:#6E6E6E"/>
		</linearGradient>
		<path id="path4086" fill="url(#path4086_1_)" d="M464.8,58.8c-1.9,22.9,5.1,43.8,14,61.7C456.8,93.4,457.2,74.7,464.8,58.8z"/>
		
			<linearGradient id="path4090_1_" gradientUnits="userSpaceOnUse" x1="-23.5881" y1="511.0298" x2="-23.8745" y2="511.0298" gradientTransform="matrix(-10.2228 0 0 -54.3802 6700.3491 27880.6758)">
			<stop  offset="0" style="stop-color:#8A8A8A"/>
			<stop  offset="0.2969" style="stop-color:#9F9F9F"/>
			<stop  offset="1" style="stop-color:#6E6E6E"/>
		</linearGradient>
		<path id="path4090" fill="url(#path4090_1_)" d="M479.2,63.6c4.7,19.5,6.5,29.9,7.7,54.3C492.2,101.5,488.6,71,479.2,63.6z"/>
		
			<linearGradient id="path4094_1_" gradientUnits="userSpaceOnUse" x1="-22.8607" y1="507.9673" x2="-23.1181" y2="507.9673" gradientTransform="matrix(-11.3768 0 0 -47.6806 7625.4697 24300.0176)">
			<stop  offset="0" style="stop-color:#8A8A8A"/>
			<stop  offset="0.2969" style="stop-color:#9F9F9F"/>
			<stop  offset="1" style="stop-color:#6E6E6E"/>
		</linearGradient>
		<path id="path4094" fill="url(#path4094_1_)" d="M498.1,56c9.5,13.2,5.8,36.4,6.7,47.7C510.5,72.7,513.5,64.6,498.1,56z"/>
		
			<linearGradient id="path4098_1_" gradientUnits="userSpaceOnUse" x1="-18.4409" y1="521.5571" x2="-18.6393" y2="521.5571" gradientTransform="matrix(-14.758 0 0 -59.9248 10008.9102 31330.0723)">
			<stop  offset="0" style="stop-color:#8A8A8A"/>
			<stop  offset="0.2969" style="stop-color:#9F9F9F"/>
			<stop  offset="1" style="stop-color:#6E6E6E"/>
		</linearGradient>
		<path id="path4098" fill="url(#path4098_1_)" d="M510.1,45.9c8.9,21.1,7.2,29.8,14.4,59.9C526.2,77.5,522,58.4,510.1,45.9z"/>
		
			<linearGradient id="path4102_1_" gradientUnits="userSpaceOnUse" x1="-25.5234" y1="541.8229" x2="-25.7815" y2="541.8229" gradientTransform="matrix(-11.3467 0 0 -86.9546 7968.5869 47233.8945)">
			<stop  offset="0" style="stop-color:#8A8A8A"/>
			<stop  offset="0.2969" style="stop-color:#9F9F9F"/>
			<stop  offset="1" style="stop-color:#6E6E6E"/>
		</linearGradient>
		<path id="path4102" fill="url(#path4102_1_)" d="M538.6,76.4c1.5,23.2-1.8,53.5-11,87C533.2,133.1,535.2,99.7,538.6,76.4z"/>
		
			<linearGradient id="path4106_1_" gradientUnits="userSpaceOnUse" x1="-15.446" y1="538.5914" x2="-15.5977" y2="538.5914" gradientTransform="matrix(-19.2938 0 0 -96.0545 13489.8232 51824.0977)">
			<stop  offset="0" style="stop-color:#8A8A8A"/>
			<stop  offset="0.2969" style="stop-color:#9F9F9F"/>
			<stop  offset="1" style="stop-color:#6E6E6E"/>
		</linearGradient>
		<path id="path4106" fill="url(#path4106_1_)" d="M536,42c17.2,20,14.8,55.9,10.3,96C563.5,84.6,553.8,63.2,536,42z"/>
		
			<linearGradient id="path4110_1_" gradientUnits="userSpaceOnUse" x1="-27.0155" y1="544.9075" x2="-27.2824" y2="544.9075" gradientTransform="matrix(-10.9713 0 0 -106.6728 7933.1807 58221.2539)">
			<stop  offset="0" style="stop-color:#8A8A8A"/>
			<stop  offset="0.2969" style="stop-color:#9F9F9F"/>
			<stop  offset="1" style="stop-color:#6E6E6E"/>
		</linearGradient>
		<path id="path4110" fill="url(#path4110_1_)" d="M534.3,41.1c10.3,21.9,5.4,56.6,3,106.6C549,84,547.7,62.1,534.3,41.1z"/>
	</g>
</g>
</svg>
