<?xml version="1.0" encoding="utf-8"?>
<!-- Generator: Adobe Illustrator 18.1.1, SVG Export Plug-In . SVG Version: 6.00 Build 0)  -->
<!DOCTYPE svg PUBLIC "-//W3C//DTD SVG 1.1//EN" "http://www.w3.org/Graphics/SVG/1.1/DTD/svg11.dtd">
<svg version="1.1" id="Vrstva_1" xmlns="http://www.w3.org/2000/svg" xmlns:xlink="http://www.w3.org/1999/xlink" x="0px" y="0px"
	 viewBox="0 0 960 560" enable-background="new 0 0 960 560" xml:space="preserve">
<g id="Vrstva_1_2_">
	<g id="Vrstva_1_1_" display="none">
		<path display="inline" fill="none" stroke="#000000" stroke-miterlimit="10" d="M478.7,79.7"/>
		<rect x="141.5" y="-172.7" display="inline" fill="none" stroke="#0A0000" stroke-miterlimit="10" width="676.9" height="854"/>
	</g>
	<g id="base">
		<path fill="#AF8C69" d="M479.2,293c45.7-0.2,85.9-20.6,108.3-50.9l0.2,0.2c29.2,28.7,40.7,63.2,38.6,108.1
			c-1.5,32.3-11.5,83.3-36.9,124.4c-11.5,18.4-26,34.9-44.3,46.4l0,0c-4.8-9-14.9-14.6-26.7-14.9c-17.7-0.4-25.3,8.9-27.1,19.4l0,0
			c-0.7,4-0.5,8.2,0.3,12.2c-4,0.4-8.2,0.5-12.3,0.5s-8.3-0.2-12.3-0.5c0.8-4,1-8.2,0.3-12.2l0,0c-1.8-10.5-9.6-19.8-27.1-19.4
			c-11.7,0.2-21.8,6-26.7,14.9l0,0c-18.2-11.7-32.8-28-44.3-46.4c-25.4-41.1-35.7-92.1-37.2-124.4c-1.9-44.8,9.6-79.5,38.6-108.1
			l0.2-0.2C393.2,272.6,433.4,292.9,479.2,293z"/>
	</g>
	<g id="mirror">
		<g>
			<g>
				<g id="XMLID_13_">
					<g id="fill_x5F_bottom_12_">
						<path fill="#C4731A" d="M440.1,506.1c24.4-0.5,29.9,17.3,26.8,31.5c-1.4,6.7-4.7,12.3-8.7,15.2L447,536.4l-10.6,16.5
							l-11.3-20.2l-8.7,14.4c-3.6-2.6-6.2-7.6-6.2-13.1c0-4.7,1.1-9,3.2-12.6C418.4,512.2,428.4,506.3,440.1,506.1z"/>
						<path fill="#AF8C69" d="M479.2,506.1v32.1c-4.1,0-8.3-0.2-12.3-0.5c3.1-14.3-2.6-32.1-26.8-31.5c-11.7,0.2-21.7,6-26.7,14.9
							l0,0c-18.2-11.7-32.8-28-44.3-46.4c-25.4-41.1-35.7-92.1-37.2-124.4c-1.9-44.8,9.6-79.5,38.6-108.1l0.2-0.2
							c22.5,30.4,62.7,50.7,108.3,50.9v31.9c0,0-59.6,4.8-70.4-13.2c-14.5-24.1-35.6-30.7-54.9-20.2c-24.2,12.9,1,155.8,19.5,169.1
							c24.2,17.3,37.6-0.7,54.6,18.5C443.7,497.1,458.6,496.8,479.2,506.1z"/>
						<path fill="#42210B" d="M405.9,226.4c34,10.1,54.6-12.9,58.6-17.9c-1.9,2.8-3.3,6-3.4,9.6c-0.2,13,13.1,26.6,18.1,26.6V293
							c-45.7-0.2-85.9-20.6-108.3-50.9c-3.9-5.4-7.4-11-10-16.7c-5.8-12.3-9-25.6-9-39.7c0-9.1,1.4-18.1,4-26.7
							c0.5-1.9,1.1-3.9,1.9-5.7c2.6-6.4,6.5-13.6,7.4-15.6c0,0,0-0.2,0.2-0.2c0.2-0.2,0.2-0.4,0.2-0.4c-6-7.4-24.5-10.5-24.5-10.5
							l35.6-4.6L336.1,104c0,0,40.5-4.8,53.8,3.4c8.7,5.5-12.7-28.7-13.1-29.4l60,38.7l-0.2,0.4c-9-3.4-19.6-4.7-33.2,1.5
							c-1.9,0.8-4,1.9-5.8,2.9C336.7,154.3,369.1,215.4,405.9,226.4z"/>
						<path fill="#C7B299" d="M479.2,81.4V197c0,0-1,0.5-2.5,1.2c0,0-3.4-62.7-35.8-78.8c-1.5-0.7-3.1-1.4-4.6-2.1l0.2-0.4l-60-38.6
							l0,0l53.2,1.5L479.2,81.4z"/>
						<path fill="#EFDECE" d="M405.9,226.4c-36.9-11-69.4-72.2-8.4-104.4c1.8-1.1,3.9-1.9,5.8-2.9c13.6-6.2,24.4-5,33.2-1.5
							c1.5,0.7,3.2,1.4,4.6,2.1c32.3,16,35.8,78.8,35.8,78.8c-3.1,1.5-8.1,4.8-11.5,9.4c0,0-0.2,0.4-0.7,0.8
							C460.5,213.6,440.1,236.6,405.9,226.4z M458.6,187.1C458.6,187.1,458.6,186.8,458.6,187.1c1.7-4.8,2.5-9.8,2.5-15.1
							c0-25.4-19.8-46-44.3-46c-24.5,0-44.3,20.6-44.3,46s19.8,46,44.3,46C436.3,218,452.7,205.1,458.6,187.1z"/>
						<path fill="#42210B" d="M416.7,143.8c-14.9,0-27,12.6-27,28c0,15.6,12.2,28,27,28c14.9,0,27-12.6,27-28
							C443.8,156.3,431.7,143.8,416.7,143.8z M372.5,171.8c0-25.4,19.8-46,44.3-46c24.5,0,44.3,20.6,44.3,46
							c0,5.4-0.8,10.3-2.5,15.1c0,0,0,0,0,0.2c-6,18-22.5,30.9-41.8,30.9C392.3,218,372.5,197.2,372.5,171.8z"/>
						<path fill="#0F0602" d="M389.7,171.8c0-15.6,12.2-28,27-28c14.9,0,27,12.6,27,28c0,15.6-12.2,28-27,28
							C401.9,200.1,389.7,187.4,389.7,171.8z"/>
						<path fill="#42210B" d="M289.1,388.6c-23.1-95.5,71.9-163.4,71.9-163.4c2.8,6,6.2,11.5,10,16.7l-0.2,0.2
							c-29.2,28.7-40.7,63.4-38.7,108.1c1.5,32.3,11.5,83.3,37.2,124.4l-1,0.7l0,0C366.9,475.4,308.1,466.2,289.1,388.6z"/>
						<path fill="#FBB03B" d="M479.2,197v47.6c-5,0-18.2-13.6-18.1-26.6c0-3.6,1.5-6.7,3.4-9.6c0.5-0.5,0.7-0.8,0.7-0.8
							c3.4-4.6,8.7-7.7,11.5-9.4C478.4,197.5,479.2,197,479.2,197z"/>
						<path fill="#51260E" d="M364.8,138.4c0.2-0.2,0.2-0.4,0.3-0.5c-1,1.9-4.8,9-7.4,15.6C359.8,148.2,362.1,143.2,364.8,138.4z"/>
						<g id="fill_x5F_bottom_15_">
							<path fill="#C4731A" d="M517.2,506.1c-24.4-0.5-29.9,17.3-26.8,31.5c1.4,6.7,4.7,12.3,8.7,15.2l11.2-16.5l10.6,16.5
								l11.3-20.2l8.7,14.4c3.6-2.6,6.2-7.6,6.2-13.1c0-4.7-1.1-9-3.2-12.6C539,512.2,529,506.3,517.2,506.1z"/>
							<path fill="#AF8C69" d="M478.2,506.1v32.1c4.1,0,8.3-0.2,12.3-0.5c-3.1-14.3,2.6-32.1,26.8-31.5c11.7,0.2,21.7,6,26.7,14.9
								l0,0c18.2-11.7,32.8-28,44.3-46.4c25.4-41.1,35.7-92.1,37.2-124.4c1.9-44.8-9.6-79.5-38.6-108.1l-0.2-0.2
								c-22.5,30.4-62.7,50.7-108.3,50.9v31.9c0,0,59.6,4.8,70.4-13.2c14.5-24.1,35.6-30.7,54.9-20.2c24.2,12.9-1,155.8-19.5,169.1
								c-23.9,17.3-37.6-0.7-54.6,18.5C513.8,497.1,498.8,496.8,478.2,506.1z"/>
							<path fill="#42210B" d="M551.4,226.4c-34,10.1-54.6-12.9-58.6-17.9c1.9,2.8,3.3,6,3.4,9.6c0.2,13-13.1,26.6-18.1,26.6V293
								c45.7-0.2,85.9-20.6,108.3-50.9c4-5.4,7.4-11,10.1-16.7c5.8-12.3,9-25.6,9-39.7c0-9.1-1.4-18.1-4-26.7
								c-0.5-1.9-1.1-3.9-1.9-5.7c-2.5-6.4-6.5-13.6-7.4-15.6c0,0,0-0.2-0.2-0.2c-0.2-0.2-0.2-0.4-0.2-0.4
								c6-7.4,24.5-10.5,24.5-10.5l-35.6-4.6l40.5-18c0,0-40.5-4.8-53.8,3.4c-8.7,5.5,12.7-28.7,13.1-29.4l-60,38.7l0.2,0.4
								c9-3.4,19.6-4.7,33.2,1.5c1.9,0.8,4,1.9,5.8,2.9C620.8,154.3,588.5,215.4,551.4,226.4z"/>
							<path fill="#C7B299" d="M474.7,81.4l3.4,115.6c0,0,1,0.5,2.5,1.2c0,0,3.4-62.7,35.8-78.8c1.5-0.7,3.1-1.4,4.6-2.1l-0.2-0.4
								l60-38.7l0,0l-53.5,1.5L474.7,81.4z"/>
							<path fill="#EFDECE" d="M551.4,226.4c36.9-11,69.4-72.2,8.4-104.4c-1.8-1.1-3.9-1.9-5.8-2.9c-13.6-6.2-24.4-5-33.2-1.5
								c-1.5,0.7-3.2,1.4-4.6,2.1c-32.3,16-35.8,78.8-35.8,78.8c3.1,1.5,8.1,4.8,11.5,9.4c0,0,0.2,0.4,0.7,0.8
								C496.8,213.6,517.5,236.6,551.4,226.4z M498.8,187.1C498.8,187.1,498.8,186.8,498.8,187.1c-1.7-4.8-2.5-9.8-2.5-15.1
								c0-25.4,19.8-46,44.3-46s44.3,20.6,44.3,46s-19.8,46-44.3,46C521.3,218,504.8,205.1,498.8,187.1z"/>
							<path fill="#42210B" d="M540.6,143.8c14.9,0,27,12.6,27,28c0,15.6-12.2,28-27,28c-14.9,0-27-12.6-27-28
								S525.7,143.8,540.6,143.8z M584.9,171.8c0-25.4-19.8-46-44.3-46s-44.3,20.6-44.3,46c0,5.4,0.8,10.3,2.5,15.1c0,0,0,0,0,0.2
								c6,18,22.5,30.9,41.8,30.9C565.1,218,584.9,197.2,584.9,171.8z"/>
							<path fill="#0F0602" d="M567.6,171.8c0-15.6-12.2-28-27-28c-14.9,0-27,12.6-27,28c0,15.6,12.2,28,27,28
								C555.5,200.1,567.6,187.4,567.6,171.8z"/>
							<path fill="#42210B" d="M668.2,388.6c23.1-95.5-71.6-163.4-71.6-163.4c-2.8,6-6.2,11.5-10.1,16.7l0.2,0.2
								c29.2,28.7,40.8,63.2,38.6,108c-1.5,32.3-11.5,83.3-37.2,124.4l1,0.7l0,0C590.9,475.4,649.6,466.2,668.2,388.6z"/>
							<path fill="#FBB03B" d="M478.2,197v47.6c5,0,18.2-13.6,18.1-26.6c0-3.6-1.5-6.7-3.4-9.6c-0.5-0.5-0.7-0.8-0.7-0.8
								c-3.4-4.6-8.7-7.7-11.5-9.4C479.2,197.5,478.2,197,478.2,197z"/>
							<path fill="#51260E" d="M592.5,138.4c-0.2-0.2-0.2-0.4-0.3-0.5c1,1.9,5,9,7.4,15.6C597.8,148.2,595.2,143.2,592.5,138.4z"/>
						</g>
						<path fill="#C7B299" d="M580.8,396c-4.8,54.8-46.6,99.6-104.1,99.6S375,450.9,372.6,396c-4.3-95.2,46.6-88.5,104.1-88.5
							S589,302.7,580.8,396z"/>
					</g>
					<g id="fill_x5F_top_12_">
						<path display="none" fill="#AF8C69" d="M479.2,506.1v32.1c-4.1,0-8.3-0.2-12.3-0.5c0.8-4,1-8.2,0.3-12.2l0,0
							c-1.8-10.5-9.6-19.8-27.1-19.4c-11.7,0.2-21.8,6-26.7,14.9l0,0c-18.2-11.7-32.8-28-44.3-46.4c-25.4-41.1-35.7-92.1-37.2-124.4
							c-1.9-44.8,9.6-79.5,38.6-108.1l0.2-0.2c22.5,30.4,62.5,50.7,108.3,50.9V506L479.2,506.1L479.2,506.1z"/>
						<path fill="#FBB03B" d="M479.2,197.5v47.3c-5,0-18.2-13.6-18.1-26.6c0-3.6,1.5-6.7,3.4-9.6c0.5-0.5,0.7-0.8,0.7-0.8
							c3.4-4.6,8.7-7.7,11.5-9.4C478.2,197.5,479.2,197.5,479.2,197.5z"/>
						<path fill="#AF8C69" d="M479.2,129.7l2.2,1.4l-1.9,65.6c0,0-1.5,0.8-3.1,1.7c0,0-3.4-60-35.8-76.2c-1.5-0.7-3.1-1.4-4.6-2.1
							l0.2-0.4l-3.9-2.5"/>
						<path fill="#EFDECE" d="M458.5,187.1C458.5,187.1,458.6,186.8,458.5,187.1c1.7-4.8,2.5-9.8,2.5-15.1c0-25.4-19.8-46-44.3-46
							c-24.5,0-44.3,20.6-44.3,46c0,1.5,0,2.9,0.2,4.3c2.2,23.4,21.1,41.8,44.1,41.8C436.1,218,452.6,205.1,458.5,187.1z M363.9,163
							c2.4-14.9,12.2-29.7,33.5-41.1c1.8-1.1,3.9-1.9,5.8-2.9c13.6-6.2,24.4-5,33.2-1.5c1.5,0.7,3.1,1.4,4.6,2.1
							c32.3,16,35.8,78.8,35.8,78.8c-3.1,1.5-8.1,4.8-11.5,9.4c0,0-0.2,0.4-0.7,0.8c-4,4.8-24.5,28-58.6,17.9
							C381.9,219.3,359.8,190.8,363.9,163z"/>
						<path fill="#C4731A" d="M466.8,537.7c-1.4,6.7-4.7,12.3-8.7,15.2l-11.2-16.5l-10.6,16.5l-11.5-20.2l-8.7,14.4
							c-3.6-2.6-6.2-7.6-6.2-13.1c0-3.4,0.7-6.7,1.8-9.6c0,0,10.1-7.4,17.2-7.4c16.2,0,21.1,10.1,29.4,10.1c5,0,7.9-1.2,7.9-1.2
							l0.7-0.2l0,0C467.9,529.5,467.6,533.6,466.8,537.7z"/>
						<path fill="#51260E" d="M450,174.8c3.4,0.8,8.9,9.6,8.4,12.3c0,0,0,0,0,0.2c-6,18-22.5,30.9-41.8,30.9
							c-23,0-41.9-18.4-44.1-41.8h0.7c0,0,8.7-14.4,10.6-13.9c1.9,0.4,5.7,10.5,5.7,10.5l0,0c0.5,15.1,12.4,27.3,27,27.3
							c11.2,0,20.6-7,24.7-17l0,0C441.9,182.5,446.6,173.8,450,174.8z"/>
						<path fill="#230F07" d="M443.7,174.2c-0.2,3.2-1,6-1.9,8.9l0,0c-4.1,10.1-13.7,17-24.7,17c-14.6,0-26.4-12.2-27-27.3
							c0-0.4,0-0.7,0-1.1c0,0,8.4-1.4,12.9,11c4.6,12.4,24.2,9.8,28.3,3.9C435.3,180.4,439.9,174.2,443.7,174.2z"/>
						<path fill="#51260E" d="M365.3,137.7c0.2-0.2,0.2-0.4,0.2-0.4c-6-7.4-24.5-10.5-24.5-10.5l35.6-4.6c0,0,3.6,2.5,5.7-2.1
							c4-8.3-46.4-16-46.4-16s40.5-4.8,53.8,3.4c8.7,5.5-12.7-28.7-13.1-29.4l23.9,15.3l0,0c0.5,0.7,10.6,14.9,4.1,20.8
							c-4.1,3.9-7.4,7.4-7.4,7.4c-21.3,11.2-31.1,26.1-33.5,41.1c-0.8-0.2-1.5-0.4-2.2-0.7c-3.4-1.9-5.8-3.2-6-3.3
							c0.5-1.9,1.1-3.9,1.9-5.7C360.3,146.8,364.1,139.8,365.3,137.7C365.3,137.9,365.3,137.7,365.3,137.7z"/>
						<path fill="#51260E" d="M364.8,138.4c0.2-0.2,0.2-0.4,0.3-0.5c-1,1.9-4.8,9-7.4,15.6C359.6,148.2,362.1,143.2,364.8,138.4z"/>
						<path fill="#51260E" d="M351.8,232.6c0,0,4.7,11.5,0,20.5c-4.7,9-33.5,54.2-31.8,82.7c1.7,28.7-34,34.3-34,34.3
							C279.7,302.1,330.6,250.6,351.8,232.6z"/>
						<g id="fill_x5F_top_15_">
							<path display="none" fill="#AF8C69" d="M478.2,506.1v32.1c4.1,0,8.3-0.2,12.3-0.5c-0.8-4-1-8.2-0.3-12.2l0,0
								c1.8-10.5,9.6-19.8,27.1-19.4c11.7,0.2,21.8,6,26.7,14.9l0,0c18.2-11.7,32.8-28,44.3-46.4c25.4-41.1,35.7-92.1,36.9-124.4
								c1.9-44.8-9.6-79.5-38.6-108.1l-0.2-0.2c-22.5,30.4-62.5,50.7-108.3,50.9L478.2,506.1L478.2,506.1z"/>
							<path fill="#FBB03B" d="M478.2,197.5v47.3c5,0,18.2-13.6,18.1-26.6c0-3.6-1.5-6.7-3.4-9.6c-0.5-0.5-0.7-0.8-0.7-0.8
								c-3.4-4.6-8.7-7.7-11.5-9.4C479.2,197.5,478.2,197.5,478.2,197.5z"/>
							<path fill="#AF8C69" d="M477.9,129.5l0.3,67.5c0,0,1,0.4,2.5,1.2c0,0,3.4-60,35.8-76.2c1.5-0.7,3.1-1.4,4.6-2.1l-0.2-0.4
								l3.9-2.5C523.5,117.7,480.4,131.6,477.9,129.5z"/>
							<path fill="#EFDECE" d="M498.8,187.1C498.8,187.1,498.8,186.8,498.8,187.1c-1.7-4.8-2.5-9.8-2.5-15.1c0-25.4,19.8-46,44.3-46
								s44.3,20.6,44.3,46c0,1.5,0,2.9-0.2,4.3c-2.2,23.4-21,41.8-44.1,41.8C521.3,218,504.8,205.1,498.8,187.1z M593.5,163
								c-2.4-14.9-12.2-29.7-33.3-41.1c-1.8-1.1-3.9-1.9-5.8-2.9c-13.6-6.2-24.4-5-33.2-1.5c-1.5,0.7-3.1,1.4-4.6,2.1
								c-32.4,16-35.8,78.8-35.8,78.8c3.1,1.5,8.1,4.8,11.5,9.4c0,0,0.2,0.4,0.7,0.8c4,4.8,24.5,28,58.6,17.9
								C575.6,219.3,597.8,190.8,593.5,163z"/>
							<path fill="#C4731A" d="M490.4,537.7c1.4,6.7,4.7,12.3,8.7,15.2l11.2-16.5l10.6,16.5l11.5-20.2l8.7,14.4
								c3.6-2.6,6.2-7.6,6.2-13.1c0-3.4-0.7-6.7-1.8-9.6c0,0-10.1-7.4-17.2-7.4c-16.2,0-21.1,10.1-29.4,10.1c-5,0-7.9-1.2-7.9-1.2
								l-0.7-0.2l0,0C489.5,529.5,489.6,533.6,490.4,537.7z"/>
							<path fill="#51260E" d="M507.3,174.8c-3.4,0.8-8.9,9.6-8.4,12.3c0,0,0,0,0,0.2c6,18,22.5,30.9,41.8,30.9
								c23.1,0,41.9-18.4,44.1-41.8h-0.7c0,0-8.7-14.4-10.6-13.9s-5.7,10.5-5.7,10.5l0,0c-0.5,15.1-12.4,27.3-27,27.3
								c-11.2,0-20.6-7-24.7-17l0,0C515.5,182.5,510.8,173.8,507.3,174.8z"/>
							<path fill="#230F07" d="M513.8,174.2c0.2,3.2,1,6,1.9,8.9l0,0c4.1,10.1,13.7,17,24.7,17c14.6,0,26.4-12.2,27-27.3
								c0-0.4,0-0.7,0-1.1c0,0-8.4-1.4-12.9,11c-4.6,12.4-24.2,9.8-28.3,3.9C522.4,180.4,517.7,174.2,513.8,174.2z"/>
							<path fill="#51260E" d="M592.1,137.7c-0.2-0.2-0.2-0.4-0.2-0.4c6-7.4,24.5-10.5,24.5-10.5l-35.6-4.6c0,0-3.6,2.5-5.7-2.1
								c-4-8.3,46.4-16,46.4-16s-40.5-4.8-53.8,3.4C559,113,580.3,78.8,580.8,78l-23.9,15.3l0,0c-0.5,0.7-10.6,14.9-4.1,20.8
								c4.1,3.9,7.4,7.4,7.4,7.4c21.3,11.2,31.1,26.1,33.3,41.1c0.8-0.2,1.5-0.4,2.2-0.7c3.4-1.9,5.8-3.2,6-3.3
								c-0.5-1.9-1.1-3.9-1.9-5.7C597.1,146.8,593.3,139.8,592.1,137.7C592.3,137.9,592.1,137.7,592.1,137.7z"/>
							<path fill="#51260E" d="M592.6,138.4c-0.2-0.2-0.2-0.4-0.3-0.5c1,1.9,4.8,9,7.4,15.6C597.8,148.2,595.4,143.2,592.6,138.4z"
								/>
							<path fill="#51260E" d="M605.7,232.6c0,0-4.7,11.5,0,20.5c4.7,9,33.5,54.2,31.8,82.7c-1.7,28.7,34,34.4,34,34.4
								C677.7,302.1,627,250.6,605.7,232.6z"/>
						</g>
					</g>
					<g id="outlines_12_">
						<path fill="none" stroke="#000000" stroke-width="3" stroke-miterlimit="10" d="M365.3,137.7c0.8-1.2,1.8-2.5,3.1-3.4"/>
						<path fill="none" stroke="#000000" stroke-width="3" stroke-miterlimit="10" d="M355.7,159c0.5-1.9,1.1-3.9,1.9-5.7"/>
						<ellipse fill="none" stroke="#000000" stroke-width="3" stroke-miterlimit="10" cx="416.7" cy="171.8" rx="27" ry="28"/>
						<path fill="none" stroke="#000000" stroke-width="3" stroke-miterlimit="10" d="M479.2,293c-45.7-0.2-85.9-20.6-108.3-50.9
							c-3.9-5.4-7.4-11-10-16.7c-5.8-12.3-9-25.6-9-39.7c0-9.1,1.4-18.1,4-26.7"/>
						<path fill="none" stroke="#0A0000" stroke-width="3" stroke-miterlimit="10" d="M464.8,208.1c3.4-4.6,9-8.3,11.9-9.8
							c1.5-0.8,4.7-0.4,4.7-0.4"/>
						<path fill="none" stroke="#0A0000" stroke-width="3" stroke-miterlimit="10" d="M479.2,244.4c-5,0-18.2-13.6-18.1-26.6
							c0-3.6,1.5-6.7,3.4-9.6"/>
						<path fill="none" stroke="#000000" stroke-width="3" stroke-miterlimit="10" d="M458.5,187.1c-6,18-22.5,30.9-41.8,30.9
							c-23,0-41.9-18.4-44.1-41.8c-0.2-1.4-0.2-2.9-0.2-4.3c0-25.4,19.8-46,44.3-46c24.5,0,44.3,20.6,44.3,46
							C461,177.2,460.2,182.2,458.5,187.1"/>
						<path fill="none" stroke="#000000" stroke-width="3" stroke-miterlimit="10" d="M389.7,172.8c0-0.4,0-0.7,0-1.1
							c0-15.6,12.2-28,27-28s27,12.6,27,28c0,0.8,0,1.5-0.2,2.2c-0.2,3.2-1,6-1.9,8.9"/>
						<path fill="none" stroke="#000000" stroke-width="3" stroke-miterlimit="10" d="M465.1,207.7c0,0-0.2,0.4-0.7,0.8
							c-4,4.8-24.5,28-58.6,17.9c-23.9-7.2-46-35.6-41.9-63.4c2.4-14.9,12.2-29.7,33.5-41.1c1.8-1.1,3.9-1.9,5.8-2.9
							c13.6-6.2,24.4-5,33.2-1.5c1.5,0.7,3.1,1.4,4.6,2.1c32.3,16,35.8,78.8,35.8,78.8"/>
						<polyline fill="none" stroke="#000000" stroke-width="3" stroke-miterlimit="10" points="376.5,78.3 429.9,79.9 479.2,81.4 
													"/>
						<line fill="none" stroke="#000000" stroke-width="3" stroke-miterlimit="10" x1="400.4" y1="93.9" x2="376.5" y2="78.3"/>
						<line fill="none" stroke="#000000" stroke-width="3" stroke-miterlimit="10" x1="432.8" y1="114.6" x2="400.4" y2="93.9"/>
						<line fill="none" stroke="#000000" stroke-width="3" stroke-miterlimit="10" x1="436.5" y1="117.1" x2="432.8" y2="114.6"/>
						<path fill="none" stroke="#000000" stroke-width="3" stroke-miterlimit="10" d="M377,78.3c0,0,0,0-0.5,0
							c0.5,0.8,21.8,35,13.1,29.4c-13.1-8.3-53.8-3.4-53.8-3.4l40.5,18l-35.6,4.6c0,0,18.5,3.3,24.5,10.5c0,0,0,0.2-0.2,0.4
							c0,0,0,0.2-0.2,0.2c-1,1.9-4.8,9-7.4,15.6c-0.8,2.1-1.5,4-1.9,5.7"/>
						<path fill="none" stroke="#000000" stroke-width="3" stroke-miterlimit="10" d="M413.4,521c-18.2-11.7-32.8-28-44.3-46.4
							c-25.4-41.1-35.7-92.1-37.2-124.4c-1.9-44.8,9.6-79.5,38.6-108.1"/>
						<path fill="none" stroke="#000000" stroke-width="3" stroke-miterlimit="10" d="M479.2,538c-4.1,0-8.3-0.2-12.3-0.5
							c-0.2,0-0.3,0-0.3,0"/>
						<path fill="none" stroke="#000000" stroke-width="3" stroke-miterlimit="10" d="M368.1,475.4h-0.2"/>
						<path fill="none" stroke="#000000" stroke-width="3" stroke-miterlimit="10" d="M360.7,225.2c0,0-3.4,2.5-9,7.4
							c-21.1,18.1-72,69.4-65.8,137.4c0.5,6,1.5,12.2,3.2,18.5c18.8,77.7,77.6,86.7,79,86.7l0,0"/>
						<path fill="none" stroke="#000000" stroke-width="3" stroke-miterlimit="10" d="M466.8,537.7c-1.4,6.7-4.7,12.3-8.7,15.2
							l-11.2-16.5l-10.6,16.5l-11.5-20.2l-8.7,14.4c-3.6-2.6-6.2-7.6-6.2-13.1c0-3.4,0.7-6.7,1.8-9.6c0.3-1.1,0.8-1.9,1.4-2.9
							c4.8-9,14.9-14.6,26.7-14.9c17.7-0.4,25.3,8.9,27.1,19.4l0,0C467.9,529.5,467.6,533.6,466.8,537.7z"/>
						<polyline fill="none" stroke="#000000" stroke-width="3" stroke-miterlimit="10" points="361,311.8 373.9,331.4 387.1,311.8 
													"/>
						<polyline fill="none" stroke="#000000" stroke-width="3" stroke-miterlimit="10" points="387.5,360.4 399,379.8 410.2,362.1 
													"/>
						<polyline fill="none" stroke="#000000" stroke-width="3" stroke-miterlimit="10" points="432.5,334.3 444,354 458.6,334.3 
													"/>
						<polyline fill="none" stroke="#000000" stroke-width="3" stroke-miterlimit="10" points="442.6,408.7 455.6,431.2 
							468.7,408.7 						"/>
						<polyline fill="none" stroke="#000000" stroke-width="3" stroke-miterlimit="10" points="373.9,434.9 385.8,454.4 
							400.4,434.9 						"/>
						<polyline fill="none" stroke="#000000" stroke-width="3" stroke-miterlimit="10" points="432.5,469.5 444,488.9 458.6,469.5 
													"/>
						<path fill="none" stroke="#000000" stroke-width="3" stroke-miterlimit="10" d="M400.4,93.9L400.4,93.9"/>
						<g id="outlines_15_">
							<path fill="none" stroke="#000000" stroke-width="3" stroke-miterlimit="10" d="M592.1,137.7c-0.8-1.2-1.8-2.5-3.1-3.4"/>
							<path fill="none" stroke="#000000" stroke-width="3" stroke-miterlimit="10" d="M601.6,159c-0.5-1.9-1.1-3.9-1.9-5.7"/>
							<ellipse fill="none" stroke="#000000" stroke-width="3" stroke-miterlimit="10" cx="540.6" cy="171.8" rx="27" ry="28"/>
							<path fill="none" stroke="#000000" stroke-width="3" stroke-miterlimit="10" d="M478.2,293c45.7-0.2,85.9-20.6,108.3-50.9
								c4-5.4,7.4-11,10.1-16.7c5.8-12.3,9-25.6,9-39.7c0-9.1-1.4-18.1-4-26.7"/>
							<path fill="none" stroke="#0A0000" stroke-width="3" stroke-miterlimit="10" d="M492.8,208.5c-3.4-4.6-9.3-8.7-12.2-10.3
								c-1.5-0.8-2.5-1.2-2.5-1.2"/>
							<path fill="none" stroke="#0A0000" stroke-width="3" stroke-miterlimit="10" d="M478.2,244.4c5,0,18.2-13.6,18.1-26.6
								c0-3.6-1.5-6.7-3.4-9.6"/>
							<path fill="none" stroke="#000000" stroke-width="3" stroke-miterlimit="10" d="M498.8,187.1c6,18,22.5,30.9,41.8,30.9
								c23.1,0,41.9-18.4,44.1-41.8c0.2-1.4,0.2-2.9,0.2-4.3c0-25.4-19.8-46-44.3-46s-44.3,20.6-44.3,46
								C496.4,177.2,497.2,182.2,498.8,187.1"/>
							<path fill="none" stroke="#000000" stroke-width="3" stroke-miterlimit="10" d="M567.7,172.8c0-0.4,0-0.7,0-1.1
								c0-15.6-12.2-28-27-28s-27,12.6-27,28c0,0.8,0,1.5,0.2,2.2c0.2,3.2,1,6,1.9,8.9"/>
							<path fill="none" stroke="#000000" stroke-width="3" stroke-miterlimit="10" d="M492.3,207.7c0,0,0.2,0.4,0.7,0.8
								c4,4.8,24.5,28,58.6,17.9c23.9-7.2,46-35.6,41.9-63.4c-2.4-14.9-12.2-29.7-33.3-41.1c-1.8-1.1-3.9-1.9-5.8-2.9
								c-13.6-6.2-24.4-5-33.2-1.5c-1.5,0.7-3.1,1.4-4.6,2.1c-32.4,16-35.8,78.8-35.8,78.8"/>
							<polyline fill="none" stroke="#000000" stroke-width="3" stroke-miterlimit="10" points="580.9,78.3 527.7,79.9 478.2,81.4 
															"/>
							<line fill="none" stroke="#000000" stroke-width="3" stroke-miterlimit="10" x1="556.9" y1="93.9" x2="580.9" y2="78.3"/>
							<line fill="none" stroke="#000000" stroke-width="3" stroke-miterlimit="10" x1="524.9" y1="114.6" x2="556.9" y2="93.9"/>
							<line fill="none" stroke="#000000" stroke-width="3" stroke-miterlimit="10" x1="521" y1="117.1" x2="524.9" y2="114.6"/>
							<path fill="none" stroke="#000000" stroke-width="3" stroke-miterlimit="10" d="M580.4,78.3c0,0,0,0,0.5,0
								c-0.5,0.8-21.8,35-13.1,29.4c13.1-8.3,53.8-3.4,53.8-3.4l-40.5,18l35.6,4.6c0,0-18.5,3.3-24.5,10.5c0,0,0,0.2,0.2,0.4
								c0,0,0,0.2,0.2,0.2c1,1.9,4.8,9,7.4,15.6c0.8,2.1,1.5,4,1.9,5.7"/>
							<path fill="none" stroke="#000000" stroke-width="3" stroke-miterlimit="10" d="M544,521c18.2-11.7,32.8-28,44.3-46.4
								c25.4-41.1,35.7-92.1,36.9-124.4c1.9-44.8-9.6-79.5-38.6-108.1"/>
							<path fill="none" stroke="#000000" stroke-width="3" stroke-miterlimit="10" d="M478.2,538c4.1,0,8.3-0.2,12.3-0.5
								c0.2,0,0.3,0,0.3,0"/>
							<path fill="none" stroke="#000000" stroke-width="3" stroke-miterlimit="10" d="M589.3,475.4h0.2"/>
							<path fill="none" stroke="#000000" stroke-width="3" stroke-miterlimit="10" d="M596.6,225.2c0,0,3.4,2.5,9,7.4
								c21.1,18.1,72,69.6,65.8,137.4c-0.5,6-1.5,12.2-3.1,18.5c-18.8,77.7-77.6,86.7-79,86.7l0,0"/>
							<path fill="none" stroke="#000000" stroke-width="3" stroke-miterlimit="10" d="M490.4,537.7c1.4,6.7,4.7,12.3,8.7,15.2
								l11.2-16.5l10.6,16.5l11.5-20.2l8.7,14.4c3.6-2.6,6.2-7.6,6.2-13.1c0-3.4-0.7-6.7-1.8-9.6c-0.3-1.1-0.8-1.9-1.4-2.9
								c-4.8-9-14.9-14.6-26.7-14.9c-17.7-0.4-25.3,8.9-27.1,19.4l0,0C489.5,529.5,489.6,533.6,490.4,537.7z"/>
							<polyline fill="none" stroke="#000000" stroke-width="3" stroke-miterlimit="10" points="596.4,311.8 583.5,331.4 
								570.5,311.8 							"/>
							<polyline fill="none" stroke="#000000" stroke-width="3" stroke-miterlimit="10" points="569.8,360.4 558.5,379.8 
								547.1,362.1 							"/>
							<polyline fill="none" stroke="#000000" stroke-width="3" stroke-miterlimit="10" points="524.9,334.3 513.6,354 498.8,334.3 
															"/>
							<polyline fill="none" stroke="#000000" stroke-width="3" stroke-miterlimit="10" points="514.8,408.7 501.8,431.2 
								488.8,408.7 							"/>
							<polyline fill="none" stroke="#000000" stroke-width="3" stroke-miterlimit="10" points="583.5,434.9 571.8,454.4 
								557.1,434.9 							"/>
							<polyline fill="none" stroke="#000000" stroke-width="3" stroke-miterlimit="10" points="524.9,469.5 513.6,488.9 
								498.8,469.5 							"/>
							<path fill="none" stroke="#000000" stroke-width="3" stroke-miterlimit="10" d="M556.9,93.9L556.9,93.9"/>
						</g>
					</g>
				</g>
			</g>
		</g>
	</g>
	<g id="top">
		<g id="eye_lens">
			<path id="eye_lens_2" fill="#FFFFFF" d="M411.6,140.6c3.1,3.6,0.5,13.6-5.8,17.9c-6.5,4.3-12,5-15.2,1.5c-3.1-3.6-2.8-9.6,5-16
				C401.6,138.6,408.6,137,411.6,140.6z"/>
			<path id="eye_lens_1" fill="#FFFFFF" d="M402.4,166.9c1.4,1.5,0.2,5.4-1.5,6.9c-1.7,1.5-4.1,1.5-5.5,0c-1.4-1.5-1-4.1,0.7-5.7
				C397.8,166.7,401.1,165.4,402.4,166.9z"/>
		</g>
		<g id="eye_lens_1_">
			<path id="eye_lens_2_1_" fill="#FFFFFF" d="M536.5,140.6c3.1,3.6,0.5,13.6-5.8,17.9c-6.5,4.3-12,5-15.2,1.5
				c-3.2-3.4-2.8-9.6,5-16C526.5,138.6,533.5,137,536.5,140.6z"/>
			<path id="eye_lens_1_1_" fill="#FFFFFF" d="M525.7,166.9c1.4,1.5,0.2,5.4-1.5,6.9c-1.7,1.5-4.1,1.5-5.5,0c-1.4-1.5-1-4.1,0.7-5.7
				C521,166.7,524.3,165.4,525.7,166.9z"/>
		</g>
	</g>
</g>
<g id="Vrstva_2">
	<g>
		<title>Layer 1</title>
		<path id="path37" stroke="#000000" stroke-width="0.5" stroke-miterlimit="10" d="M379.7,137.3c0.2,8.9-1.3,16.7-4.6,24.2
			c-3.3,7.4-9.1,15.8-15.2,19.9c-6.3,4-16.3,8.5-21.9,4.3c-5.6-4.4-8.4-22-11.3-29.9c-3-7.8-5.3-11.7-6-16.9
			c-0.7-5.3-1.2-9.9,2-14.6s8.9-9.3,17.3-13.6l0,0c0.1-5.8,1.5-10.3,4-13.9c2.5-3.7,6-6.1,11-7.6l0,0c-0.1-8.8,2.3-15.7,7-20.9
			c4.8-5.3,11.7-8.6,21.2-10.3l0,0c5.4-7.9,11-13.9,16.9-18.2s12-6.8,18.6-7.6l0,0c3.9-6,8.9-10.2,15.6-12.6
			c6.7-2.5,17.3-2.1,23.9-2c6.6,0,12,0.9,15.2,2c3.2,1.1,4.4,2.6,3.7,4.6l0,0c8.5-4,16.3-6.7,23.9-8c7.6-1.4,14.7-1.8,21.2,0
			c6.4,1.8,11.9,5.1,16.9,10.3l0,0c8.2-0.4,15.1,1,21.3,3.7c6.1,2.8,11.3,6.8,15.2,12.6c3.9,5.6,6.5,12.4,8,20.9l0,0
			c8.2,5.1,14.7,9.7,19.9,14.3c5.2,4.5,8,7.1,10.6,12.6c2.5,5.4,2.7,15,4.6,19.9c1.9,4.8,4.3,4.4,6.7,9.3c2.2,4.8,5.9,14.2,7,19.5
			c1.1,5.3-0.8,8.1-0.6,12.3c0.1,4.1,2.5,6.7,1.3,12.6c-1.3,6-4.6,17.3-8.3,22.5c-3.8,5.1-8.7,8.2-13.6,8.3c-4.9,0-9.7-4.8-15.2-8
			c-5.7-3.2-14.1-7.4-18.2-11c-4.1-3.7-5.6-6.7-6.7-10.6c-1.1-3.9-1.1-8.1,0-12.6l0,0c-5.6-2.6-9.8-4.9-13-7s-5-3.9-5.6-5.3l0,0
			c-7.3-1.6-12.4-2.9-15.6-4c-3.2-1.1-4.4-2-3.7-2.6l0,0c-6.7-0.5-12.4-1.9-17.6-4.3c-5.2-2.5-9.6-5.7-13.3-10l0,0
			c-7.6,1.1-13.7-0.2-18.2-4.3c-4.6-4.2-7.4-10.8-8.9-20.2l0,0l-12.6-2.6l0,0c-3,6.5-7,11.4-12.3,14.9c-5.3,3.6-13.2,5.8-19.3,6.3
			c-6,0.4-11.5-1-16.6-4l0,0c-1.8,4.6-3.9,8.9-6.3,12.6c-2.5,3.8-4,7.4-8.7,10C394.6,134.8,388.2,136.5,379.7,137.3L379.7,137.3z"/>
		<path id="path39" fill="#BFBFBF" d="M376.9,135.1c1.1,8.5,0,16.3-3,23.6c-3.2,7.4-9.6,15.7-15.2,19.9c-5.7,4.1-13.3,8.2-18.2,4.6
			c-4.8-3.9-7.9-19.3-10.6-26.9c-2.9-7.6-5.2-13-6-18.2c-0.8-5.3-1.3-9.2,1.7-13.3c3.1-4.1,8.3-7.9,16.2-11.3l0,0
			c0.1-5.8,1.5-10.3,4-13.9c2.5-3.7,6-6.1,11-7.6l0,0c-0.1-8.8,2.3-15.7,7-20.9c4.8-5.3,11.7-8.6,21.2-10.3l0,0
			c5.3-7.9,11-13.9,16.9-18.2c5.9-4.3,12.1-6.8,18.6-7.6l0,0c3.9-6,8.9-10.2,15.6-12.6c6.6-2.5,17.9-1.8,23.9-2
			c6-0.4,9.4-0.9,11.9,0.4c2.5,1.1,3.6,3.3,3.3,6.7l0,0c10.3-4.2,19.3-6.9,27.5-8.3c8.2-1.4,15.2-1.7,21.2,0
			c5.9,1.7,10.5,4.9,13.9,10l0,0c10.3,0.2,18.3,1.5,24.3,3.9c5.9,2.4,8.1,5.3,11.3,10.6c3.2,5.3,5.9,12.2,8,20.9l0,0
			c8.2,5.1,14.7,9.7,19.9,14.3c5.2,4.5,8,7.1,10.6,12.6c2.5,5.4,2.7,15,4.6,19.9c1.9,4.8,4.3,4.4,6.7,9.3c2.3,4.9,5.9,13.6,6.9,19.5
			c1,5.9-0.7,11.5-0.6,15.6c0.1,4,1.8,3.9,1,8.7c-1,4.8-3.4,15.3-6.7,19.9c-3.2,4.6-8.1,6.8-12.6,7c-4.6-0.1-9.5-4.1-14.6-7
			c-5.3-2.8-12.4-6.2-16.2-9.6c-3.8-3.4-5.6-6.7-6.7-10.6c-1.1-3.9-1.1-8.1,0-12.6l0,0c-6.3-3.7-10.9-6.6-14.3-8.9
			c-3.3-2.5-5.3-4.1-5.6-5.3l0,0c-4.1,0.1-7.7-0.5-11-1.7c-3.2-1.1-6-3-8.3-5.3l0,0c-7.3,0.3-13.5-0.5-18.9-2.6
			c-5.4-2.2-9.7-5.4-13.3-10l0,0c-7.2,1.9-12.8,0.8-16.9-3.3c-4.2-4.2-6.8-11.3-8-21.6l0,0l-16.6-4l0,0c-2.5,6.6-6.2,11.7-11.3,15.2
			c-5.3,3.6-13.1,5.9-19.3,6.3c-6,0.4-11.5-1-16.6-4l0,0c-3,5.3-5.7,10-8.7,13.9s-3.9,7.4-8.7,10
			C391.6,132.5,385.2,134.2,376.9,135.1L376.9,135.1z"/>
		<path id="path41" stroke="#000000" stroke-width="0.5" stroke-miterlimit="10" d="M460.1,89.9c1.5-3.2,3-6.7,4.3-11
			c1.3-4.2,3.4-8.8,4-13.9c0.6-5.3-0.1-13.3-0.4-17.3c-0.4-3.9-1.8-5.5-1.3-6.3c0.4-1,3.2-0.7,3.9,1c0.6,1.7,0.4,4.9,0.4,8.9
			s0.2,10-0.4,14.6c-0.7,4.6-1.9,8.4-3.3,12.6s-3,8.2-5,12.3l0,0C461.7,90.5,460.9,90.3,460.1,89.9L460.1,89.9z"/>
		<path id="path43" stroke="#000000" stroke-width="0.5" stroke-miterlimit="10" d="M475.4,26.2c0.1,2.3-0.2,4.6-0.6,6.6
			c-0.6,2.1-2.3,4.9-2.4,6c0,1,1.3,1,2.4,0c0.9-1.2,2.7-4.3,3.3-6.7c0.4-2.3,0.4-4.6-0.4-6.9l0,0C476.9,25.5,476.1,25.9,475.4,26.2
			L475.4,26.2z"/>
		<path id="path45" stroke="#000000" stroke-width="0.5" stroke-miterlimit="10" d="M485,40.4c1.8-2.3,5-4.4,9.3-6.3
			c4.3-2,10.9-4.5,16.6-5.3c5.7-0.9,13.2-1.1,17.3,0.6c3.9,1.8,6,5.2,6.3,10.3l0,0c3.5,0.4,6.7,1.2,10,2.3c3.2,1,7.4,2,8.9,4
			c1.4,1.9,0.4,6.5,0,7.6c-0.4,1-1.8-0.2-2.3-1.3c-0.5-1.1,0.4-4-0.7-5.3c-1.1-1.3-2.9-1.9-6-2.6c-3.2-0.9-7.1-1.7-12.3-2.4l0,0
			c0.6-3.9-0.1-6.7-2-8.6c-2-1.9-6-2.8-9.6-3c-3.7-0.3-8.2,0.4-12.3,1.3c-4.2,1-9,2.7-12.3,4.3c-3.3,1.5-5.3,2.9-7.3,4.6
			c-1.9,1.7-3.2,4.6-4.3,5.3c-1.2,0.5-2.7-0.7-2.7-1.7C481.8,43.4,482.9,42.2,485,40.4L485,40.4L485,40.4z"/>
		<path id="path47" stroke="#000000" stroke-width="0.5" stroke-miterlimit="10" d="M491.3,65.3c2.5-1.2,8-3.2,14.6-3.7
			c6.5-0.4,17.4-0.1,24.3,1c6.7,1.1,11.5,3.4,16.6,5.6c5.1,2.2,10.7,4.1,13.9,7.6c3.2,3.5,3.6,9.2,5,13.3c1.3,4,1.1,8.4,3,10.6
			c1.7,2,4.7,1.7,7.6,1.7c2.9-0.1,6.2-2.3,9.6-2c3.3,0.3,7.7,1.3,10.3,3.7c2.5,2.4,4,8.4,4.3,10.3c0.1,1.7-2,1.9-3.3,0.4
			c-1.3-1.7-2.3-7.8-4.6-9.6c-2.5-1.8-7.4-1.5-10.3-1.3c-2.9,0.1-4.6,2.2-7,2c-2.6-0.3-6-1.2-8-3s-2.1-3.8-3.3-7.3
			c-1.3-3.7-1.1-10.2-4-13.9c-3-3.8-7.8-6.1-13-8.7c-5.2-2.7-11.8-5.6-17.6-6.9c-5.8-1.3-11.3-1.1-16.6-1
			c-5.3,0.1-11.3,0.4-14.9,1.3c-3.7,0.9-5.6,3.6-6.7,3.7C490.2,68.9,488.9,66.5,491.3,65.3L491.3,65.3z"/>
		<path id="path49" stroke="#000000" stroke-width="0.5" stroke-miterlimit="10" d="M575.6,144.3c1.4,1.1,5.6,2.3,6.7,4.6
			c1,2.4-1.2,5.8-0.6,9.3c0.5,3.5,2.5,9.5,3.7,11.3c1.1,1.7,3,0.8,3-1c-0.1-1.8-3-6.5-3.3-9.6c-0.4-3.2,2.6-6.4,1.3-9.3
			c-1.4-3-7.2-6.7-9.3-8c-2.1-1.3-3.2-0.1-3.3,0.4C573.4,142.4,574,143.1,575.6,144.3L575.6,144.3z"/>
		<path id="path51" stroke="#000000" stroke-width="0.5" stroke-miterlimit="10" d="M620.4,168c-0.2,1.9-1.1,7.4-3.3,9.6
			c-2.4,2.2-8.7,3.5-10.3,3.7c-1.7,0-0.9-2.5,0.4-3.3c1.1-0.9,5-0.9,6.7-2c1.6-1.2,2.5-3.6,3.3-5.3c0.6-1.8,0.5-4.6,1-5
			C618.6,165.1,620.5,165.8,620.4,168L620.4,168z"/>
		<path id="path53" stroke="#000000" stroke-width="0.5" stroke-miterlimit="10" d="M481.7,77.6c1.5,0.6,5.6,3.2,8.3,6.7
			c2.7,3.4,4,10.8,8,13.9c3.9,3.1,10.5,3.1,15.2,4.6c4.7,1.4,8.8,2.2,12.6,4.3c3.6,2.2,5.2,6.6,9.3,8.9c4,2.3,12.4,3.7,14.9,5
			c2.4,1.2,2.3,3-0.4,2.6c-2.7-0.4-10.9-2.8-15.2-5.3c-4.5-2.6-6.1-7.5-11-10c-5-2.4-13.7-3.1-18.2-4.3c-4.6-1.3-6.1-1.3-8.7-3.7
			c-2.5-2.5-3.8-7.6-6.3-11c-2.7-3.3-8.2-6.9-9.6-8.9C479.2,78.5,480.1,76.9,481.7,77.6L481.7,77.6z"/>
		<path id="path55" stroke="#000000" stroke-width="0.5" stroke-miterlimit="10" d="M448.8,64c-4.3,9.9-8.3,16.8-12.6,21.2
			c-4.3,4.3-8.9,4.2-12.6,4.6c-3.6,0.4-6.6-0.4-8.9-2.4l0,0c-2.8,5.3-6.1,9.6-10.3,13c-4.2,3.2-10.4,5.4-14.6,6.7
			c-4.2,1.1-8.7-0.3-10.3,0.4c-1.6,0.6-1.8,2.8,0.6,3.3c2.4,0.4,9.4-0.1,13.6-1c4.1-1.1,7.6-2.1,11.3-5c3.6-2.9,6.9-7,10.3-12.3l0,0
			c4.9,1.9,9.7,2.2,14.6,0.4c4.8-1.8,10.7-6.7,14.3-11c3.5-4.4,6.1-11.6,6.9-14.6C451.9,64.3,451.2,63.2,448.8,64L448.8,64z"/>
		<path id="path57" stroke="#000000" stroke-width="0.5" stroke-miterlimit="10" d="M457.7,49.1c-2-3.2-4.6-5.6-8-7
			c-3.3-1.5-8.7-2.8-11.9-1.7c-3.2,1.1-5.9,3.9-7.6,8.3l0,0c-10.2,1.5-16.9,3.6-20.9,6.3c-3.9,2.6-4.8,5.9-2.6,9.6l0,0
			c-7,0.6-12.5,2-16.6,4.3c-4.2,2.3-6.1,8.1-8,9.3c-1.8,1.1-3.5-0.4-2.6-2.3c0.8-2.1,3.9-7.3,8-9.6c4-2.4,9.2-3.9,15.9-4.6l0,0
			c-0.6-3.2,0.1-5.8,2.3-8c2.2-2.2,6.8-3.8,10.6-5c3.7-1.2,7.4-2,11.3-2.3l0,0c0.8-4.3,3-7.1,6.7-8.7c3.6-1.5,10.8-1.6,14.9-0.4
			c4.1,1.1,8.5,5,10,7C460.5,46.4,460.1,47.9,457.7,49.1L457.7,49.1z"/>
		<path id="path59" stroke="#000000" stroke-width="0.5" stroke-miterlimit="10" d="M368.2,137c-0.3,2.7-2,9.4-5,14.6
			c-3.2,5.2-10.8,14.2-13.2,16.3c-2.5,1.9-2.1-2.7-1.3-4.3c0.7-1.8,3.7-3.4,5.6-6c1.9-2.5,4.2-5.6,6-9.3c1.7-3.9,3-11.4,4.3-13.3
			C365.8,133.1,368.4,134.2,368.2,137L368.2,137z"/>
		<path id="path71" stroke="#000000" stroke-width="0.5" stroke-miterlimit="10" d="M555,122.1c-0.4,0.5,0.1,2.7,0.7,3.3
			c0.4,0.5,2.2,0.5,2.6,0c0.4-0.6,0.4-2.8,0-3.3C557.8,121.5,555.5,121.5,555,122.1L555,122.1z"/>
		<path id="path73" stroke="#000000" stroke-width="0.5" stroke-miterlimit="10" d="M599.8,118.4c-0.4,0.5,0.1,2.7,0.6,3.3
			c0.4,0.5,2.2,0.5,2.6,0c0.4-0.6,0.4-2.8,0-3.3C602.5,117.9,600.2,117.9,599.8,118.4L599.8,118.4z"/>
		<path id="path75" stroke="#000000" stroke-width="0.5" stroke-miterlimit="10" d="M606.8,143.3c-0.4,0.5,0.1,2.7,0.7,3.3
			c0.4,0.5,2.2,0.5,2.6,0c0.4-0.6,0.4-2.8,0-3.3C609.5,142.8,607.2,142.8,606.8,143.3L606.8,143.3z"/>
		<path id="path77" stroke="#000000" stroke-width="0.5" stroke-miterlimit="10" d="M343.9,170.9c-0.4,0.5,0.1,2.7,0.6,3.3
			c0.5,0.5,2.2,0.5,2.7,0c0.4-0.6,0.4-2.8,0-3.3C346.7,170.3,344.4,170.3,343.9,170.9L343.9,170.9z"/>
	</g>
</g>
</svg>
