<?xml version="1.0" encoding="utf-8"?>
<!-- Generator: Adobe Illustrator 18.1.1, SVG Export Plug-In . SVG Version: 6.00 Build 0)  -->
<!DOCTYPE svg PUBLIC "-//W3C//DTD SVG 1.1//EN" "http://www.w3.org/Graphics/SVG/1.1/DTD/svg11.dtd">
<svg version="1.1" id="Vrstva_1" xmlns="http://www.w3.org/2000/svg" xmlns:xlink="http://www.w3.org/1999/xlink" x="0px" y="0px"
	 viewBox="0 0 960 560" enable-background="new 0 0 960 560" xml:space="preserve">
<g id="Vrstva_1_1_" display="none">
	<path display="inline" fill="none" stroke="#000000" stroke-miterlimit="10" d="M798.6,160.5"/>
	<rect x="413.9" y="-127.5" display="inline" fill="none" stroke="#0A0000" stroke-miterlimit="10" width="772.4" height="974.5"/>
</g>
<g id="base">
	<path fill="#AF8C69" d="M478.6,256.4c52.2-0.2,98-23.5,123.6-58.1l0.2,0.2c33.3,32.8,46.4,72.1,44,123.4
		c-1.7,36.8-13.1,95.1-42.1,141.9c-13.1,21-29.7,39.8-50.5,53l0,0c-5.5-10.3-17-16.7-30.5-17c-20.2-0.5-28.9,10.1-30.9,22.1l0,0
		c-0.8,4.6-0.6,9.3,0.3,13.9c-4.6,0.5-9.3,0.6-14,0.6s-9.5-0.2-14-0.6c0.9-4.6,1.1-9.3,0.3-13.9l0,0c-2.1-12-10.9-22.6-30.9-22.1
		c-13.3,0.2-24.9,6.8-30.5,17l0,0c-20.8-13.3-37.4-32-50.5-53c-29-46.9-40.7-105.1-42.4-141.9c-2.2-51.1,10.9-90.7,44-123.4l0.2-0.2
		C380.5,233,426.3,256.2,478.6,256.4z"/>
</g>
<g id="mirror">
	<g>
		<g>
			<g id="XMLID_13_">
				<g id="fill_x5F_bottom_12_">
					<path fill="#C4731A" d="M434,499.5c27.8-0.6,34.1,19.7,30.6,36c-1.6,7.6-5.4,14-9.9,17.4l-12.8-18.8l-12.1,18.8l-12.9-23
						l-9.9,16.4c-4.1-3-7.1-8.7-7.1-15c0-5.4,1.3-10.3,3.6-14.4C409.2,506.3,420.6,499.7,434,499.5z"/>
					<path fill="#AF8C69" d="M478.6,499.5v36.6c-4.7,0-9.5-0.2-14-0.6c3.5-16.3-3-36.6-30.6-36c-13.3,0.2-24.8,6.8-30.5,17l0,0
						c-20.8-13.3-37.4-32-50.5-53c-29-46.9-40.7-105.1-42.4-141.9c-2.2-51.1,10.9-90.7,44-123.4l0.2-0.2
						c25.7,34.7,71.5,57.9,123.6,58.1v36.4c0,0-68,5.5-80.3-15.1c-16.6-27.5-40.6-35-62.6-23c-27.6,14.7,1.1,177.8,22.2,193
						c27.6,19.7,42.9-0.8,62.3,21.1C438.1,489.1,455.1,488.8,478.6,499.5z"/>
					<path fill="#42210B" d="M395,180.3c38.8,11.5,62.3-14.7,66.9-20.4c-2.2,3.2-3.8,6.8-3.9,10.9c-0.2,14.8,15,30.3,20.7,30.3v55.2
						c-52.2-0.2-98-23.5-123.6-58.1c-4.4-6.2-8.4-12.5-11.4-19.1c-6.6-14-10.3-29.2-10.3-45.3c0-10.4,1.6-20.7,4.6-30.5
						c0.6-2.2,1.3-4.4,2.2-6.5c3-7.3,7.4-15.5,8.5-17.8c0,0,0-0.2,0.2-0.2c0.2-0.2,0.2-0.5,0.2-0.5c-6.8-8.4-27.9-12-27.9-12
						l40.6-5.2L315.2,41c0,0,46.2-5.5,61.4,3.9c9.9,6.3-14.5-32.7-15-33.6l81.7,61.2l-15.5-9.2c-10.3-3.9-20.4-12.6-35.8-5.5
						c-2.2,0.9-4.6,2.2-6.6,3.3C316,98.1,353,167.8,395,180.3z"/>
					<path fill="#C7B299" d="M479.1,32.6L478.6,147c0,0-1.1,0.6-2.8,1.4c0,0-7.7-60.3-44.5-78.6c-1.7-0.8-5.5-7.3-7.3-8l-5-5.7
						l-57.3-44.7l0,0c0,0,45.9-0.9,60.7,1.7C437.1,15.9,479.1,32.6,479.1,32.6z"/>
					<path fill="#EFDECE" d="M395,180.3c-42.1-12.5-79.2-82.4-9.6-119.1c2.1-1.3,4.4-2.2,6.6-3.3c15.5-7.1,21.9-0.2,32,3.8
						c1.7,0.8,8.5,4.1,10.1,4.9c36.9,18.3,41.8,81.7,41.8,81.7c-3.5,1.7-9.2,5.5-13.1,10.7c0,0-0.2,0.5-0.8,0.9
						C457.3,165.6,434,192,395,180.3z M455.1,135.5C455.1,135.5,455.1,135.2,455.1,135.5c1.9-5.5,2.8-11.2,2.8-17.2
						c0-29-22.6-52.5-50.5-52.5S357,89.3,357,118.3s22.6,52.5,50.5,52.5C429.6,170.8,448.3,156,455.1,135.5z"/>
					<path fill="#42210B" d="M407.3,86.1c-17,0-30.8,14.4-30.8,32c0,17.8,13.9,32,30.8,32c17,0,30.8-14.4,30.8-32
						C438.2,100.5,424.4,86.1,407.3,86.1z M356.8,118c0-29,20.5-45.4,48.4-45.4S458,88.9,458,118c0,6.2-0.9,11.8-2.8,17.2
						c0,0,0,0,0,0.2c-6.8,20.5-25.7,35.3-47.7,35.3C379.4,170.8,356.8,147,356.8,118z"/>
					<path fill="#0F0602" d="M376.5,118c0-17.8,13.9-32,30.8-32c17,0,30.8,14.4,30.8,32c0,17.8-13.9,32-30.8,32
						C390.4,150.3,376.5,135.8,376.5,118z"/>
					<path fill="#42210B" d="M261.7,365.4c-26.4-109,82.1-186.4,82.1-186.4c3.2,6.8,7.1,13.1,11.4,19.1l-0.2,0.2
						c-33.3,32.8-46.4,72.3-44.2,123.4c1.7,36.8,13.1,95.1,42.4,141.9l-1.1,0.8l0,0C350.4,464.5,283.3,454.1,261.7,365.4z"/>
					<path fill="#FBB03B" d="M478.6,146.9v54.3c-5.7,0-20.8-15.5-20.7-30.3c0-4.1,1.7-7.7,3.9-10.9c0.6-0.6,0.8-0.9,0.8-0.9
						c3.9-5.2,9.9-8.8,13.1-10.7C477.7,147.3,478.6,146.9,478.6,146.9z"/>
					<path fill="#51260E" d="M348.1,80c0.2-0.2,0.2-0.5,0.3-0.6c-1.1,2.2-5.5,10.3-8.5,17.8C342.3,91.2,345,85.5,348.1,80z"/>
					<g id="fill_x5F_bottom_15_">
						<path fill="#C4731A" d="M522,499.5c-27.8-0.6-34.1,19.7-30.6,36c1.6,7.6,5.4,14,9.9,17.4l12.8-18.8l12.1,18.8l12.9-23
							l9.9,16.4c4.1-3,7.1-8.7,7.1-15c0-5.4-1.3-10.3-3.6-14.4C546.8,506.3,535.4,499.7,522,499.5z"/>
						<path fill="#AF8C69" d="M477.4,499.5v36.6c4.7,0,9.5-0.2,14-0.6c-3.5-16.3,3-36.6,30.6-36c13.3,0.2,24.8,6.8,30.5,17l0,0
							c20.8-13.3,37.4-32,50.5-53c29-46.9,40.7-105.1,42.4-141.9c2.2-51.1-10.9-90.7-44-123.4l-0.2-0.2
							c-25.7,34.7-71.5,57.9-123.6,58.1v36.4c0,0,68,5.5,80.3-15.1c16.6-27.5,40.6-35,62.6-23c27.6,14.7-1.1,177.8-22.2,193
							c-27.3,19.7-42.9-0.8-62.3,21.1C518.1,489.1,500.9,488.8,477.4,499.5z"/>
						<path fill="#42210B" d="M561,180.3c-38.8,11.5-62.3-14.7-66.9-20.4c2.2,3.2,3.8,6.8,3.9,10.9c0.2,14.8-15,30.3-20.7,30.3v55.2
							c52.2-0.2,98-23.5,123.6-58.1c4.6-6.2,8.4-12.5,11.5-19.1c6.6-14,10.3-29.2,10.3-45.3c0-10.4-1.6-20.7-4.6-30.5
							c-0.6-2.2-1.3-4.4-2.2-6.5c-2.8-7.3-7.4-15.5-8.5-17.8c0,0,0-0.2-0.2-0.2c-0.2-0.2-0.2-0.5-0.2-0.5c6.8-8.4,27.9-12,27.9-12
							l-40.6-5.2l46.2-20.5c0,0-46.2-5.5-61.4,3.9c-9.9,6.3,14.5-32.7,15-33.6l-68.5,44.2l0.2,0.5c10.3-3.9,22.4-5.4,37.9,1.7
							c2.2,0.9,4.6,2.2,6.6,3.3C640.2,98.1,603.3,167.8,561,180.3z"/>
						<path fill="#C7B299" d="M479.1,32.6L477.5,147c0,0,1.1,0.6,2.8,1.4c0,0,3.9-71.5,40.9-89.9c1.7-0.8,4.9-2.8,4.9-2.8l68.5-44.2
							l0,0c0,0-46.1-1.1-61.1,1.7C519.3,15.9,479.1,32.6,479.1,32.6z"/>
						<path fill="#EFDECE" d="M561,180.3c42.1-12.5,79.2-82.4,9.6-119.1c-2.1-1.3-4.4-2.2-6.6-3.3c-15.5-7.1-27.8-5.7-37.9-1.7
							c-1.7,0.8-3.6,1.6-5.2,2.4c-36.9,18.3-40.9,89.9-40.9,89.9c3.5,1.7,9.2,5.5,13.1,10.7c0,0,0.2,0.5,0.8,0.9
							C498.7,165.6,522.3,192,561,180.3z M501,135.5C500.9,135.5,500.9,135.2,501,135.5c-1.9-5.5-2.8-11.2-2.8-17.2
							c0-29,22.6-52.5,50.5-52.5c27.9,0,50.5,23.5,50.5,52.5s-22.6,52.5-50.5,52.5C526.6,170.8,507.8,156,501,135.5z"/>
						<path fill="#42210B" d="M548.7,86.3c17,0,30.8,14.4,30.8,32c0,17.8-13.9,32-30.8,32c-17,0-30.8-14.4-30.8-32
							S531.7,86.3,548.7,86.3z M599.2,118.3c0-29-19.9-45.8-47.8-45.8s-53.2,16.7-53.2,45.8c0,6.2,0.9,11.8,2.8,17.2c0,0,0,0,0,0.2
							c6.8,20.5,25.7,35.3,47.7,35.3C576.6,171,599.2,147.3,599.2,118.3z"/>
						<path fill="#0F0602" d="M579.5,118c0-17.8-13.9-32-30.8-32c-17,0-30.8,14.4-30.8,32c0,17.8,13.9,32,30.8,32
							C565.7,150.3,579.5,135.8,579.5,118z"/>
						<path fill="#42210B" d="M694.3,365.4c26.4-109-81.7-186.4-81.7-186.4c-3.2,6.8-7.1,13.1-11.5,19.1l0.2,0.2
							c33.3,32.7,46.5,72.1,44,123.2c-1.7,36.8-13.1,95.1-42.4,141.9l1.1,0.8l0,0C606,464.5,673,454.1,694.3,365.4z"/>
						<path fill="#FBB03B" d="M477.4,146.9v54.3c5.7,0,20.8-15.5,20.7-30.3c0-4.1-1.7-7.7-3.9-10.9c-0.6-0.6-0.8-0.9-0.8-0.9
							c-3.9-5.2-9.9-8.8-13.1-10.7C478.6,147.3,477.4,146.9,477.4,146.9z"/>
						<path fill="#51260E" d="M607.9,80c-0.2-0.2-0.2-0.5-0.3-0.6c1.1,2.2,5.7,10.3,8.5,17.8C613.9,91.2,611,85.5,607.9,80z"/>
					</g>
					<path fill="#C7B299" d="M594.5,373.9c-5.5,62.5-53.2,113.6-118.8,113.6s-116-51-118.8-113.6c-4.9-108.6,53.2-101,118.8-101
						S603.9,267.4,594.5,373.9z"/>
				</g>
				<g id="fill_x5F_top_12_">
					<path display="none" fill="#AF8C69" d="M478.6,499.5v36.6c-4.7,0-9.5-0.2-14-0.6c0.9-4.6,1.1-9.3,0.3-13.9l0,0
						c-2.1-12-10.9-22.6-30.9-22.1c-13.3,0.2-24.9,6.8-30.5,17l0,0c-20.8-13.3-37.4-32-50.5-53c-29-46.9-40.7-105.1-42.4-141.9
						c-2.2-51.1,10.9-90.7,44-123.4l0.2-0.2c25.7,34.7,71.3,57.9,123.6,58.1v243.3L478.6,499.5L478.6,499.5z"/>
					<path fill="#FBB03B" d="M478.6,147.3v54c-5.7,0-20.8-15.5-20.7-30.3c0-4.1,1.7-7.7,3.9-10.9c0.6-0.6,0.8-0.9,0.8-0.9
						c3.9-5.2,9.9-8.8,13.1-10.7C477.4,147.3,478.6,147.3,478.6,147.3z"/>
					<path fill="#EFDECE" d="M455,135.5C455,135.5,455.1,135.2,455,135.5c1.9-5.5,2.8-11.2,2.8-17.2c0-29-24.8-45.8-52.7-45.8
						c-27.9,0-48.4,16.7-48.4,45.8c0,1.7,0,3.3,0.2,4.9c2.5,26.7,24.1,47.7,50.3,47.7C429.4,170.8,448.2,156,455,135.5z M347,108
						c2.7-17,13.9-33.9,38.2-46.9c2.1-1.3,4.4-2.2,6.6-3.3c15.5-7.1,40.4,7.9,42.1,8.7c36.9,18.3,41.8,81.7,41.8,81.7
						c-3.5,1.7-9.2,5.5-13.1,10.7c0,0-0.2,0.5-0.8,0.9c-4.6,5.5-27.9,31.9-66.9,20.4C367.6,172.1,342.3,139.8,347,108z"/>
					<path fill="#C4731A" d="M464.4,535.5c-1.6,7.6-5.4,14-9.9,17.4l-12.8-18.8l-12.1,18.8l-13.1-23l-9.9,16.4
						c-4.1-3-7.1-8.7-7.1-15c0-3.9,0.8-7.7,2.1-11c0,0,11.5-8.4,19.6-8.4c18.5,0,24.1,11.5,33.6,11.5c5.7,0,9-1.4,9-1.4l0.8-0.2l0,0
						C465.7,526.2,465.4,530.9,464.4,535.5z"/>
					<path fill="#51260E" d="M445.3,121.4c3.9,0.9,10.1,11,9.6,14c0,0,0,0,0,0.2c-6.8,20.5-25.7,35.3-47.7,35.3
						c-26.2,0-47.8-21-50.3-47.7h0.8c0,0,9.9-16.4,12.1-15.9c2.2,0.5,6.5,12,6.5,12l0,0c0.6,17.2,14.2,31.1,30.8,31.1
						c12.8,0,23.5-8,28.2-19.4l0,0C436,130.1,441.4,120.3,445.3,121.4z"/>
					<path fill="#230F07" d="M438.1,120.8c-0.2,3.6-1.1,6.9-2.2,10.1l0,0c-4.7,11.5-15.6,19.4-28.2,19.4
						c-16.7,0-30.1-13.9-30.8-31.1c0-0.5,0-0.8,0-1.3c0,0,9.6-1.6,14.7,12.5c5.2,14.2,27.6,11.2,32.3,4.4
						C428.5,127.9,433.7,120.8,438.1,120.8z"/>
					<path fill="#51260E" d="M348.6,79.2c0.2-0.2,0.2-0.5,0.2-0.5c-6.8-8.4-27.9-12-27.9-12l40.6-5.2c0,0,4.1,2.8,6.5-2.4
						c4.6-9.5-52.9-18.3-52.9-18.3s46.2-5.5,61.4,3.9c9.9,6.3-14.5-32.7-15-33.6l27.3,17.5l0,0c0.6,0.8,12.1,17,4.7,23.7
						c-4.7,4.4-8.4,8.4-8.4,8.4c-24.3,12.8-35.5,29.8-38.2,46.9c-0.9-0.2-1.7-0.5-2.5-0.8c-3.9-2.2-6.6-3.6-6.8-3.8
						c0.6-2.2,1.3-4.4,2.2-6.5C342.9,89.6,347.2,81.5,348.6,79.2C348.6,79.3,348.6,79.2,348.6,79.2z"/>
					<path fill="#51260E" d="M348.1,80c0.2-0.2,0.2-0.5,0.3-0.6c-1.1,2.2-5.5,10.3-8.5,17.8C342.2,91.2,345,85.5,348.1,80z"/>
					<path fill="#51260E" d="M333.2,187.4c0,0,5.4,13.1,0,23.4c-5.4,10.3-38.2,61.9-36.3,94.4c1.9,32.7-38.8,39.1-38.8,39.1
						C250.9,266.6,309,208.1,333.2,187.4z"/>
					<g id="fill_x5F_top_15_">
						<path display="none" fill="#AF8C69" d="M477.4,499.5v36.6c4.7,0,9.5-0.2,14-0.6c-0.9-4.6-1.1-9.3-0.3-13.9l0,0
							c2.1-12,10.9-22.6,30.9-22.1c13.3,0.2,24.9,6.8,30.5,17l0,0c20.8-13.3,37.4-32,50.5-53c29-46.9,40.7-105.1,42.1-141.9
							c2.2-51.1-10.9-90.7-44-123.4l-0.2-0.2c-25.7,34.7-71.3,57.9-123.6,58.1L477.4,499.5L477.4,499.5z"/>
						<path fill="#FBB03B" d="M477.4,147.3v54c5.7,0,20.8-15.5,20.7-30.3c0-4.1-1.7-7.7-3.9-10.9c-0.6-0.6-0.8-0.9-0.8-0.9
							c-3.9-5.2-9.9-8.8-13.1-10.7C478.6,147.3,477.4,147.3,477.4,147.3z"/>
						<path fill="#EFDECE" d="M501,135.5C501,135.5,501,135.2,501,135.5c-1.9-5.5-2.8-11.2-2.8-17.2c0-29,24-45.8,51.9-45.8
							c27.9,0,49.2,16.7,49.2,45.8c0,1.7,0,3.3-0.2,4.9c-2.5,26.7-24,47.7-50.3,47.7C526.6,170.8,507.8,156,501,135.5z M609,108
							c-2.7-17-13.9-33.9-38-46.9c-2.1-1.3-4.4-2.2-6.6-3.3c-15.5-7.1-20.2-2.4-30.3,1.6c-1.7,0.8-10.9-1.7-12.6-0.9
							c-36.9,18.3-40.9,89.9-40.9,89.9c3.5,1.7,9.2,5.5,13.1,10.7c0,0,0.2,0.5,0.8,0.9c4.6,5.5,27.9,31.9,66.9,20.4
							C588.6,172.1,613.9,139.8,609,108z"/>
						<path fill="#C4731A" d="M491.4,535.5c1.6,7.6,5.4,14,9.9,17.4l12.8-18.8l12.1,18.8l13.1-23l9.9,16.4c4.1-3,7.1-8.7,7.1-15
							c0-3.9-0.8-7.7-2.1-11c0,0-11.5-8.4-19.6-8.4c-18.5,0-24.1,11.5-33.6,11.5c-5.7,0-9-1.4-9-1.4l-0.8-0.2l0,0
							C490.3,526.2,490.5,530.9,491.4,535.5z"/>
						<path fill="#51260E" d="M510.7,121.4c-3.9,0.9-10.1,11-9.6,14c0,0,0,0,0,0.2c6.8,20.5,25.7,35.3,47.7,35.3
							c26.4,0,47.8-21,50.3-47.7h-0.8c0,0-9.9-16.4-12.1-15.9c-2.2,0.5-6.5,12-6.5,12l0,0c-0.6,17.2-14.2,31.1-30.8,31.1
							c-12.8,0-23.5-8-28.2-19.4l0,0C520,130.1,514.6,120.3,510.7,121.4z"/>
						<path fill="#230F07" d="M518.1,120.8c0.2,3.6,1.1,6.9,2.2,10.1l0,0c4.7,11.5,15.6,19.4,28.2,19.4c16.7,0,30.1-13.9,30.8-31.1
							c0-0.5,0-0.8,0-1.3c0,0-9.6-1.6-14.7,12.5c-5.2,14.2-27.6,11.2-32.3,4.4C527.9,127.9,522.5,120.8,518.1,120.8z"/>
						<path fill="#51260E" d="M607.4,79.2c-0.2-0.2-0.2-0.5-0.2-0.5c6.8-8.4,27.9-12,27.9-12l-40.6-5.2c0,0-4.1,2.8-6.5-2.4
							c-4.6-9.5,52.9-18.3,52.9-18.3s-46.2-5.5-61.4,3.9c-9.9,6.3,14.5-32.7,15-33.6l-27.3,17.5l0,0c-0.6,0.8-12.1,17-4.7,23.7
							c4.7,4.4,8.4,8.4,8.4,8.4c24.3,12.8,35.5,29.8,38,46.9c0.9-0.2,1.7-0.5,2.5-0.8c3.9-2.2,6.6-3.6,6.8-3.8
							c-0.6-2.2-1.3-4.4-2.2-6.5C613.1,89.6,608.8,81.5,607.4,79.2C607.6,79.3,607.4,79.2,607.4,79.2z"/>
						<path fill="#51260E" d="M608,80c-0.2-0.2-0.2-0.5-0.3-0.6c1.1,2.2,5.5,10.3,8.5,17.8C613.9,91.2,611.2,85.5,608,80z"/>
						<path fill="#51260E" d="M622.9,187.4c0,0-5.4,13.1,0,23.4s38.2,61.9,36.3,94.4c-1.9,32.7,38.8,39.3,38.8,39.3
							C705.1,266.6,647.2,208.1,622.9,187.4z"/>
					</g>
				</g>
				<g id="outlines_12_">
					<path fill="none" stroke="#000000" stroke-width="3" stroke-miterlimit="10" d="M348.6,79.2c0.9-1.4,2.1-2.8,3.5-3.9"/>
					<path fill="none" stroke="#000000" stroke-width="3" stroke-miterlimit="10" d="M337.7,103.5c0.6-2.2,1.3-4.4,2.2-6.5"/>
					<ellipse fill="none" stroke="#000000" stroke-width="3" stroke-miterlimit="10" cx="407.3" cy="118" rx="30.8" ry="32"/>
					<path fill="none" stroke="#000000" stroke-width="3" stroke-miterlimit="10" d="M478.6,256.4c-52.2-0.2-98-23.5-123.6-58.1
						c-4.4-6.2-8.4-12.5-11.4-19.1c-6.6-14-10.3-29.2-10.3-45.3c0-10.4,1.6-20.7,4.6-30.5"/>
					<path fill="none" stroke="#0A0000" stroke-width="3" stroke-miterlimit="10" d="M462.2,159.5c3.9-5.2,10.3-9.5,13.6-11.2
						c1.7-0.9,5.4-0.5,5.4-0.5"/>
					<path fill="none" stroke="#0A0000" stroke-width="3" stroke-miterlimit="10" d="M478.6,201c-5.7,0-20.8-15.5-20.7-30.3
						c0-4.1,1.7-7.7,3.9-10.9"/>
					<path fill="none" stroke="#000000" stroke-width="3" stroke-miterlimit="10" d="M455,135.5c-6.8,20.5-25.7,35.3-47.7,35.3
						c-26.2,0-47.8-21-50.3-47.7c-0.2-1.6-0.2-3.3-0.2-4.9c0-29,18.8-45.8,46.7-45.8s54.3,16.7,54.3,45.8
						C457.8,124.1,456.9,130,455,135.5"/>
					<path fill="none" stroke="#000000" stroke-width="3" stroke-miterlimit="10" d="M376.5,119.2c0-0.5,0-0.8,0-1.3
						c0-17.8,13.9-32,30.8-32c16.9,0,30.8,14.4,30.8,32c0,0.9,0,1.7-0.2,2.5c-0.2,3.6-1.1,6.9-2.2,10.1"/>
					<path fill="none" stroke="#000000" stroke-width="3" stroke-miterlimit="10" d="M462.5,159c0,0-0.2,0.5-0.8,0.9
						c-4.6,5.5-27.9,31.9-66.9,20.4c-27.3-8.2-52.5-40.6-47.8-72.3c2.7-17,13.9-33.9,38.2-46.9c2.1-1.3,4.4-2.2,6.6-3.3
						c15.5-7.1,42.3,9,44,9.8c36.9,18.3,39.8,80.8,39.8,80.8"/>
					<path fill="none" stroke="#000000" stroke-width="3" stroke-miterlimit="10" d="M361.4,11.3c0,0,45.9-0.8,61.1,1.7
						c15.3,2.7,58.9,19.4,58.9,19.4"/>
					<path fill="#AF8C69" d="M478.6,70l2.5,1.6l-2.2,74.8c0,0-1.7,0.9-3.5,1.9c0,0-7.3-24.6-14.2-37.7
						c-14.4-26.8-46.7-54.4-47.8-54.9l-4.1-7.1"/>
					<line fill="none" stroke="#000000" stroke-width="3" stroke-miterlimit="10" x1="388.7" y1="29.1" x2="361.4" y2="11.3"/>
					<path fill="none" stroke="#000000" stroke-width="3" stroke-miterlimit="10" d="M473.4,148.3c0,0-5.8-26.2-12.5-36.6
						c-13.3-20.8-72.3-82.5-72.3-82.5"/>
					<path fill="none" stroke="#000000" stroke-width="3" stroke-miterlimit="10" d="M447.6,75.2"/>
					<path fill="none" stroke="#000000" stroke-width="3" stroke-miterlimit="10" d="M362,11.3c0,0,0,0-0.6,0
						c0.6,0.9,24.9,39.9,15,33.6C361.4,35.5,315,41,315,41l46.2,20.5l-40.6,5.2c0,0,21.1,3.8,27.9,12c0,0,0,0.2-0.2,0.5
						c0,0,0,0.2-0.2,0.2c-1.1,2.2-5.5,10.3-8.5,17.8c-0.9,2.4-1.7,4.6-2.2,6.5"/>
					<path fill="none" stroke="#000000" stroke-width="3" stroke-miterlimit="10" d="M403.5,516.6c-20.8-13.3-37.4-32-50.5-53
						c-29-46.9-40.7-105.1-42.4-141.9c-2.2-51.1,10.9-90.7,44-123.4"/>
					<path fill="none" stroke="#000000" stroke-width="3" stroke-miterlimit="10" d="M478.6,535.8c-4.7,0-9.5-0.2-14-0.6
						c-0.2,0-0.3,0-0.3,0"/>
					<path fill="none" stroke="#000000" stroke-width="3" stroke-miterlimit="10" d="M351.8,464.5h-0.2"/>
					<path fill="none" stroke="#000000" stroke-width="3" stroke-miterlimit="10" d="M343.4,179c0,0-3.9,2.8-10.3,8.4
						c-24.1,20.7-82.2,79.2-75.1,156.8c0.6,6.9,1.7,13.9,3.6,21.1c21.5,88.7,88.5,98.9,90.1,98.9l0,0"/>
					<path fill="none" stroke="#000000" stroke-width="3" stroke-miterlimit="10" d="M464.4,535.5c-1.6,7.6-5.4,14-9.9,17.4
						l-12.8-18.8l-12.1,18.8l-13.1-23l-9.9,16.4c-4.1-3-7.1-8.7-7.1-15c0-3.9,0.8-7.7,2.1-11c0.3-1.3,0.9-2.2,1.6-3.3
						c5.5-10.3,17-16.7,30.5-17c20.2-0.5,28.9,10.1,30.9,22.1l0,0C465.7,526.2,465.4,530.9,464.4,535.5z"/>
					<polyline fill="none" stroke="#000000" stroke-width="3" stroke-miterlimit="10" points="343.7,277.8 358.4,300.2 373.6,277.8 
											"/>
					<polyline fill="none" stroke="#000000" stroke-width="3" stroke-miterlimit="10" points="374,333.2 387.1,355.5 399.9,335.1 
											"/>
					<polyline fill="none" stroke="#000000" stroke-width="3" stroke-miterlimit="10" points="425.3,303.5 438.4,325.9 455.1,303.5 
											"/>
					<polyline fill="none" stroke="#000000" stroke-width="3" stroke-miterlimit="10" points="436.8,388.4 451.7,414 466.6,388.4 
											"/>
					<polyline fill="none" stroke="#000000" stroke-width="3" stroke-miterlimit="10" points="358.4,418.1 372,440.5 388.7,418.1 
											"/>
					<polyline fill="none" stroke="#000000" stroke-width="3" stroke-miterlimit="10" points="425.3,457.7 438.4,480 455.1,457.7 
											"/>
					<path fill="none" stroke="#000000" stroke-width="3" stroke-miterlimit="10" d="M388.7,29.1L388.7,29.1"/>
					<g id="outlines_15_">
						<path fill="none" stroke="#000000" stroke-width="3" stroke-miterlimit="10" d="M607.4,79.2c-0.9-1.4-2.1-2.8-3.5-3.9"/>
						<path fill="none" stroke="#000000" stroke-width="3" stroke-miterlimit="10" d="M618.3,103.5c-0.6-2.2-1.3-4.4-2.2-6.5"/>
						<ellipse fill="none" stroke="#000000" stroke-width="3" stroke-miterlimit="10" cx="548.7" cy="118" rx="30.8" ry="32"/>
						<path fill="none" stroke="#000000" stroke-width="3" stroke-miterlimit="10" d="M477.4,256.4c52.2-0.2,98-23.5,123.6-58.1
							c4.6-6.2,8.4-12.5,11.5-19.1c6.6-14,10.3-29.2,10.3-45.3c0-10.4-1.6-20.7-4.6-30.5"/>
						<path fill="none" stroke="#0A0000" stroke-width="3" stroke-miterlimit="10" d="M494.1,160c-3.9-5.2-10.6-9.9-13.9-11.7
							c-1.7-0.9-2.8-1.4-2.8-1.4"/>
						<path fill="none" stroke="#0A0000" stroke-width="3" stroke-miterlimit="10" d="M477.4,201c5.7,0,20.8-15.5,20.7-30.3
							c0-4.1-1.7-7.7-3.9-10.9"/>
						<path fill="none" stroke="#000000" stroke-width="3" stroke-miterlimit="10" d="M501,135.5c6.8,20.5,25.7,35.3,47.7,35.3
							c26.4,0,47.8-21,50.3-47.7c0.2-1.6,0.2-3.3,0.2-4.9c0-29-18.8-45.8-46.7-45.8c-27.9,0-54.3,16.7-54.3,45.8
							C498.2,124.1,499.2,130,501,135.5"/>
						<path fill="none" stroke="#000000" stroke-width="3" stroke-miterlimit="10" d="M579.6,119.2c0-0.5,0-0.8,0-1.3
							c0-17.8-13.9-32-30.8-32c-16.9,0-30.8,14.4-30.8,32c0,0.9,0,1.7,0.2,2.5c0.2,3.6,1.1,6.9,2.2,10.1"/>
						<path fill="none" stroke="#000000" stroke-width="3" stroke-miterlimit="10" d="M493.5,159c0,0,0.2,0.5,0.8,0.9
							c4.6,5.5,27.9,31.9,66.9,20.4c27.3-8.2,52.5-40.6,47.8-72.3c-2.7-17-13.9-33.9-38-46.9c-2.1-1.3-4.4-2.2-6.6-3.3
							c-15.5-7.1-27.8-5.7-37.9-1.7c-1.7,0.8-3.5,1.6-5.2,2.4c-36.9,18.3-40.9,89.9-40.9,89.9"/>
						<path fill="none" stroke="#000000" stroke-width="3" stroke-miterlimit="10" d="M594.6,11.3c0,0-45.9-0.9-60.7,1.7
							c-14.4,2.7-54.8,19.4-54.8,19.4"/>
						<path fill="#AF8C69" d="M477.1,69.9l0.3,77c0,0,1.1,0.5,2.8,1.4c0,0-4.6-21.8,19.6-38.5c1.7-0.8,46.2-43.9,46.2-43.9
							l48.3-54.6C593,11.6,479.9,72.2,477.1,69.9z"/>
						<path fill="none" stroke="#000000" stroke-width="3" stroke-miterlimit="10" d="M479.1,149.4c0,0,4.7-21.9,8.7-28.2
							c9.9-15.9,54.8-51.3,54.8-51.3l51.9-58.7"/>
						<path fill="none" stroke="#000000" stroke-width="3" stroke-miterlimit="10" d="M530.7,52.8"/>
						<path fill="none" stroke="#000000" stroke-width="3" stroke-miterlimit="10" d="M594.1,11.3c0,0,0,0,0.6,0
							c-0.6,0.9-24.9,39.9-15,33.6c15-9.5,61.4-3.9,61.4-3.9l-46.2,20.5l40.6,5.2c0,0-21.1,3.8-27.9,12c0,0,0,0.2,0.2,0.5
							c0,0,0,0.2,0.2,0.2c1.1,2.2,5.5,10.3,8.5,17.8c0.9,2.4,1.7,4.6,2.2,6.5"/>
						<path fill="none" stroke="#000000" stroke-width="3" stroke-miterlimit="10" d="M552.5,516.6c20.8-13.3,37.4-32,50.5-53
							c29-46.9,40.7-105.1,42.1-141.9c2.2-51.1-10.9-90.7-44-123.4"/>
						<path fill="none" stroke="#000000" stroke-width="3" stroke-miterlimit="10" d="M477.4,535.8c4.7,0,9.5-0.2,14-0.6
							c0.2,0,0.3,0,0.3,0"/>
						<path fill="none" stroke="#000000" stroke-width="3" stroke-miterlimit="10" d="M604.2,464.5h0.2"/>
						<path fill="none" stroke="#000000" stroke-width="3" stroke-miterlimit="10" d="M612.6,179c0,0,3.9,2.8,10.3,8.4
							c24.1,20.7,82.2,79.4,75.1,156.8c-0.6,6.9-1.7,13.9-3.5,21.1c-21.5,88.7-88.5,98.9-90.1,98.9l0,0"/>
						<path fill="none" stroke="#000000" stroke-width="3" stroke-miterlimit="10" d="M491.4,535.5c1.6,7.6,5.4,14,9.9,17.4
							l12.8-18.8l12.1,18.8l13.1-23l9.9,16.4c4.1-3,7.1-8.7,7.1-15c0-3.9-0.8-7.7-2.1-11c-0.3-1.3-0.9-2.2-1.6-3.3
							c-5.5-10.3-17-16.7-30.5-17c-20.2-0.5-28.9,10.1-30.9,22.1l0,0C490.3,526.2,490.5,530.9,491.4,535.5z"/>
						<polyline fill="none" stroke="#000000" stroke-width="3" stroke-miterlimit="10" points="612.3,277.8 597.6,300.2 
							582.8,277.8 						"/>
						<polyline fill="none" stroke="#000000" stroke-width="3" stroke-miterlimit="10" points="582,333.2 569.1,355.5 556.1,335.1 
													"/>
						<polyline fill="none" stroke="#000000" stroke-width="3" stroke-miterlimit="10" points="530.7,303.5 517.8,325.9 501,303.5 
													"/>
						<polyline fill="none" stroke="#000000" stroke-width="3" stroke-miterlimit="10" points="519.2,388.4 504.4,414 489.5,388.4 
													"/>
						<polyline fill="none" stroke="#000000" stroke-width="3" stroke-miterlimit="10" points="597.6,418.1 584.2,440.5 
							567.5,418.1 						"/>
						<polyline fill="none" stroke="#000000" stroke-width="3" stroke-miterlimit="10" points="530.7,457.7 517.8,480 501,457.7 
													"/>
					</g>
				</g>
			</g>
		</g>
	</g>
</g>
<g id="top">
	<g id="eye_lens">
		<path id="eye_lens_2" fill="#FFFFFF" d="M393.3,94.3c4.3,3.3,3.9,15-2.1,21.3c-6.2,6.5-12.1,8.5-16.6,5.5
			c-4.3-3.3-5.5-9.9,1.6-19.1C381.8,94.6,389,91,393.3,94.3z"/>
		<path id="eye_lens_1" fill="#FFFFFF" d="M387.8,126.7c1.6,1.7,0.2,6.2-1.7,7.9c-1.9,1.7-4.7,1.7-6.3,0c-1.6-1.7-1.1-4.7,0.8-6.5
			C382.5,126.3,386.3,124.9,387.8,126.7z"/>
	</g>
	<g id="eye_lens_1_">
		<path id="eye_lens_2_1_" fill="#FFFFFF" d="M532.6,92.7c4.7,2.7,6,14.2,1.1,21.3c-5.2,7.3-10.7,10.3-15.5,7.9
			c-4.7-2.4-6.9-9-1.3-19.3C521.2,94.8,528,90,532.6,92.7z"/>
		<path id="eye_lens_1_1_" fill="#FFFFFF" d="M528.5,126.7c1.6,1.7,0.2,6.2-1.7,7.9c-1.9,1.7-4.7,1.7-6.3,0
			c-1.6-1.7-1.1-4.7,0.8-6.5C523.1,126.3,526.9,124.9,528.5,126.7z"/>
	</g>
</g>
</svg>
