<?xml version="1.0" encoding="utf-8"?>
<!-- Generator: Adobe Illustrator 18.1.1, SVG Export Plug-In . SVG Version: 6.00 Build 0)  -->
<!DOCTYPE svg PUBLIC "-//W3C//DTD SVG 1.1//EN" "http://www.w3.org/Graphics/SVG/1.1/DTD/svg11.dtd">
<svg version="1.1" id="Vrstva_1" xmlns="http://www.w3.org/2000/svg" xmlns:xlink="http://www.w3.org/1999/xlink" x="0px" y="0px"
	 viewBox="0 0 960 560" enable-background="new 0 0 960 560" xml:space="preserve">
<g id="Vrstva_1_2_">
	<g id="Vrstva_1_1_" display="none">
		<path display="inline" fill="none" stroke="#000000" stroke-miterlimit="10" d="M478.5,14"/>
		<rect x="93.8" y="-274" display="inline" fill="none" stroke="#0A0000" stroke-miterlimit="10" width="772.4" height="974.5"/>
	</g>
	<g id="base">
		<path fill="#AF8C69" d="M479.1,257.4c52.2-0.2,98-23.5,123.6-58.1l0.2,0.2c33.3,32.8,46.4,72.1,44,123.4
			c-1.7,36.8-13.1,95.1-42.1,141.9c-13.1,21-29.7,39.8-50.5,53l0,0c-5.5-10.3-17-16.7-30.5-17c-20.2-0.5-28.9,10.1-30.9,22.1l0,0
			c-0.8,4.6-0.6,9.3,0.3,13.9c-4.6,0.5-9.3,0.6-14,0.6s-9.5-0.2-14-0.6c0.9-4.6,1.1-9.3,0.3-13.9l0,0c-2.1-12-10.9-22.6-30.9-22.1
			c-13.3,0.2-24.9,6.8-30.5,17l0,0c-20.8-13.3-37.4-32-50.5-53c-29-46.9-40.7-105.1-42.4-141.9c-2.2-51.1,10.9-90.7,44-123.4
			l0.2-0.2C381,234.1,426.8,257.3,479.1,257.4z"/>
	</g>
	<g id="mirror">
		<g>
			<g>
				<g id="XMLID_13_">
					<g id="fill_x5F_bottom_12_">
						<path fill="#C4731A" d="M434.5,500.6c27.8-0.6,34.1,19.7,30.6,36c-1.6,7.6-5.4,14-9.9,17.4l-12.8-18.8L430.3,554l-12.9-23
							l-9.9,16.4c-4.1-3-7.1-8.7-7.1-15c0-5.4,1.3-10.3,3.6-14.4C409.7,507.5,421.1,500.8,434.5,500.6z"/>
						<path fill="#AF8C69" d="M479.1,500.6v36.6c-4.7,0-9.5-0.2-14-0.6c3.5-16.3-3-36.6-30.6-36c-13.3,0.2-24.8,6.8-30.5,17l0,0
							c-20.8-13.3-37.4-32-50.5-53c-29-46.9-40.7-105.1-42.4-141.9c-2.2-51.1,10.9-90.7,44-123.4l0.2-0.2
							c25.7,34.7,71.5,57.9,123.6,58.1v36.4c0,0-68,5.5-80.3-15.1c-16.6-27.5-40.6-35-62.6-23c-27.6,14.7,1.1,177.8,22.2,193
							c27.6,19.7,42.9-0.8,62.3,21.1C438.6,490.3,455.6,490,479.1,500.6z"/>
						<path fill="#42210B" d="M395.5,181.4c38.8,11.5,62.3-14.7,66.9-20.4c-2.2,3.2-3.8,6.8-3.9,10.9c-0.2,14.8,15,30.3,20.7,30.3
							v55.2c-52.2-0.2-98-23.5-123.6-58.1c-4.4-6.2-8.4-12.5-11.4-19.1c-6.6-14-10.3-29.2-10.3-45.3c0-10.4,1.6-20.7,4.6-30.5
							c0.6-2.2,1.3-4.4,2.2-6.5c3-7.3,7.4-15.5,8.5-17.8c0,0,0-0.2,0.2-0.2c0.2-0.2,0.2-0.5,0.2-0.5c-6.8-8.4-27.9-12-27.9-12
							l40.6-5.2l-46.5-20.4c0,0,46.2-5.5,61.4,3.9c9.9,6.3-14.5-32.7-15-33.6l68.5,44.2l-0.2,0.5c-10.3-3.9-22.4-5.4-37.9,1.7
							c-2.2,0.9-4.6,2.2-6.6,3.3C316.5,99.2,353.5,168.9,395.5,181.4z"/>
						<path fill="#C7B299" d="M479.1,16v131.9c0,0-1.1,0.6-2.8,1.4c0,0-3.9-71.5-40.9-89.9c-1.7-0.8-3.5-1.6-5.2-2.4l0.2-0.5
							l-68.5-44.1l0,0l60.7,1.7L479.1,16z"/>
						<path fill="#EFDECE" d="M395.5,181.4c-42.1-12.5-79.2-82.4-9.6-119.1c2.1-1.3,4.4-2.2,6.6-3.3c15.5-7.1,27.8-5.7,37.9-1.7
							c1.7,0.8,3.6,1.6,5.2,2.4c36.9,18.3,40.9,89.9,40.9,89.9c-3.5,1.7-9.2,5.5-13.1,10.7c0,0-0.2,0.5-0.8,0.9
							C457.8,166.8,434.5,193.1,395.5,181.4z M455.6,136.6C455.6,136.6,455.6,136.3,455.6,136.6c1.9-5.5,2.8-11.2,2.8-17.2
							c0-29-22.6-52.5-50.5-52.5s-50.5,23.5-50.5,52.5s22.6,52.5,50.5,52.5C430.1,171.9,448.8,157.1,455.6,136.6z"/>
						<path fill="#42210B" d="M407.8,87.2c-17,0-30.8,14.4-30.8,32c0,17.8,13.9,32,30.8,32c17,0,30.8-14.4,30.8-32
							C438.7,101.5,424.9,87.2,407.8,87.2z M357.3,119.1c0-29,22.6-52.5,50.5-52.5s50.5,23.5,50.5,52.5c0,6.2-0.9,11.8-2.8,17.2
							c0,0,0,0,0,0.2c-6.8,20.5-25.7,35.3-47.7,35.3C379.9,171.9,357.3,148.1,357.3,119.1z"/>
						<path fill="#0F0602" d="M377,119.1c0-17.8,13.9-32,30.8-32c17,0,30.8,14.4,30.8,32c0,17.8-13.9,32-30.8,32
							C390.9,151.4,377,136.9,377,119.1z"/>
						<path fill="#42210B" d="M262.2,366.5c-26.4-109,82.1-186.4,82.1-186.4c3.2,6.8,7.1,13.1,11.4,19.1l-0.2,0.2
							c-33.3,32.8-46.4,72.3-44.2,123.4c1.7,36.8,13.1,95.1,42.4,141.9l-1.1,0.8l0,0C350.9,465.6,283.8,455.1,262.2,366.5z"/>
						<path fill="#FBB03B" d="M479.1,147.9v54.3c-5.7,0-20.8-15.5-20.7-30.3c0-4.1,1.7-7.7,3.9-10.9c0.6-0.6,0.8-0.9,0.8-0.9
							c3.9-5.2,9.9-8.8,13.1-10.7C478.2,148.4,479.1,147.9,479.1,147.9z"/>
						<path fill="#51260E" d="M348.6,81c0.2-0.2,0.2-0.5,0.3-0.6c-1.1,2.2-5.5,10.3-8.5,17.8C342.8,92.2,345.5,86.5,348.6,81z"/>
						<g id="fill_x5F_bottom_15_">
							<path fill="#C4731A" d="M522.5,500.6c-27.8-0.6-34.1,19.7-30.6,36c1.6,7.6,5.4,14,9.9,17.4l12.8-18.8l12.1,18.8l12.9-23
								l9.9,16.4c4.1-3,7.1-8.7,7.1-15c0-5.4-1.3-10.3-3.6-14.4C547.3,507.5,535.9,500.8,522.5,500.6z"/>
							<path fill="#AF8C69" d="M477.9,500.6v36.6c4.7,0,9.5-0.2,14-0.6c-3.5-16.3,3-36.6,30.6-36c13.3,0.2,24.8,6.8,30.5,17l0,0
								c20.8-13.3,37.4-32,50.5-53c29-46.9,40.7-105.1,42.4-141.9c2.2-51.1-10.9-90.7-44-123.4l-0.2-0.2
								c-25.7,34.7-71.5,57.9-123.6,58.1v36.4c0,0,68,5.5,80.3-15.1c16.6-27.5,40.6-35,62.6-23c27.6,14.7-1.1,177.8-22.2,193
								c-27.3,19.7-42.9-0.8-62.3,21.1C518.6,490.3,501.4,490,477.9,500.6z"/>
							<path fill="#42210B" d="M561.5,181.4c-38.8,11.5-62.3-14.7-66.9-20.4c2.2,3.2,3.8,6.8,3.9,10.9c0.2,14.8-15,30.3-20.7,30.3
								v55.2c52.2-0.2,98-23.5,123.6-58.1c4.6-6.2,8.4-12.5,11.5-19.1c6.6-14,10.3-29.2,10.3-45.3c0-10.4-1.6-20.7-4.6-30.5
								c-0.6-2.2-1.3-4.4-2.2-6.5c-2.8-7.3-7.4-15.5-8.5-17.8c0,0,0-0.2-0.2-0.2c-0.2-0.2-0.2-0.5-0.2-0.5c6.8-8.4,27.9-12,27.9-12
								l-40.6-5.2L641,41.7c0,0-46.2-5.5-61.4,3.9c-9.9,6.3,14.5-32.7,15-33.6l-68.5,44.2l0.2,0.5c10.3-3.9,22.4-5.4,37.9,1.7
								c2.2,0.9,4.6,2.2,6.6,3.3C640.7,99.2,603.8,168.9,561.5,181.4z"/>
							<path fill="#C7B299" d="M473.9,16l3.9,131.9c0,0,1.1,0.6,2.8,1.4c0,0,3.9-71.5,40.9-89.9c1.7-0.8,3.5-1.6,5.2-2.4l-0.2-0.5
								L595,12.3l0,0L533.9,14L473.9,16z"/>
							<path fill="#EFDECE" d="M561.5,181.4c42.1-12.5,79.2-82.4,9.6-119.1c-2.1-1.3-4.4-2.2-6.6-3.3c-15.5-7.1-27.8-5.7-37.9-1.7
								c-1.7,0.8-3.6,1.6-5.2,2.4c-36.9,18.3-40.9,89.9-40.9,89.9c3.5,1.7,9.2,5.5,13.1,10.7c0,0,0.2,0.5,0.8,0.9
								C499.2,166.8,522.8,193.1,561.5,181.4z M501.5,136.6C501.4,136.6,501.4,136.3,501.5,136.6c-1.9-5.5-2.8-11.2-2.8-17.2
								c0-29,22.6-52.5,50.5-52.5s50.5,23.5,50.5,52.5s-22.6,52.5-50.5,52.5C527.1,171.9,508.3,157.1,501.5,136.6z"/>
							<path fill="#42210B" d="M549.2,87.2c17,0,30.8,14.4,30.8,32c0,17.8-13.9,32-30.8,32c-17,0-30.8-14.4-30.8-32
								S532.2,87.2,549.2,87.2z M599.7,119.1c0-29-22.6-52.5-50.5-52.5s-50.5,23.5-50.5,52.5c0,6.2,0.9,11.8,2.8,17.2c0,0,0,0,0,0.2
								c6.8,20.5,25.7,35.3,47.7,35.3C577.1,171.9,599.7,148.1,599.7,119.1z"/>
							<path fill="#0F0602" d="M580,119.1c0-17.8-13.9-32-30.8-32c-17,0-30.8,14.4-30.8,32c0,17.8,13.9,32,30.8,32
								C566.2,151.4,580,136.9,580,119.1z"/>
							<path fill="#42210B" d="M694.8,366.5c26.4-109-81.7-186.4-81.7-186.4c-3.2,6.8-7.1,13.1-11.5,19.1l0.2,0.2
								c33.3,32.7,46.5,72.1,44,123.2c-1.7,36.8-13.1,95.1-42.4,141.9l1.1,0.8l0,0C606.5,465.6,673.5,455.1,694.8,366.5z"/>
							<path fill="#FBB03B" d="M477.9,147.9v54.3c5.7,0,20.8-15.5,20.7-30.3c0-4.1-1.7-7.7-3.9-10.9c-0.6-0.6-0.8-0.9-0.8-0.9
								c-3.9-5.2-9.9-8.8-13.1-10.7C479.1,148.4,477.9,147.9,477.9,147.9z"/>
							<path fill="#51260E" d="M608.4,81c-0.2-0.2-0.2-0.5-0.3-0.6c1.1,2.2,5.7,10.3,8.5,17.8C614.4,92.2,611.5,86.5,608.4,81z"/>
						</g>
						<path fill="#C7B299" d="M595,375c-5.5,62.5-53.2,113.6-118.8,113.6s-116-51-118.8-113.6c-4.9-108.6,53.2-101,118.8-101
							S604.4,268.5,595,375z"/>
					</g>
					<g id="fill_x5F_top_12_">
						<path display="none" fill="#AF8C69" d="M479.1,500.6v36.6c-4.7,0-9.5-0.2-14-0.6c0.9-4.6,1.1-9.3,0.3-13.9l0,0
							c-2.1-12-10.9-22.6-30.9-22.1c-13.3,0.2-24.9,6.8-30.5,17l0,0c-20.8-13.3-37.4-32-50.5-53c-29-46.9-40.7-105.1-42.4-141.9
							c-2.2-51.1,10.9-90.7,44-123.4l0.2-0.2c25.7,34.7,71.3,57.9,123.6,58.1v243.3L479.1,500.6L479.1,500.6z"/>
						<path fill="#FBB03B" d="M479.1,148.4v54c-5.7,0-20.8-15.5-20.7-30.3c0-4.1,1.7-7.7,3.9-10.9c0.6-0.6,0.8-0.9,0.8-0.9
							c3.9-5.2,9.9-8.8,13.1-10.7C477.9,148.4,479.1,148.4,479.1,148.4z"/>
						<path fill="#AF8C69" d="M479.1,71.1l2.5,1.6l-2.2,74.8c0,0-1.7,0.9-3.5,1.9c0,0-3.9-68.5-40.9-86.9c-1.7-0.8-3.5-1.6-5.2-2.4
							l0.2-0.5l-4.4-2.8"/>
						<path fill="#EFDECE" d="M455.5,136.6C455.5,136.6,455.6,136.3,455.5,136.6c1.9-5.5,2.8-11.2,2.8-17.2
							c0-29-22.6-52.5-50.5-52.5s-50.5,23.5-50.5,52.5c0,1.7,0,3.3,0.2,4.9C360,151,381.6,172,407.8,172
							C429.9,171.9,448.7,157.1,455.5,136.6z M347.5,109.1c2.7-17,13.9-33.9,38.2-46.9c2.1-1.3,4.4-2.2,6.6-3.3
							c15.5-7.1,27.8-5.7,37.9-1.7c1.7,0.8,3.5,1.6,5.2,2.4c36.9,18.3,40.9,89.9,40.9,89.9c-3.5,1.7-9.2,5.5-13.1,10.7
							c0,0-0.2,0.5-0.8,0.9c-4.6,5.5-27.9,31.9-66.9,20.4C368.1,173.3,342.8,140.8,347.5,109.1z"/>
						<path fill="#C4731A" d="M464.9,536.6c-1.6,7.6-5.4,14-9.9,17.4l-12.8-18.8L430.1,554L417,531l-9.9,16.4c-4.1-3-7.1-8.7-7.1-15
							c0-3.9,0.8-7.7,2.1-11c0,0,11.5-8.4,19.6-8.4c18.5,0,24.1,11.5,33.6,11.5c5.7,0,9-1.4,9-1.4l0.8-0.2l0,0
							C466.2,527.3,465.9,532,464.9,536.6z"/>
						<path fill="#51260E" d="M445.8,122.5c3.9,0.9,10.1,11,9.6,14c0,0,0,0,0,0.2c-6.8,20.5-25.7,35.3-47.7,35.3
							c-26.2,0-47.8-21-50.3-47.7h0.8c0,0,9.9-16.4,12.1-15.9c2.2,0.5,6.5,12,6.5,12l0,0c0.6,17.2,14.2,31.1,30.8,31.1
							c12.8,0,23.5-8,28.2-19.4l0,0C436.5,131.3,441.9,121.4,445.8,122.5z"/>
						<path fill="#230F07" d="M438.6,121.9c-0.2,3.6-1.1,6.9-2.2,10.1l0,0c-4.7,11.5-15.6,19.4-28.2,19.4
							c-16.7,0-30.1-13.9-30.8-31.1c0-0.5,0-0.8,0-1.3c0,0,9.6-1.6,14.7,12.5c5.2,14.2,27.6,11.2,32.3,4.4
							C429,129,434.2,121.9,438.6,121.9z"/>
						<path fill="#51260E" d="M349.1,80.2c0.2-0.2,0.2-0.5,0.2-0.5c-6.8-8.4-27.9-12-27.9-12l40.6-5.2c0,0,4.1,2.8,6.5-2.4
							c4.6-9.5-52.9-18.3-52.9-18.3s46.2-5.5,61.4,3.9c9.9,6.3-14.5-32.7-15-33.6l27.3,17.5l0,0c0.6,0.8,12.1,17,4.7,23.7
							c-4.7,4.4-8.4,8.4-8.4,8.4c-24.3,12.8-35.5,29.8-38.2,46.9c-0.9-0.2-1.7-0.5-2.5-0.8c-3.9-2.2-6.6-3.6-6.8-3.8
							c0.6-2.2,1.3-4.4,2.2-6.5C343.4,90.6,347.7,82.6,349.1,80.2C349.1,80.4,349.1,80.2,349.1,80.2z"/>
						<path fill="#51260E" d="M348.6,81c0.2-0.2,0.2-0.5,0.3-0.6c-1.1,2.2-5.5,10.3-8.5,17.8C342.6,92.2,345.5,86.5,348.6,81z"/>
						<path fill="#51260E" d="M333.7,188.5c0,0,5.4,13.1,0,23.4s-38.2,61.9-36.3,94.4c1.9,32.7-38.8,39.1-38.8,39.1
							C251.4,267.8,309.5,209.1,333.7,188.5z"/>
						<g id="fill_x5F_top_15_">
							<path display="none" fill="#AF8C69" d="M477.9,500.6v36.6c4.7,0,9.5-0.2,14-0.6c-0.9-4.6-1.1-9.3-0.3-13.9l0,0
								c2.1-12,10.9-22.6,30.9-22.1c13.3,0.2,24.9,6.8,30.5,17l0,0c20.8-13.3,37.4-32,50.5-53c29-46.9,40.7-105.1,42.1-141.9
								c2.2-51.1-10.9-90.7-44-123.4l-0.2-0.2c-25.7,34.7-71.3,57.9-123.6,58.1L477.9,500.6L477.9,500.6z"/>
							<path fill="#FBB03B" d="M477.9,148.4v54c5.7,0,20.8-15.5,20.7-30.3c0-4.1-1.7-7.7-3.9-10.9c-0.6-0.6-0.8-0.9-0.8-0.9
								c-3.9-5.2-9.9-8.8-13.1-10.7C479.1,148.4,477.9,148.4,477.9,148.4z"/>
							<path fill="#AF8C69" d="M477.6,70.9l0.3,77c0,0,1.1,0.5,2.8,1.4c0,0,3.9-68.5,40.9-86.9c1.7-0.8,3.5-1.6,5.2-2.4l-0.2-0.5
								l4.4-2.8C529.6,57.4,480.4,73.3,477.6,70.9z"/>
							<path fill="#EFDECE" d="M501.5,136.6C501.5,136.6,501.5,136.3,501.5,136.6c-1.9-5.5-2.8-11.2-2.8-17.2
								c0-29,22.6-52.5,50.5-52.5s50.5,23.5,50.5,52.5c0,1.7,0,3.3-0.2,4.9c-2.5,26.7-24,47.7-50.3,47.7
								C527.1,171.9,508.3,157.1,501.5,136.6z M609.5,109.1c-2.7-17-13.9-33.9-38-46.9c-2.1-1.3-4.4-2.2-6.6-3.3
								c-15.5-7.1-27.8-5.7-37.9-1.7c-1.7,0.8-3.5,1.6-5.2,2.4c-37,18.3-40.9,89.9-40.9,89.9c3.5,1.7,9.2,5.5,13.1,10.7
								c0,0,0.2,0.5,0.8,0.9c4.6,5.5,27.9,31.9,66.9,20.4C589.1,173.3,614.4,140.8,609.5,109.1z"/>
							<path fill="#C4731A" d="M491.9,536.6c1.6,7.6,5.4,14,9.9,17.4l12.8-18.8l12.1,18.8l13.1-23l9.9,16.4c4.1-3,7.1-8.7,7.1-15
								c0-3.9-0.8-7.7-2.1-11c0,0-11.5-8.4-19.6-8.4c-18.5,0-24.1,11.5-33.6,11.5c-5.7,0-9-1.4-9-1.4l-0.8-0.2l0,0
								C490.8,527.3,491,532,491.9,536.6z"/>
							<path fill="#51260E" d="M511.2,122.5c-3.9,0.9-10.1,11-9.6,14c0,0,0,0,0,0.2c6.8,20.5,25.7,35.3,47.7,35.3
								c26.4,0,47.8-21,50.3-47.7h-0.8c0,0-9.9-16.4-12.1-15.9c-2.2,0.5-6.5,12-6.5,12l0,0c-0.6,17.2-14.2,31.1-30.8,31.1
								c-12.8,0-23.5-8-28.2-19.4l0,0C520.5,131.3,515.1,121.4,511.2,122.5z"/>
							<path fill="#230F07" d="M518.6,121.9c0.2,3.6,1.1,6.9,2.2,10.1l0,0c4.7,11.5,15.6,19.4,28.2,19.4c16.7,0,30.1-13.9,30.8-31.1
								c0-0.5,0-0.8,0-1.3c0,0-9.6-1.6-14.7,12.5c-5.2,14.2-27.6,11.2-32.3,4.4C528.4,129,523,121.9,518.6,121.9z"/>
							<path fill="#51260E" d="M607.9,80.2c-0.2-0.2-0.2-0.5-0.2-0.5c6.8-8.4,27.9-12,27.9-12L595,62.5c0,0-4.1,2.8-6.5-2.4
								c-4.6-9.5,52.9-18.3,52.9-18.3s-46.2-5.5-61.4,3.9c-9.9,6.3,14.5-32.7,15-33.6l-27.3,17.5l0,0c-0.6,0.8-12.1,17-4.7,23.7
								c4.7,4.4,8.4,8.4,8.4,8.4c24.3,12.8,35.5,29.8,38,46.9c0.9-0.2,1.7-0.5,2.5-0.8c3.9-2.2,6.6-3.6,6.8-3.8
								c-0.6-2.2-1.3-4.4-2.2-6.5C613.6,90.6,609.3,82.6,607.9,80.2C608.1,80.4,607.9,80.2,607.9,80.2z"/>
							<path fill="#51260E" d="M608.5,81c-0.2-0.2-0.2-0.5-0.3-0.6c1.1,2.2,5.5,10.3,8.5,17.8C614.4,92.2,611.7,86.5,608.5,81z"/>
							<path fill="#51260E" d="M623.4,188.5c0,0-5.4,13.1,0,23.4s38.2,61.9,36.3,94.4c-1.9,32.7,38.8,39.3,38.8,39.3
								C705.6,267.8,647.7,209.1,623.4,188.5z"/>
						</g>
					</g>
					<g id="outlines_12_">
						<path fill="none" stroke="#000000" stroke-width="3" stroke-miterlimit="10" d="M349.1,80.2c0.9-1.4,2.1-2.8,3.5-3.9"/>
						<path fill="none" stroke="#000000" stroke-width="3" stroke-miterlimit="10" d="M338.2,104.5c0.6-2.2,1.3-4.4,2.2-6.5"/>
						<ellipse fill="none" stroke="#000000" stroke-width="3" stroke-miterlimit="10" cx="407.8" cy="119.1" rx="30.8" ry="32"/>
						<path fill="none" stroke="#000000" stroke-width="3" stroke-miterlimit="10" d="M479.1,257.4c-52.2-0.2-98-23.5-123.6-58.1
							c-4.4-6.2-8.4-12.5-11.4-19.1c-6.6-14-10.3-29.2-10.3-45.3c0-10.4,1.6-20.7,4.6-30.5"/>
						<path fill="none" stroke="#0A0000" stroke-width="3" stroke-miterlimit="10" d="M462.7,160.5c3.9-5.2,10.3-9.5,13.6-11.2
							c1.7-0.9,5.4-0.5,5.4-0.5"/>
						<path fill="none" stroke="#0A0000" stroke-width="3" stroke-miterlimit="10" d="M479.1,202c-5.7,0-20.8-15.5-20.7-30.3
							c0-4.1,1.7-7.7,3.9-10.9"/>
						<path fill="none" stroke="#000000" stroke-width="3" stroke-miterlimit="10" d="M455.5,136.6c-6.8,20.5-25.7,35.3-47.7,35.3
							c-26.2,0-47.8-21-50.3-47.7c-0.2-1.6-0.2-3.3-0.2-4.9c0-29,22.6-52.5,50.5-52.5s50.5,23.5,50.5,52.5
							C458.3,125.3,457.4,131,455.5,136.6"/>
						<path fill="none" stroke="#000000" stroke-width="3" stroke-miterlimit="10" d="M377,120.3c0-0.5,0-0.8,0-1.3
							c0-17.8,13.9-32,30.8-32c16.9,0,30.8,14.4,30.8,32c0,0.9,0,1.7-0.2,2.5c-0.2,3.6-1.1,6.9-2.2,10.1"/>
						<path fill="none" stroke="#000000" stroke-width="3" stroke-miterlimit="10" d="M463,160.1c0,0-0.2,0.5-0.8,0.9
							c-4.6,5.5-27.9,31.9-66.9,20.4c-27.3-8.2-52.5-40.6-47.8-72.3c2.7-17,13.9-33.9,38.2-46.9c2.1-1.3,4.4-2.2,6.6-3.3
							c15.5-7.1,27.8-5.7,37.9-1.7c1.7,0.8,3.5,1.6,5.2,2.4c36.9,18.3,40.9,89.9,40.9,89.9"/>
						<polyline fill="none" stroke="#000000" stroke-width="3" stroke-miterlimit="10" points="361.9,12.4 422.8,14.3 479.1,16 
													"/>
						<line fill="none" stroke="#000000" stroke-width="3" stroke-miterlimit="10" x1="389.2" y1="30.2" x2="361.9" y2="12.4"/>
						<line fill="none" stroke="#000000" stroke-width="3" stroke-miterlimit="10" x1="426.1" y1="53.9" x2="389.2" y2="30.2"/>
						<line fill="none" stroke="#000000" stroke-width="3" stroke-miterlimit="10" x1="430.4" y1="56.7" x2="426.1" y2="53.9"/>
						<path fill="none" stroke="#000000" stroke-width="3" stroke-miterlimit="10" d="M362.5,12.4c0,0,0,0-0.6,0
							c0.6,0.9,24.9,39.9,15,33.6c-15-9.5-61.4-3.9-61.4-3.9l46.2,20.5l-40.6,5.2c0,0,21.1,3.8,27.9,12c0,0,0,0.2-0.2,0.5
							c0,0,0,0.2-0.2,0.2c-1.1,2.2-5.5,10.3-8.5,17.8c-0.9,2.4-1.7,4.6-2.2,6.5"/>
						<path fill="none" stroke="#000000" stroke-width="3" stroke-miterlimit="10" d="M404,517.6c-20.8-13.3-37.4-32-50.5-53
							c-29-46.9-40.7-105.1-42.4-141.9c-2.2-51.1,10.9-90.7,44-123.4"/>
						<path fill="none" stroke="#000000" stroke-width="3" stroke-miterlimit="10" d="M479.1,537c-4.7,0-9.5-0.2-14-0.6
							c-0.2,0-0.3,0-0.3,0"/>
						<path fill="none" stroke="#000000" stroke-width="3" stroke-miterlimit="10" d="M352.3,465.6h-0.2"/>
						<path fill="none" stroke="#000000" stroke-width="3" stroke-miterlimit="10" d="M343.9,180.1c0,0-3.9,2.8-10.3,8.4
							c-24.1,20.7-82.2,79.2-75.1,156.8c0.6,6.9,1.7,13.9,3.6,21.1c21.5,88.7,88.5,98.9,90.1,98.9l0,0"/>
						<path fill="none" stroke="#000000" stroke-width="3" stroke-miterlimit="10" d="M464.9,536.6c-1.6,7.6-5.4,14-9.9,17.4
							l-12.8-18.8L430.1,554L417,531l-9.9,16.4c-4.1-3-7.1-8.7-7.1-15c0-3.9,0.8-7.7,2.1-11c0.3-1.3,0.9-2.2,1.6-3.3
							c5.5-10.3,17-16.7,30.5-17c20.2-0.5,28.9,10.1,30.9,22.1l0,0C466.2,527.3,465.9,532,464.9,536.6z"/>
						<polyline fill="none" stroke="#000000" stroke-width="3" stroke-miterlimit="10" points="344.2,278.9 358.9,301.3 374,278.9 
													"/>
						<polyline fill="none" stroke="#000000" stroke-width="3" stroke-miterlimit="10" points="374.5,334.3 387.6,356.5 
							400.4,336.3 						"/>
						<polyline fill="none" stroke="#000000" stroke-width="3" stroke-miterlimit="10" points="425.8,304.6 438.9,327 455.6,304.6 
													"/>
						<polyline fill="none" stroke="#000000" stroke-width="3" stroke-miterlimit="10" points="437.3,389.5 452.2,415.1 
							467.1,389.5 						"/>
						<polyline fill="none" stroke="#000000" stroke-width="3" stroke-miterlimit="10" points="358.9,419.3 372.5,441.6 
							389.2,419.3 						"/>
						<polyline fill="none" stroke="#000000" stroke-width="3" stroke-miterlimit="10" points="425.8,458.8 438.9,481 455.6,458.8 
													"/>
						<path fill="none" stroke="#000000" stroke-width="3" stroke-miterlimit="10" d="M389.2,30.2L389.2,30.2"/>
						<g id="outlines_15_">
							<path fill="none" stroke="#000000" stroke-width="3" stroke-miterlimit="10" d="M607.9,80.2c-0.9-1.4-2.1-2.8-3.5-3.9"/>
							<path fill="none" stroke="#000000" stroke-width="3" stroke-miterlimit="10" d="M618.8,104.5c-0.6-2.2-1.3-4.4-2.2-6.5"/>
							<ellipse fill="none" stroke="#000000" stroke-width="3" stroke-miterlimit="10" cx="549.2" cy="119.1" rx="30.8" ry="32"/>
							<path fill="none" stroke="#000000" stroke-width="3" stroke-miterlimit="10" d="M477.9,257.4c52.2-0.2,98-23.5,123.6-58.1
								c4.6-6.2,8.4-12.5,11.5-19.1c6.6-14,10.3-29.2,10.3-45.3c0-10.4-1.6-20.7-4.6-30.5"/>
							<path fill="none" stroke="#0A0000" stroke-width="3" stroke-miterlimit="10" d="M494.6,161c-3.9-5.2-10.6-9.9-13.9-11.7
								c-1.7-0.9-2.8-1.4-2.8-1.4"/>
							<path fill="none" stroke="#0A0000" stroke-width="3" stroke-miterlimit="10" d="M477.9,202c5.7,0,20.8-15.5,20.7-30.3
								c0-4.1-1.7-7.7-3.9-10.9"/>
							<path fill="none" stroke="#000000" stroke-width="3" stroke-miterlimit="10" d="M501.5,136.6c6.8,20.5,25.7,35.3,47.7,35.3
								c26.4,0,47.8-21,50.3-47.7c0.2-1.6,0.2-3.3,0.2-4.9c0-29-22.6-52.5-50.5-52.5s-50.5,23.5-50.5,52.5
								C498.7,125.3,499.6,131,501.5,136.6"/>
							<path fill="none" stroke="#000000" stroke-width="3" stroke-miterlimit="10" d="M580.1,120.3c0-0.5,0-0.8,0-1.3
								c0-17.8-13.9-32-30.8-32s-30.8,14.4-30.8,32c0,0.9,0,1.7,0.2,2.5c0.2,3.6,1.1,6.9,2.2,10.1"/>
							<path fill="none" stroke="#000000" stroke-width="3" stroke-miterlimit="10" d="M494,160.1c0,0,0.2,0.5,0.8,0.9
								c4.6,5.5,27.9,31.9,66.9,20.4c27.3-8.2,52.5-40.6,47.8-72.3c-2.7-17-13.9-33.9-38-46.9c-2.1-1.3-4.4-2.2-6.6-3.3
								c-15.5-7.1-27.8-5.7-37.9-1.7c-1.7,0.8-3.5,1.6-5.2,2.4c-37,18.3-40.9,89.9-40.9,89.9"/>
							<polyline fill="none" stroke="#000000" stroke-width="3" stroke-miterlimit="10" points="595.1,12.4 534.4,14.3 477.9,16 
															"/>
							<line fill="none" stroke="#000000" stroke-width="3" stroke-miterlimit="10" x1="567.8" y1="30.2" x2="595.1" y2="12.4"/>
							<line fill="none" stroke="#000000" stroke-width="3" stroke-miterlimit="10" x1="531.2" y1="53.9" x2="567.8" y2="30.2"/>
							<line fill="none" stroke="#000000" stroke-width="3" stroke-miterlimit="10" x1="526.8" y1="56.7" x2="531.2" y2="53.9"/>
							<path fill="none" stroke="#000000" stroke-width="3" stroke-miterlimit="10" d="M594.6,12.4c0,0,0,0,0.6,0
								c-0.6,0.9-24.9,39.9-15,33.6c15-9.5,61.4-3.9,61.4-3.9l-46.2,20.5l40.6,5.2c0,0-21.1,3.8-27.9,12c0,0,0,0.2,0.2,0.5
								c0,0,0,0.2,0.2,0.2c1.1,2.2,5.5,10.3,8.5,17.8c0.9,2.4,1.7,4.6,2.2,6.5"/>
							<path fill="none" stroke="#000000" stroke-width="3" stroke-miterlimit="10" d="M553,517.6c20.8-13.3,37.4-32,50.5-53
								c29-46.9,40.7-105.1,42.1-141.9c2.2-51.1-10.9-90.7-44-123.4"/>
							<path fill="none" stroke="#000000" stroke-width="3" stroke-miterlimit="10" d="M477.9,537c4.7,0,9.5-0.2,14-0.6
								c0.2,0,0.3,0,0.3,0"/>
							<path fill="none" stroke="#000000" stroke-width="3" stroke-miterlimit="10" d="M604.7,465.6h0.2"/>
							<path fill="none" stroke="#000000" stroke-width="3" stroke-miterlimit="10" d="M613.1,180.1c0,0,3.9,2.8,10.3,8.4
								c24.1,20.7,82.2,79.4,75.1,156.8c-0.6,6.9-1.7,13.9-3.5,21.1c-21.5,88.7-88.5,98.9-90.1,98.9l0,0"/>
							<path fill="none" stroke="#000000" stroke-width="3" stroke-miterlimit="10" d="M491.9,536.6c1.6,7.6,5.4,14,9.9,17.4
								l12.8-18.8l12.1,18.8l13.1-23l9.9,16.4c4.1-3,7.1-8.7,7.1-15c0-3.9-0.8-7.7-2.1-11c-0.3-1.3-0.9-2.2-1.6-3.3
								c-5.5-10.3-17-16.7-30.5-17c-20.2-0.5-28.9,10.1-30.9,22.1l0,0C490.8,527.3,491,532,491.9,536.6z"/>
							<polyline fill="none" stroke="#000000" stroke-width="3" stroke-miterlimit="10" points="612.8,278.9 598.1,301.3 
								583.3,278.9 							"/>
							<polyline fill="none" stroke="#000000" stroke-width="3" stroke-miterlimit="10" points="582.5,334.3 569.6,356.5 
								556.6,336.3 							"/>
							<polyline fill="none" stroke="#000000" stroke-width="3" stroke-miterlimit="10" points="531.2,304.6 518.3,327 501.5,304.6 
															"/>
							<polyline fill="none" stroke="#000000" stroke-width="3" stroke-miterlimit="10" points="519.7,389.5 504.9,415.1 490,389.5 
															"/>
							<polyline fill="none" stroke="#000000" stroke-width="3" stroke-miterlimit="10" points="598.1,419.3 584.7,441.6 568,419.3 
															"/>
							<polyline fill="none" stroke="#000000" stroke-width="3" stroke-miterlimit="10" points="531.2,458.8 518.3,481 501.5,458.8 
															"/>
							<path fill="none" stroke="#000000" stroke-width="3" stroke-miterlimit="10" d="M567.8,30.2L567.8,30.2"/>
						</g>
					</g>
				</g>
			</g>
		</g>
	</g>
	<g id="top">
		<g id="eye_lens">
			<path id="eye_lens_2" fill="#FFFFFF" d="M402,83.5c3.5,4.1,0.6,15.5-6.6,20.4c-7.4,4.9-13.7,5.7-17.4,1.7
				c-3.5-4.1-3.2-10.9,5.7-18.3C390.5,81.3,398.5,79.4,402,83.5z"/>
			<path id="eye_lens_1" fill="#FFFFFF" d="M391.4,113.5c1.6,1.7,0.2,6.2-1.7,7.9c-1.9,1.7-4.7,1.7-6.3,0s-1.1-4.7,0.8-6.5
				C386.2,113.3,390,111.8,391.4,113.5z"/>
		</g>
		<g id="eye_lens_1_">
			<path id="eye_lens_2_1_" fill="#FFFFFF" d="M544.5,83.5c3.5,4.1,0.6,15.5-6.6,20.4c-7.4,4.9-13.7,5.7-17.4,1.7
				c-3.6-3.9-3.2-10.9,5.7-18.3C533.1,81.3,541,79.4,544.5,83.5z"/>
			<path id="eye_lens_1_1_" fill="#FFFFFF" d="M532.2,113.5c1.6,1.7,0.2,6.2-1.7,7.9c-1.9,1.7-4.7,1.7-6.3,0s-1.1-4.7,0.8-6.5
				C526.8,113.3,530.6,111.8,532.2,113.5z"/>
		</g>
	</g>
</g>
<g id="Vrstva_2">
	<g>
		<title>Layer 1</title>
		<path id="svg_2" stroke="#000000" stroke-width="4" d="M549.8,190.8h-0.3v0.3h-0.3l0,0v0.3l0,0l0,0h-0.3l0,0v0.3h-0.3l0,0v0.3
			h-0.5h-0.2v-0.4l0.3-0.3V191v-0.3h0.3l0,0v-0.1h0.3l0,0v-0.3l0,0l0,0l0.3-0.3l0.3-0.3l0,0l0,0v-0.3c0,0,0.3-0.2,0.8-0.5
			c0.4-0.5,1.3-1.2,2.7-1.9s3-1.1,4.6-1.1c1.8,0,3.3,0.3,4.4,0.8c1.3,0.5,2.6,1.4,4.1,2.5c1.3,1.1,2.5,2.5,3.8,4.1s2.2,3.4,2.7,5.2
			c0.5,2,0.8,4,0.8,6c0,2.2-0.3,4.2-0.8,6c-0.5,2-1.5,4-3,6c-1.1,2-2.4,3.6-3.8,4.9c-1.5,1.3-3.4,2.5-5.7,3.8
			c-2.4,1.5-5.1,2.5-8.2,3.3c-3.1,1.1-6.5,1.8-10.1,2.2c-3.5,0.4-7.5,0.4-12,0c-4.7,0-9.6-0.5-14.7-1.6c-5.1-1.1-9.8-2.4-14.2-3.8
			c-4.4-1.5-8.2-3.1-11.5-4.9c-3.1-1.8-5.5-3.5-7.1-4.9c-1.8-1.5-2.9-2.3-3.3-2.5c-0.4-0.2-0.9,0-1.6,0.5c-0.5,0.5-2,1.7-4.4,3.5
			s-5.2,3.5-8.5,4.9c-3.3,1.5-7.2,2.9-11.7,4.4c-4.4,1.5-9.3,2.6-14.7,3.5c-5.5,0.9-10,1.5-13.6,1.6c-3.5,0.2-6,0.1-7.6-0.3
			c-1.6,0-4.2-0.5-7.6-1.4c-3.6-0.9-6.7-1.9-9.3-3c-2.4-1.1-4.4-2.2-6-3.3c-1.6-1.5-3.1-3-4.4-4.6c-1.5-1.8-2.5-3.8-3.3-6
			c-0.7-2.2-1.2-4.5-1.4-6.8c-0.2-2.2-0.1-4,0.3-5.5c0.4-1.3,0.9-2.8,1.6-4.6c1.1-1.8,1.9-3,2.5-3.5c0.7-0.7,1.1-1.2,1.1-1.4
			c0-0.2,0.2-0.4,0.5-0.5c0.4-0.2,1.4-0.7,3-1.6s3.5-1.4,5.5-1.4c2.2,0,4,0.3,5.5,0.8l2.2,0.8v0.3l0,0h0.3v0.3l0,0h0.3l0,0l0,0
			l0.3,0.3l0.3,0.3l0,0l0,0h0.3l0,0v0.3h0.3v0.3v0.3h-0.5l-0.8-0.3h-0.6h-0.3v-0.3h-0.3l0,0v-0.3h-1.1c-0.5-0.4-1.5-0.5-3-0.3
			s-2.7,0.6-3.8,1.4c-0.9,0.9-1.7,2-2.5,3.3c-0.7,1.3-1.1,3.1-1.1,5.5c0,2.5,0.4,4.3,1.1,5.2c0.5,0.9,1.3,1.6,2.2,2.2
			c0.9,0.5,2.2,0.8,3.8,0.8c1.8,0,4-0.5,6.5-1.6c2.7-1.1,6.2-2.8,10.4-5.2c4.4-2.4,8.6-4.8,12.8-7.4c4.4-2.5,8.1-4.5,11.2-6
			c3.3-1.5,6-2.4,8.2-2.7c2.4-0.7,5-1,7.9-0.8s5.7,0.6,8.5,1.4c2.7,1.1,5.1,2.3,7.1,3.5c2.2,1.3,3.4,2,3.5,2.2s1.3-0.5,3.3-1.9
			c2-1.5,4.4-2.5,7.1-3.3c2.7-1.1,4.7-1.6,6-1.6c1.3-0.4,3.5-0.5,6.8-0.3s6.2,0.5,8.7,1.1c2.4,0.5,5.3,1.7,8.7,3.5
			c3.5,1.8,8.5,4.9,15,9.3s11,6.9,13.4,7.6c2.2,1.1,4.3,1.6,6.3,1.6s3.7-0.4,5.2-1.1s2.5-1.5,3.3-2.2c0.7-0.9,1.1-2.5,1.1-4.6
			s-0.4-3.9-1.1-5.2c-0.7-1.3-1.5-2.4-2.5-3.3c-0.9-0.7-1.7-1.3-2.5-1.6c-0.9-0.4-2-0.5-3.3-0.5c-1.1,0-2,0.3-2.7,0.8
			C550.3,190.5,550,190.8,549.8,190.8z"/>
	</g>
</g>
</svg>
