<?xml version="1.0" encoding="utf-8"?>
<!-- Generator: Adobe Illustrator 18.1.1, SVG Export Plug-In . SVG Version: 6.00 Build 0)  -->
<!DOCTYPE svg PUBLIC "-//W3C//DTD SVG 1.1//EN" "http://www.w3.org/Graphics/SVG/1.1/DTD/svg11.dtd">
<svg version="1.1" xmlns="http://www.w3.org/2000/svg" xmlns:xlink="http://www.w3.org/1999/xlink" x="0px" y="0px"
	 width="408.209px" height="144.776px" viewBox="0 0 408.209 144.776" style="enable-background:new 0 0 408.209 144.776;"
	 xml:space="preserve">
<g id="Vrstva_1">
	<rect x="5.97" y="44.944" class="podium_x002D_background" width="130.936" height="91.041"/>
	<rect x="136.906" y="6.716" class="podium_x002D_background" width="131.92" height="129.269"/>
	<rect x="268.826" y="62.548" class="podium_x002D_background" width="131.92" height="73.437"/>
</g>
<g id="Vrstva_2">
	<g>
		<path class="st0" d="M211.035,22.733v46.655h-13.057V34.251c-3.486,1.687-6.722,2.632-9.707,2.837v-6.152
			c6.858-0.684,11.689-3.418,14.492-8.203H211.035z"/>
	</g>
	<g>
		<path class="st0" d="M88.289,96.832v11.211H53.494v-6.597c2.848-3.145,6.118-6.494,9.81-10.049
			c8.271-7.907,12.407-13.957,12.407-18.149c0-5.583-2.21-8.374-6.631-8.374c-5.378,0-8.066,3.373-8.066,10.117
			c0,1.595,0.387,3.84,1.162,6.733l-7.212-1.709c-0.547-2.142-0.82-3.862-0.82-5.161c0-9.456,5.845-14.185,17.534-14.185
			c4.944,0,9.012,1.219,12.202,3.657c3.19,2.438,4.785,5.56,4.785,9.365c0,4.353-3.156,9.092-9.468,14.219l-4.238,3.418
			l-4.683,3.931c-0.296,0.251-1.025,0.775-2.188,1.572H88.289z"/>
	</g>
	<g>
		<path class="st0" d="M317.098,108.499l6.255-0.342c-0.524,1.8-0.82,3.407-0.889,4.819c-0.228,4.99,2.404,7.485,7.896,7.485
			c5.4,0,8.101-3.042,8.101-9.126c0-6.152-3.225-9.229-9.673-9.229l-3.691,0.068v-5.503l2.666,0.034
			c6.79,0,10.186-2.871,10.186-8.613c0-4.99-2.404-7.485-7.212-7.485c-4.74,0-7.109,2.199-7.109,6.597
			c0,1.071,0.137,2.313,0.41,3.726l-6.255-1.299c0-8.818,5.127-13.228,15.381-13.228c11.826,0,17.739,4.033,17.739,12.1
			c0,5.287-3.338,8.875-10.015,10.767c7.565,1.732,11.348,5.651,11.348,11.758c0,9.092-6.301,13.638-18.901,13.638
			c-11.211,0-16.816-3.76-16.816-11.279C316.517,111.975,316.711,110.345,317.098,108.499z"/>
	</g>
</g>
</svg>
