<?xml version="1.0" encoding="utf-8"?>
<!-- Generator: Adobe Illustrator 18.1.1, SVG Export Plug-In . SVG Version: 6.00 Build 0)  -->
<!DOCTYPE svg PUBLIC "-//W3C//DTD SVG 1.1//EN" "http://www.w3.org/Graphics/SVG/1.1/DTD/svg11.dtd">
<svg version="1.1" id="Vrstva_1" xmlns="http://www.w3.org/2000/svg" xmlns:xlink="http://www.w3.org/1999/xlink" x="0px" y="0px"
	 viewBox="0 0 960 560" enable-background="new 0 0 960 560" xml:space="preserve">
<g id="Vrstva_1_1_" display="none">
	<path display="inline" fill="none" stroke="#000000" stroke-miterlimit="10" d="M798.6,160.5"/>
	<rect x="413.9" y="-127.5" display="inline" fill="none" stroke="#0A0000" stroke-miterlimit="10" width="772.4" height="974.5"/>
</g>
<g id="base">
	<path fill="#AF8C69" d="M480.6,252.5c52.2-0.2,98-23.5,123.6-58.1l0.2,0.2c33.3,32.8,46.4,72.1,44,123.4
		c-1.7,36.8-13.1,95.1-42.1,141.9c-13.1,21-29.7,39.8-50.5,53l0,0c-5.5-10.3-17-16.7-30.5-17c-20.2-0.5-28.9,10.1-30.9,22.1l0,0
		c-0.8,4.6-0.6,9.3,0.3,13.9c-4.6,0.5-9.3,0.6-14,0.6s-9.5-0.2-14-0.6c0.9-4.6,1.1-9.3,0.3-13.9l0,0c-2.1-12-10.9-22.6-30.9-22.1
		c-13.3,0.2-24.9,6.8-30.5,17l0,0c-20.8-13.3-37.4-32-50.5-53C326,413,314.3,354.8,312.6,318c-2.2-51.1,10.9-90.7,44-123.4l0.2-0.2
		C382.5,229.2,428.2,252.4,480.6,252.5z"/>
</g>
<g id="mirror">
	<g>
		<g>
			<g id="XMLID_13_">
				<g id="fill_x5F_bottom_12_">
					<path fill="#C4731A" d="M436,495.7c27.8-0.6,34.1,19.7,30.6,36c-1.6,7.6-5.4,14-9.9,17.4l-12.8-18.8L431.7,549l-12.9-23
						l-9.9,16.4c-4.1-3-7.1-8.7-7.1-15c0-5.4,1.3-10.3,3.6-14.4C411.2,502.5,422.6,495.8,436,495.7z"/>
					<path fill="#AF8C69" d="M480.6,495.7v36.6c-4.7,0-9.5-0.2-14-0.6c3.5-16.3-3-36.6-30.6-36c-13.3,0.2-24.8,6.8-30.5,17l0,0
						c-20.8-13.3-37.4-32-50.5-53c-29-46.9-40.7-105.1-42.4-141.9c-2.2-51.1,10.9-90.7,44-123.4l0.2-0.2
						c25.7,34.7,71.5,57.9,123.6,58.1v36.4c0,0-68,5.5-80.3-15.1c-16.6-27.5-40.6-35-62.6-23c-27.6,14.7,1.1,177.8,22.2,193
						c27.6,19.7,42.9-0.8,62.3,21.1C440.1,485.3,457.1,485,480.6,495.7z"/>
					<path fill="#42210B" d="M397,176.5c38.8,11.5,62.3-14.7,66.9-20.4c-2.2,3.2-3.8,6.8-3.9,10.9c-0.2,14.8,15,30.3,20.7,30.3v55.2
						c-52.2-0.2-98-23.5-123.6-58.1c-4.4-6.2-8.4-12.5-11.4-19.1c-6.6-14-10.3-29.2-10.3-45.3c0-10.4,1.6-20.7,4.6-30.5
						c0.6-2.2,1.3-4.4,2.2-6.5c3-7.3,7.4-15.5,8.5-17.8c0,0,0-0.2,0.2-0.2c0.2-0.2,0.2-0.5,0.2-0.5c-6.8-8.4-27.9-12-27.9-12
						l40.6-5.2l-46.5-20.4c0,0,46.2-5.5,61.4,3.9c9.9,6.3-14.5-32.7-15-33.6L432,51.7l-0.2,0.5c-10.3-3.9-22.4-5.4-37.9,1.7
						c-2.2,0.9-4.6,2.2-6.6,3.3C317.9,94.3,355,164,397,176.5z"/>
					<path fill="#C7B299" d="M480.6,11.1V143c0,0-1.1,0.6-2.8,1.4c0,0-3.9-71.5-40.9-89.9c-1.7-0.8-3.5-1.6-5.2-2.4l0.2-0.5
						L363.4,7.5l0,0l60.7,1.7L480.6,11.1z"/>
					<path fill="#EFDECE" d="M397,176.5c-42.1-12.5-79.2-82.4-9.6-119.1c2.1-1.3,4.4-2.2,6.6-3.3c15.5-7.1,27.8-5.7,37.9-1.7
						c1.7,0.8,3.6,1.6,5.2,2.4C474,73.1,478,144.7,478,144.7c-3.5,1.7-9.2,5.5-13.1,10.7c0,0-0.2,0.5-0.8,0.9
						C459.3,161.8,436,188.2,397,176.5z M457.1,131.7C457.1,131.7,457.1,131.3,457.1,131.7c1.9-5.5,2.8-11.2,2.8-17.2
						c0-29-22.6-52.5-50.5-52.5S359,85.4,359,114.5s22.6,52.5,50.5,52.5C431.6,167,450.3,152.2,457.1,131.7z"/>
					<path fill="#42210B" d="M409.3,82.3c-17,0-30.8,14.4-30.8,32c0,17.8,13.9,32,30.8,32c17,0,30.8-14.4,30.8-32
						C440.2,96.6,426.4,82.3,409.3,82.3z M358.8,114.1c0-29,22.6-52.5,50.5-52.5s50.5,23.5,50.5,52.5c0,6.2-0.9,11.8-2.8,17.2
						c0,0,0,0,0,0.2c-6.8,20.5-25.7,35.3-47.7,35.3C381.4,167,358.8,143.2,358.8,114.1z"/>
					<path fill="#0F0602" d="M378.5,114.1c0-17.8,13.9-32,30.8-32c17,0,30.8,14.4,30.8,32c0,17.8-13.9,32-30.8,32
						C392.4,146.5,378.5,132,378.5,114.1z"/>
					<path fill="#42210B" d="M263.7,361.6c-26.4-109,82.1-186.4,82.1-186.4c3.2,6.8,7.1,13.1,11.4,19.1l-0.2,0.2
						c-33.3,32.8-46.4,72.3-44.2,123.4c1.7,36.8,13.1,95.1,42.4,141.9l-1.1,0.8l0,0C352.3,460.7,285.3,450.2,263.7,361.6z"/>
					<path fill="#FBB03B" d="M480.6,143v54.3c-5.7,0-20.8-15.5-20.7-30.3c0-4.1,1.7-7.7,3.9-10.9c0.6-0.6,0.8-0.9,0.8-0.9
						c3.9-5.2,9.9-8.8,13.1-10.7C479.7,143.5,480.6,143,480.6,143z"/>
					<path fill="#51260E" d="M350.1,76.1c0.2-0.2,0.2-0.5,0.3-0.6c-1.1,2.2-5.5,10.3-8.5,17.8C344.3,87.3,347,81.6,350.1,76.1z"/>
					<g id="fill_x5F_bottom_15_">
						<path fill="#C4731A" d="M524,495.7c-27.8-0.6-34.1,19.7-30.6,36c1.6,7.6,5.4,14,9.9,17.4l12.8-18.8l12.1,18.8l12.9-23
							l9.9,16.4c4.1-3,7.1-8.7,7.1-15c0-5.4-1.3-10.3-3.6-14.4C548.8,502.5,537.4,495.8,524,495.7z"/>
						<path fill="#AF8C69" d="M479.4,495.7v36.6c4.7,0,9.5-0.2,14-0.6c-3.5-16.3,3-36.6,30.6-36c13.3,0.2,24.8,6.8,30.5,17l0,0
							c20.8-13.3,37.4-32,50.5-53c29-46.9,40.7-105.1,42.4-141.9c2.2-51.1-10.9-90.7-44-123.4l-0.2-0.2
							c-25.7,34.7-71.5,57.9-123.6,58.1v36.4c0,0,68,5.5,80.3-15.1c16.6-27.5,40.6-35,62.6-23c27.6,14.7-1.1,177.8-22.2,193
							c-27.3,19.7-42.9-0.8-62.3,21.1C520.1,485.3,502.9,485,479.4,495.7z"/>
						<path fill="#42210B" d="M563,176.5c-38.8,11.5-62.3-14.7-66.9-20.4c2.2,3.2,3.8,6.8,3.9,10.9c0.2,14.8-15,30.3-20.7,30.3v55.2
							c52.2-0.2,98-23.5,123.6-58.1c4.6-6.2,8.4-12.5,11.5-19.1c6.6-14,10.3-29.2,10.3-45.3c0-10.4-1.6-20.7-4.6-30.5
							c-0.6-2.2-1.3-4.4-2.2-6.5c-2.8-7.3-7.4-15.5-8.5-17.8c0,0,0-0.2-0.2-0.2c-0.2-0.2-0.2-0.5-0.2-0.5c6.8-8.4,27.9-12,27.9-12
							l-40.6-5.2L642.7,37c0,0-46.2-5.5-61.4,3.9c-9.9,6.3,14.5-32.7,15-33.6l-68.5,44.2L528,52c10.3-3.9,22.4-5.4,37.9,1.7
							c2.2,0.9,4.6,2.2,6.6,3.3C642.2,94.3,605.3,164,563,176.5z"/>
						<path fill="#C7B299" d="M475.4,11.1l3.9,131.9c0,0,1.1,0.6,2.8,1.4c0,0,3.9-71.5,40.9-89.9c1.7-0.8,3.5-1.6,5.2-2.4l-0.2-0.5
							l68.5-44.2l0,0l-61.1,1.7L475.4,11.1z"/>
						<path fill="#EFDECE" d="M563,176.5c42.1-12.5,79.2-82.4,9.6-119.1c-2.1-1.3-4.4-2.2-6.6-3.3c-15.5-7.1-27.8-5.7-37.9-1.7
							c-1.7,0.8-3.6,1.6-5.2,2.4C486,73.1,482,144.7,482,144.7c3.5,1.7,9.2,5.5,13.1,10.7c0,0,0.2,0.5,0.8,0.9
							C500.7,161.8,524.3,188.2,563,176.5z M503,131.7C502.9,131.7,502.9,131.3,503,131.7c-1.9-5.5-2.8-11.2-2.8-17.2
							c0-29,22.6-52.5,50.5-52.5s50.5,23.5,50.5,52.5S578.6,167,550.7,167C528.6,167,509.8,152.2,503,131.7z"/>
						<path fill="#42210B" d="M550.7,82.3c17,0,30.8,14.4,30.8,32c0,17.8-13.9,32-30.8,32c-17,0-30.8-14.4-30.8-32
							S533.6,82.3,550.7,82.3z M601.2,114.1c0-29-22.6-52.5-50.5-52.5s-50.5,23.5-50.5,52.5c0,6.2,0.9,11.8,2.8,17.2c0,0,0,0,0,0.2
							c6.8,20.5,25.7,35.3,47.7,35.3C578.6,167,601.2,143.2,601.2,114.1z"/>
						<path fill="#0F0602" d="M581.5,114.1c0-17.8-13.9-32-30.8-32c-17,0-30.8,14.4-30.8,32c0,17.8,13.9,32,30.8,32
							C567.7,146.5,581.5,132,581.5,114.1z"/>
						<path fill="#42210B" d="M696.3,361.6c26.4-109-81.7-186.4-81.7-186.4c-3.2,6.8-7.1,13.1-11.5,19.1l0.2,0.2
							c33.3,32.7,46.5,72.1,44,123.2c-1.7,36.8-13.1,95.1-42.4,141.9l1.1,0.8l0,0C608,460.7,675,450.2,696.3,361.6z"/>
						<path fill="#FBB03B" d="M479.4,143v54.3c5.7,0,20.8-15.5,20.7-30.3c0-4.1-1.7-7.7-3.9-10.9c-0.6-0.6-0.8-0.9-0.8-0.9
							c-3.9-5.2-9.9-8.8-13.1-10.7C480.6,143.5,479.4,143,479.4,143z"/>
						<path fill="#51260E" d="M609.9,76.1c-0.2-0.2-0.2-0.5-0.3-0.6c1.1,2.2,5.7,10.3,8.5,17.8C615.9,87.3,613,81.6,609.9,76.1z"/>
					</g>
					<path fill="#C7B299" d="M596.4,370.1c-5.5,62.5-53.2,113.6-118.8,113.6s-116-51-118.8-113.6c-4.9-108.6,53.2-101,118.8-101
						S605.9,263.6,596.4,370.1z"/>
				</g>
				<g id="fill_x5F_top_12_">
					<path display="none" fill="#AF8C69" d="M480.6,495.7v36.6c-4.7,0-9.5-0.2-14-0.6c0.9-4.6,1.1-9.3,0.3-13.9l0,0
						c-2.1-12-10.9-22.6-30.9-22.1c-13.3,0.2-24.9,6.8-30.5,17l0,0c-20.8-13.3-37.4-32-50.5-53c-29-46.9-40.7-105.1-42.4-141.9
						c-2.2-51.1,10.9-90.7,44-123.4l0.2-0.2c25.7,34.7,71.3,57.9,123.6,58.1v243.3L480.6,495.7L480.6,495.7z"/>
					<path fill="#C4731A" d="M480.6,143.5v54c-5.7,0-20.8-15.5-20.7-30.3c0-4.1,1.7-7.7,3.9-10.9c0.6-0.6,0.8-0.9,0.8-0.9
						c3.9-5.2,9.9-8.8,13.1-10.7C479.4,143.5,480.6,143.5,480.6,143.5z"/>
					<path fill="#AF8C69" d="M480.6,66.2l2.5,1.6l-2.2,74.8c0,0-1.7,0.9-3.5,1.9c0,0-3.9-68.5-40.9-86.9c-1.7-0.8-3.5-1.6-5.2-2.4
						l0.2-0.5l-4.4-2.8"/>
					<path fill="#EFDECE" d="M457,131.7C457,131.7,457.1,131.3,457,131.7c1.9-5.5,2.8-11.2,2.8-17.2c0-29-22.6-52.5-50.5-52.5
						s-50.5,23.5-50.5,52.5c0,1.7,0,3.3,0.2,4.9c2.5,26.7,24.1,47.7,50.3,47.7C431.4,167,450.2,152.2,457,131.7z M349,104.2
						c2.7-17,13.9-33.9,38.2-46.9c2.1-1.3,4.4-2.2,6.6-3.3c15.5-7.1,27.8-5.7,37.9-1.7c1.7,0.8,3.5,1.6,5.2,2.4
						c36.9,18.3,40.9,89.9,40.9,89.9c-3.5,1.7-9.2,5.5-13.1,10.7c0,0-0.2,0.5-0.8,0.9c-4.6,5.5-27.9,31.9-66.9,20.4
						C369.5,168.3,344.3,135.9,349,104.2z"/>
					<path fill="#51260E" d="M447.3,117.6c3.9,0.9,10.1,11,9.6,14c0,0,0,0,0,0.2c-6.8,20.5-25.7,35.3-47.7,35.3
						c-26.2,0-47.8-21-50.3-47.7h0.8c0,0,9.9-16.4,12.1-15.9s6.5,12,6.5,12l0,0c0.6,17.2,14.2,31.1,30.8,31.1
						c12.8,0,23.5-8,28.2-19.4l0,0C438,126.3,443.4,116.5,447.3,117.6z"/>
					<path fill="#230F07" d="M440.1,117c-0.2,3.6-1.1,6.9-2.2,10.1l0,0c-4.7,11.5-15.6,19.4-28.2,19.4c-16.7,0-30.1-13.9-30.8-31.1
						c0-0.5,0-0.8,0-1.3c0,0,9.6-1.6,14.7,12.5c5.2,14.2,27.6,11.2,32.3,4.4C430.5,124.1,435.7,117,440.1,117z"/>
					<path fill="#51260E" d="M350.6,75.3c0.2-0.2,0.2-0.5,0.2-0.5c-6.8-8.4-27.9-12-27.9-12l40.6-5.2c0,0,4.1,2.8,6.5-2.4
						c4.4-9.4-53-18.2-53-18.2s46.2-5.5,61.4,3.9c9.9,6.3-14.5-32.7-15-33.6l27.3,17.5l0,0c0.6,0.8,12.1,17,4.7,23.7
						c-4.7,4.4-8.4,8.4-8.4,8.4c-24.3,12.8-35.5,29.8-38.2,46.9c-0.9-0.2-1.7-0.5-2.5-0.8c-3.9-2.2-6.6-3.6-6.8-3.8
						c0.6-2.2,1.3-4.4,2.2-6.5C344.9,85.7,349.2,77.7,350.6,75.3C350.6,75.5,350.6,75.3,350.6,75.3z"/>
					<path fill="#51260E" d="M350.1,76.1c0.2-0.2,0.2-0.5,0.3-0.6c-1.1,2.2-5.5,10.3-8.5,17.8C344.1,87.3,347,81.6,350.1,76.1z"/>
					<path fill="#51260E" d="M335.1,183.6c0,0,5.4,13.1,0,23.4c-5.4,10.3-38.2,61.9-36.3,94.4c1.9,32.7-38.8,39.1-38.8,39.1
						C252.9,262.8,311,204.2,335.1,183.6z"/>
					<g id="fill_x5F_top_15_">
						<path display="none" fill="#AF8C69" d="M479.4,495.7v36.6c4.7,0,9.5-0.2,14-0.6c-0.9-4.6-1.1-9.3-0.3-13.9l0,0
							c2.1-12,10.9-22.6,30.9-22.1c13.3,0.2,24.9,6.8,30.5,17l0,0c20.8-13.3,37.4-32,50.5-53c29-46.9,40.7-105.1,42.1-141.9
							c2.2-51.1-10.9-90.7-44-123.4l-0.2-0.2c-25.7,34.7-71.3,57.9-123.6,58.1L479.4,495.7L479.4,495.7z"/>
						<path fill="#C4731A" d="M479.4,143.5v54c5.7,0,20.8-15.5,20.7-30.3c0-4.1-1.7-7.7-3.9-10.9c-0.6-0.6-0.8-0.9-0.8-0.9
							c-3.9-5.2-9.9-8.8-13.1-10.7C480.6,143.5,479.4,143.5,479.4,143.5z"/>
						<path fill="#AF8C69" d="M479.1,66l0.3,77c0,0,1.1,0.5,2.8,1.4c0,0,3.9-68.5,40.9-86.9c1.7-0.8,3.5-1.6,5.2-2.4l-0.2-0.5
							l4.4-2.8C531.1,52.5,481.9,68.4,479.1,66z"/>
						<path fill="#EFDECE" d="M503,131.7C503,131.7,503,131.3,503,131.7c-1.9-5.5-2.8-11.2-2.8-17.2c0-29,22.6-52.5,50.5-52.5
							s50.5,23.5,50.5,52.5c0,1.7,0,3.3-0.2,4.9c-2.5,26.7-24,47.7-50.3,47.7C528.6,167,509.8,152.2,503,131.7z M611,104.2
							c-2.7-17-13.9-33.9-38-46.9c-2.1-1.3-4.4-2.2-6.6-3.3c-15.5-7.1-27.8-5.7-37.9-1.7c-1.7,0.8-3.5,1.6-5.2,2.4
							c-36.9,18.3-40.9,89.9-40.9,89.9c3.5,1.7,9.2,5.5,13.1,10.7c0,0,0.2,0.5,0.8,0.9c4.6,5.5,27.9,31.9,66.9,20.4
							C590.6,168.3,615.9,135.9,611,104.2z"/>
						<path fill="#C4731A" d="M503,519.6c-5.7,0-9-1.4-9-1.4l-0.8-0.2l0,0c-0.9,4.4-0.7,9.1,0.2,13.7c1.6,7.6,5.4,14,9.9,17.4
							l12.8-18.8l12.1,18.8l13.1-23l9.9,16.4c4.1-3,7.1-8.7,7.1-15c0-3.9-0.8-7.7-2.1-11c0,0-11.5-8.4-19.6-8.4"/>
						<path fill="#51260E" d="M512.7,117.6c-3.9,0.9-10.1,11-9.6,14c0,0,0,0,0,0.2c6.8,20.5,25.7,35.3,47.7,35.3
							c26.4,0,47.8-21,50.3-47.7h-0.8c0,0-9.9-16.4-12.1-15.9c-2.2,0.5-6.5,12-6.5,12l0,0c-0.6,17.2-14.2,31.1-30.8,31.1
							c-12.8,0-23.5-8-28.2-19.4l0,0C522,126.3,516.6,116.5,512.7,117.6z"/>
						<path fill="#230F07" d="M520.1,117c0.2,3.6,1.1,6.9,2.2,10.1l0,0c4.7,11.5,15.6,19.4,28.2,19.4c16.7,0,30.1-13.9,30.8-31.1
							c0-0.5,0-0.8,0-1.3c0,0-9.6-1.6-14.7,12.5c-5.2,14.2-27.6,11.2-32.3,4.4C529.9,124.1,524.5,117,520.1,117z"/>
						<path fill="#51260E" d="M609.4,75.3c-0.2-0.2-0.2-0.5-0.2-0.5c6.8-8.4,27.9-12,27.9-12l-40.6-5.2c0,0-4.1,2.8-6.5-2.4
							c-4.4-9.4,53-18.2,53-18.2s-46.2-5.5-61.4,3.9c-9.9,6.3,14.5-32.7,15-33.6l-27.3,17.5l0,0c-0.6,0.8-12.1,17-4.7,23.7
							c4.7,4.4,8.4,8.4,8.4,8.4c24.3,12.8,35.5,29.8,38,46.9c0.9-0.2,1.7-0.5,2.5-0.8c3.9-2.2,6.6-3.6,6.8-3.8
							c-0.6-2.2-1.3-4.4-2.2-6.5C615.1,85.7,610.8,77.7,609.4,75.3C609.5,75.5,609.4,75.3,609.4,75.3z"/>
						<path fill="#51260E" d="M610,76.1c-0.2-0.2-0.2-0.5-0.3-0.6c1.1,2.2,5.5,10.3,8.5,17.8C615.9,87.3,613.2,81.6,610,76.1z"/>
						<path fill="#51260E" d="M624.9,183.6c0,0-5.4,13.1,0,23.4c5.4,10.3,38.2,61.9,36.3,94.4c-1.9,32.7,38.8,39.3,38.8,39.3
							C707.1,262.8,649.2,204.2,624.9,183.6z"/>
					</g>
				</g>
				<g id="outlines_12_">
					<path fill="none" stroke="#000000" stroke-width="3" stroke-miterlimit="10" d="M350.6,75.3c0.9-1.4,2.1-2.8,3.5-3.9"/>
					<path fill="none" stroke="#000000" stroke-width="3" stroke-miterlimit="10" d="M339.7,99.6c0.6-2.2,1.3-4.4,2.2-6.5"/>
					<ellipse fill="none" stroke="#000000" stroke-width="3" stroke-miterlimit="10" cx="409.3" cy="114.1" rx="30.8" ry="32"/>
					<path fill="none" stroke="#000000" stroke-width="3" stroke-miterlimit="10" d="M480.6,252.5c-52.2-0.2-98-23.5-123.6-58.1
						c-4.4-6.2-8.4-12.5-11.4-19.1c-6.6-14-10.3-29.2-10.3-45.3c0-10.4,1.6-20.7,4.6-30.5"/>
					<path fill="none" stroke="#0A0000" stroke-width="3" stroke-miterlimit="10" d="M464.2,155.6c3.9-5.2,10.3-9.5,13.6-11.2
						c1.7-0.9,5.4-0.5,5.4-0.5"/>
					<path fill="none" stroke="#0A0000" stroke-width="3" stroke-miterlimit="10" d="M480.6,197.1c-5.7,0-20.8-15.5-20.7-30.3
						c0-4.1,1.7-7.7,3.9-10.9"/>
					<path fill="none" stroke="#000000" stroke-width="3" stroke-miterlimit="10" d="M457,131.7c-6.8,20.5-25.7,35.3-47.7,35.3
						c-26.2,0-47.8-21-50.3-47.7c-0.2-1.6-0.2-3.3-0.2-4.9c0-29,22.6-52.5,50.5-52.5s50.5,23.5,50.5,52.5
						C459.8,120.3,458.9,126.1,457,131.7"/>
					<path fill="none" stroke="#000000" stroke-width="3" stroke-miterlimit="10" d="M378.5,115.4c0-0.5,0-0.8,0-1.3
						c0-17.8,13.9-32,30.8-32s30.8,14.4,30.8,32c0,0.9,0,1.7-0.2,2.5c-0.2,3.6-1.1,6.9-2.2,10.1"/>
					<path fill="none" stroke="#000000" stroke-width="3" stroke-miterlimit="10" d="M464.5,155.2c0,0-0.2,0.5-0.8,0.9
						c-4.6,5.5-27.9,31.9-66.9,20.4c-27.3-8.2-52.5-40.6-47.8-72.3c2.7-17,13.9-33.9,38.2-46.9c2.1-1.3,4.4-2.2,6.6-3.3
						c15.5-7.1,27.8-5.7,37.9-1.7c1.7,0.8,3.5,1.6,5.2,2.4c36.9,18.3,40.9,89.9,40.9,89.9"/>
					<polyline fill="none" stroke="#000000" stroke-width="3" stroke-miterlimit="10" points="363.4,7.5 424.3,9.4 480.6,11.1 					
						"/>
					<line fill="none" stroke="#000000" stroke-width="3" stroke-miterlimit="10" x1="390.7" y1="25.3" x2="363.4" y2="7.5"/>
					<line fill="none" stroke="#000000" stroke-width="3" stroke-miterlimit="10" x1="427.6" y1="49" x2="390.7" y2="25.3"/>
					<line fill="none" stroke="#000000" stroke-width="3" stroke-miterlimit="10" x1="431.9" y1="51.8" x2="427.6" y2="49"/>
					<path fill="none" stroke="#000000" stroke-width="3" stroke-miterlimit="10" d="M364,7.5c0,0,0,0-0.6,0
						c0.6,0.9,24.9,39.9,15,33.6c-15-9.5-61.4-3.9-61.4-3.9l46.2,20.5l-40.6,5.2c0,0,21.1,3.8,27.9,12c0,0,0,0.2-0.2,0.5
						c0,0,0,0.2-0.2,0.2c-1.1,2.2-5.5,10.3-8.5,17.8c-0.9,2.4-1.7,4.6-2.2,6.5"/>
					<path fill="none" stroke="#000000" stroke-width="3" stroke-miterlimit="10" d="M405.5,512.7c-20.8-13.3-37.4-32-50.5-53
						c-29-46.9-40.7-105.1-42.4-141.9c-2.2-51.1,10.9-90.7,44-123.4"/>
					<path fill="none" stroke="#000000" stroke-width="3" stroke-miterlimit="10" d="M480.6,532c-4.7,0-9.5-0.2-14-0.6
						c-0.2,0-0.3,0-0.3,0"/>
					<path fill="none" stroke="#000000" stroke-width="3" stroke-miterlimit="10" d="M353.8,460.7h-0.2"/>
					<path fill="none" stroke="#000000" stroke-width="3" stroke-miterlimit="10" d="M345.4,175.2c0,0-3.9,2.8-10.3,8.4
						c-24.1,20.7-82.2,79.2-75.1,156.8c0.6,6.9,1.7,13.9,3.6,21.1c21.5,88.7,88.5,98.9,90.1,98.9l0,0"/>
					<path fill="none" stroke="#000000" stroke-width="3" stroke-miterlimit="10" d="M466.4,531.7c-1.6,7.6-5.4,14-9.9,17.4
						l-12.8-18.8L431.6,549l-13.1-23l-9.9,16.4c-4.1-3-7.1-8.7-7.1-15c0-3.9,0.8-7.7,2.1-11c0.3-1.3,0.9-2.2,1.6-3.3
						c5.5-10.3,17-16.7,30.5-17c20.2-0.5,28.9,10.1,30.9,22.1l0,0C467.7,522.4,467.4,527.1,466.4,531.7z"/>
					<polyline fill="none" stroke="#000000" stroke-width="3" stroke-miterlimit="10" points="345.7,274 360.4,296.4 375.5,274 
											"/>
					<polyline fill="none" stroke="#000000" stroke-width="3" stroke-miterlimit="10" points="376,329.4 389.1,351.6 401.9,331.3 
											"/>
					<polyline fill="none" stroke="#000000" stroke-width="3" stroke-miterlimit="10" points="427.3,299.7 440.4,322.1 457.1,299.7 
											"/>
					<polyline fill="none" stroke="#000000" stroke-width="3" stroke-miterlimit="10" points="438.8,384.6 453.6,410.2 468.6,384.6 
											"/>
					<polyline fill="none" stroke="#000000" stroke-width="3" stroke-miterlimit="10" points="360.4,414.3 374,436.7 390.7,414.3 
											"/>
					<polyline fill="none" stroke="#000000" stroke-width="3" stroke-miterlimit="10" points="427.3,453.9 440.4,476.1 457.1,453.9 
											"/>
					<path fill="none" stroke="#000000" stroke-width="3" stroke-miterlimit="10" d="M390.7,25.3L390.7,25.3"/>
					<g id="outlines_15_">
						<path fill="none" stroke="#000000" stroke-width="3" stroke-miterlimit="10" d="M609.4,75.3c-0.9-1.4-2.1-2.8-3.5-3.9"/>
						<path fill="none" stroke="#000000" stroke-width="3" stroke-miterlimit="10" d="M620.3,99.6c-0.6-2.2-1.3-4.4-2.2-6.5"/>
						<ellipse fill="none" stroke="#000000" stroke-width="3" stroke-miterlimit="10" cx="550.7" cy="114.1" rx="30.8" ry="32"/>
						<path fill="none" stroke="#000000" stroke-width="3" stroke-miterlimit="10" d="M479.4,252.5c52.2-0.2,98-23.5,123.6-58.1
							c4.6-6.2,8.4-12.5,11.5-19.1c6.6-14,10.3-29.2,10.3-45.3c0-10.4-1.6-20.7-4.6-30.5"/>
						<path fill="none" stroke="#0A0000" stroke-width="3" stroke-miterlimit="10" d="M496.1,156.1c-3.9-5.2-10.6-9.9-13.9-11.7
							c-1.7-0.9-2.8-1.4-2.8-1.4"/>
						<path fill="none" stroke="#0A0000" stroke-width="3" stroke-miterlimit="10" d="M479.4,197.1c5.7,0,20.8-15.5,20.7-30.3
							c0-4.1-1.7-7.7-3.9-10.9"/>
						<path fill="none" stroke="#000000" stroke-width="3" stroke-miterlimit="10" d="M503,131.7c6.8,20.5,25.7,35.3,47.7,35.3
							c26.4,0,47.8-21,50.3-47.7c0.2-1.6,0.2-3.3,0.2-4.9c0-29-22.6-52.5-50.5-52.5s-50.5,23.5-50.5,52.5
							C500.2,120.3,501.1,126.1,503,131.7"/>
						<path fill="none" stroke="#000000" stroke-width="3" stroke-miterlimit="10" d="M581.6,115.4c0-0.5,0-0.8,0-1.3
							c0-17.8-13.9-32-30.8-32c-16.9,0-30.8,14.4-30.8,32c0,0.9,0,1.7,0.2,2.5c0.2,3.6,1.1,6.9,2.2,10.1"/>
						<path fill="none" stroke="#000000" stroke-width="3" stroke-miterlimit="10" d="M495.5,155.2c0,0,0.2,0.5,0.8,0.9
							c4.6,5.5,27.9,31.9,66.9,20.4c27.3-8.2,52.5-40.6,47.8-72.3c-2.7-17-13.9-33.9-38-46.9c-2.1-1.3-4.4-2.2-6.6-3.3
							c-15.5-7.1-27.8-5.7-37.9-1.7c-1.7,0.8-3.5,1.6-5.2,2.4c-36.9,18.3-40.9,89.9-40.9,89.9"/>
						<polyline fill="none" stroke="#000000" stroke-width="3" stroke-miterlimit="10" points="596.6,7.5 535.9,9.4 479.4,11.1 
													"/>
						<line fill="none" stroke="#000000" stroke-width="3" stroke-miterlimit="10" x1="569.3" y1="25.3" x2="596.6" y2="7.5"/>
						<line fill="none" stroke="#000000" stroke-width="3" stroke-miterlimit="10" x1="532.7" y1="49" x2="569.3" y2="25.3"/>
						<line fill="none" stroke="#000000" stroke-width="3" stroke-miterlimit="10" x1="528.3" y1="51.8" x2="532.7" y2="49"/>
						<path fill="none" stroke="#000000" stroke-width="3" stroke-miterlimit="10" d="M596.1,7.5c0,0,0,0,0.6,0
							c-0.6,0.9-24.9,39.9-15,33.6c15-9.5,61.4-3.9,61.4-3.9l-46.2,20.5l40.6,5.2c0,0-21.1,3.8-27.9,12c0,0,0,0.2,0.2,0.5
							c0,0,0,0.2,0.2,0.2c1.1,2.2,5.5,10.3,8.5,17.8c0.9,2.4,1.7,4.6,2.2,6.5"/>
						<path fill="none" stroke="#000000" stroke-width="3" stroke-miterlimit="10" d="M554.5,512.7c20.8-13.3,37.4-32,50.5-53
							c29-46.9,40.7-105.1,42.1-141.9c2.2-51.1-10.9-90.7-44-123.4"/>
						<path fill="none" stroke="#000000" stroke-width="3" stroke-miterlimit="10" d="M479.4,532c4.7,0,9.5-0.2,14-0.6
							c0.2,0,0.3,0,0.3,0"/>
						<path fill="none" stroke="#000000" stroke-width="3" stroke-miterlimit="10" d="M606.2,460.7h0.2"/>
						<path fill="none" stroke="#000000" stroke-width="3" stroke-miterlimit="10" d="M614.6,175.2c0,0,3.9,2.8,10.3,8.4
							C649,204.3,707.1,263,700,340.4c-0.6,6.9-1.7,13.9-3.5,21.1c-21.5,88.7-88.5,98.9-90.1,98.9l0,0"/>
						<path fill="none" stroke="#000000" stroke-width="3" stroke-miterlimit="10" d="M493.4,531.7c1.6,7.6,5.4,14,9.9,17.4
							l12.8-18.8l12.1,18.8l13.1-23l9.9,16.4c4.1-3,7.1-8.7,7.1-15c0-3.9-0.8-7.7-2.1-11c-0.3-1.3-0.9-2.2-1.6-3.3
							c-5.5-10.3-17-16.7-30.5-17c-20.2-0.5-28.9,10.1-30.9,22.1l0,0C492.3,522.4,492.5,527.1,493.4,531.7z"/>
						<polyline fill="none" stroke="#000000" stroke-width="3" stroke-miterlimit="10" points="614.3,274 599.6,296.4 584.8,274 
													"/>
						<polyline fill="none" stroke="#000000" stroke-width="3" stroke-miterlimit="10" points="584,329.4 571,351.6 558.1,331.3 
													"/>
						<polyline fill="none" stroke="#000000" stroke-width="3" stroke-miterlimit="10" points="532.7,299.7 519.8,322.1 503,299.7 
													"/>
						<polyline fill="none" stroke="#000000" stroke-width="3" stroke-miterlimit="10" points="521.2,384.6 506.4,410.2 
							491.5,384.6 						"/>
						<polyline fill="none" stroke="#000000" stroke-width="3" stroke-miterlimit="10" points="599.6,414.3 586.2,436.7 
							569.5,414.3 						"/>
						<polyline fill="none" stroke="#000000" stroke-width="3" stroke-miterlimit="10" points="532.7,453.9 519.8,476.1 503,453.9 
													"/>
						<path fill="none" stroke="#000000" stroke-width="3" stroke-miterlimit="10" d="M569.3,25.3L569.3,25.3"/>
					</g>
				</g>
			</g>
		</g>
	</g>
</g>
<g id="top">
	<g id="eye_lens">
		<path id="eye_lens_2" fill="#FFFFFF" d="M403.5,78.6c3.5,4.1,0.6,15.5-6.6,20.4c-7.4,4.9-13.7,5.7-17.4,1.7
			c-3.5-4.1-3.2-10.9,5.7-18.3C392,76.4,400,74.5,403.5,78.6z"/>
		<path id="eye_lens_1" fill="#FFFFFF" d="M392.9,108.6c1.6,1.7,0.2,6.2-1.7,7.9c-1.9,1.7-4.7,1.7-6.3,0s-1.1-4.7,0.8-6.5
			C387.7,108.3,391.5,106.9,392.9,108.6z"/>
	</g>
	<g id="eye_lens_1_">
		<path id="eye_lens_2_1_" fill="#FFFFFF" d="M546,78.6c3.5,4.1,0.6,15.5-6.6,20.4c-7.4,4.9-13.7,5.7-17.4,1.7
			c-3.6-3.9-3.2-10.9,5.7-18.3C534.6,76.4,542.5,74.5,546,78.6z"/>
		<path id="eye_lens_1_1_" fill="#FFFFFF" d="M533.6,108.6c1.6,1.7,0.2,6.2-1.7,7.9s-4.7,1.7-6.3,0s-1.1-4.7,0.8-6.5
			C528.3,108.3,532.1,106.9,533.6,108.6z"/>
	</g>
</g>
</svg>
