<?xml version="1.0" encoding="utf-8"?>
<!-- Generator: Adobe Illustrator 18.1.1, SVG Export Plug-In . SVG Version: 6.00 Build 0)  -->
<!DOCTYPE svg PUBLIC "-//W3C//DTD SVG 1.1//EN" "http://www.w3.org/Graphics/SVG/1.1/DTD/svg11.dtd">
<svg version="1.1" id="Vrstva_1" xmlns="http://www.w3.org/2000/svg" xmlns:xlink="http://www.w3.org/1999/xlink" x="0px" y="0px"
	 width="389.5px" height="541px" viewBox="-284 11 389.5 541" enable-background="new -284 11 389.5 541" xml:space="preserve">
<g id="Vrstva_1_1_">
	<g id="base_1_">
		<path fill="#AF8C69" d="M-88.7,266.6c41-0.2,77-18.5,97.1-45.7l0.2,0.2c26.2,25.7,36.5,56.7,34.6,97c-1.3,29-10.3,74.7-33.1,111.6
			c-10.3,16.5-23.3,31.3-39.7,41.6l0,0c-4.3-8.1-13.4-13.1-23.9-13.4c-15.9-0.4-22.7,8-24.3,17.4l0,0c-0.6,3.6-0.4,7.4,0.3,10.9
			c-3.6,0.4-7.4,0.4-11,0.4c-3.7,0-7.4-0.2-11-0.4c0.7-3.6,0.9-7.4,0.3-10.9l0,0c-1.6-9.4-8.6-17.8-24.3-17.4
			c-10.5,0.2-19.6,5.4-23.9,13.4l0,0c-16.3-10.5-29.4-25.1-39.7-41.6c-22.8-36.9-32-82.6-33.4-111.6c-1.7-40.2,8.6-71.3,34.6-97
			l0.2-0.2C-165.9,248.3-129.8,266.5-88.7,266.6z"/>
	</g>
	<g id="mirror_1_">
		<g>
			<g>
				<g id="XMLID_1_">
					<g id="fill_x5F_bottom_1_">
						<path fill="#C4731A" d="M-123.8,457.7c21.9-0.4,26.8,15.5,24,28.3c-1.3,6-4.2,11-7.8,13.6l-10-14.7l-9.5,14.8l-10.1-18.1
							l-7.8,12.9c-3.2-2.3-5.6-6.8-5.6-11.7c0-4.2,1-8.1,2.9-11.3C-143.3,463.2-134.3,457.9-123.8,457.7z"/>
						<path fill="#AF8C69" d="M-88.7,457.7v28.8c-3.7,0-7.4-0.2-11-0.4c2.8-12.8-2.3-28.8-24-28.3c-10.5,0.2-19.5,5.4-23.9,13.4l0,0
							c-16.3-10.5-29.4-25.1-39.7-41.6c-22.8-36.9-32-82.6-33.4-111.6c-1.7-40.2,8.6-71.3,34.6-97l0.2-0.2
							c20.2,27.3,56.2,45.5,97.1,45.7v28.6c0,0-53.5,4.3-63.1-11.8c-13-21.6-31.9-27.5-49.2-18.1c-21.7,11.6,0.9,139.7,17.5,151.7
							c21.7,15.5,33.7-0.6,49,16.6C-120.6,449.7-107.2,449.4-88.7,457.7z"/>
						<path fill="#42210B" d="M-154.5,206.9c30.5,9.1,49-11.6,52.6-16.1c-1.7,2.5-3,5.4-3,8.6c-0.2,11.7,11.7,23.9,16.2,23.9v43.3
							c-41-0.2-77-18.5-97.1-45.7c-3.5-4.8-6.6-9.9-9-15c-5.2-11-8.1-23-8.1-35.6c0-8.2,1.3-16.2,3.6-23.9c0.4-1.7,1-3.5,1.7-5.1
							c2.3-5.7,5.8-12.2,6.6-14c0,0,0-0.2,0.2-0.2c0.2-0.2,0.2-0.4,0.2-0.4c-5.4-6.6-22-9.4-22-9.4l31.9-4.1l-36.4-16.1
							c0,0,36.3-4.3,48.3,3c7.8,4.9-11.4-25.7-11.7-26.4l53.8,34.7l-0.2,0.4c-8.1-3-17.6-4.2-29.8,1.3c-1.7,0.7-3.6,1.7-5.2,2.6
							C-216.5,142.2-187.5,197-154.5,206.9z"/>
						<path fill="#C7B299" d="M-88.7,76.8v103.7c0,0-0.9,0.4-2.2,1.1c0,0-3-56.2-32.1-70.7c-1.3-0.6-2.8-1.3-4.1-1.9l0.2-0.4
							l-53.8-34.6l0,0l47.7,1.3L-88.7,76.8z"/>
						<path fill="#EFDECE" d="M-154.5,206.9c-33.1-9.9-62.2-64.8-7.5-93.6c1.6-1,3.5-1.7,5.2-2.6c12.2-5.6,21.9-4.5,29.8-1.3
							c1.3,0.6,2.9,1.3,4.1,1.9c29,14.4,32.1,70.7,32.1,70.7c-2.8,1.3-7.3,4.3-10.3,8.4c0,0-0.2,0.4-0.6,0.7
							C-105.5,195.4-123.8,216-154.5,206.9z M-107.2,171.6C-107.2,171.6-107.2,171.4-107.2,171.6c1.5-4.3,2.2-8.8,2.2-13.5
							c0-22.8-17.8-41.3-39.7-41.3c-22,0-39.7,18.5-39.7,41.3s17.8,41.3,39.7,41.3C-127.2,199.3-112.5,187.8-107.2,171.6z"/>
						<path fill="#42210B" d="M-144.8,132.8c-13.4,0-24.2,11.3-24.2,25.1c0,14,10.9,25.1,24.2,25.1c13.4,0,24.2-11.3,24.2-25.1
							C-120.5,144-131.3,132.8-144.8,132.8z M-184.4,157.9c0-22.8,17.8-41.3,39.7-41.3c22,0,39.7,18.5,39.7,41.3
							c0,4.8-0.7,9.2-2.2,13.5c0,0,0,0,0,0.2c-5.4,16.1-20.2,27.7-37.5,27.7C-166.7,199.3-184.4,180.7-184.4,157.9z"/>
						<path fill="#0F0602" d="M-169,157.9c0-14,10.9-25.1,24.2-25.1c13.4,0,24.2,11.3,24.2,25.1c0,14-10.9,25.1-24.2,25.1
							C-158.1,183.3-169,171.9-169,157.9z"/>
						<path fill="#42210B" d="M-259.2,352.4c-20.7-85.7,64.5-146.6,64.5-146.6c2.5,5.4,5.6,10.3,9,15l-0.2,0.2
							c-26.2,25.7-36.5,56.9-34.7,97c1.3,29,10.3,74.7,33.4,111.6l-0.9,0.6l0,0C-189.5,430.2-242.2,422-259.2,352.4z"/>
						<path fill="#FBB03B" d="M-88.7,180.5v42.7c-4.5,0-16.3-12.2-16.2-23.9c0-3.2,1.3-6,3-8.6c0.4-0.4,0.6-0.7,0.6-0.7
							c3-4.1,7.8-6.9,10.3-8.4C-89.4,181-88.7,180.5-88.7,180.5z"/>
						<path fill="#51260E" d="M-191.3,128c0.2-0.2,0.2-0.4,0.3-0.4c-0.9,1.7-4.3,8.1-6.6,14C-195.8,136.7-193.8,132.3-191.3,128z"/>
						<g id="fill_x5F_bottom_2_">
							<path fill="#C4731A" d="M-54.6,457.7c-21.9-0.4-26.8,15.5-24,28.3c1.3,6,4.2,11,7.8,13.6l10-14.8l9.5,14.8l10.1-18.1
								l7.8,12.9c3.2-2.3,5.6-6.8,5.6-11.7c0-4.2-1-8.1-2.9-11.3C-35.1,463.2-44.1,457.9-54.6,457.7z"/>
							<path fill="#AF8C69" d="M-89.6,457.7v28.8c3.7,0,7.4-0.2,11-0.4c-2.8-12.8,2.3-28.8,24-28.3c10.5,0.2,19.5,5.4,23.9,13.4l0,0
								c16.3-10.5,29.4-25.1,39.7-41.6c22.8-36.9,32-82.6,33.4-111.6c1.7-40.2-8.6-71.3-34.6-97l-0.2-0.2
								c-20.2,27.3-56.2,45.5-97.1,45.7v28.6c0,0,53.5,4.3,63.1-11.8c13-21.6,31.9-27.5,49.2-18.1C44.6,276.7,22,404.9,5.4,416.8
								c-21.4,15.5-33.7-0.6-49,16.6C-57.7,449.7-71.2,449.4-89.6,457.7z"/>
							<path fill="#42210B" d="M-24,206.9c-30.5,9.1-49-11.6-52.6-16.1c1.7,2.5,3,5.4,3,8.6c0.2,11.7-11.7,23.9-16.2,23.9v43.3
								c41-0.2,77-18.5,97.1-45.7c3.6-4.8,6.6-9.9,9.1-15c5.2-11,8.1-23,8.1-35.6c0-8.2-1.3-16.2-3.6-23.9c-0.4-1.7-1-3.5-1.7-5.1
								c-2.2-5.7-5.8-12.2-6.6-14c0,0,0-0.2-0.2-0.2c-0.2-0.2-0.2-0.4-0.2-0.4c5.4-6.6,22-9.4,22-9.4l-31.9-4.1l36.3-16.1
								c0,0-36.3-4.3-48.3,3c-7.8,4.9,11.4-25.7,11.7-26.4l-53.8,34.7l0.2,0.4c8.1-3,17.6-4.2,29.8,1.3c1.7,0.7,3.6,1.7,5.2,2.6
								C38.3,142.2,9.3,197-24,206.9z"/>
							<path fill="#C7B299" d="M-92.8,76.8l3,103.7c0,0,0.9,0.4,2.2,1.1c0,0,3-56.2,32.1-70.7c1.3-0.6,2.8-1.3,4.1-1.9l-0.2-0.4
								L2.4,74l0,0l-48,1.3L-92.8,76.8z"/>
							<path fill="#EFDECE" d="M-24,206.9c33.1-9.9,62.2-64.8,7.5-93.6c-1.6-1-3.5-1.7-5.2-2.6c-12.2-5.6-21.9-4.5-29.8-1.3
								c-1.3,0.6-2.9,1.3-4.1,1.9c-29,14.4-32.1,70.7-32.1,70.7c2.8,1.3,7.3,4.3,10.3,8.4c0,0,0.2,0.4,0.6,0.7
								C-72.9,195.4-54.4,216-24,206.9z M-71.2,171.6C-71.2,171.6-71.2,171.4-71.2,171.6c-1.5-4.3-2.2-8.8-2.2-13.5
								c0-22.8,17.8-41.3,39.7-41.3s39.7,18.5,39.7,41.3s-17.8,41.3-39.7,41.3C-51,199.3-65.8,187.8-71.2,171.6z"/>
							<path fill="#42210B" d="M-33.7,132.8c13.4,0,24.2,11.3,24.2,25.1c0,14-10.9,25.1-24.2,25.1c-13.4,0-24.2-11.3-24.2-25.1
								S-47,132.8-33.7,132.8z M6.1,157.9c0-22.8-17.8-41.3-39.7-41.3s-39.7,18.5-39.7,41.3c0,4.8,0.7,9.2,2.2,13.5c0,0,0,0,0,0.2
								c5.4,16.1,20.2,27.7,37.5,27.7C-11.7,199.3,6.1,180.7,6.1,157.9z"/>
							<path fill="#0F0602" d="M-9.4,157.9c0-14-10.9-25.1-24.2-25.1c-13.4,0-24.2,11.3-24.2,25.1c0,14,10.9,25.1,24.2,25.1
								C-20.3,183.3-9.4,171.9-9.4,157.9z"/>
							<path fill="#42210B" d="M80.8,352.4c20.7-85.7-64.2-146.6-64.2-146.6c-2.5,5.4-5.6,10.3-9.1,15l0.2,0.2
								c26.2,25.7,36.6,56.7,34.6,96.9C41,346.8,32,392.5,8.9,429.4l0.9,0.6l0,0C11.5,430.2,64.1,422,80.8,352.4z"/>
							<path fill="#FBB03B" d="M-89.6,180.5v42.7c4.5,0,16.3-12.2,16.2-23.9c0-3.2-1.3-6-3-8.6c-0.4-0.4-0.6-0.7-0.6-0.7
								c-3-4.1-7.8-6.9-10.3-8.4C-88.7,181-89.6,180.5-89.6,180.5z"/>
							<path fill="#51260E" d="M12.9,128c-0.2-0.2-0.2-0.4-0.3-0.4c0.9,1.7,4.5,8.1,6.6,14C17.6,136.7,15.3,132.3,12.9,128z"/>
						</g>
						<path fill="#C7B299" d="M2.4,359c-4.3,49.1-41.8,89.3-93.4,89.3s-91.2-40.1-93.4-89.3c-3.9-85.4,41.8-79.4,93.4-79.4
							S9.7,275.3,2.4,359z"/>
					</g>
					<g id="fill_x5F_top_1_">
						<path display="none" fill="#AF8C69" d="M-88.7,457.7v28.8c-3.7,0-7.4-0.2-11-0.4c0.7-3.6,0.9-7.4,0.3-10.9l0,0
							c-1.6-9.4-8.6-17.8-24.3-17.4c-10.5,0.2-19.6,5.4-23.9,13.4l0,0c-16.3-10.5-29.4-25.1-39.7-41.6
							c-22.8-36.9-32-82.6-33.4-111.6c-1.7-40.2,8.6-71.3,34.6-97l0.2-0.2c20.2,27.3,56.1,45.5,97.1,45.7v191.2L-88.7,457.7
							L-88.7,457.7z"/>
						<path fill="#C4731A" d="M-88.7,181v42.4c-4.5,0-16.3-12.2-16.2-23.9c0-3.2,1.3-6,3-8.6c0.4-0.4,0.6-0.7,0.6-0.7
							c3-4.1,7.8-6.9,10.3-8.4C-89.6,181-88.7,181-88.7,181z"/>
						<path fill="#AF8C69" d="M-88.7,120.2l2,1.3l-1.7,58.8c0,0-1.3,0.7-2.8,1.5c0,0-3-53.8-32.1-68.3c-1.3-0.6-2.8-1.3-4.1-1.9
							l0.2-0.4l-3.5-2.2"/>
						<path fill="#EFDECE" d="M-107.3,171.6C-107.3,171.6-107.2,171.4-107.3,171.6c1.5-4.3,2.2-8.8,2.2-13.5
							c0-22.8-17.8-41.3-39.7-41.3s-39.7,18.5-39.7,41.3c0,1.3,0,2.6,0.2,3.9c2,21,18.9,37.5,39.6,37.5
							C-127.4,199.3-112.6,187.8-107.3,171.6z M-192.1,150c2.2-13.4,10.9-26.6,30-36.9c1.6-1,3.5-1.7,5.2-2.6
							c12.2-5.6,21.9-4.5,29.8-1.3c1.3,0.6,2.8,1.3,4.1,1.9c29,14.4,32.1,70.7,32.1,70.7c-2.8,1.3-7.3,4.3-10.3,8.4
							c0,0-0.2,0.4-0.6,0.7c-3.6,4.3-22,25.1-52.6,16.1C-176,200.5-195.8,175-192.1,150z"/>
						<path fill="#C4731A" d="M-99.9,486.1c-1.3,6-4.2,11-7.8,13.6l-10-14.8l-9.5,14.8l-10.3-18.1l-7.8,12.9
							c-3.2-2.3-5.6-6.8-5.6-11.7c0-3,0.6-6,1.6-8.6c0,0,9.1-6.6,15.4-6.6c14.5,0,18.9,9.1,26.4,9.1c4.5,0,7.1-1.1,7.1-1.1l0.6-0.2
							l0,0C-98.9,478.7-99.1,482.4-99.9,486.1z"/>
						<path fill="#51260E" d="M-114.9,160.6c3,0.7,8,8.6,7.5,11c0,0,0,0,0,0.2c-5.4,16.1-20.2,27.7-37.5,27.7
							c-20.6,0-37.6-16.5-39.6-37.5h0.6c0,0,7.8-12.9,9.5-12.5c1.7,0.4,5.1,9.4,5.1,9.4l0,0c0.4,13.5,11.1,24.5,24.2,24.5
							c10,0,18.5-6.3,22.2-15.2l0,0C-122.2,167.5-118,159.7-114.9,160.6z"/>
						<path fill="#230F07" d="M-120.6,160.1c-0.2,2.9-0.9,5.4-1.7,8l0,0c-3.7,9.1-12.3,15.2-22.2,15.2c-13.1,0-23.7-10.9-24.2-24.5
							c0-0.4,0-0.6,0-1c0,0,7.5-1.3,11.6,9.9c4.1,11.1,21.7,8.8,25.4,3.5C-128.1,165.6-124,160.1-120.6,160.1z"/>
						<path fill="#51260E" d="M-190.9,127.3c0.2-0.2,0.2-0.4,0.2-0.4c-5.4-6.6-22-9.4-22-9.4l31.9-4.1c0,0,3.2,2.2,5.1-1.9
							c3.6-7.4-41.6-14.4-41.6-14.4s36.3-4.3,48.3,3c7.8,4.9-11.4-25.7-11.7-26.4l21.4,13.7l0,0c0.4,0.6,9.5,13.4,3.7,18.7
							c-3.7,3.5-6.6,6.6-6.6,6.6c-19.1,10-27.9,23.4-30,36.9c-0.7-0.2-1.3-0.4-2-0.6c-3-1.7-5.2-2.9-5.4-3c0.4-1.7,1-3.5,1.7-5.1
							C-195.4,135.5-192,129.2-190.9,127.3C-190.9,127.5-190.9,127.3-190.9,127.3z"/>
						<path fill="#51260E" d="M-191.3,128c0.2-0.2,0.2-0.4,0.3-0.4c-0.9,1.7-4.3,8.1-6.6,14C-196,136.7-193.8,132.3-191.3,128z"/>
						<path fill="#51260E" d="M-203,212.4c0,0,4.2,10.3,0,18.4s-30,48.6-28.5,74.2c1.5,25.7-30.5,30.8-30.5,30.8
							C-267.7,274.8-222,228.6-203,212.4z"/>
						<g id="fill_x5F_top_2_">
							<path display="none" fill="#AF8C69" d="M-89.6,457.7v28.8c3.7,0,7.4-0.2,11-0.4c-0.7-3.6-0.9-7.4-0.3-10.9l0,0
								c1.6-9.4,8.6-17.8,24.3-17.4c10.5,0.2,19.6,5.4,23.9,13.4l0,0c16.3-10.5,29.4-25.1,39.7-41.6c22.8-36.9,32-82.6,33.1-111.6
								c1.7-40.2-8.6-71.3-34.6-97l-0.2-0.2c-20.2,27.3-56.1,45.5-97.1,45.7L-89.6,457.7L-89.6,457.7z"/>
							<path fill="#C4731A" d="M-89.6,181v42.4c4.5,0,16.3-12.2,16.2-23.9c0-3.2-1.3-6-3-8.6c-0.4-0.4-0.6-0.7-0.6-0.7
								c-3-4.1-7.8-6.9-10.3-8.4C-88.7,181-89.6,181-89.6,181z"/>
							<path fill="#AF8C69" d="M-89.9,120l0.3,60.5c0,0,0.9,0.4,2.2,1.1c0,0,3-53.8,32.1-68.3c1.3-0.6,2.8-1.3,4.1-1.9l-0.2-0.4
								l3.5-2.2C-49,109.4-87.7,121.9-89.9,120z"/>
							<path fill="#EFDECE" d="M-71.2,171.6C-71.2,171.6-71.2,171.4-71.2,171.6c-1.5-4.3-2.2-8.8-2.2-13.5
								c0-22.8,17.8-41.3,39.7-41.3s39.7,18.5,39.7,41.3c0,1.3,0,2.6-0.2,3.9c-2,21-18.8,37.5-39.6,37.5
								C-51,199.3-65.8,187.8-71.2,171.6z M13.8,150c-2.2-13.4-10.9-26.6-29.9-36.9c-1.6-1-3.5-1.7-5.2-2.6
								c-12.2-5.6-21.9-4.5-29.8-1.3c-1.3,0.6-2.8,1.3-4.1,1.9c-29.1,14.4-32.1,70.7-32.1,70.7c2.8,1.3,7.3,4.3,10.3,8.4
								c0,0,0.2,0.4,0.6,0.7c3.6,4.3,22,25.1,52.6,16.1C-2.3,200.5,17.6,175,13.8,150z"/>
							<path fill="#C4731A" d="M-78.7,486.1c1.3,6,4.2,11,7.8,13.6l10-14.8l9.5,14.8l10.3-18.1l7.8,12.9c3.2-2.3,5.6-6.8,5.6-11.7
								c0-3-0.6-6-1.6-8.6c0,0-9.1-6.6-15.4-6.6c-14.5,0-18.9,9.1-26.4,9.1c-4.5,0-7.1-1.1-7.1-1.1l-0.6-0.2l0,0
								C-79.5,478.7-79.4,482.4-78.7,486.1z"/>
							<path fill="#51260E" d="M-63.5,160.6c-3,0.7-8,8.6-7.5,11c0,0,0,0,0,0.2c5.4,16.1,20.2,27.7,37.5,27.7
								C-12.9,199.5,4,183,6,162H5.4c0,0-7.8-12.9-9.5-12.5c-1.7,0.4-5.1,9.4-5.1,9.4l0,0c-0.4,13.5-11.1,24.5-24.2,24.5
								c-10,0-18.5-6.3-22.2-15.2l0,0C-56.2,167.5-60.4,159.7-63.5,160.6z"/>
							<path fill="#230F07" d="M-57.7,160.1c0.2,2.9,0.9,5.4,1.7,8l0,0c3.7,9.1,12.3,15.2,22.2,15.2c13.1,0,23.7-10.9,24.2-24.5
								c0-0.4,0-0.6,0-1c0,0-7.5-1.3-11.6,9.9c-4.1,11.1-21.7,8.8-25.4,3.5C-50,165.6-54.2,160.1-57.7,160.1z"/>
							<path fill="#51260E" d="M12.5,127.3c-0.2-0.2-0.2-0.4-0.2-0.4c5.4-6.6,22-9.4,22-9.4l-31.9-4.1c0,0-3.2,2.2-5.1-1.9
								c-3.6-7.4,41.6-14.4,41.6-14.4s-36.3-4.3-48.3,3c-7.8,4.9,11.3-25.7,11.7-26.5L-19,87.5l0,0c-0.4,0.6-9.5,13.4-3.7,18.7
								c3.7,3.5,6.6,6.6,6.6,6.6c19.1,10,27.9,23.4,29.9,36.9c0.7-0.2,1.3-0.4,2-0.6c3-1.7,5.2-2.9,5.4-3c-0.4-1.7-1-3.5-1.7-5.1
								C17,135.5,13.6,129.2,12.5,127.3C12.7,127.5,12.5,127.3,12.5,127.3z"/>
							<path fill="#51260E" d="M13,128c-0.2-0.2-0.2-0.4-0.3-0.4c0.9,1.7,4.3,8.1,6.6,14C17.6,136.7,15.5,132.3,13,128z"/>
							<path fill="#51260E" d="M24.7,212.4c0,0-4.2,10.3,0,18.4s30,48.6,28.5,74.2c-1.5,25.7,30.5,30.9,30.5,30.9
								C89.3,274.8,43.8,228.6,24.7,212.4z"/>
						</g>
					</g>
					<g id="outlines_1_">
						<path fill="none" stroke="#000000" stroke-width="3" stroke-miterlimit="10" d="M-190.9,127.3c0.7-1.1,1.6-2.2,2.8-3"/>
						<path fill="none" stroke="#000000" stroke-width="3" stroke-miterlimit="10" d="M-199.5,146.4c0.4-1.7,1-3.5,1.7-5.1"/>
						<ellipse fill="none" stroke="#000000" stroke-width="3" stroke-miterlimit="10" cx="-144.8" cy="157.9" rx="24.2" ry="25.1"/>
						<path fill="none" stroke="#000000" stroke-width="3" stroke-miterlimit="10" d="M-88.7,266.6c-41-0.2-77-18.5-97.1-45.7
							c-3.5-4.8-6.6-9.9-9-15c-5.2-11-8.1-23-8.1-35.6c0-8.2,1.3-16.2,3.6-23.9"/>
						<path fill="none" stroke="#0A0000" stroke-width="3" stroke-miterlimit="10" d="M-101.6,190.5c3-4.1,8.1-7.4,10.7-8.8
							c1.3-0.7,4.2-0.4,4.2-0.4"/>
						<path fill="none" stroke="#0A0000" stroke-width="3" stroke-miterlimit="10" d="M-88.7,223c-4.5,0-16.3-12.2-16.2-23.9
							c0-3.2,1.3-6,3-8.6"/>
						<path fill="none" stroke="#000000" stroke-width="3" stroke-miterlimit="10" d="M-107.3,171.6c-5.4,16.1-20.2,27.7-37.5,27.7
							c-20.6,0-37.6-16.5-39.6-37.5c-0.2-1.3-0.2-2.6-0.2-3.9c0-22.8,17.8-41.3,39.7-41.3s39.7,18.5,39.7,41.3
							C-105.1,162.8-105.8,167.2-107.3,171.6"/>
						<path fill="none" stroke="#000000" stroke-width="3" stroke-miterlimit="10" d="M-169,158.8c0-0.4,0-0.6,0-1
							c0-14,10.9-25.1,24.2-25.1c13.3,0,24.2,11.3,24.2,25.1c0,0.7,0,1.3-0.2,2c-0.2,2.9-0.9,5.4-1.7,8"/>
						<path fill="none" stroke="#000000" stroke-width="3" stroke-miterlimit="10" d="M-101.4,190.1c0,0-0.2,0.4-0.6,0.7
							c-3.6,4.3-22,25.1-52.6,16.1c-21.4-6.5-41.3-31.9-37.6-56.9c2.2-13.4,10.9-26.6,30-36.9c1.6-1,3.5-1.7,5.2-2.6
							c12.2-5.6,21.9-4.5,29.8-1.3c1.3,0.6,2.8,1.3,4.1,1.9c29,14.4,32.1,70.7,32.1,70.7"/>
						<polyline fill="none" stroke="#000000" stroke-width="3" stroke-miterlimit="10" points="-180.8,74.1 -132.9,75.5 -88.7,76.8 
													"/>
						<line fill="none" stroke="#000000" stroke-width="3" stroke-miterlimit="10" x1="-159.4" y1="88" x2="-180.8" y2="74.1"/>
						<line fill="none" stroke="#000000" stroke-width="3" stroke-miterlimit="10" x1="-130.3" y1="106.6" x2="-159.4" y2="88"/>
						<line fill="none" stroke="#000000" stroke-width="3" stroke-miterlimit="10" x1="-127" y1="108.9" x2="-130.3" y2="106.6"/>
						<path fill="none" stroke="#000000" stroke-width="3" stroke-miterlimit="10" d="M-180.4,74.1c0,0,0,0-0.4,0
							c0.4,0.7,19.6,31.4,11.7,26.4c-11.7-7.4-48.3-3-48.3-3l36.3,16.1l-31.9,4.1c0,0,16.6,3,22,9.4c0,0,0,0.2-0.2,0.4
							c0,0,0,0.2-0.2,0.2c-0.9,1.7-4.3,8.1-6.6,14c-0.7,1.9-1.3,3.6-1.7,5.1"/>
						<path fill="none" stroke="#000000" stroke-width="3" stroke-miterlimit="10" d="M-147.7,471.1c-16.3-10.5-29.4-25.1-39.7-41.6
							c-22.8-36.9-32-82.6-33.4-111.6c-1.7-40.2,8.6-71.3,34.6-97"/>
						<path fill="none" stroke="#000000" stroke-width="3" stroke-miterlimit="10" d="M-88.7,486.4c-3.7,0-7.4-0.2-11-0.4
							c-0.2,0-0.3,0-0.3,0"/>
						<path fill="none" stroke="#000000" stroke-width="3" stroke-miterlimit="10" d="M-188.4,430.2h-0.2"/>
						<path fill="none" stroke="#000000" stroke-width="3" stroke-miterlimit="10" d="M-195,205.8c0,0-3,2.2-8.1,6.6
							c-18.9,16.2-64.6,62.2-59,123.2c0.4,5.4,1.3,10.9,2.9,16.6c16.9,69.7,69.6,77.8,70.9,77.8l0,0"/>
						<path fill="none" stroke="#000000" stroke-width="3" stroke-miterlimit="10" d="M-99.9,486.1c-1.3,6-4.2,11-7.8,13.6l-10-14.8
							l-9.5,14.8l-10.3-18.1l-7.8,12.9c-3.2-2.3-5.6-6.8-5.6-11.7c0-3,0.6-6,1.6-8.6c0.3-1,0.7-1.7,1.3-2.6
							c4.3-8.1,13.4-13.1,23.9-13.4c15.9-0.4,22.7,8,24.3,17.4l0,0C-98.9,478.7-99.1,482.4-99.9,486.1z"/>
						<polyline fill="none" stroke="#000000" stroke-width="3" stroke-miterlimit="10" points="-194.7,283.5 -183.2,301.1 
							-171.3,283.5 						"/>
						<polyline fill="none" stroke="#000000" stroke-width="3" stroke-miterlimit="10" points="-171,327.1 -160.7,344.5 
							-150.6,328.6 						"/>
						<polyline fill="none" stroke="#000000" stroke-width="3" stroke-miterlimit="10" points="-130.6,303.7 -120.3,321.3 
							-107.2,303.7 						"/>
						<polyline fill="none" stroke="#000000" stroke-width="3" stroke-miterlimit="10" points="-121.6,370.4 -109.9,390.6 
							-98.1,370.4 						"/>
						<polyline fill="none" stroke="#000000" stroke-width="3" stroke-miterlimit="10" points="-183.2,393.9 -172.5,411.4 
							-159.4,393.9 						"/>
						<polyline fill="none" stroke="#000000" stroke-width="3" stroke-miterlimit="10" points="-130.6,424.9 -120.3,442.3 
							-107.2,424.9 						"/>
						<path fill="none" stroke="#000000" stroke-width="3" stroke-miterlimit="10" d="M-159.4,88L-159.4,88"/>
						<g id="outlines_2_">
							<path fill="none" stroke="#000000" stroke-width="3" stroke-miterlimit="10" d="M12.5,127.3c-0.7-1.1-1.6-2.2-2.8-3"/>
							<path fill="none" stroke="#000000" stroke-width="3" stroke-miterlimit="10" d="M21,146.4c-0.4-1.7-1-3.5-1.7-5.1"/>
							<ellipse fill="none" stroke="#000000" stroke-width="3" stroke-miterlimit="10" cx="-33.7" cy="157.9" rx="24.2" ry="25.1"/>
							<path fill="none" stroke="#000000" stroke-width="3" stroke-miterlimit="10" d="M-89.6,266.6c41-0.2,77-18.5,97.1-45.7
								c3.6-4.8,6.6-9.9,9.1-15c5.2-11,8.1-23,8.1-35.6c0-8.2-1.3-16.2-3.6-23.9"/>
							<path fill="none" stroke="#0A0000" stroke-width="3" stroke-miterlimit="10" d="M-76.5,190.8c-3-4.1-8.3-7.8-10.9-9.2
								c-1.3-0.7-2.2-1.1-2.2-1.1"/>
							<path fill="none" stroke="#0A0000" stroke-width="3" stroke-miterlimit="10" d="M-89.6,223c4.5,0,16.3-12.2,16.2-23.9
								c0-3.2-1.3-6-3-8.6"/>
							<path fill="none" stroke="#000000" stroke-width="3" stroke-miterlimit="10" d="M-71.2,171.6c5.4,16.1,20.2,27.7,37.5,27.7
								c20.7,0,37.6-16.5,39.6-37.5c0.2-1.3,0.2-2.6,0.2-3.9c0-22.8-17.8-41.3-39.7-41.3s-39.7,18.5-39.7,41.3
								C-73.3,162.8-72.6,167.2-71.2,171.6"/>
							<path fill="none" stroke="#000000" stroke-width="3" stroke-miterlimit="10" d="M-9.4,158.8c0-0.4,0-0.6,0-1
								c0-14-10.9-25.1-24.2-25.1s-24.2,11.3-24.2,25.1c0,0.7,0,1.3,0.2,2c0.2,2.9,0.9,5.4,1.7,8"/>
							<path fill="none" stroke="#000000" stroke-width="3" stroke-miterlimit="10" d="M-77,190.1c0,0,0.2,0.4,0.6,0.7
								c3.6,4.3,22,25.1,52.6,16.1c21.4-6.5,41.3-31.9,37.6-56.9c-2.2-13.4-10.9-26.6-29.9-36.9c-1.6-1-3.5-1.7-5.2-2.6
								c-12.2-5.6-21.9-4.5-29.8-1.3c-1.3,0.6-2.8,1.3-4.1,1.9c-29.1,14.4-32.1,70.7-32.1,70.7"/>
							<polyline fill="none" stroke="#000000" stroke-width="3" stroke-miterlimit="10" points="2.5,74.1 -45.2,75.5 -89.6,76.8 
															"/>
							<line fill="none" stroke="#000000" stroke-width="3" stroke-miterlimit="10" x1="-19" y1="88" x2="2.5" y2="74.1"/>
							<line fill="none" stroke="#000000" stroke-width="3" stroke-miterlimit="10" x1="-47.7" y1="106.6" x2="-19" y2="88"/>
							<line fill="none" stroke="#000000" stroke-width="3" stroke-miterlimit="10" x1="-51.2" y1="108.9" x2="-47.7" y2="106.6"/>
							<path fill="none" stroke="#000000" stroke-width="3" stroke-miterlimit="10" d="M2,74.1c0,0,0,0,0.4,0
								C2,74.8-17.1,105.4-9.3,100.4c11.7-7.4,48.3-3,48.3-3L2.7,113.5l31.9,4.1c0,0-16.6,3-22,9.4c0,0,0,0.2,0.2,0.4
								c0,0,0,0.2,0.2,0.2c0.9,1.7,4.3,8.1,6.6,14c0.7,1.9,1.3,3.6,1.7,5.1"/>
							<path fill="none" stroke="#000000" stroke-width="3" stroke-miterlimit="10" d="M-30.6,471.1c16.3-10.5,29.4-25.1,39.7-41.6
								c22.8-36.9,32-82.6,33.1-111.6c1.7-40.2-8.6-71.3-34.6-97"/>
							<path fill="none" stroke="#000000" stroke-width="3" stroke-miterlimit="10" d="M-89.6,486.4c3.7,0,7.4-0.2,11-0.4
								c0.2,0,0.3,0,0.3,0"/>
							<path fill="none" stroke="#000000" stroke-width="3" stroke-miterlimit="10" d="M10,430.2h0.2"/>
							<path fill="none" stroke="#000000" stroke-width="3" stroke-miterlimit="10" d="M16.6,205.8c0,0,3,2.2,8.1,6.6
								c18.9,16.2,64.6,62.4,59,123.2c-0.4,5.4-1.3,10.9-2.8,16.6C64,422,11.3,430,10,430l0,0"/>
							<path fill="none" stroke="#000000" stroke-width="3" stroke-miterlimit="10" d="M-78.7,486.1c1.3,6,4.2,11,7.8,13.6l10-14.8
								l9.5,14.8l10.3-18.1l7.8,12.9c3.2-2.3,5.6-6.8,5.6-11.7c0-3-0.6-6-1.6-8.6c-0.3-1-0.7-1.7-1.3-2.6
								c-4.3-8.1-13.4-13.1-23.9-13.4c-15.9-0.4-22.7,8-24.3,17.4l0,0C-79.5,478.7-79.4,482.4-78.7,486.1z"/>
							<polyline fill="none" stroke="#000000" stroke-width="3" stroke-miterlimit="10" points="16.4,283.5 4.8,301.1 -6.8,283.5 
															"/>
							<polyline fill="none" stroke="#000000" stroke-width="3" stroke-miterlimit="10" points="-7.5,327.1 -17.6,344.5 
								-27.8,328.6 							"/>
							<polyline fill="none" stroke="#000000" stroke-width="3" stroke-miterlimit="10" points="-47.7,303.7 -57.9,321.3 
								-71.2,303.7 							"/>
							<polyline fill="none" stroke="#000000" stroke-width="3" stroke-miterlimit="10" points="-56.8,370.4 -68.5,390.6 
								-80.1,370.4 							"/>
							<polyline fill="none" stroke="#000000" stroke-width="3" stroke-miterlimit="10" points="4.8,393.9 -5.7,411.4 -18.9,393.9 
															"/>
							<polyline fill="none" stroke="#000000" stroke-width="3" stroke-miterlimit="10" points="-47.7,424.9 -57.9,442.3 
								-71.2,424.9 							"/>
							<path fill="none" stroke="#000000" stroke-width="3" stroke-miterlimit="10" d="M-19,88L-19,88"/>
						</g>
					</g>
				</g>
			</g>
		</g>
	</g>
	<g id="top_1_">
		<g id="eye_lens_3_">
			<path id="eye_lens_2_3_" fill="#FFFFFF" d="M-149.4,129.9c2.8,3.2,0.4,12.2-5.2,16.1c-5.8,3.9-10.8,4.5-13.6,1.3
				c-2.8-3.2-2.5-8.6,4.5-14.4C-158.3,128.1-152.1,126.7-149.4,129.9z"/>
			<path id="eye_lens_1_3_" fill="#FFFFFF" d="M-157.6,153.5c1.3,1.3,0.2,4.8-1.3,6.2c-1.5,1.3-3.7,1.3-4.9,0
				c-1.3-1.3-0.9-3.7,0.6-5.1C-161.7,153.3-158.8,152.2-157.6,153.5z"/>
		</g>
		<g id="eye_lens_2_">
			<path id="eye_lens_2_2_" fill="#FFFFFF" d="M-37.3,129.9c2.8,3.2,0.4,12.2-5.2,16.1c-5.8,3.9-10.8,4.5-13.6,1.3
				c-2.9-3-2.5-8.6,4.5-14.4C-46.3,128.1-40,126.7-37.3,129.9z"/>
			<path id="eye_lens_1_2_" fill="#FFFFFF" d="M-47,153.5c1.3,1.3,0.2,4.8-1.3,6.2c-1.5,1.3-3.7,1.3-4.9,0c-1.3-1.3-0.9-3.7,0.6-5.1
				C-51.2,153.3-48.3,152.2-47,153.5z"/>
		</g>
	</g>
</g>
<g id="Vrstva_2_1_">
	<g>
		<title>Layer 1</title>
		<path id="path37_1_" stroke="#000000" stroke-width="0.5" stroke-miterlimit="10" d="M-178,127c0.2,8-1.2,15-4.1,21.7
			c-3,6.6-8.2,14.2-13.6,17.8c-5.7,3.6-14.6,7.6-19.6,3.9c-5-3.9-7.5-19.7-10.1-26.8c-2.7-7-4.8-10.5-5.4-15.2
			c-0.6-4.8-1.1-8.9,1.8-13.1c2.9-4.2,8-8.3,15.5-12.2l0,0c0.1-5.2,1.3-9.2,3.6-12.5c2.2-3.3,5.4-5.5,9.9-6.8l0,0
			c-0.1-7.9,2.1-14.1,6.3-18.7c4.3-4.8,10.5-7.7,19-9.2l0,0c4.8-7.1,9.9-12.5,15.2-16.3s10.8-6.1,16.7-6.8l0,0
			c3.5-5.4,8-9.1,14-11.3c6-2.2,15.5-1.9,21.4-1.8c5.9,0,10.8,0.8,13.6,1.8s3.9,2.3,3.3,4.1l0,0c7.6-3.6,14.6-6,21.4-7.2
			c6.8-1.3,13.2-1.6,19,0c5.7,1.6,10.7,4.6,15.2,9.2l0,0c7.4-0.4,13.5,0.9,19.1,3.3c5.5,2.5,10.1,6.1,13.6,11.3
			c3.5,5,5.8,11.1,7.2,18.7l0,0c7.4,4.6,13.2,8.7,17.8,12.8c4.7,4,7.2,6.4,9.5,11.3c2.2,4.8,2.4,13.5,4.1,17.8
			c1.7,4.3,3.9,3.9,6,8.3c2,4.3,5.3,12.7,6.3,17.5c1,4.8-0.7,7.3-0.5,11c0.1,3.7,2.2,6,1.2,11.3c-1.2,5.4-4.1,15.5-7.4,20.2
			c-3.4,4.6-7.8,7.4-12.2,7.4c-4.4,0-8.7-4.3-13.6-7.2c-5.1-2.9-12.6-6.6-16.3-9.9c-3.7-3.3-5-6-6-9.5c-1-3.5-1-7.3,0-11.3l0,0
			c-5-2.3-8.8-4.4-11.7-6.3s-4.5-3.5-5-4.8l0,0c-6.5-1.4-11.1-2.6-14-3.6c-2.9-1-3.9-1.8-3.3-2.3l0,0c-6-0.4-11.1-1.7-15.8-3.9
			c-4.7-2.2-8.6-5.1-11.9-9l0,0c-6.8,1-12.3-0.2-16.3-3.9c-4.1-3.8-6.6-9.7-8-18.1l0,0l-11.3-2.3l0,0c-2.7,5.8-6.3,10.2-11,13.4
			c-4.8,3.2-11.8,5.2-17.3,5.7c-5.4,0.4-10.3-0.9-14.9-3.6l0,0c-1.6,4.1-3.5,8-5.7,11.3c-2.2,3.4-3.6,6.6-7.8,9
			C-164.6,124.7-170.3,126.3-178,127L-178,127z"/>
		<path id="path39_1_" fill="#BFBFBF" d="M-180.5,125c1,7.6,0,14.6-2.7,21.2c-2.9,6.6-8.6,14.1-13.6,17.8
			c-5.1,3.7-11.9,7.4-16.3,4.1c-4.3-3.5-7.1-17.3-9.5-24.1c-2.6-6.8-4.7-11.7-5.4-16.3c-0.7-4.8-1.2-8.3,1.5-11.9
			c2.8-3.7,7.4-7.1,14.5-10.1l0,0c0.1-5.2,1.3-9.2,3.6-12.5c2.2-3.3,5.4-5.5,9.9-6.8l0,0c-0.1-7.9,2.1-14.1,6.3-18.7
			c4.3-4.8,10.5-7.7,19-9.2l0,0c4.8-7.1,9.9-12.5,15.2-16.3c5.3-3.9,10.9-6.1,16.7-6.8l0,0c3.5-5.4,8-9.1,14-11.3
			c5.9-2.2,16.1-1.6,21.4-1.8c5.4-0.4,8.4-0.8,10.7,0.4c2.2,1,3.2,3,3,6l0,0c9.2-3.8,17.3-6.2,24.7-7.4c7.4-1.3,13.6-1.5,19,0
			c5.3,1.5,9.4,4.4,12.5,9l0,0c9.2,0.2,16.4,1.3,21.8,3.5c5.3,2.2,7.3,4.8,10.1,9.5S1,54,2.9,61.8l0,0c7.4,4.6,13.2,8.7,17.8,12.8
			c4.7,4,7.2,6.4,9.5,11.3c2.2,4.8,2.4,13.5,4.1,17.8c1.7,4.3,3.9,3.9,6,8.3c2.1,4.4,5.3,12.2,6.2,17.5c0.9,5.3-0.6,10.3-0.5,14
			c0.1,3.6,1.6,3.5,0.9,7.8c-0.9,4.3-3,13.7-6,17.8c-2.9,4.1-7.3,6.1-11.3,6.3c-4.1-0.1-8.5-3.7-13.1-6.3
			c-4.8-2.5-11.1-5.6-14.5-8.6c-3.4-3-5-6-6-9.5s-1-7.3,0-11.3l0,0c-5.7-3.3-9.8-5.9-12.8-8c-3-2.2-4.8-3.7-5-4.8l0,0
			c-3.7,0.1-6.9-0.4-9.9-1.5c-2.9-1-5.4-2.7-7.4-4.8l0,0c-6.5,0.3-12.1-0.4-17-2.3c-4.8-2-8.7-4.8-11.9-9l0,0
			c-6.5,1.7-11.5,0.7-15.2-3c-3.8-3.8-6.1-10.1-7.2-19.4l0,0l-14.9-3.6l0,0c-2.2,5.9-5.6,10.5-10.1,13.6c-4.8,3.2-11.7,5.3-17.3,5.7
			c-5.4,0.4-10.3-0.9-14.9-3.6l0,0c-2.7,4.8-5.1,9-7.8,12.5s-3.5,6.6-7.8,9C-167.3,122.7-173,124.2-180.5,125L-180.5,125z"/>
		<path id="path41_1_" stroke="#000000" stroke-width="0.5" stroke-miterlimit="10" d="M-105.9,84.5c1.3-2.9,2.7-6,3.9-9.9
			c1.2-3.8,3-7.9,3.6-12.5c0.5-4.8-0.1-11.9-0.4-15.5c-0.4-3.5-1.6-4.9-1.2-5.7c0.4-0.9,2.9-0.6,3.5,0.9c0.5,1.5,0.4,4.4,0.4,8
			c0,3.6,0.2,9-0.4,13.1c-0.6,4.1-1.7,7.5-3,11.3c-1.3,3.8-2.7,7.4-4.5,11l0,0C-104.4,85-105.1,84.8-105.9,84.5L-105.9,84.5z"/>
		<path id="path43_1_" stroke="#000000" stroke-width="0.5" stroke-miterlimit="10" d="M-92.1,27.3c0.1,2.1-0.2,4.1-0.5,5.9
			c-0.5,1.9-2.1,4.4-2.2,5.4c0,0.9,1.2,0.9,2.2,0c0.8-1.1,2.4-3.9,3-6c0.4-2.1,0.4-4.1-0.4-6.2l0,0C-90.8,26.7-91.5,27.1-92.1,27.3
			L-92.1,27.3z"/>
		<path id="path45_1_" stroke="#000000" stroke-width="0.5" stroke-miterlimit="10" d="M-83.5,40.1c1.6-2.1,4.5-3.9,8.3-5.7
			c3.9-1.8,9.8-4,14.9-4.8c5.1-0.8,11.8-1,15.5,0.5c3.5,1.6,5.4,4.7,5.7,9.2l0,0c3.1,0.4,6,1.1,9,2.1c2.9,0.9,6.6,1.8,8,3.6
			c1.3,1.7,0.4,5.8,0,6.8c-0.4,0.9-1.6-0.2-2.1-1.2c-0.4-1,0.4-3.6-0.6-4.8c-1-1.2-2.6-1.7-5.4-2.3c-2.9-0.8-6.4-1.5-11-2.2l0,0
			c0.5-3.5-0.1-6-1.8-7.7c-1.8-1.7-5.4-2.5-8.6-2.7c-3.3-0.3-7.4,0.4-11,1.2c-3.8,0.9-8.1,2.4-11,3.9c-3,1.3-4.8,2.6-6.5,4.1
			c-1.7,1.5-2.9,4.1-3.9,4.8c-1.1,0.4-2.4-0.6-2.4-1.5C-86.4,42.7-85.4,41.7-83.5,40.1L-83.5,40.1L-83.5,40.1z"/>
		<path id="path47_1_" stroke="#000000" stroke-width="0.5" stroke-miterlimit="10" d="M-77.9,62.4c2.2-1.1,7.2-2.9,13.1-3.3
			C-59,58.7-49.2,59-43,60c6,1,10.3,3,14.9,5c4.6,2,9.6,3.7,12.5,6.8c2.9,3.1,3.2,8.3,4.5,11.9c1.2,3.6,1,7.5,2.7,9.5
			c1.5,1.8,4.2,1.5,6.8,1.5C1,94.7,3.9,92.7,7,93c3,0.3,6.9,1.2,9.2,3.3c2.2,2.2,3.6,7.5,3.9,9.2c0.1,1.5-1.8,1.7-3,0.4
			c-1.2-1.5-2.1-7-4.1-8.6c-2.2-1.6-6.6-1.3-9.2-1.2c-2.6,0.1-4.1,2-6.3,1.8c-2.3-0.3-5.4-1.1-7.2-2.7s-1.9-3.4-3-6.5
			c-1.2-3.3-1-9.1-3.6-12.5c-2.7-3.4-7-5.5-11.7-7.8c-4.7-2.4-10.6-5-15.8-6.2s-10.1-1-14.9-0.9s-10.1,0.4-13.4,1.2
			c-3.3,0.8-5,3.2-6,3.3C-78.9,65.6-80,63.5-77.9,62.4L-77.9,62.4z"/>
		<path id="path49_1_" stroke="#000000" stroke-width="0.5" stroke-miterlimit="10" d="M-2.3,133.2c1.3,1,5,2.1,6,4.1
			c0.9,2.2-1.1,5.2-0.5,8.3c0.4,3.1,2.2,8.5,3.3,10.1c1,1.5,2.7,0.7,2.7-0.9c-0.1-1.6-2.7-5.8-3-8.6c-0.4-2.9,2.3-5.7,1.2-8.3
			c-1.3-2.7-6.5-6-8.3-7.2s-2.9-0.1-3,0.4C-4.2,131.5-3.7,132.2-2.3,133.2L-2.3,133.2z"/>
		<path id="path51_1_" stroke="#000000" stroke-width="0.5" stroke-miterlimit="10" d="M37.9,154.5c-0.2,1.7-1,6.6-3,8.6
			c-2.2,2-7.8,3.1-9.2,3.3c-1.5,0-0.8-2.2,0.4-3c1-0.8,4.5-0.8,6-1.8c1.4-1.1,2.2-3.2,3-4.8c0.5-1.6,0.4-4.1,0.9-4.5
			C36.3,151.9,38,152.5,37.9,154.5L37.9,154.5z"/>
		<path id="path53_1_" stroke="#000000" stroke-width="0.5" stroke-miterlimit="10" d="M-86.5,73.4c1.3,0.5,5,2.9,7.4,6
			c2.4,3,3.6,9.7,7.2,12.5c3.5,2.8,9.4,2.8,13.6,4.1c4.2,1.3,7.9,2,11.3,3.9c3.2,2,4.7,5.9,8.3,8c3.6,2.1,11.1,3.3,13.4,4.5
			c2.2,1.1,2.1,2.7-0.4,2.3s-9.8-2.5-13.6-4.8c-4-2.3-5.5-6.7-9.9-9c-4.5-2.2-12.3-2.8-16.3-3.9c-4.1-1.2-5.5-1.2-7.8-3.3
			c-2.2-2.2-3.4-6.8-5.7-9.9c-2.4-3-7.4-6.2-8.6-8C-88.7,74.2-87.9,72.8-86.5,73.4L-86.5,73.4z"/>
		<path id="path55_1_" stroke="#000000" stroke-width="0.5" stroke-miterlimit="10" d="M-116,61.2c-3.9,8.9-7.4,15.1-11.3,19
			c-3.9,3.9-8,3.8-11.3,4.1c-3.2,0.4-5.9-0.4-8-2.2l0,0c-2.5,4.8-5.5,8.6-9.2,11.7c-3.8,2.9-9.3,4.8-13.1,6c-3.8,1-7.8-0.3-9.2,0.4
			c-1.4,0.5-1.6,2.5,0.5,3c2.2,0.4,8.4-0.1,12.2-0.9c3.7-1,6.8-1.9,10.1-4.5c3.2-2.6,6.2-6.3,9.2-11l0,0c4.4,1.7,8.7,2,13.1,0.4
			c4.3-1.6,9.6-6,12.8-9.9c3.1-3.9,5.5-10.4,6.2-13.1C-113.2,61.5-113.8,60.5-116,61.2L-116,61.2z"/>
		<path id="path57_1_" stroke="#000000" stroke-width="0.5" stroke-miterlimit="10" d="M-108,47.9c-1.8-2.9-4.1-5-7.2-6.3
			c-3-1.3-7.8-2.5-10.7-1.5c-2.9,1-5.3,3.5-6.8,7.4l0,0c-9.1,1.3-15.2,3.2-18.7,5.7c-3.5,2.3-4.3,5.3-2.3,8.6l0,0
			c-6.3,0.5-11.2,1.8-14.9,3.9c-3.8,2.1-5.5,7.3-7.2,8.3c-1.6,1-3.1-0.4-2.3-2.1c0.7-1.9,3.5-6.5,7.2-8.6c3.6-2.2,8.3-3.5,14.3-4.1
			l0,0c-0.5-2.9,0.1-5.2,2.1-7.2c2-2,6.1-3.4,9.5-4.5c3.3-1.1,6.6-1.8,10.1-2.1l0,0c0.7-3.9,2.7-6.4,6-7.8c3.2-1.3,9.7-1.4,13.4-0.4
			c3.7,1,7.6,4.5,9,6.3C-105.5,45.4-105.9,46.8-108,47.9L-108,47.9z"/>
		<path id="path59_1_" stroke="#000000" stroke-width="0.5" stroke-miterlimit="10" d="M-188.3,126.7c-0.3,2.4-1.8,8.4-4.5,13.1
			c-2.9,4.7-9.7,12.7-11.8,14.6c-2.2,1.7-1.9-2.4-1.2-3.9c0.6-1.6,3.3-3,5-5.4c1.7-2.2,3.8-5,5.4-8.3c1.5-3.5,2.7-10.2,3.9-11.9
			C-190.4,123.2-188.1,124.2-188.3,126.7L-188.3,126.7z"/>
		<path id="path71_1_" stroke="#000000" stroke-width="0.5" stroke-miterlimit="10" d="M-20.7,113.3c-0.4,0.4,0.1,2.4,0.6,3
			c0.4,0.4,2,0.4,2.3,0c0.4-0.5,0.4-2.5,0-3C-18.2,112.8-20.3,112.8-20.7,113.3L-20.7,113.3z"/>
		<path id="path73_1_" stroke="#000000" stroke-width="0.5" stroke-miterlimit="10" d="M19.4,110c-0.4,0.4,0.1,2.4,0.5,3
			c0.4,0.4,2,0.4,2.3,0c0.4-0.5,0.4-2.5,0-3C21.9,109.6,19.8,109.6,19.4,110L19.4,110z"/>
		<path id="path75_1_" stroke="#000000" stroke-width="0.5" stroke-miterlimit="10" d="M25.7,132.3c-0.4,0.4,0.1,2.4,0.6,3
			c0.4,0.4,2,0.4,2.3,0c0.4-0.5,0.4-2.5,0-3C28.1,131.9,26.1,131.9,25.7,132.3L25.7,132.3z"/>
		<path id="path77_1_" stroke="#000000" stroke-width="0.5" stroke-miterlimit="10" d="M-210.1,157.1c-0.4,0.4,0.1,2.4,0.5,3
			c0.4,0.4,2,0.4,2.4,0c0.4-0.5,0.4-2.5,0-3C-207.6,156.6-209.6,156.6-210.1,157.1L-210.1,157.1z"/>
	</g>
</g>
</svg>
