<!-- Generator: Adobe Illustrator 18.1.1, SVG Export Plug-In  -->
<svg version="1.1"
	 xmlns="http://www.w3.org/2000/svg" xmlns:xlink="http://www.w3.org/1999/xlink" xmlns:a="http://ns.adobe.com/AdobeSVGViewerExtensions/3.0/"
	 x="0px" y="0px" width="444.194px" height="545.993px" viewBox="0 0 444.194 545.993" enable-background="new 0 0 444.194 545.993"
	 xml:space="preserve">
<defs>
</defs>
<g id="Vrstva_1_1_">
	<g id="base_1_">
		<path fill="#AF8C69" d="M222.697,246.5c52.2-0.2,98-23.5,123.6-58.1l0.2,0.2c33.3,32.8,46.4,72.1,44,123.4
			c-1.7,36.8-13.1,95.1-42.1,141.9c-13.1,21-29.7,39.8-50.5,53l0,0c-5.5-10.3-17-16.7-30.5-17c-20.2-0.5-28.9,10.1-30.9,22.1l0,0
			c-0.8,4.6-0.6,9.3,0.3,13.9c-4.6,0.5-9.3,0.6-14,0.6s-9.5-0.2-14-0.6c0.9-4.6,1.1-9.3,0.3-13.9l0,0c-2.1-12-10.9-22.6-30.9-22.1
			c-13.3,0.2-24.9,6.8-30.5,17l0,0c-20.8-13.3-37.4-32-50.5-53c-29-46.9-40.7-105.1-42.4-141.9c-2.2-51.1,10.9-90.7,44-123.4
			l0.2-0.2C124.597,223.2,170.397,246.4,222.697,246.5z"/>
	</g>
	<g id="mirror_1_">
		<g>
			<g>
				<g id="XMLID_1_">
					<g id="fill_x5F_bottom_1_">
						<path fill="#C4731A" d="M178.097,489.7c27.8-0.6,34.1,19.7,30.6,36c-1.6,7.6-5.4,14-9.9,17.4l-12.8-18.8l-12.1,18.8l-12.9-23
							l-9.9,16.4c-4.1-3-7.1-8.7-7.1-15c0-5.4,1.3-10.3,3.6-14.4C153.297,496.6,164.697,489.9,178.097,489.7z"/>
						<path fill="#AF8C69" d="M222.697,489.7v36.6c-4.7,0-9.5-0.2-14-0.6c3.5-16.3-3-36.6-30.6-36c-13.3,0.2-24.8,6.8-30.5,17l0,0
							c-20.8-13.3-37.4-32-50.5-53c-29-46.9-40.7-105.1-42.4-141.9c-2.2-51.1,10.9-90.7,44-123.4l0.2-0.2
							c25.7,34.7,71.5,57.9,123.6,58.1v36.4c0,0-68,5.5-80.3-15.1c-16.6-27.5-40.6-35-62.6-23c-27.6,14.7,1.1,177.8,22.2,193
							c27.6,19.7,42.9-0.8,62.3,21.1C182.197,479.4,199.197,479.1,222.697,489.7z"/>
						<path fill="#42210B" d="M139.097,170.5c38.8,11.5,62.3-14.7,66.9-20.4c-2.2,3.2-3.8,6.8-3.9,10.9c-0.2,14.8,15,30.3,20.7,30.3
							v55.2c-52.2-0.2-98-23.5-123.6-58.1c-4.4-6.2-8.4-12.5-11.4-19.1c-6.6-14-10.3-29.2-10.3-45.3c0-10.4,1.6-20.7,4.6-30.5
							c0.6-2.2,1.3-4.4,2.2-6.5c3-7.3,7.4-15.5,8.5-17.8c0,0,0-0.2,0.2-0.2c0.2-0.2,0.2-0.5,0.2-0.5c-6.8-8.4-27.9-12-27.9-12
							l40.6-5.2l-46.5-20.4c0,0,46.2-5.5,61.4,3.9c9.9,6.3-14.5-32.7-15-33.6l68.5,44.2l-0.2,0.5c-10.3-3.9-22.4-5.4-37.9,1.7
							c-2.2,0.9-4.6,2.2-6.6,3.3C60.097,88.3,97.097,158,139.097,170.5z"/>
						<path fill="#C7B299" d="M222.697,5.1V137c0,0-1.1,0.6-2.8,1.4c0,0-3.9-71.5-40.9-89.9c-1.7-0.8-3.5-1.6-5.2-2.4l0.2-0.5
							l-68.5-44.1l0,0l60.7,1.7L222.697,5.1z"/>
						<path fill="#EFDECE" d="M139.097,170.5c-42.1-12.5-79.2-82.4-9.6-119.1c2.1-1.3,4.4-2.2,6.6-3.3c15.5-7.1,27.8-5.7,37.9-1.7
							c1.7,0.8,3.6,1.6,5.2,2.4c36.9,18.3,40.9,89.9,40.9,89.9c-3.5,1.7-9.2,5.5-13.1,10.7c0,0-0.2,0.5-0.8,0.9
							C201.397,155.9,178.097,182.2,139.097,170.5z M199.197,125.7C199.197,125.7,199.197,125.4,199.197,125.7
							c1.9-5.5,2.8-11.2,2.8-17.2c0-29-22.6-52.5-50.5-52.5s-50.5,23.5-50.5,52.5s22.6,52.5,50.5,52.5
							C173.697,161,192.397,146.2,199.197,125.7z"/>
						<path fill="#42210B" d="M151.397,76.3c-17,0-30.8,14.4-30.8,32c0,17.8,13.9,32,30.8,32c17,0,30.8-14.4,30.8-32
							C182.297,90.6,168.497,76.3,151.397,76.3z M100.897,108.2c0-29,22.6-52.5,50.5-52.5s50.5,23.5,50.5,52.5
							c0,6.2-0.9,11.8-2.8,17.2c0,0,0,0,0,0.2c-6.8,20.5-25.7,35.3-47.7,35.3C123.497,161,100.897,137.2,100.897,108.2z"/>
						<path fill="#0F0602" d="M120.597,108.2c0-17.8,13.9-32,30.8-32c17,0,30.8,14.4,30.8,32c0,17.8-13.9,32-30.8,32
							C134.497,140.5,120.597,126,120.597,108.2z"/>
						<path fill="#42210B" d="M5.797,355.6c-26.4-109,82.1-186.4,82.1-186.4c3.2,6.8,7.1,13.1,11.4,19.1l-0.2,0.2
							c-33.3,32.8-46.4,72.3-44.2,123.4c1.7,36.8,13.1,95.1,42.4,141.9l-1.1,0.8l0,0C94.497,454.7,27.397,444.2,5.797,355.6z"/>
						<path fill="#FBB03B" d="M222.697,137v54.3c-5.7,0-20.8-15.5-20.7-30.3c0-4.1,1.7-7.7,3.9-10.9c0.6-0.6,0.8-0.9,0.8-0.9
							c3.9-5.2,9.9-8.8,13.1-10.7C221.797,137.5,222.697,137,222.697,137z"/>
						<path fill="#51260E" d="M92.197,70.1c0.2-0.2,0.2-0.5,0.3-0.6c-1.1,2.2-5.5,10.3-8.5,17.8
							C86.397,81.3,89.097,75.6,92.197,70.1z"/>
						<g id="fill_x5F_bottom_2_">
							<path fill="#C4731A" d="M266.097,489.7c-27.8-0.6-34.1,19.7-30.6,36c1.6,7.6,5.4,14,9.9,17.4l12.8-18.8l12.1,18.8l12.9-23
								l9.9,16.4c4.1-3,7.1-8.7,7.1-15c0-5.4-1.3-10.3-3.6-14.4C290.897,496.6,279.497,489.9,266.097,489.7z"/>
							<path fill="#AF8C69" d="M221.497,489.7v36.6c4.7,0,9.5-0.2,14-0.6c-3.5-16.3,3-36.6,30.6-36c13.3,0.2,24.8,6.8,30.5,17l0,0
								c20.8-13.3,37.4-32,50.5-53c29-46.9,40.7-105.1,42.4-141.9c2.2-51.1-10.9-90.7-44-123.4l-0.2-0.2
								c-25.7,34.7-71.5,57.9-123.6,58.1v36.4c0,0,68,5.5,80.3-15.1c16.6-27.5,40.6-35,62.6-23c27.6,14.7-1.1,177.8-22.2,193
								c-27.3,19.7-42.9-0.8-62.3,21.1C262.197,479.4,244.997,479.1,221.497,489.7z"/>
							<path fill="#42210B" d="M305.097,170.5c-38.8,11.5-62.3-14.7-66.9-20.4c2.2,3.2,3.8,6.8,3.9,10.9c0.2,14.8-15,30.3-20.7,30.3
								v55.2c52.2-0.2,98-23.5,123.6-58.1c4.6-6.2,8.4-12.5,11.5-19.1c6.6-14,10.3-29.2,10.3-45.3c0-10.4-1.6-20.7-4.6-30.5
								c-0.6-2.2-1.3-4.4-2.2-6.5c-2.8-7.3-7.4-15.5-8.5-17.8c0,0,0-0.2-0.2-0.2c-0.2-0.2-0.2-0.5-0.2-0.5c6.8-8.4,27.9-12,27.9-12
								l-40.6-5.2l46.2-20.5c0,0-46.2-5.5-61.4,3.9c-9.9,6.3,14.5-32.7,15-33.6l-68.5,44.2l0.2,0.5c10.3-3.9,22.4-5.4,37.9,1.7
								c2.2,0.9,4.6,2.2,6.6,3.3C384.297,88.3,347.397,158,305.097,170.5z"/>
							<path fill="#C7B299" d="M217.497,5.1l3.9,131.9c0,0,1.1,0.6,2.8,1.4c0,0,3.9-71.5,40.9-89.9c1.7-0.8,3.5-1.6,5.2-2.4
								l-0.2-0.5l68.5-44.2l0,0l-61.1,1.7L217.497,5.1z"/>
							<path fill="#EFDECE" d="M305.097,170.5c42.1-12.5,79.2-82.4,9.6-119.1c-2.1-1.3-4.4-2.2-6.6-3.3c-15.5-7.1-27.8-5.7-37.9-1.7
								c-1.7,0.8-3.6,1.6-5.2,2.4c-36.9,18.3-40.9,89.9-40.9,89.9c3.5,1.7,9.2,5.5,13.1,10.7c0,0,0.2,0.5,0.8,0.9
								C242.797,155.9,266.397,182.2,305.097,170.5z M245.097,125.7C244.997,125.7,244.997,125.4,245.097,125.7
								c-1.9-5.5-2.8-11.2-2.8-17.2c0-29,22.6-52.5,50.5-52.5s50.5,23.5,50.5,52.5s-22.6,52.5-50.5,52.5
								C270.697,161,251.897,146.2,245.097,125.7z"/>
							<path fill="#42210B" d="M292.797,76.3c17,0,30.8,14.4,30.8,32c0,17.8-13.9,32-30.8,32c-17,0-30.8-14.4-30.8-32
								S275.797,76.3,292.797,76.3z M343.297,108.2c0-29-22.6-52.5-50.5-52.5s-50.5,23.5-50.5,52.5c0,6.2,0.9,11.8,2.8,17.2
								c0,0,0,0,0,0.2c6.8,20.5,25.7,35.3,47.7,35.3C320.697,161,343.297,137.2,343.297,108.2z"/>
							<path fill="#0F0602" d="M323.597,108.2c0-17.8-13.9-32-30.8-32c-17,0-30.8,14.4-30.8,32c0,17.8,13.9,32,30.8,32
								C309.797,140.5,323.597,126,323.597,108.2z"/>
							<path fill="#42210B" d="M438.397,355.6c26.4-109-81.7-186.4-81.7-186.4c-3.2,6.8-7.1,13.1-11.5,19.1l0.2,0.2
								c33.3,32.7,46.5,72.1,44,123.2c-1.7,36.8-13.1,95.1-42.4,141.9l1.1,0.8l0,0C350.097,454.7,417.097,444.2,438.397,355.6z"/>
							<path fill="#FBB03B" d="M221.497,137v54.3c5.7,0,20.8-15.5,20.7-30.3c0-4.1-1.7-7.7-3.9-10.9c-0.6-0.6-0.8-0.9-0.8-0.9
								c-3.9-5.2-9.9-8.8-13.1-10.7C222.697,137.5,221.497,137,221.497,137z"/>
							<path fill="#51260E" d="M351.997,70.1c-0.2-0.2-0.2-0.5-0.3-0.6c1.1,2.2,5.7,10.3,8.5,17.8
								C357.997,81.3,355.097,75.6,351.997,70.1z"/>
						</g>
						<path fill="#C7B299" d="M338.597,364.1c-5.5,62.5-53.2,113.6-118.8,113.6s-116-51-118.8-113.6c-4.9-108.6,53.2-101,118.8-101
							S347.997,257.6,338.597,364.1z"/>
					</g>
					<g id="fill_x5F_top_1_">
						<path display="none" fill="#AF8C69" d="M222.697,489.7v36.6c-4.7,0-9.5-0.2-14-0.6c0.9-4.6,1.1-9.3,0.3-13.9l0,0
							c-2.1-12-10.9-22.6-30.9-22.1c-13.3,0.2-24.9,6.8-30.5,17l0,0c-20.8-13.3-37.4-32-50.5-53c-29-46.9-40.7-105.1-42.4-141.9
							c-2.2-51.1,10.9-90.7,44-123.4l0.2-0.2c25.7,34.7,71.3,57.9,123.6,58.1v243.3L222.697,489.7L222.697,489.7z"/>
						<path fill="#C4731A" d="M222.697,137.5v54c-5.7,0-20.8-15.5-20.7-30.3c0-4.1,1.7-7.7,3.9-10.9c0.6-0.6,0.8-0.9,0.8-0.9
							c3.9-5.2,9.9-8.8,13.1-10.7C221.497,137.5,222.697,137.5,222.697,137.5z"/>
						<path fill="#AF8C69" d="M222.697,60.2l2.5,1.6l-2.2,74.8c0,0-1.7,0.9-3.5,1.9c0,0-3.9-68.5-40.9-86.9
							c-1.7-0.8-3.5-1.6-5.2-2.4l0.2-0.5l-4.4-2.8"/>
						<path fill="#EFDECE" d="M199.097,125.7C199.097,125.7,199.197,125.4,199.097,125.7c1.9-5.5,2.8-11.2,2.8-17.2
							c0-29-22.6-52.5-50.5-52.5s-50.5,23.5-50.5,52.5c0,1.7,0,3.3,0.2,4.9c2.5,26.7,24.1,47.7,50.3,47.7
							C173.497,161,192.297,146.2,199.097,125.7z M91.097,98.2c2.7-17,13.9-33.9,38.2-46.9c2.1-1.3,4.4-2.2,6.6-3.3
							c15.5-7.1,27.8-5.7,37.9-1.7c1.7,0.8,3.5,1.6,5.2,2.4c36.9,18.3,40.9,89.9,40.9,89.9c-3.5,1.7-9.2,5.5-13.1,10.7
							c0,0-0.2,0.5-0.8,0.9c-4.6,5.5-27.9,31.9-66.9,20.4C111.697,162.4,86.397,129.9,91.097,98.2z"/>
						<path fill="#C4731A" d="M208.497,525.7c-1.6,7.6-5.4,14-9.9,17.4l-12.8-18.8l-12.1,18.8l-13.1-23l-9.9,16.4
							c-4.1-3-7.1-8.7-7.1-15c0-3.9,0.8-7.7,2.1-11c0,0,11.5-8.4,19.6-8.4c18.5,0,24.1,11.5,33.6,11.5c5.7,0,9-1.4,9-1.4l0.8-0.2
							l0,0C209.797,516.4,209.497,521.1,208.497,525.7z"/>
						<path fill="#51260E" d="M189.397,111.6c3.9,0.9,10.1,11,9.6,14c0,0,0,0,0,0.2c-6.8,20.5-25.7,35.3-47.7,35.3
							c-26.2,0-47.8-21-50.3-47.7h0.8c0,0,9.9-16.4,12.1-15.9s6.5,12,6.5,12l0,0c0.6,17.2,14.2,31.1,30.8,31.1
							c12.8,0,23.5-8,28.2-19.4l0,0C180.097,120.4,185.497,110.5,189.397,111.6z"/>
						<path fill="#230F07" d="M182.197,111c-0.2,3.6-1.1,6.9-2.2,10.1l0,0c-4.7,11.5-15.6,19.4-28.2,19.4
							c-16.7,0-30.1-13.9-30.8-31.1c0-0.5,0-0.8,0-1.3c0,0,9.6-1.6,14.7,12.5c5.2,14.2,27.6,11.2,32.3,4.4
							C172.597,118.1,177.797,111,182.197,111z"/>
						<path fill="#51260E" d="M92.697,69.3c0.2-0.2,0.2-0.5,0.2-0.5c-6.8-8.4-27.9-12-27.9-12l40.6-5.2c0,0,4.1,2.8,6.5-2.4
							c4.6-9.5-52.9-18.3-52.9-18.3s46.2-5.5,61.4,3.9c9.9,6.3-14.5-32.7-15-33.6l27.3,17.5l0,0c0.6,0.8,12.1,17,4.7,23.7
							c-4.7,4.4-8.4,8.4-8.4,8.4c-24.3,12.8-35.5,29.8-38.2,46.9c-0.9-0.2-1.7-0.5-2.5-0.8c-3.9-2.2-6.6-3.6-6.8-3.8
							c0.6-2.2,1.3-4.4,2.2-6.5C86.997,79.7,91.297,71.7,92.697,69.3C92.697,69.5,92.697,69.3,92.697,69.3z"/>
						<path fill="#51260E" d="M92.197,70.1c0.2-0.2,0.2-0.5,0.3-0.6c-1.1,2.2-5.5,10.3-8.5,17.8
							C86.197,81.3,89.097,75.6,92.197,70.1z"/>
						<path fill="#51260E" d="M77.297,177.6c0,0,5.4,13.1,0,23.4s-38.2,61.9-36.3,94.4c1.9,32.7-38.8,39.1-38.8,39.1
							C-5.003,256.9,53.097,198.2,77.297,177.6z"/>
						<g id="fill_x5F_top_2_">
							<path display="none" fill="#AF8C69" d="M221.497,489.7v36.6c4.7,0,9.5-0.2,14-0.6c-0.9-4.6-1.1-9.3-0.3-13.9l0,0
								c2.1-12,10.9-22.6,30.9-22.1c13.3,0.2,24.9,6.8,30.5,17l0,0c20.8-13.3,37.4-32,50.5-53c29-46.9,40.7-105.1,42.1-141.9
								c2.2-51.1-10.9-90.7-44-123.4l-0.2-0.2c-25.7,34.7-71.3,57.9-123.6,58.1L221.497,489.7L221.497,489.7z"/>
							<path fill="#C4731A" d="M221.497,137.5v54c5.7,0,20.8-15.5,20.7-30.3c0-4.1-1.7-7.7-3.9-10.9c-0.6-0.6-0.8-0.9-0.8-0.9
								c-3.9-5.2-9.9-8.8-13.1-10.7C222.697,137.5,221.497,137.5,221.497,137.5z"/>
							<path fill="#AF8C69" d="M221.197,60l0.3,77c0,0,1.1,0.5,2.8,1.4c0,0,3.9-68.5,40.9-86.9c1.7-0.8,3.5-1.6,5.2-2.4l-0.2-0.5
								l4.4-2.8C273.197,46.5,223.997,62.4,221.197,60z"/>
							<path fill="#EFDECE" d="M245.097,125.7C245.097,125.7,245.097,125.4,245.097,125.7c-1.9-5.5-2.8-11.2-2.8-17.2
								c0-29,22.6-52.5,50.5-52.5s50.5,23.5,50.5,52.5c0,1.7,0,3.3-0.2,4.9c-2.5,26.7-24,47.7-50.3,47.7
								C270.697,161,251.897,146.2,245.097,125.7z M353.097,98.2c-2.7-17-13.9-33.9-38-46.9c-2.1-1.3-4.4-2.2-6.6-3.3
								c-15.5-7.1-27.8-5.7-37.9-1.7c-1.7,0.8-3.5,1.6-5.2,2.4c-37,18.3-40.9,89.9-40.9,89.9c3.5,1.7,9.2,5.5,13.1,10.7
								c0,0,0.2,0.5,0.8,0.9c4.6,5.5,27.9,31.9,66.9,20.4C332.697,162.4,357.997,129.9,353.097,98.2z"/>
							<path fill="#C4731A" d="M235.497,525.7c1.6,7.6,5.4,14,9.9,17.4l12.8-18.8l12.1,18.8l13.1-23l9.9,16.4c4.1-3,7.1-8.7,7.1-15
								c0-3.9-0.8-7.7-2.1-11c0,0-11.5-8.4-19.6-8.4c-18.5,0-24.1,11.5-33.6,11.5c-5.7,0-9-1.4-9-1.4l-0.8-0.2l0,0
								C234.397,516.4,234.597,521.1,235.497,525.7z"/>
							<path fill="#51260E" d="M254.797,111.6c-3.9,0.9-10.1,11-9.6,14c0,0,0,0,0,0.2c6.8,20.5,25.7,35.3,47.7,35.3
								c26.4,0,47.8-21,50.3-47.7h-0.8c0,0-9.9-16.4-12.1-15.9c-2.2,0.5-6.5,12-6.5,12l0,0c-0.6,17.2-14.2,31.1-30.8,31.1
								c-12.8,0-23.5-8-28.2-19.4l0,0C264.097,120.4,258.697,110.5,254.797,111.6z"/>
							<path fill="#230F07" d="M262.197,111c0.2,3.6,1.1,6.9,2.2,10.1l0,0c4.7,11.5,15.6,19.4,28.2,19.4c16.7,0,30.1-13.9,30.8-31.1
								c0-0.5,0-0.8,0-1.3c0,0-9.6-1.6-14.7,12.5c-5.2,14.2-27.6,11.2-32.3,4.4C271.997,118.1,266.597,111,262.197,111z"/>
							<path fill="#51260E" d="M351.497,69.3c-0.2-0.2-0.2-0.5-0.2-0.5c6.8-8.4,27.9-12,27.9-12l-40.6-5.2c0,0-4.1,2.8-6.5-2.4
								c-4.6-9.5,52.9-18.3,52.9-18.3s-46.2-5.5-61.4,3.9c-9.9,6.3,14.5-32.7,15-33.6l-27.3,17.5l0,0c-0.6,0.8-12.1,17-4.7,23.7
								c4.7,4.4,8.4,8.4,8.4,8.4c24.3,12.8,35.5,29.8,38,46.9c0.9-0.2,1.7-0.5,2.5-0.8c3.9-2.2,6.6-3.6,6.8-3.8
								c-0.6-2.2-1.3-4.4-2.2-6.5C357.197,79.7,352.897,71.7,351.497,69.3C351.697,69.5,351.497,69.3,351.497,69.3z"/>
							<path fill="#51260E" d="M352.097,70.1c-0.2-0.2-0.2-0.5-0.3-0.6c1.1,2.2,5.5,10.3,8.5,17.8
								C357.997,81.3,355.297,75.6,352.097,70.1z"/>
							<path fill="#51260E" d="M366.997,177.6c0,0-5.4,13.1,0,23.4s38.2,61.9,36.3,94.4c-1.9,32.7,38.8,39.3,38.8,39.3
								C449.197,256.9,391.297,198.2,366.997,177.6z"/>
						</g>
					</g>
					<g id="outlines_1_">
						<path fill="none" stroke="#000000" stroke-width="3" stroke-miterlimit="10" d="M92.697,69.3c0.9-1.4,2.1-2.8,3.5-3.9"/>
						<path fill="none" stroke="#000000" stroke-width="3" stroke-miterlimit="10" d="M81.797,93.6c0.6-2.2,1.3-4.4,2.2-6.5"/>
						<ellipse fill="none" stroke="#000000" stroke-width="3" stroke-miterlimit="10" cx="151.397" cy="108.2" rx="30.8" ry="32"/>
						<path fill="none" stroke="#000000" stroke-width="3" stroke-miterlimit="10" d="M222.697,246.5c-52.2-0.2-98-23.5-123.6-58.1
							c-4.4-6.2-8.4-12.5-11.4-19.1c-6.6-14-10.3-29.2-10.3-45.3c0-10.4,1.6-20.7,4.6-30.5"/>
						<path fill="none" stroke="#0A0000" stroke-width="3" stroke-miterlimit="10" d="M206.297,149.6c3.9-5.2,10.3-9.5,13.6-11.2
							c1.7-0.9,5.4-0.5,5.4-0.5"/>
						<path fill="none" stroke="#0A0000" stroke-width="3" stroke-miterlimit="10" d="M222.697,191.1c-5.7,0-20.8-15.5-20.7-30.3
							c0-4.1,1.7-7.7,3.9-10.9"/>
						<path fill="none" stroke="#000000" stroke-width="3" stroke-miterlimit="10" d="M199.097,125.7c-6.8,20.5-25.7,35.3-47.7,35.3
							c-26.2,0-47.8-21-50.3-47.7c-0.2-1.6-0.2-3.3-0.2-4.9c0-29,22.6-52.5,50.5-52.5s50.5,23.5,50.5,52.5
							C201.897,114.4,200.997,120.1,199.097,125.7"/>
						<path fill="none" stroke="#000000" stroke-width="3" stroke-miterlimit="10" d="M120.597,109.4c0-0.5,0-0.8,0-1.3
							c0-17.8,13.9-32,30.8-32s30.8,14.4,30.8,32c0,0.9,0,1.7-0.2,2.5c-0.2,3.6-1.1,6.9-2.2,10.1"/>
						<path fill="none" stroke="#000000" stroke-width="3" stroke-miterlimit="10" d="M206.597,149.2c0,0-0.2,0.5-0.8,0.9
							c-4.6,5.5-27.9,31.9-66.9,20.4c-27.3-8.2-52.5-40.6-47.8-72.3c2.7-17,13.9-33.9,38.2-46.9c2.1-1.3,4.4-2.2,6.6-3.3
							c15.5-7.1,27.8-5.7,37.9-1.7c1.7,0.8,3.5,1.6,5.2,2.4c36.9,18.3,40.9,89.9,40.9,89.9"/>
						<polyline fill="none" stroke="#000000" stroke-width="3" stroke-miterlimit="10" points="105.497,1.5 166.397,3.4 
							222.697,5.1 						"/>
						<line fill="none" stroke="#000000" stroke-width="3" stroke-miterlimit="10" x1="132.797" y1="19.3" x2="105.497" y2="1.5"/>
						<line fill="none" stroke="#000000" stroke-width="3" stroke-miterlimit="10" x1="169.697" y1="43" x2="132.797" y2="19.3"/>
						<line fill="none" stroke="#000000" stroke-width="3" stroke-miterlimit="10" x1="173.997" y1="45.8" x2="169.697" y2="43"/>
						<path fill="none" stroke="#000000" stroke-width="3" stroke-miterlimit="10" d="M106.097,1.5c0,0,0,0-0.6,0
							c0.6,0.9,24.9,39.9,15,33.6c-15-9.5-61.4-3.9-61.4-3.9l46.2,20.5l-40.6,5.2c0,0,21.1,3.8,27.9,12c0,0,0,0.2-0.2,0.5
							c0,0,0,0.2-0.2,0.2c-1.1,2.2-5.5,10.3-8.5,17.8c-0.9,2.4-1.7,4.6-2.2,6.5"/>
						<path fill="none" stroke="#000000" stroke-width="3" stroke-miterlimit="10" d="M147.597,506.7c-20.8-13.3-37.4-32-50.5-53
							c-29-46.9-40.7-105.1-42.4-141.9c-2.2-51.1,10.9-90.7,44-123.4"/>
						<path fill="none" stroke="#000000" stroke-width="3" stroke-miterlimit="10" d="M222.697,526.1c-4.7,0-9.5-0.2-14-0.6
							c-0.2,0-0.3,0-0.3,0"/>
						<path fill="none" stroke="#000000" stroke-width="3" stroke-miterlimit="10" d="M95.897,454.7h-0.2"/>
						<path fill="none" stroke="#000000" stroke-width="3" stroke-miterlimit="10" d="M87.497,169.2c0,0-3.9,2.8-10.3,8.4
							c-24.1,20.7-82.2,79.2-75.1,156.8c0.6,6.9,1.7,13.9,3.6,21.1c21.5,88.7,88.5,98.9,90.1,98.9l0,0"/>
						<path fill="none" stroke="#000000" stroke-width="3" stroke-miterlimit="10" d="M208.497,525.7c-1.6,7.6-5.4,14-9.9,17.4
							l-12.8-18.8l-12.1,18.8l-13.1-23l-9.9,16.4c-4.1-3-7.1-8.7-7.1-15c0-3.9,0.8-7.7,2.1-11c0.3-1.3,0.9-2.2,1.6-3.3
							c5.5-10.3,17-16.7,30.5-17c20.2-0.5,28.9,10.1,30.9,22.1l0,0C209.797,516.4,209.497,521.1,208.497,525.7z"/>
						<polyline fill="none" stroke="#000000" stroke-width="3" stroke-miterlimit="10" points="87.797,268 102.497,290.4 
							117.597,268 						"/>
						<polyline fill="none" stroke="#000000" stroke-width="3" stroke-miterlimit="10" points="118.097,323.4 131.197,345.6 
							143.997,325.4 						"/>
						<polyline fill="none" stroke="#000000" stroke-width="3" stroke-miterlimit="10" points="169.397,293.7 182.497,316.1 
							199.197,293.7 						"/>
						<polyline fill="none" stroke="#000000" stroke-width="3" stroke-miterlimit="10" points="180.897,378.6 195.797,404.2 
							210.697,378.6 						"/>
						<polyline fill="none" stroke="#000000" stroke-width="3" stroke-miterlimit="10" points="102.497,408.4 116.097,430.7 
							132.797,408.4 						"/>
						<polyline fill="none" stroke="#000000" stroke-width="3" stroke-miterlimit="10" points="169.397,447.9 182.497,470.1 
							199.197,447.9 						"/>
						<path fill="none" stroke="#000000" stroke-width="3" stroke-miterlimit="10" d="M132.797,19.3L132.797,19.3"/>
						<g id="outlines_2_">
							<path fill="none" stroke="#000000" stroke-width="3" stroke-miterlimit="10" d="M351.497,69.3c-0.9-1.4-2.1-2.8-3.5-3.9"/>
							<path fill="none" stroke="#000000" stroke-width="3" stroke-miterlimit="10" d="M362.397,93.6c-0.6-2.2-1.3-4.4-2.2-6.5"/>
							<ellipse fill="none" stroke="#000000" stroke-width="3" stroke-miterlimit="10" cx="292.797" cy="108.2" rx="30.8" ry="32"/>
							<path fill="none" stroke="#000000" stroke-width="3" stroke-miterlimit="10" d="M221.497,246.5c52.2-0.2,98-23.5,123.6-58.1
								c4.6-6.2,8.4-12.5,11.5-19.1c6.6-14,10.3-29.2,10.3-45.3c0-10.4-1.6-20.7-4.6-30.5"/>
							<path fill="none" stroke="#0A0000" stroke-width="3" stroke-miterlimit="10" d="M238.197,150.1c-3.9-5.2-10.6-9.9-13.9-11.7
								c-1.7-0.9-2.8-1.4-2.8-1.4"/>
							<path fill="none" stroke="#0A0000" stroke-width="3" stroke-miterlimit="10" d="M221.497,191.1c5.7,0,20.8-15.5,20.7-30.3
								c0-4.1-1.7-7.7-3.9-10.9"/>
							<path fill="none" stroke="#000000" stroke-width="3" stroke-miterlimit="10" d="M245.097,125.7c6.8,20.5,25.7,35.3,47.7,35.3
								c26.4,0,47.8-21,50.3-47.7c0.2-1.6,0.2-3.3,0.2-4.9c0-29-22.6-52.5-50.5-52.5s-50.5,23.5-50.5,52.5
								C242.297,114.4,243.197,120.1,245.097,125.7"/>
							<path fill="none" stroke="#000000" stroke-width="3" stroke-miterlimit="10" d="M323.697,109.4c0-0.5,0-0.8,0-1.3
								c0-17.8-13.9-32-30.8-32s-30.8,14.4-30.8,32c0,0.9,0,1.7,0.2,2.5c0.2,3.6,1.1,6.9,2.2,10.1"/>
							<path fill="none" stroke="#000000" stroke-width="3" stroke-miterlimit="10" d="M237.597,149.2c0,0,0.2,0.5,0.8,0.9
								c4.6,5.5,27.9,31.9,66.9,20.4c27.3-8.2,52.5-40.6,47.8-72.3c-2.7-17-13.9-33.9-38-46.9c-2.1-1.3-4.4-2.2-6.6-3.3
								c-15.5-7.1-27.8-5.7-37.9-1.7c-1.7,0.8-3.5,1.6-5.2,2.4c-37,18.3-40.9,89.9-40.9,89.9"/>
							<polyline fill="none" stroke="#000000" stroke-width="3" stroke-miterlimit="10" points="338.697,1.5 277.997,3.4 
								221.497,5.1 							"/>
							<line fill="none" stroke="#000000" stroke-width="3" stroke-miterlimit="10" x1="311.397" y1="19.3" x2="338.697" y2="1.5"/>
							<line fill="none" stroke="#000000" stroke-width="3" stroke-miterlimit="10" x1="274.797" y1="43" x2="311.397" y2="19.3"/>
							<line fill="none" stroke="#000000" stroke-width="3" stroke-miterlimit="10" x1="270.397" y1="45.8" x2="274.797" y2="43"/>
							<path fill="none" stroke="#000000" stroke-width="3" stroke-miterlimit="10" d="M338.197,1.5c0,0,0,0,0.6,0
								c-0.6,0.9-24.9,39.9-15,33.6c15-9.5,61.4-3.9,61.4-3.9l-46.2,20.5l40.6,5.2c0,0-21.1,3.8-27.9,12c0,0,0,0.2,0.2,0.5
								c0,0,0,0.2,0.2,0.2c1.1,2.2,5.5,10.3,8.5,17.8c0.9,2.4,1.7,4.6,2.2,6.5"/>
							<path fill="none" stroke="#000000" stroke-width="3" stroke-miterlimit="10" d="M296.597,506.7c20.8-13.3,37.4-32,50.5-53
								c29-46.9,40.7-105.1,42.1-141.9c2.2-51.1-10.9-90.7-44-123.4"/>
							<path fill="none" stroke="#000000" stroke-width="3" stroke-miterlimit="10" d="M221.497,526.1c4.7,0,9.5-0.2,14-0.6
								c0.2,0,0.3,0,0.3,0"/>
							<path fill="none" stroke="#000000" stroke-width="3" stroke-miterlimit="10" d="M348.297,454.7h0.2"/>
							<path fill="none" stroke="#000000" stroke-width="3" stroke-miterlimit="10" d="M356.697,169.2c0,0,3.9,2.8,10.3,8.4
								c24.1,20.7,82.2,79.4,75.1,156.8c-0.6,6.9-1.7,13.9-3.5,21.1c-21.5,88.7-88.5,98.9-90.1,98.9l0,0"/>
							<path fill="none" stroke="#000000" stroke-width="3" stroke-miterlimit="10" d="M235.497,525.7c1.6,7.6,5.4,14,9.9,17.4
								l12.8-18.8l12.1,18.8l13.1-23l9.9,16.4c4.1-3,7.1-8.7,7.1-15c0-3.9-0.8-7.7-2.1-11c-0.3-1.3-0.9-2.2-1.6-3.3
								c-5.5-10.3-17-16.7-30.5-17c-20.2-0.5-28.9,10.1-30.9,22.1l0,0C234.397,516.4,234.597,521.1,235.497,525.7z"/>
							<polyline fill="none" stroke="#000000" stroke-width="3" stroke-miterlimit="10" points="356.397,268 341.697,290.4 
								326.897,268 							"/>
							<polyline fill="none" stroke="#000000" stroke-width="3" stroke-miterlimit="10" points="326.097,323.4 313.197,345.6 
								300.197,325.4 							"/>
							<polyline fill="none" stroke="#000000" stroke-width="3" stroke-miterlimit="10" points="274.797,293.7 261.897,316.1 
								245.097,293.7 							"/>
							<polyline fill="none" stroke="#000000" stroke-width="3" stroke-miterlimit="10" points="263.297,378.6 248.497,404.2 
								233.597,378.6 							"/>
							<polyline fill="none" stroke="#000000" stroke-width="3" stroke-miterlimit="10" points="341.697,408.4 328.297,430.7 
								311.597,408.4 							"/>
							<polyline fill="none" stroke="#000000" stroke-width="3" stroke-miterlimit="10" points="274.797,447.9 261.897,470.1 
								245.097,447.9 							"/>
							<path fill="none" stroke="#000000" stroke-width="3" stroke-miterlimit="10" d="M311.397,19.3L311.397,19.3"/>
						</g>
					</g>
				</g>
			</g>
		</g>
	</g>
	<g id="top_1_">
		<g id="eye_lens_3_">
			<path id="eye_lens_2_3_" fill="#FFFFFF" d="M145.597,72.6c3.5,4.1,0.6,15.5-6.6,20.4c-7.4,4.9-13.7,5.7-17.4,1.7
				c-3.5-4.1-3.2-10.9,5.7-18.3C134.097,70.4,142.097,68.5,145.597,72.6z"/>
			<path id="eye_lens_1_3_" fill="#FFFFFF" d="M134.997,102.6c1.6,1.7,0.2,6.2-1.7,7.9c-1.9,1.7-4.7,1.7-6.3,0s-1.1-4.7,0.8-6.5
				C129.797,102.4,133.597,100.9,134.997,102.6z"/>
		</g>
		<g id="eye_lens_2_">
			<path id="eye_lens_2_2_" fill="#FFFFFF" d="M288.097,72.6c3.5,4.1,0.6,15.5-6.6,20.4c-7.4,4.9-13.7,5.7-17.4,1.7
				c-3.6-3.9-3.2-10.9,5.7-18.3C276.697,70.4,284.597,68.5,288.097,72.6z"/>
			<path id="eye_lens_1_2_" fill="#FFFFFF" d="M275.797,102.6c1.6,1.7,0.2,6.2-1.7,7.9c-1.9,1.7-4.7,1.7-6.3,0s-1.1-4.7,0.8-6.5
				C270.397,102.4,274.197,100.9,275.797,102.6z"/>
		</g>
	</g>
</g>
<g id="Vrstva_2_1_">
	<g>
		<title>Layer 1</title>
		<path id="svg_2_1_" stroke="#000000" stroke-width="4" d="M293.397,179.9h-0.3v0.3h-0.3l0,0v0.3l0,0l0,0h-0.3l0,0v0.3h-0.3l0,0
			v0.3h-0.5h-0.2v-0.4l0.3-0.3v-0.3v-0.3h0.3l0,0v-0.1h0.3l0,0v-0.3l0,0l0,0l0.3-0.3l0.3-0.3l0,0l0,0v-0.3c0,0,0.3-0.2,0.8-0.5
			c0.4-0.5,1.3-1.2,2.7-1.9s3-1.1,4.6-1.1c1.8,0,3.3,0.3,4.4,0.8c1.3,0.5,2.6,1.4,4.1,2.5c1.3,1.1,2.5,2.5,3.8,4.1s2.2,3.4,2.7,5.2
			c0.5,2,0.8,4,0.8,6c0,2.2-0.3,4.2-0.8,6c-0.5,2-1.5,4-3,6c-1.1,2-2.4,3.6-3.8,4.9c-1.5,1.3-3.4,2.5-5.7,3.8
			c-2.4,1.5-5.1,2.5-8.2,3.3c-3.1,1.1-6.5,1.8-10.1,2.2c-3.5,0.4-7.5,0.4-12,0c-4.7,0-9.6-0.5-14.7-1.6c-5.1-1.1-9.8-2.4-14.2-3.8
			c-4.4-1.5-8.2-3.1-11.5-4.9c-3.1-1.8-5.5-3.5-7.1-4.9c-1.8-1.5-2.9-2.3-3.3-2.5s-0.9,0-1.6,0.5c-0.5,0.5-2,1.7-4.4,3.5
			s-5.2,3.5-8.5,4.9c-3.3,1.5-7.2,2.9-11.7,4.4c-4.4,1.5-9.3,2.6-14.7,3.5c-5.5,0.9-10,1.5-13.6,1.6c-3.5,0.2-6,0.1-7.6-0.3
			c-1.6,0-4.2-0.5-7.6-1.4c-3.6-0.9-6.7-1.9-9.3-3c-2.4-1.1-4.4-2.2-6-3.3c-1.6-1.5-3.1-3-4.4-4.6c-1.5-1.8-2.5-3.8-3.3-6
			c-0.7-2.2-1.2-4.5-1.4-6.8c-0.2-2.2-0.1-4,0.3-5.5c0.4-1.3,0.9-2.8,1.6-4.6c1.1-1.8,1.9-3,2.5-3.5c0.7-0.7,1.1-1.2,1.1-1.4
			s0.2-0.4,0.5-0.5c0.4-0.2,1.4-0.7,3-1.6s3.5-1.4,5.5-1.4c2.2,0,4,0.3,5.5,0.8l2.2,0.8v0.3l0,0h0.3v0.3l0,0h0.3l0,0l0,0l0.3,0.3
			l0.3,0.3l0,0l0,0h0.3l0,0v0.3h0.3v0.3v0.3h-0.5l-0.8-0.3h-0.6h-0.3v-0.3h-0.3l0,0v-0.3h-1.1c-0.5-0.4-1.5-0.5-3-0.3
			s-2.7,0.6-3.8,1.4c-0.9,0.9-1.7,2-2.5,3.3c-0.7,1.3-1.1,3.1-1.1,5.5c0,2.5,0.4,4.3,1.1,5.2c0.5,0.9,1.3,1.6,2.2,2.2
			c0.9,0.5,2.2,0.8,3.8,0.8c1.8,0,4-0.5,6.5-1.6c2.7-1.1,6.2-2.8,10.4-5.2c4.4-2.4,8.6-4.8,12.8-7.4c4.4-2.5,8.1-4.5,11.2-6
			c3.3-1.5,6-2.4,8.2-2.7c2.4-0.7,5-1,7.9-0.8s5.7,0.6,8.5,1.4c2.7,1.1,5.1,2.3,7.1,3.5c2.2,1.3,3.4,2,3.5,2.2s1.3-0.5,3.3-1.9
			c2-1.5,4.4-2.5,7.1-3.3c2.7-1.1,4.7-1.6,6-1.6c1.3-0.4,3.5-0.5,6.8-0.3s6.2,0.5,8.7,1.1c2.4,0.5,5.3,1.7,8.7,3.5
			c3.5,1.8,8.5,4.9,15,9.3s11,6.9,13.4,7.6c2.2,1.1,4.3,1.6,6.3,1.6s3.7-0.4,5.2-1.1s2.5-1.5,3.3-2.2c0.7-0.9,1.1-2.5,1.1-4.6
			s-0.4-3.9-1.1-5.2c-0.7-1.3-1.5-2.4-2.5-3.3c-0.9-0.7-1.7-1.3-2.5-1.6c-0.9-0.4-2-0.5-3.3-0.5c-1.1,0-2,0.3-2.7,0.8
			C293.897,179.6,293.597,179.9,293.397,179.9z"/>
	</g>
</g>
</svg>
