<?xml version="1.0" encoding="utf-8"?>
<!-- Generator: Adobe Illustrator 18.1.1, SVG Export Plug-In . SVG Version: 6.00 Build 0)  -->
<!DOCTYPE svg PUBLIC "-//W3C//DTD SVG 1.1//EN" "http://www.w3.org/Graphics/SVG/1.1/DTD/svg11.dtd">
<svg version="1.1" id="Vrstva_1" xmlns="http://www.w3.org/2000/svg" xmlns:xlink="http://www.w3.org/1999/xlink" x="0px" y="0px"
	 viewBox="0 0 960 560" enable-background="new 0 0 960 560" xml:space="preserve">
<g id="Vrstva_1_2_">
	<g id="Vrstva_1_1_" display="none">
		<path display="inline" fill="none" stroke="#000000" stroke-miterlimit="10" d="M478.5,12.6"/>
		<rect x="93.8" y="-275.4" display="inline" fill="none" stroke="#0A0000" stroke-miterlimit="10" width="772.4" height="974.5"/>
	</g>
	<g id="base">
		<path fill="#AF8C69" d="M479.1,256c52.2-0.2,98-23.5,123.6-58.1l0.2,0.2c33.3,32.8,46.4,72.1,44,123.4
			c-1.7,36.8-13.1,95.1-42.1,141.9c-13.1,21-29.7,39.8-50.5,53l0,0c-5.5-10.3-17-16.7-30.5-17c-20.2-0.5-28.9,10.1-30.9,22.1l0,0
			c-0.8,4.6-0.6,9.3,0.3,13.9c-4.6,0.5-9.3,0.6-14,0.6s-9.5-0.2-14-0.6c0.9-4.6,1.1-9.3,0.3-13.9l0,0c-2.1-12-10.9-22.6-30.9-22.1
			c-13.3,0.2-24.9,6.8-30.5,17l0,0c-20.8-13.3-37.4-32-50.5-53c-29-46.9-40.7-105.1-42.4-141.9c-2.2-51.1,10.9-90.7,44-123.4
			l0.2-0.2C381,232.7,426.8,255.9,479.1,256z"/>
	</g>
	<g id="mirror">
		<g>
			<g>
				<g id="XMLID_13_">
					<g id="fill_x5F_bottom_12_">
						<path fill="#C4731A" d="M434.5,499.2c27.8-0.6,34.1,19.7,30.6,36c-1.6,7.6-5.4,14-9.9,17.4l-12.8-18.8l-12.1,18.8l-12.9-23
							l-9.9,16.4c-4.1-3-7.1-8.7-7.1-15c0-5.4,1.3-10.3,3.6-14.4C409.7,506,421.1,499.3,434.5,499.2z"/>
						<path fill="#AF8C69" d="M479.1,499.2v36.6c-4.7,0-9.5-0.2-14-0.6c3.5-16.3-3-36.6-30.6-36c-13.3,0.2-24.8,6.8-30.5,17l0,0
							c-20.8-13.3-37.4-32-50.5-53c-29-46.9-40.7-105.1-42.4-141.9c-2.2-51.1,10.9-90.7,44-123.4l0.2-0.2
							c25.7,34.7,71.5,57.9,123.6,58.1v36.4c0,0-68,5.5-80.3-15.1c-16.6-27.5-40.6-35-62.6-23c-27.6,14.7,1.1,177.8,22.2,193
							c27.6,19.7,42.9-0.8,62.3,21.1C438.6,488.8,455.6,488.5,479.1,499.2z"/>
						<path fill="#42210B" d="M395.5,180c38.8,11.5,62.3-14.7,66.9-20.4c-2.2,3.2-3.8,6.8-3.9,10.9c-0.2,14.8,15,30.3,20.7,30.3V256
							c-52.2-0.2-98-23.5-123.6-58.1c-4.4-6.2-8.4-12.5-11.4-19.1c-6.6-14-10.3-29.2-10.3-45.3c0-10.4,1.6-20.7,4.6-30.5
							c0.6-2.2,1.3-4.4,2.2-6.5c3-7.3,7.4-15.5,8.5-17.8c0,0,0-0.2,0.2-0.2c0.2-0.2,0.2-0.5,0.2-0.5c-6.8-8.4-27.9-12-27.9-12
							l40.6-5.2l-46.5-20.4c0,0,46.2-5.5,61.4,3.9c9.9,6.3-14.5-32.7-15-33.6l68.5,44.2l-0.2,0.5c-10.3-3.9-22.4-5.4-37.9,1.7
							c-2.2,0.9-4.6,2.2-6.6,3.3C316.5,97.8,353.5,167.5,395.5,180z"/>
						<path fill="#C7B299" d="M479.1,14.6v131.9c0,0-1.1,0.6-2.8,1.4c0,0-3.9-71.5-40.9-89.9c-1.7-0.8-3.5-1.6-5.2-2.4l0.2-0.5
							L361.9,11l0,0l60.7,1.7L479.1,14.6z"/>
						<path fill="#EFDECE" d="M395.5,180c-42.1-12.5-79.2-82.4-9.6-119.1c2.1-1.3,4.4-2.2,6.6-3.3c15.5-7.1,27.8-5.7,37.9-1.7
							c1.7,0.8,3.6,1.6,5.2,2.4c36.9,18.3,40.9,89.9,40.9,89.9c-3.5,1.7-9.2,5.5-13.1,10.7c0,0-0.2,0.5-0.8,0.9
							C457.8,165.3,434.5,191.7,395.5,180z M455.6,135.2C455.6,135.2,455.6,134.8,455.6,135.2c1.9-5.5,2.8-11.2,2.8-17.2
							c0-29-22.6-52.5-50.5-52.5S357.4,89,357.4,118s22.6,52.5,50.5,52.5C430.1,170.5,448.8,155.7,455.6,135.2z"/>
						<path fill="#42210B" d="M407.8,85.8c-17,0-30.8,14.4-30.8,32c0,17.8,13.9,32,30.8,32c17,0,30.8-14.4,30.8-32
							C438.7,100.1,424.9,85.8,407.8,85.8z M357.3,117.7c0-29,22.6-52.5,50.5-52.5s50.5,23.5,50.5,52.5c0,6.2-0.9,11.8-2.8,17.2
							c0,0,0,0,0,0.2c-6.8,20.5-25.7,35.3-47.7,35.3C379.9,170.5,357.3,146.7,357.3,117.7z"/>
						<path fill="#0F0602" d="M377,117.7c0-17.8,13.9-32,30.8-32c17,0,30.8,14.4,30.8,32c0,17.8-13.9,32-30.8,32
							C390.9,150,377,135.5,377,117.7z"/>
						<path fill="#42210B" d="M262.2,365.1c-26.4-109,82.1-186.4,82.1-186.4c3.2,6.8,7.1,13.1,11.4,19.1l-0.2,0.2
							c-33.3,32.8-46.4,72.3-44.2,123.4c1.7,36.8,13.1,95.1,42.4,141.9l-1.1,0.8l0,0C350.9,464.2,283.8,453.7,262.2,365.1z"/>
						<path fill="#FBB03B" d="M479.1,146.5v54.3c-5.7,0-20.8-15.5-20.7-30.3c0-4.1,1.7-7.7,3.9-10.9c0.6-0.6,0.8-0.9,0.8-0.9
							c3.9-5.2,9.9-8.8,13.1-10.7C478.2,147,479.1,146.5,479.1,146.5z"/>
						<path fill="#51260E" d="M348.6,79.6c0.2-0.2,0.2-0.5,0.3-0.6c-1.1,2.2-5.5,10.3-8.5,17.8C342.8,90.8,345.5,85.1,348.6,79.6z"
							/>
						<g id="fill_x5F_bottom_15_">
							<path fill="#C4731A" d="M522.5,499.2c-27.8-0.6-34.1,19.7-30.6,36c1.6,7.6,5.4,14,9.9,17.4l12.8-18.8l12.1,18.8l12.9-23
								l9.9,16.4c4.1-3,7.1-8.7,7.1-15c0-5.4-1.3-10.3-3.6-14.4C547.3,506,535.9,499.3,522.5,499.2z"/>
							<path fill="#AF8C69" d="M477.9,499.2v36.6c4.7,0,9.5-0.2,14-0.6c-3.5-16.3,3-36.6,30.6-36c13.3,0.2,24.8,6.8,30.5,17l0,0
								c20.8-13.3,37.4-32,50.5-53c29-46.9,40.7-105.1,42.4-141.9c2.2-51.1-10.9-90.7-44-123.4l-0.2-0.2
								c-25.7,34.7-71.5,57.9-123.6,58.1v36.4c0,0,68,5.5,80.3-15.1c16.6-27.5,40.6-35,62.6-23c27.6,14.7-1.1,177.8-22.2,193
								c-27.3,19.7-42.9-0.8-62.3,21.1C518.6,488.8,501.4,488.5,477.9,499.2z"/>
							<path fill="#42210B" d="M561.5,180c-38.8,11.5-62.3-14.7-66.9-20.4c2.2,3.2,3.8,6.8,3.9,10.9c0.2,14.8-15,30.3-20.7,30.3V256
								c52.2-0.2,98-23.5,123.6-58.1c4.6-6.2,8.4-12.5,11.5-19.1c6.6-14,10.3-29.2,10.3-45.3c0-10.4-1.6-20.7-4.6-30.5
								c-0.6-2.2-1.3-4.4-2.2-6.5c-2.8-7.3-7.4-15.5-8.5-17.8c0,0,0-0.2-0.2-0.2c-0.2-0.2-0.2-0.5-0.2-0.5c6.8-8.4,27.9-12,27.9-12
								l-40.6-5.2L641,40.3c0,0-46.2-5.5-61.4,3.9c-9.9,6.3,14.5-32.7,15-33.6l-68.5,44.2l0.2,0.5c10.3-3.9,22.4-5.4,37.9,1.7
								c2.2,0.9,4.6,2.2,6.6,3.3C640.7,97.8,603.8,167.5,561.5,180z"/>
							<path fill="#C7B299" d="M473.9,14.6l3.9,131.9c0,0,1.1,0.6,2.8,1.4c0,0,3.9-71.5,40.9-89.9c1.7-0.8,3.5-1.6,5.2-2.4l-0.2-0.5
								L595,10.9l0,0l-61.1,1.7L473.9,14.6z"/>
							<path fill="#EFDECE" d="M561.5,180c42.1-12.5,79.2-82.4,9.6-119.1c-2.1-1.3-4.4-2.2-6.6-3.3c-15.5-7.1-27.8-5.7-37.9-1.7
								c-1.7,0.8-3.6,1.6-5.2,2.4c-36.9,18.3-40.9,89.9-40.9,89.9c3.5,1.7,9.2,5.5,13.1,10.7c0,0,0.2,0.5,0.8,0.9
								C499.2,165.3,522.8,191.7,561.5,180z M501.5,135.2C501.4,135.2,501.4,134.8,501.5,135.2c-1.9-5.5-2.8-11.2-2.8-17.2
								c0-29,22.6-52.5,50.5-52.5S599.7,89,599.7,118s-22.6,52.5-50.5,52.5C527.1,170.5,508.3,155.7,501.5,135.2z"/>
							<path fill="#42210B" d="M549.2,85.8c17,0,30.8,14.4,30.8,32c0,17.8-13.9,32-30.8,32c-17,0-30.8-14.4-30.8-32
								S532.2,85.8,549.2,85.8z M599.7,117.7c0-29-22.6-52.5-50.5-52.5s-50.5,23.5-50.5,52.5c0,6.2,0.9,11.8,2.8,17.2c0,0,0,0,0,0.2
								c6.8,20.5,25.7,35.3,47.7,35.3C577.1,170.5,599.7,146.7,599.7,117.7z"/>
							<path fill="#0F0602" d="M580,117.7c0-17.8-13.9-32-30.8-32c-17,0-30.8,14.4-30.8,32c0,17.8,13.9,32,30.8,32
								C566.2,150,580,135.5,580,117.7z"/>
							<path fill="#42210B" d="M694.8,365.1c26.4-109-81.7-186.4-81.7-186.4c-3.2,6.8-7.1,13.1-11.5,19.1l0.2,0.2
								c33.3,32.7,46.5,72.1,44,123.2c-1.7,36.8-13.1,95.1-42.4,141.9l1.1,0.8l0,0C606.5,464.2,673.5,453.7,694.8,365.1z"/>
							<path fill="#FBB03B" d="M477.9,146.5v54.3c5.7,0,20.8-15.5,20.7-30.3c0-4.1-1.7-7.7-3.9-10.9c-0.6-0.6-0.8-0.9-0.8-0.9
								c-3.9-5.2-9.9-8.8-13.1-10.7C479.1,147,477.9,146.5,477.9,146.5z"/>
							<path fill="#51260E" d="M608.4,79.6c-0.2-0.2-0.2-0.5-0.3-0.6c1.1,2.2,5.7,10.3,8.5,17.8C614.4,90.8,611.5,85.1,608.4,79.6z"
								/>
						</g>
						<path fill="#C7B299" d="M595,373.6c-5.5,62.5-53.2,113.6-118.8,113.6s-116-51-118.8-113.6c-4.9-108.6,53.2-101,118.8-101
							S604.4,267.1,595,373.6z"/>
					</g>
					<g id="fill_x5F_top_12_">
						<path display="none" fill="#AF8C69" d="M479.1,499.2v36.6c-4.7,0-9.5-0.2-14-0.6c0.9-4.6,1.1-9.3,0.3-13.9l0,0
							c-2.1-12-10.9-22.6-30.9-22.1c-13.3,0.2-24.9,6.8-30.5,17l0,0c-20.8-13.3-37.4-32-50.5-53c-29-46.9-40.7-105.1-42.4-141.9
							c-2.2-51.1,10.9-90.7,44-123.4l0.2-0.2c25.7,34.7,71.3,57.9,123.6,58.1v243.3L479.1,499.2L479.1,499.2z"/>
						<path fill="#C4731A" d="M479.1,147v54c-5.7,0-20.8-15.5-20.7-30.3c0-4.1,1.7-7.7,3.9-10.9c0.6-0.6,0.8-0.9,0.8-0.9
							c3.9-5.2,9.9-8.8,13.1-10.7C477.9,147,479.1,147,479.1,147z"/>
						<path fill="#AF8C69" d="M479.1,69.7l2.5,1.6l-2.2,74.8c0,0-1.7,0.9-3.5,1.9c0,0-3.9-68.5-40.9-86.9c-1.7-0.8-3.5-1.6-5.2-2.4
							l0.2-0.5l-4.4-2.8"/>
						<path fill="#EFDECE" d="M455.5,135.2C455.5,135.2,455.6,134.8,455.5,135.2c1.9-5.5,2.8-11.2,2.8-17.2
							c0-29-22.6-52.5-50.5-52.5S357.3,89,357.3,118c0,1.7,0,3.3,0.2,4.9c2.5,26.7,24.1,47.7,50.3,47.7
							C429.9,170.5,448.7,155.7,455.5,135.2z M347.5,107.7c2.7-17,13.9-33.9,38.2-46.9c2.1-1.3,4.4-2.2,6.6-3.3
							c15.5-7.1,27.8-5.7,37.9-1.7c1.7,0.8,3.5,1.6,5.2,2.4c36.9,18.3,40.9,89.9,40.9,89.9c-3.5,1.7-9.2,5.5-13.1,10.7
							c0,0-0.2,0.5-0.8,0.9c-4.6,5.5-27.9,31.9-66.9,20.4C368.1,171.8,342.8,139.4,347.5,107.7z"/>
						<path fill="#C4731A" d="M464.9,535.2c-1.6,7.6-5.4,14-9.9,17.4l-12.8-18.8l-12.1,18.8l-13.1-23l-9.9,16.4
							c-4.1-3-7.1-8.7-7.1-15c0-3.9,0.8-7.7,2.1-11c0,0,11.5-8.4,19.6-8.4c18.5,0,24.1,11.5,33.6,11.5c5.7,0,9-1.4,9-1.4l0.8-0.2
							l0,0C466.2,525.9,465.9,530.6,464.9,535.2z"/>
						<path fill="#51260E" d="M445.8,121.1c3.9,0.9,10.1,11,9.6,14c0,0,0,0,0,0.2c-6.8,20.5-25.7,35.3-47.7,35.3
							c-26.2,0-47.8-21-50.3-47.7h0.8c0,0,9.9-16.4,12.1-15.9s6.5,12,6.5,12l0,0c0.6,17.2,14.2,31.1,30.8,31.1
							c12.8,0,23.5-8,28.2-19.4l0,0C436.5,129.8,441.9,120,445.8,121.1z"/>
						<path fill="#230F07" d="M438.6,120.5c-0.2,3.6-1.1,6.9-2.2,10.1l0,0c-4.7,11.5-15.6,19.4-28.2,19.4
							c-16.7,0-30.1-13.9-30.8-31.1c0-0.5,0-0.8,0-1.3c0,0,9.6-1.6,14.7,12.5c5.2,14.2,27.6,11.2,32.3,4.4
							C429,127.6,434.2,120.5,438.6,120.5z"/>
						<path fill="#51260E" d="M349.1,78.8c0.2-0.2,0.2-0.5,0.2-0.5c-6.8-8.4-27.9-12-27.9-12l40.6-5.2c0,0,4.1,2.8,6.5-2.4
							c4.6-9.5-52.9-18.3-52.9-18.3s46.2-5.5,61.4,3.9c9.9,6.3-14.5-32.7-15-33.6l27.3,17.5l0,0c0.6,0.8,12.1,17,4.7,23.7
							c-4.7,4.4-8.4,8.4-8.4,8.4c-24.3,12.8-35.5,29.8-38.2,46.9c-0.9-0.2-1.7-0.5-2.5-0.8c-3.9-2.2-6.6-3.6-6.8-3.8
							c0.6-2.2,1.3-4.4,2.2-6.5C343.4,89.2,347.7,81.2,349.1,78.8C349.1,79,349.1,78.8,349.1,78.8z"/>
						<path fill="#51260E" d="M348.6,79.6c0.2-0.2,0.2-0.5,0.3-0.6c-1.1,2.2-5.5,10.3-8.5,17.8C342.6,90.8,345.5,85.1,348.6,79.6z"
							/>
						<path fill="#51260E" d="M333.7,187.1c0,0,5.4,13.1,0,23.4s-38.2,61.9-36.3,94.4c1.9,32.7-38.8,39.1-38.8,39.1
							C251.4,266.3,309.5,207.7,333.7,187.1z"/>
						<g id="fill_x5F_top_15_">
							<path display="none" fill="#AF8C69" d="M477.9,499.2v36.6c4.7,0,9.5-0.2,14-0.6c-0.9-4.6-1.1-9.3-0.3-13.9l0,0
								c2.1-12,10.9-22.6,30.9-22.1c13.3,0.2,24.9,6.8,30.5,17l0,0c20.8-13.3,37.4-32,50.5-53c29-46.9,40.7-105.1,42.1-141.9
								c2.2-51.1-10.9-90.7-44-123.4l-0.2-0.2c-25.7,34.7-71.3,57.9-123.6,58.1L477.9,499.2L477.9,499.2z"/>
							<path fill="#C4731A" d="M477.9,147v54c5.7,0,20.8-15.5,20.7-30.3c0-4.1-1.7-7.7-3.9-10.9c-0.6-0.6-0.8-0.9-0.8-0.9
								c-3.9-5.2-9.9-8.8-13.1-10.7C479.1,147,477.9,147,477.9,147z"/>
							<path fill="#AF8C69" d="M477.6,69.5l0.3,77c0,0,1.1,0.5,2.8,1.4c0,0,3.9-68.5,40.9-86.9c1.7-0.8,3.5-1.6,5.2-2.4l-0.2-0.5
								l4.4-2.8C529.6,56,480.4,71.9,477.6,69.5z"/>
							<path fill="#EFDECE" d="M501.5,135.2C501.5,135.2,501.5,134.8,501.5,135.2c-1.9-5.5-2.8-11.2-2.8-17.2
								c0-29,22.6-52.5,50.5-52.5S599.7,89,599.7,118c0,1.7,0,3.3-0.2,4.9c-2.5,26.7-24,47.7-50.3,47.7
								C527.1,170.5,508.3,155.7,501.5,135.2z M609.5,107.7c-2.7-17-13.9-33.9-38-46.9c-2.1-1.3-4.4-2.2-6.6-3.3
								c-15.5-7.1-27.8-5.7-37.9-1.7c-1.7,0.8-3.5,1.6-5.2,2.4c-37,18.3-40.9,89.9-40.9,89.9c3.5,1.7,9.2,5.5,13.1,10.7
								c0,0,0.2,0.5,0.8,0.9c4.6,5.5,27.9,31.9,66.9,20.4C589.1,171.8,614.4,139.4,609.5,107.7z"/>
							<path fill="#C4731A" d="M491.9,535.2c1.6,7.6,5.4,14,9.9,17.4l12.8-18.8l12.1,18.8l13.1-23l9.9,16.4c4.1-3,7.1-8.7,7.1-15
								c0-3.9-0.8-7.7-2.1-11c0,0-11.5-8.4-19.6-8.4c-18.5,0-24.1,11.5-33.6,11.5c-5.7,0-9-1.4-9-1.4l-0.8-0.2l0,0
								C490.8,525.9,491,530.6,491.9,535.2z"/>
							<path fill="#51260E" d="M511.2,121.1c-3.9,0.9-10.1,11-9.6,14c0,0,0,0,0,0.2c6.8,20.5,25.7,35.3,47.7,35.3
								c26.4,0,47.8-21,50.3-47.7h-0.8c0,0-9.9-16.4-12.1-15.9c-2.2,0.5-6.5,12-6.5,12l0,0c-0.6,17.2-14.2,31.1-30.8,31.1
								c-12.8,0-23.5-8-28.2-19.4l0,0C520.5,129.8,515.1,120,511.2,121.1z"/>
							<path fill="#230F07" d="M518.6,120.5c0.2,3.6,1.1,6.9,2.2,10.1l0,0c4.7,11.5,15.6,19.4,28.2,19.4c16.7,0,30.1-13.9,30.8-31.1
								c0-0.5,0-0.8,0-1.3c0,0-9.6-1.6-14.7,12.5c-5.2,14.2-27.6,11.2-32.3,4.4C528.4,127.6,523,120.5,518.6,120.5z"/>
							<path fill="#51260E" d="M607.9,78.8c-0.2-0.2-0.2-0.5-0.2-0.5c6.8-8.4,27.9-12,27.9-12L595,61.1c0,0-4.1,2.8-6.5-2.4
								c-4.6-9.5,52.9-18.3,52.9-18.3s-46.2-5.5-61.4,3.9c-9.9,6.3,14.5-32.7,15-33.6l-27.3,17.5l0,0c-0.6,0.8-12.1,17-4.7,23.7
								c4.7,4.4,8.4,8.4,8.4,8.4c24.3,12.8,35.5,29.8,38,46.9c0.9-0.2,1.7-0.5,2.5-0.8c3.9-2.2,6.6-3.6,6.8-3.8
								c-0.6-2.2-1.3-4.4-2.2-6.5C613.6,89.2,609.3,81.2,607.9,78.8C608.1,79,607.9,78.8,607.9,78.8z"/>
							<path fill="#51260E" d="M608.5,79.6c-0.2-0.2-0.2-0.5-0.3-0.6c1.1,2.2,5.5,10.3,8.5,17.8C614.4,90.8,611.7,85.1,608.5,79.6z"
								/>
							<path fill="#51260E" d="M623.4,187.1c0,0-5.4,13.1,0,23.4s38.2,61.9,36.3,94.4c-1.9,32.7,38.8,39.3,38.8,39.3
								C705.6,266.3,647.7,207.7,623.4,187.1z"/>
						</g>
					</g>
					<g id="outlines_12_">
						<path fill="none" stroke="#000000" stroke-width="3" stroke-miterlimit="10" d="M349.1,78.8c0.9-1.4,2.1-2.8,3.5-3.9"/>
						<path fill="none" stroke="#000000" stroke-width="3" stroke-miterlimit="10" d="M338.2,103.1c0.6-2.2,1.3-4.4,2.2-6.5"/>
						<ellipse fill="none" stroke="#000000" stroke-width="3" stroke-miterlimit="10" cx="407.8" cy="117.7" rx="30.8" ry="32"/>
						<path fill="none" stroke="#000000" stroke-width="3" stroke-miterlimit="10" d="M479.1,256c-52.2-0.2-98-23.5-123.6-58.1
							c-4.4-6.2-8.4-12.5-11.4-19.1c-6.6-14-10.3-29.2-10.3-45.3c0-10.4,1.6-20.7,4.6-30.5"/>
						<path fill="none" stroke="#0A0000" stroke-width="3" stroke-miterlimit="10" d="M462.7,159.1c3.9-5.2,10.3-9.5,13.6-11.2
							c1.7-0.9,5.4-0.5,5.4-0.5"/>
						<path fill="none" stroke="#0A0000" stroke-width="3" stroke-miterlimit="10" d="M479.1,200.6c-5.7,0-20.8-15.5-20.7-30.3
							c0-4.1,1.7-7.7,3.9-10.9"/>
						<path fill="none" stroke="#000000" stroke-width="3" stroke-miterlimit="10" d="M455.5,135.2c-6.8,20.5-25.7,35.3-47.7,35.3
							c-26.2,0-47.8-21-50.3-47.7c-0.2-1.6-0.2-3.3-0.2-4.9c0-29,22.6-52.5,50.5-52.5s50.5,23.5,50.5,52.5
							C458.3,123.8,457.4,129.6,455.5,135.2"/>
						<path fill="none" stroke="#000000" stroke-width="3" stroke-miterlimit="10" d="M377,118.9c0-0.5,0-0.8,0-1.3
							c0-17.8,13.9-32,30.8-32s30.8,14.4,30.8,32c0,0.9,0,1.7-0.2,2.5c-0.2,3.6-1.1,6.9-2.2,10.1"/>
						<path fill="none" stroke="#000000" stroke-width="3" stroke-miterlimit="10" d="M463,158.7c0,0-0.2,0.5-0.8,0.9
							c-4.6,5.5-27.9,31.9-66.9,20.4c-27.3-8.2-52.5-40.6-47.8-72.3c2.7-17,13.9-33.9,38.2-46.9c2.1-1.3,4.4-2.2,6.6-3.3
							c15.5-7.1,27.8-5.7,37.9-1.7c1.7,0.8,3.5,1.6,5.2,2.4c36.9,18.3,40.9,89.9,40.9,89.9"/>
						<polyline fill="none" stroke="#000000" stroke-width="3" stroke-miterlimit="10" points="361.9,11 422.8,12.9 479.1,14.6 
													"/>
						<line fill="none" stroke="#000000" stroke-width="3" stroke-miterlimit="10" x1="389.2" y1="28.8" x2="361.9" y2="11"/>
						<line fill="none" stroke="#000000" stroke-width="3" stroke-miterlimit="10" x1="426.1" y1="52.5" x2="389.2" y2="28.8"/>
						<line fill="none" stroke="#000000" stroke-width="3" stroke-miterlimit="10" x1="430.4" y1="55.3" x2="426.1" y2="52.5"/>
						<path fill="none" stroke="#000000" stroke-width="3" stroke-miterlimit="10" d="M362.5,11c0,0,0,0-0.6,0
							c0.6,0.9,24.9,39.9,15,33.6c-15-9.5-61.4-3.9-61.4-3.9l46.2,20.5l-40.6,5.2c0,0,21.1,3.8,27.9,12c0,0,0,0.2-0.2,0.5
							c0,0,0,0.2-0.2,0.2c-1.1,2.2-5.5,10.3-8.5,17.8c-0.9,2.4-1.7,4.6-2.2,6.5"/>
						<path fill="none" stroke="#000000" stroke-width="3" stroke-miterlimit="10" d="M404,516.2c-20.8-13.3-37.4-32-50.5-53
							c-29-46.9-40.7-105.1-42.4-141.9c-2.2-51.1,10.9-90.7,44-123.4"/>
						<path fill="none" stroke="#000000" stroke-width="3" stroke-miterlimit="10" d="M479.1,535.5c-4.7,0-9.5-0.2-14-0.6
							c-0.2,0-0.3,0-0.3,0"/>
						<path fill="none" stroke="#000000" stroke-width="3" stroke-miterlimit="10" d="M352.3,464.2h-0.2"/>
						<path fill="none" stroke="#000000" stroke-width="3" stroke-miterlimit="10" d="M343.9,178.7c0,0-3.9,2.8-10.3,8.4
							c-24.1,20.7-82.2,79.2-75.1,156.8c0.6,6.9,1.7,13.9,3.6,21.1c21.5,88.7,88.5,98.9,90.1,98.9l0,0"/>
						<path fill="none" stroke="#000000" stroke-width="3" stroke-miterlimit="10" d="M464.9,535.2c-1.6,7.6-5.4,14-9.9,17.4
							l-12.8-18.8l-12.1,18.8l-13.1-23l-9.9,16.4c-4.1-3-7.1-8.7-7.1-15c0-3.9,0.8-7.7,2.1-11c0.3-1.3,0.9-2.2,1.6-3.3
							c5.5-10.3,17-16.7,30.5-17c20.2-0.5,28.9,10.1,30.9,22.1l0,0C466.2,525.9,465.9,530.6,464.9,535.2z"/>
						<polyline fill="none" stroke="#000000" stroke-width="3" stroke-miterlimit="10" points="344.2,277.5 358.9,299.9 374,277.5 
													"/>
						<polyline fill="none" stroke="#000000" stroke-width="3" stroke-miterlimit="10" points="374.5,332.9 387.6,355.1 
							400.4,334.8 						"/>
						<polyline fill="none" stroke="#000000" stroke-width="3" stroke-miterlimit="10" points="425.8,303.2 438.9,325.6 
							455.6,303.2 						"/>
						<polyline fill="none" stroke="#000000" stroke-width="3" stroke-miterlimit="10" points="437.3,388.1 452.2,413.7 
							467.1,388.1 						"/>
						<polyline fill="none" stroke="#000000" stroke-width="3" stroke-miterlimit="10" points="358.9,417.8 372.5,440.2 
							389.2,417.8 						"/>
						<polyline fill="none" stroke="#000000" stroke-width="3" stroke-miterlimit="10" points="425.8,457.4 438.9,479.6 
							455.6,457.4 						"/>
						<path fill="none" stroke="#000000" stroke-width="3" stroke-miterlimit="10" d="M389.2,28.8L389.2,28.8"/>
						<g id="outlines_15_">
							<path fill="none" stroke="#000000" stroke-width="3" stroke-miterlimit="10" d="M607.9,78.8c-0.9-1.4-2.1-2.8-3.5-3.9"/>
							<path fill="none" stroke="#000000" stroke-width="3" stroke-miterlimit="10" d="M618.8,103.1c-0.6-2.2-1.3-4.4-2.2-6.5"/>
							<ellipse fill="none" stroke="#000000" stroke-width="3" stroke-miterlimit="10" cx="549.2" cy="117.7" rx="30.8" ry="32"/>
							<path fill="none" stroke="#000000" stroke-width="3" stroke-miterlimit="10" d="M477.9,256c52.2-0.2,98-23.5,123.6-58.1
								c4.6-6.2,8.4-12.5,11.5-19.1c6.6-14,10.3-29.2,10.3-45.3c0-10.4-1.6-20.7-4.6-30.5"/>
							<path fill="none" stroke="#0A0000" stroke-width="3" stroke-miterlimit="10" d="M494.6,159.6c-3.9-5.2-10.6-9.9-13.9-11.7
								c-1.7-0.9-2.8-1.4-2.8-1.4"/>
							<path fill="none" stroke="#0A0000" stroke-width="3" stroke-miterlimit="10" d="M477.9,200.6c5.7,0,20.8-15.5,20.7-30.3
								c0-4.1-1.7-7.7-3.9-10.9"/>
							<path fill="none" stroke="#000000" stroke-width="3" stroke-miterlimit="10" d="M501.5,135.2c6.8,20.5,25.7,35.3,47.7,35.3
								c26.4,0,47.8-21,50.3-47.7c0.2-1.6,0.2-3.3,0.2-4.9c0-29-22.6-52.5-50.5-52.5s-50.5,23.5-50.5,52.5
								C498.7,123.8,499.6,129.6,501.5,135.2"/>
							<path fill="none" stroke="#000000" stroke-width="3" stroke-miterlimit="10" d="M580.1,118.9c0-0.5,0-0.8,0-1.3
								c0-17.8-13.9-32-30.8-32s-30.8,14.4-30.8,32c0,0.9,0,1.7,0.2,2.5c0.2,3.6,1.1,6.9,2.2,10.1"/>
							<path fill="none" stroke="#000000" stroke-width="3" stroke-miterlimit="10" d="M494,158.7c0,0,0.2,0.5,0.8,0.9
								c4.6,5.5,27.9,31.9,66.9,20.4c27.3-8.2,52.5-40.6,47.8-72.3c-2.7-17-13.9-33.9-38-46.9c-2.1-1.3-4.4-2.2-6.6-3.3
								c-15.5-7.1-27.8-5.7-37.9-1.7c-1.7,0.8-3.5,1.6-5.2,2.4c-37,18.3-40.9,89.9-40.9,89.9"/>
							<polyline fill="none" stroke="#000000" stroke-width="3" stroke-miterlimit="10" points="595.1,11 534.4,12.9 477.9,14.6 
															"/>
							<line fill="none" stroke="#000000" stroke-width="3" stroke-miterlimit="10" x1="567.8" y1="28.8" x2="595.1" y2="11"/>
							<line fill="none" stroke="#000000" stroke-width="3" stroke-miterlimit="10" x1="531.2" y1="52.5" x2="567.8" y2="28.8"/>
							<line fill="none" stroke="#000000" stroke-width="3" stroke-miterlimit="10" x1="526.8" y1="55.3" x2="531.2" y2="52.5"/>
							<path fill="none" stroke="#000000" stroke-width="3" stroke-miterlimit="10" d="M594.6,11c0,0,0,0,0.6,0
								c-0.6,0.9-24.9,39.9-15,33.6c15-9.5,61.4-3.9,61.4-3.9l-46.2,20.5l40.6,5.2c0,0-21.1,3.8-27.9,12c0,0,0,0.2,0.2,0.5
								c0,0,0,0.2,0.2,0.2c1.1,2.2,5.5,10.3,8.5,17.8c0.9,2.4,1.7,4.6,2.2,6.5"/>
							<path fill="none" stroke="#000000" stroke-width="3" stroke-miterlimit="10" d="M553,516.2c20.8-13.3,37.4-32,50.5-53
								c29-46.9,40.7-105.1,42.1-141.9c2.2-51.1-10.9-90.7-44-123.4"/>
							<path fill="none" stroke="#000000" stroke-width="3" stroke-miterlimit="10" d="M477.9,535.5c4.7,0,9.5-0.2,14-0.6
								c0.2,0,0.3,0,0.3,0"/>
							<path fill="none" stroke="#000000" stroke-width="3" stroke-miterlimit="10" d="M604.7,464.2h0.2"/>
							<path fill="none" stroke="#000000" stroke-width="3" stroke-miterlimit="10" d="M613.1,178.7c0,0,3.9,2.8,10.3,8.4
								c24.1,20.7,82.2,79.4,75.1,156.8c-0.6,6.9-1.7,13.9-3.5,21.1c-21.5,88.7-88.5,98.9-90.1,98.9l0,0"/>
							<path fill="none" stroke="#000000" stroke-width="3" stroke-miterlimit="10" d="M491.9,535.2c1.6,7.6,5.4,14,9.9,17.4
								l12.8-18.8l12.1,18.8l13.1-23l9.9,16.4c4.1-3,7.1-8.7,7.1-15c0-3.9-0.8-7.7-2.1-11c-0.3-1.3-0.9-2.2-1.6-3.3
								c-5.5-10.3-17-16.7-30.5-17c-20.2-0.5-28.9,10.1-30.9,22.1l0,0C490.8,525.9,491,530.6,491.9,535.2z"/>
							<polyline fill="none" stroke="#000000" stroke-width="3" stroke-miterlimit="10" points="612.8,277.5 598.1,299.9 
								583.3,277.5 							"/>
							<polyline fill="none" stroke="#000000" stroke-width="3" stroke-miterlimit="10" points="582.5,332.9 569.6,355.1 
								556.6,334.8 							"/>
							<polyline fill="none" stroke="#000000" stroke-width="3" stroke-miterlimit="10" points="531.2,303.2 518.3,325.6 
								501.5,303.2 							"/>
							<polyline fill="none" stroke="#000000" stroke-width="3" stroke-miterlimit="10" points="519.7,388.1 504.9,413.7 490,388.1 
															"/>
							<polyline fill="none" stroke="#000000" stroke-width="3" stroke-miterlimit="10" points="598.1,417.8 584.7,440.2 568,417.8 
															"/>
							<polyline fill="none" stroke="#000000" stroke-width="3" stroke-miterlimit="10" points="531.2,457.4 518.3,479.6 
								501.5,457.4 							"/>
							<path fill="none" stroke="#000000" stroke-width="3" stroke-miterlimit="10" d="M567.8,28.8L567.8,28.8"/>
						</g>
					</g>
				</g>
			</g>
		</g>
	</g>
	<g id="top">
		<g id="eye_lens">
			<path id="eye_lens_2" fill="#FFFFFF" d="M402,82.1c3.5,4.1,0.6,15.5-6.6,20.4c-7.4,4.9-13.7,5.7-17.4,1.7
				c-3.5-4.1-3.2-10.9,5.7-18.3C390.5,79.9,398.5,78,402,82.1z"/>
			<path id="eye_lens_1" fill="#FFFFFF" d="M391.4,112.1c1.6,1.7,0.2,6.2-1.7,7.9c-1.9,1.7-4.7,1.7-6.3,0s-1.1-4.7,0.8-6.5
				C386.2,111.8,390,110.4,391.4,112.1z"/>
		</g>
		<g id="eye_lens_1_">
			<path id="eye_lens_2_1_" fill="#FFFFFF" d="M544.5,82.1c3.5,4.1,0.6,15.5-6.6,20.4c-7.4,4.9-13.7,5.7-17.4,1.7
				c-3.6-3.9-3.2-10.9,5.7-18.3C533.1,79.9,541,78,544.5,82.1z"/>
			<path id="eye_lens_1_1_" fill="#FFFFFF" d="M532.2,112.1c1.6,1.7,0.2,6.2-1.7,7.9c-1.9,1.7-4.7,1.7-6.3,0s-1.1-4.7,0.8-6.5
				C526.8,111.8,530.6,110.4,532.2,112.1z"/>
		</g>
	</g>
</g>
<g id="Vrstva_2">
	<g>
		<title>Layer 1</title>
		<path id="path2830" stroke="#000000" stroke-width="5" d="M568,68.5c-24.6,0.2-48.4,7.9-72.6,11c-10.1,1.3-20.5,1.6-30.6,0.4
			c-13.4-1.6-26.5-5.8-39.9-7.7c-12-1.7-24.2-3.5-36.2-3.5c-21.1-0.1-41.5,6.5-62.2,10.1c0,6.1-1.2,13.9,1.9,18.2
			c3.2,4.4,8.6,8.4,10,14.4c3.3,14.2,8,28.1,14,41.4c2.9,6.5,8.4,11,14.6,14.1c14.8,7.5,32.4,8.6,48.7,6.2
			c23.2-3.4,35.7-20.8,45.3-40.8c3.6-8.1,4-17.5,8.7-24.9c2.8-4.4,9.3-2.5,14-2.6c4.7,0,8.6,7.8,10.1,12.9
			c5.1,18.3,13.7,37.8,30.6,47.4c25.3,14.3,65.2,11.7,81.7-14.2c6.4-10.1,8.2-22.4,11.4-33.9c2-7,3.7-15.3,10.7-19.1
			c2.8-1.5,0.8-7.7,1.3-11.3c0.5-3.9,1.3-7.4-4.2-8.1c-9.7-1.3-19.1-5.4-28.9-6.8C586.7,70.3,577.5,68.4,568,68.5z M405,75
			c7,0,14,0.5,20.8,1.9c40.5,8.6,41.3,25.4,24.7,60c-13.6,28.2-41.7,35.3-70.1,28.5c-13.1-3.1-22-12.3-26.2-24.8
			c-4.5-13.2-7.8-27.3-7.1-41.3c1-18.6,22-21.3,37.1-23C391,75.6,398,75,405,75z M553,75c7,0,14,0.6,20.9,1.4c15,1.7,36,4.3,37.1,23
			c0.8,13.9-2.6,28-7.1,41.3c-4.2,12.6-13.2,21.7-26.2,24.8c-28.4,6.8-56.5-0.3-70.1-28.5c-16.7-34.7-15.9-51.4,24.7-60
			C539,75.5,546,74.9,553,75z"/>
	</g>
</g>
</svg>
