<?xml version="1.0" encoding="utf-8"?>
<!-- Generator: Adobe Illustrator 18.1.1, SVG Export Plug-In . SVG Version: 6.00 Build 0)  -->
<!DOCTYPE svg PUBLIC "-//W3C//DTD SVG 1.1//EN" "http://www.w3.org/Graphics/SVG/1.1/DTD/svg11.dtd">
<svg version="1.1" id="Vrstva_1" xmlns="http://www.w3.org/2000/svg" xmlns:xlink="http://www.w3.org/1999/xlink" x="0px" y="0px"
	 width="531px" height="679px" viewBox="-214 -59 531 679" style="enable-background:new -214 -59 531 679;" xml:space="preserve">
<style type="text/css">
	.st0{fill:#AF8C69;}
	.st1{fill:#C4731A;}
	.st2{fill:#42210B;}
	.st3{fill:#C7B299;}
	.st4{fill:#EFDECE;}
	.st5{fill:#0F0602;}
	.st6{fill:#FBB03B;}
	.st7{fill:#51260E;}
	.st8{display:none;fill:#AF8C69;}
	.st9{fill:#230F07;}
	.st10{fill:none;stroke:#000000;stroke-width:3;stroke-miterlimit:10;}
	.st11{fill:none;stroke:#0A0000;stroke-width:3;stroke-miterlimit:10;}
	.st12{fill:#FFFFFF;}
	.st13{fill:#FFFF00;stroke:#000000;stroke-width:2.5;}
	.st14{fill:url(#path5900_2_);}
	.st15{fill:url(#path5904_2_);}
	.st16{fill:url(#path5908_2_);}
	.st17{fill:url(#path5912_2_);}
	.st18{fill:#FF007F;stroke:#000000;stroke-width:2.5;}
	.st19{fill:url(#path4114_2_);}
	.st20{fill:url(#path4122_2_);}
	.st21{fill:url(#path4126_2_);}
	.st22{fill:url(#path4130_2_);}
	.st23{fill:url(#path2302_2_);}
	.st24{fill:url(#path4066_2_);}
	.st25{fill:url(#path4070_2_);}
	.st26{fill:url(#path4074_2_);}
	.st27{fill:url(#path4078_2_);}
	.st28{fill:url(#path4082_2_);}
	.st29{fill:url(#path4086_2_);}
	.st30{fill:url(#path4090_2_);}
	.st31{fill:url(#path4094_2_);}
	.st32{fill:url(#path4098_2_);}
	.st33{fill:url(#path4102_2_);}
	.st34{fill:url(#path4106_2_);}
	.st35{fill:url(#path4110_2_);}
	.st36{fill:none;}
</style>
<g id="owl-base_2_">
	<g id="body_1_">
		<path class="st0" d="M52.875,287.801c48.416-0.201,91.006-21.797,114.712-53.941l0.201,0.201
			c30.938,30.436,43.092,66.899,40.883,114.511c-1.607,34.152-12.154,88.294-39.074,131.688
			c-12.154,19.487-27.523,36.965-46.909,49.22l0,0c-5.123-9.543-15.77-15.469-28.326-15.77c-18.784-0.502-26.82,9.342-28.728,20.492
			l0,0c-0.703,4.319-0.603,8.639,0.301,12.857c-4.319,0.502-8.639,0.603-12.958,0.603s-8.839-0.201-12.958-0.603
			c0.804-4.319,1.004-8.639,0.301-12.857l0,0c-1.909-11.15-10.145-20.994-28.728-20.491c-12.355,0.201-23.103,6.328-28.326,15.77
			l0,0c-19.286-12.355-34.755-29.733-46.909-49.22c-26.92-43.494-37.769-97.535-39.376-131.688
			c-2.009-47.412,10.145-84.176,40.882-114.511l0.201-0.201C-38.232,266.204,4.258,287.7,52.875,287.801z"/>
		<g>
			<g id="fill_x5F_bottom_1_">
				<path class="st1" d="M11.49,513.609c25.815-0.603,31.641,18.282,28.427,33.449c-1.507,7.031-5.022,12.958-9.141,16.172
					l-11.853-17.478L7.673,563.23L-4.28,541.834l-9.141,15.268c-3.817-2.813-6.63-8.036-6.63-13.962
					c0-5.022,1.205-9.543,3.315-13.36C-11.613,519.837-0.965,513.609,11.49,513.609z"/>
				<path class="st0" d="M52.875,513.609v33.952c-4.319,0-8.839-0.201-12.958-0.603c3.214-15.168-2.813-33.952-28.427-33.449
					c-12.355,0.201-23.003,6.328-28.326,15.77l0,0c-19.286-12.355-34.755-29.733-46.909-49.22
					c-26.92-43.494-37.769-97.535-39.376-131.688c-2.009-47.412,10.145-84.176,40.883-114.511l0.201-0.201
					c23.806,32.244,66.396,53.74,114.712,53.941v33.851c0,0-63.082,5.123-74.533-14.063c-15.369-25.514-37.668-32.445-58.059-21.395
					c-25.614,13.661,1.004,165.037,20.592,179.1c25.614,18.282,39.778-0.703,57.858,19.587
					C15.207,503.865,31.078,503.665,52.875,513.609z"/>
				<path class="st2" d="M-24.772,217.286c36.061,10.648,57.858-13.661,62.077-18.985c-2.009,3.013-3.516,6.328-3.616,10.145
					c-0.201,13.761,13.962,28.126,19.186,28.126v51.229C4.459,287.6-38.131,266.004-61.837,233.86
					c-4.118-5.726-7.835-11.652-10.547-17.779c-6.127-12.958-9.543-27.121-9.543-42.088c0-9.643,1.507-19.186,4.319-28.326
					c0.603-2.009,1.205-4.118,2.009-6.027c2.813-6.73,6.83-14.364,7.935-16.474c0,0,0-0.201,0.201-0.201
					c0.201-0.201,0.201-0.502,0.201-0.502c-6.328-7.835-25.916-11.15-25.916-11.15l37.668-4.822l-43.193-18.985
					c0,0,42.891-5.123,56.954,3.616c9.141,5.826-13.46-30.335-13.962-31.139l63.584,40.983l-0.201,0.502
					c-9.543-3.616-20.793-5.022-35.157,1.607c-2.009,0.804-4.319,2.009-6.127,3.013C-98.099,140.945-63.746,205.634-24.772,217.286z
					"/>
				<path class="st3" d="M52.875,63.7v122.447c0,0-1.004,0.603-2.612,1.306c0,0-3.616-66.396-37.969-83.473
					c-1.607-0.703-3.214-1.507-4.822-2.21l0.201-0.502l-63.584-40.983l0,0l56.352,1.607L52.875,63.7z"/>
				<path class="st4" d="M-24.772,217.286c-39.074-11.652-73.528-76.441-8.94-110.594c1.909-1.205,4.118-2.009,6.127-3.013
					c14.364-6.63,25.815-5.324,35.157-1.607c1.607,0.703,3.315,1.507,4.822,2.21c34.253,16.976,37.97,83.473,37.97,83.473
					c-3.214,1.607-8.538,5.123-12.154,9.944c0,0-0.201,0.502-0.703,0.804C33.087,203.625,11.49,228.134-24.772,217.286z
					 M31.078,175.7C31.078,175.7,31.078,175.299,31.078,175.7c1.808-5.123,2.612-10.346,2.612-15.971
					c0-26.92-20.994-48.717-46.909-48.717s-46.909,21.797-46.909,48.717s20.994,48.717,46.909,48.717
					C7.372,208.447,24.749,194.685,31.078,175.7z"/>
				<path class="st2" d="M-13.321,129.795c-15.77,0-28.628,13.36-28.628,29.733c0,16.474,12.857,29.733,28.628,29.733
					s28.628-13.36,28.628-29.733C15.307,143.055,2.55,129.795-13.321,129.795z M-60.23,159.428c0-26.92,20.994-48.717,46.909-48.717
					s46.909,21.797,46.909,48.717c0,5.726-0.804,10.949-2.612,15.971c0,0,0,0,0,0.201c-6.328,18.985-23.806,32.746-44.298,32.746
					C-39.236,208.447-60.23,186.348-60.23,159.428z"/>
				<path class="st5" d="M-41.948,159.428c0-16.474,12.857-29.733,28.628-29.733s28.628,13.36,28.628,29.733
					c0,16.474-12.857,29.733-28.628,29.733C-28.991,189.462-41.948,176.002-41.948,159.428z"/>
				<path class="st2" d="M-148.524,389.053c-24.509-101.152,76.24-173.073,76.24-173.073c3.013,6.328,6.63,12.154,10.547,17.779
					l-0.201,0.201c-30.938,30.436-43.092,67.1-40.983,114.511c1.607,34.152,12.154,88.294,39.376,131.688l-1.004,0.703l0,0
					C-66.156,481.064-128.435,471.32-148.524,389.053z"/>
				<path class="st6" d="M52.875,186.147v50.425c-5.324,0-19.286-14.364-19.186-28.126c0-3.817,1.607-7.132,3.616-10.145
					c0.603-0.603,0.703-0.804,0.703-0.804c3.616-4.822,9.141-8.136,12.154-9.944C51.971,186.649,52.875,186.147,52.875,186.147z"/>
				<path class="st7" d="M-68.266,124.07c0.201-0.201,0.201-0.502,0.301-0.603c-1.004,2.009-5.123,9.543-7.935,16.474
					C-73.69,134.517-71.179,129.193-68.266,124.07z"/>
				<g id="fill_x5F_bottom_2_">
					<path class="st1" d="M93.155,513.609c-25.815-0.603-31.641,18.282-28.427,33.449c1.507,7.031,5.022,12.958,9.141,16.172
						l11.853-17.478l11.25,17.478l11.953-21.396l9.141,15.268c3.817-2.813,6.63-8.036,6.63-13.962c0-5.022-1.205-9.543-3.315-13.36
						C116.157,519.837,105.61,513.609,93.155,513.609z"/>
					<path class="st0" d="M51.77,513.609v33.952c4.319,0,8.839-0.201,12.958-0.603c-3.214-15.168,2.813-33.952,28.427-33.449
						c12.355,0.201,23.003,6.328,28.326,15.77l0,0c19.286-12.355,34.755-29.733,46.909-49.22
						c26.92-43.494,37.769-97.535,39.376-131.688c2.009-47.412-10.145-84.176-40.883-114.511l-0.201-0.201
						c-23.806,32.244-66.396,53.74-114.712,53.941v33.851c0,0,63.082,5.123,74.533-14.063
						c15.369-25.514,37.668-32.445,58.059-21.395c25.614,13.661-1.004,165.037-20.592,179.1
						c-25.313,18.282-39.778-0.703-57.858,19.587C89.539,503.865,73.567,503.665,51.77,513.609z"/>
					<path class="st2" d="M129.316,217.286c-36.061,10.648-57.858-13.661-62.077-18.985c2.009,3.013,3.516,6.328,3.616,10.145
						c0.201,13.761-13.962,28.126-19.186,28.126v51.229c48.416-0.201,91.006-21.797,114.712-53.941
						c4.319-5.726,7.835-11.652,10.648-17.779c6.127-12.958,9.543-27.121,9.543-42.088c0-9.643-1.507-19.186-4.319-28.326
						c-0.603-2.009-1.205-4.118-2.009-6.027c-2.612-6.73-6.831-14.364-7.935-16.474c0,0,0-0.201-0.201-0.201
						c-0.201-0.201-0.201-0.502-0.201-0.502c6.328-7.835,25.916-11.15,25.916-11.15l-37.668-4.822l42.891-18.985
						c0,0-42.891-5.123-56.954,3.616c-9.141,5.826,13.46-30.335,13.962-31.139L96.47,100.966l0.201,0.502
						c9.543-3.616,20.793-5.022,35.157,1.607c2.009,0.804,4.319,2.009,6.127,3.013C202.844,140.945,168.591,205.634,129.316,217.286
						z"/>
					<path class="st3" d="M48.053,63.7l3.616,122.447c0,0,1.004,0.603,2.612,1.306c0,0,3.616-66.396,37.969-83.473
						c1.607-0.703,3.214-1.507,4.822-2.21l-0.201-0.502l63.584-40.983l0,0l-56.753,1.607L48.053,63.7z"/>
					<path class="st4" d="M129.316,217.286c39.074-11.652,73.528-76.441,8.94-110.594c-1.909-1.205-4.118-2.009-6.127-3.013
						c-14.364-6.63-25.815-5.324-35.157-1.607c-1.607,0.703-3.315,1.507-4.822,2.21c-34.253,16.976-37.969,83.473-37.969,83.473
						c3.214,1.607,8.538,5.123,12.154,9.944c0,0,0.201,0.502,0.703,0.804C71.458,203.625,93.456,228.134,129.316,217.286z
						 M73.668,175.7C73.567,175.7,73.567,175.299,73.668,175.7c-1.808-5.123-2.612-10.346-2.612-15.971
						c0-26.92,20.994-48.717,46.909-48.717c25.916,0,46.909,21.797,46.909,48.717s-20.994,48.717-46.909,48.717
						C97.374,208.447,79.996,194.685,73.668,175.7z"/>
					<path class="st2" d="M117.865,129.795c15.77,0,28.628,13.36,28.628,29.733c0,16.474-12.857,29.733-28.628,29.733
						c-15.77,0-28.628-13.36-28.628-29.733S102.095,129.795,117.865,129.795z M164.774,159.428c0-26.92-20.994-48.717-46.909-48.717
						c-25.916,0-46.909,21.797-46.909,48.717c0,5.726,0.804,10.949,2.612,15.971c0,0,0,0,0,0.201
						c6.328,18.985,23.806,32.746,44.298,32.746C143.781,208.447,164.774,186.348,164.774,159.428z"/>
					<path class="st5" d="M146.493,159.428c0-16.474-12.857-29.733-28.628-29.733c-15.77,0-28.628,13.36-28.628,29.733
						c0,16.474,12.857,29.733,28.628,29.733C133.736,189.462,146.493,176.002,146.493,159.428z"/>
					<path class="st2" d="M253.069,389.053c24.509-101.152-75.839-172.972-75.839-172.972c-3.013,6.328-6.63,12.154-10.648,17.779
						l0.201,0.201c30.938,30.335,43.193,66.899,40.883,114.31c-1.607,34.152-12.154,88.294-39.376,131.688l1.004,0.703l0,0
						C171.103,481.064,233.28,471.32,253.069,389.053z"/>
					<path class="st6" d="M51.77,186.147v50.425c5.324,0,19.286-14.364,19.186-28.126c0-3.817-1.607-7.132-3.616-10.145
						c-0.603-0.603-0.703-0.804-0.703-0.804c-3.616-4.822-9.141-8.136-12.154-9.944C52.875,186.649,51.77,186.147,51.77,186.147z"/>
					<path class="st7" d="M172.911,124.07c-0.201-0.201-0.201-0.502-0.301-0.603c1.004,2.009,5.324,9.543,7.935,16.474
						C178.435,134.517,175.723,129.193,172.911,124.07z"/>
				</g>
				<path class="st3" d="M160.455,396.988c-5.123,58.059-49.421,105.471-110.292,105.471S-57.518,455.148-60.13,396.988
					c-4.52-100.85,49.421-93.718,110.292-93.718S169.194,298.147,160.455,396.988z"/>
			</g>
			<g id="fill_x5F_top_1_">
				<path class="st8" d="M52.875,513.609v33.952c-4.319,0-8.839-0.201-12.958-0.603c0.804-4.319,1.004-8.639,0.301-12.857l0,0
					c-1.909-11.15-10.145-20.994-28.728-20.492c-12.355,0.201-23.103,6.328-28.326,15.77l0,0
					c-19.286-12.355-34.755-29.733-46.909-49.22c-26.92-43.494-37.769-97.535-39.376-131.688
					c-2.009-47.412,10.145-84.176,40.883-114.511l0.201-0.201c23.806,32.244,66.196,53.74,114.712,53.941v225.808L52.875,513.609
					L52.875,513.609z"/>
				<path class="st1" d="M52.875,186.649v50.124c-5.324,0-19.286-14.364-19.186-28.126c0-3.817,1.607-7.132,3.616-10.145
					c0.603-0.603,0.703-0.804,0.703-0.804c3.616-4.822,9.141-8.136,12.154-9.944C51.77,186.649,52.875,186.649,52.875,186.649z"/>
				<path class="st0" d="M52.875,114.929l2.31,1.507l-2.009,69.41c0,0-1.607,0.804-3.214,1.808c0,0-3.616-63.584-37.97-80.66
					c-1.607-0.703-3.214-1.507-4.822-2.21l0.201-0.502l-4.118-2.612"/>
				<path class="st4" d="M30.977,175.7C30.977,175.7,31.078,175.299,30.977,175.7c1.808-5.123,2.612-10.346,2.612-15.971
					c0-26.92-20.994-48.717-46.909-48.717s-46.909,21.797-46.909,48.717c0,1.607,0,3.013,0.201,4.52
					c2.31,24.811,22.4,44.298,46.709,44.298C7.171,208.447,24.649,194.685,30.977,175.7z M-69.27,150.186
					c2.511-15.77,12.857-31.44,35.458-43.494c1.909-1.205,4.118-2.009,6.127-3.013c14.364-6.63,25.815-5.324,35.157-1.607
					c1.607,0.703,3.214,1.507,4.822,2.21c34.253,16.976,37.97,83.473,37.97,83.473c-3.214,1.607-8.538,5.123-12.154,9.944
					c0,0-0.201,0.502-0.703,0.804c-4.319,5.123-25.916,29.632-62.077,18.985C-50.185,209.652-73.69,179.618-69.27,150.186z"/>
				<path class="st1" d="M39.616,546.958c-1.507,7.031-5.022,12.958-9.141,16.172l-11.853-17.478L7.372,563.13l-12.154-21.396
					l-9.141,15.268c-3.817-2.813-6.63-8.036-6.63-13.962c0-3.616,0.703-7.132,1.909-10.246c0,0,10.648-7.835,18.181-7.835
					c17.177,0,22.4,10.648,31.139,10.648c5.324,0,8.337-1.306,8.337-1.306l0.703-0.201l0,0
					C40.821,538.319,40.62,542.739,39.616,546.958z"/>
				<path class="st7" d="M21.937,162.642c3.616,0.804,9.342,10.246,8.94,12.958c0,0,0,0,0,0.201
					c-6.328,18.985-23.806,32.746-44.298,32.746c-24.309,0-44.398-19.487-46.709-44.298h0.703c0,0,9.141-15.268,11.25-14.766
					c2.009,0.502,6.027,11.15,6.027,11.15l0,0c0.603,15.971,13.159,28.829,28.628,28.829c11.853,0,21.797-7.433,26.217-17.98l0,0
					C13.298,170.678,18.321,161.537,21.937,162.642z"/>
				<path class="st9" d="M15.207,162.039c-0.201,3.315-1.004,6.429-2.009,9.342l0,0c-4.319,10.648-14.465,17.98-26.217,17.98
					c-15.469,0-27.925-12.857-28.628-28.829c0-0.502,0-0.703,0-1.205c0,0,8.94-1.507,13.661,11.652
					c4.822,13.159,25.614,10.346,29.934,4.118C6.367,168.669,11.189,162.039,15.207,162.039z"/>
				<path class="st7" d="M-67.864,123.367c0.201-0.201,0.201-0.502,0.201-0.502c-6.328-7.835-25.916-11.15-25.916-11.15
					l37.668-4.822c0,0,3.817,2.612,6.027-2.21c4.319-8.839-49.119-16.976-49.119-16.976s42.891-5.123,56.954,3.616
					c9.141,5.826-13.46-30.335-13.962-31.139l25.514,16.172l0,0c0.603,0.703,11.25,15.77,4.319,21.998
					c-4.319,4.118-7.835,7.835-7.835,7.835c-22.601,11.853-32.947,27.623-35.458,43.494c-0.804-0.201-1.607-0.502-2.31-0.703
					c-3.616-2.009-6.127-3.315-6.328-3.516c0.603-2.009,1.205-4.118,2.009-6.027C-73.087,133.01-69.17,125.577-67.864,123.367
					C-67.864,123.467-67.864,123.367-67.864,123.367z"/>
				<path class="st7" d="M-68.266,124.07c0.201-0.201,0.201-0.502,0.301-0.603c-1.004,2.009-5.123,9.543-7.935,16.474
					C-73.891,134.517-71.179,129.193-68.266,124.07z"/>
				<path class="st7" d="M-82.128,223.815c0,0,5.022,12.154,0,21.697s-35.458,57.457-33.65,87.591
					c1.808,30.335-36.061,36.262-36.061,36.262C-158.469,297.343-104.628,243.001-82.128,223.815z"/>
				<g id="fill_x5F_top_2_">
					<path class="st8" d="M51.77,513.609v33.952c4.319,0,8.839-0.201,12.958-0.603c-0.804-4.319-1.004-8.639-0.301-12.857l0,0
						c1.909-11.15,10.145-20.994,28.728-20.492c12.355,0.201,23.103,6.328,28.326,15.77l0,0
						c19.286-12.355,34.755-29.733,46.909-49.22c26.92-43.494,37.769-97.535,39.074-131.688
						c2.009-47.412-10.145-84.176-40.883-114.511l-0.201-0.201c-23.806,32.244-66.196,53.74-114.712,53.941L51.77,513.609
						L51.77,513.609z"/>
					<path class="st1" d="M51.77,186.649v50.124c5.324,0,19.286-14.364,19.186-28.126c0-3.817-1.607-7.132-3.616-10.145
						c-0.603-0.603-0.703-0.804-0.703-0.804c-3.616-4.822-9.141-8.136-12.154-9.944C52.875,186.649,51.77,186.649,51.77,186.649z"/>
					<path class="st0" d="M51.469,114.728l0.301,71.519c0,0,1.004,0.502,2.612,1.306c0,0,3.616-63.584,37.969-80.66
						c1.607-0.703,3.214-1.507,4.822-2.21l-0.201-0.502l4.118-2.612C99.684,102.172,54.08,116.938,51.469,114.728z"/>
					<path class="st4" d="M73.668,175.7C73.668,175.7,73.668,175.299,73.668,175.7c-1.808-5.123-2.612-10.346-2.612-15.971
						c0-26.92,20.994-48.717,46.909-48.717c25.916,0,46.909,21.797,46.909,48.717c0,1.607,0,3.013-0.201,4.52
						c-2.31,24.811-22.3,44.298-46.709,44.298C97.374,208.447,79.996,194.685,73.668,175.7z M173.915,150.186
						c-2.511-15.77-12.857-31.44-35.257-43.494c-1.909-1.205-4.118-2.009-6.127-3.013c-14.364-6.63-25.815-5.324-35.157-1.607
						c-1.607,0.703-3.214,1.507-4.822,2.21c-34.353,16.976-37.969,83.473-37.969,83.473c3.214,1.607,8.538,5.123,12.154,9.944
						c0,0,0.201,0.502,0.703,0.804c4.319,5.123,25.916,29.632,62.077,18.985C154.93,209.652,178.435,179.618,173.915,150.186z"/>
					<path class="st1" d="M64.728,546.958c1.507,7.031,5.022,12.958,9.141,16.172l11.853-17.478l11.25,17.478l12.154-21.396
						l9.141,15.268c3.817-2.813,6.63-8.036,6.63-13.962c0-3.616-0.703-7.132-1.909-10.246c0,0-10.648-7.835-18.181-7.835
						c-17.177,0-22.4,10.648-31.139,10.648c-5.324,0-8.337-1.306-8.337-1.306l-0.703-0.201l0,0
						C63.723,538.319,63.924,542.739,64.728,546.958z"/>
					<path class="st7" d="M82.608,162.642c-3.616,0.804-9.342,10.246-8.94,12.958c0,0,0,0,0,0.201
						c6.328,18.985,23.806,32.746,44.298,32.746c24.509,0,44.398-19.487,46.709-44.298h-0.703c0,0-9.141-15.268-11.25-14.766
						c-2.009,0.502-6.027,11.15-6.027,11.15l0,0c-0.603,15.971-13.159,28.829-28.628,28.829c-11.853,0-21.797-7.433-26.217-17.98
						l0,0C91.246,170.678,86.224,161.537,82.608,162.642z"/>
					<path class="st9" d="M89.539,162.039c0.201,3.315,1.004,6.429,2.009,9.342l0,0c4.319,10.648,14.465,17.98,26.217,17.98
						c15.469,0,27.925-12.857,28.628-28.829c0-0.502,0-0.703,0-1.205c0,0-8.94-1.507-13.661,11.652
						c-4.822,13.159-25.614,10.346-29.934,4.118C98.579,168.669,93.557,162.039,89.539,162.039z"/>
					<path class="st7" d="M172.409,123.367c-0.201-0.201-0.201-0.502-0.201-0.502c6.328-7.835,25.916-11.15,25.916-11.15
						l-37.668-4.822c0,0-3.817,2.612-6.027-2.21c-4.319-8.839,49.119-16.976,49.119-16.976s-42.891-5.123-56.954,3.616
						c-9.141,5.826,13.46-30.335,13.962-31.139l-25.514,16.172l0,0c-0.603,0.703-11.25,15.77-4.319,21.998
						c4.319,4.118,7.835,7.835,7.835,7.835c22.601,11.853,32.947,27.623,35.257,43.494c0.804-0.201,1.607-0.502,2.31-0.703
						c3.616-2.009,6.127-3.315,6.328-3.516c-0.603-2.009-1.205-4.118-2.009-6.027C177.732,133.01,173.714,125.577,172.409,123.367
						C172.609,123.467,172.409,123.367,172.409,123.367z"/>
					<path class="st7" d="M172.911,124.07c-0.201-0.201-0.201-0.502-0.301-0.603c1.004,2.009,5.123,9.543,7.935,16.474
						C178.435,134.517,175.924,129.193,172.911,124.07z"/>
					<path class="st7" d="M186.773,223.815c0,0-5.022,12.154,0,21.697s35.458,57.457,33.65,87.591
						c-1.808,30.335,36.061,36.463,36.061,36.463C263.113,297.343,209.374,243.001,186.773,223.815z"/>
				</g>
			</g>
			<g id="outlines_1_">
				<path class="st10" d="M-67.864,123.367c0.804-1.306,1.909-2.612,3.214-3.616"/>
				<path class="st10" d="M-77.909,145.867c0.603-2.009,1.205-4.118,2.009-6.027"/>
				<ellipse class="st10" cx="-13.321" cy="159.428" rx="28.628" ry="29.733"/>
				<path class="st10" d="M52.875,287.801C4.459,287.6-38.131,266.004-61.837,233.86c-4.118-5.726-7.835-11.652-10.547-17.779
					c-6.127-12.958-9.543-27.121-9.543-42.088c0-9.643,1.507-19.186,4.319-28.326"/>
				<path class="st11" d="M37.607,197.9c3.616-4.822,9.543-8.839,12.656-10.346c1.607-0.804,5.022-0.502,5.022-0.502"/>
				<path class="st11" d="M52.875,236.371c-5.324,0-19.286-14.364-19.186-28.126c0-3.817,1.607-7.132,3.616-10.145"/>
				<path class="st10" d="M30.977,175.7c-6.328,18.985-23.806,32.746-44.298,32.746c-24.309,0-44.398-19.487-46.709-44.298
					c-0.201-1.507-0.201-3.013-0.201-4.52c0-26.92,20.994-48.717,46.909-48.717s46.909,21.797,46.909,48.717
					C33.488,165.053,32.685,170.477,30.977,175.7"/>
				<path class="st10" d="M-41.948,160.533c0-0.502,0-0.703,0-1.205c0-16.474,12.857-29.733,28.628-29.733
					s28.628,13.36,28.628,29.733c0,0.804,0,1.607-0.201,2.31c-0.201,3.315-1.004,6.429-2.009,9.342"/>
				<path class="st10" d="M37.908,197.498c0,0-0.201,0.502-0.703,0.804c-4.319,5.123-25.916,29.632-62.077,18.985
					c-25.313-7.634-48.717-37.668-44.398-67.1c2.511-15.77,12.857-31.44,35.458-43.494c1.909-1.205,4.118-2.009,6.127-3.013
					c14.364-6.63,25.815-5.324,35.157-1.607c1.607,0.703,3.214,1.507,4.822,2.21c34.253,16.976,37.97,83.473,37.97,83.473"/>
				<polyline class="st10" points="-55.911,60.386 0.541,62.194 52.875,63.7 				"/>
				<line class="st10" x1="-30.598" y1="76.96" x2="-55.911" y2="60.386"/>
				<line class="st10" x1="3.655" y1="98.958" x2="-30.598" y2="76.96"/>
				<line class="st10" x1="7.673" y1="101.469" x2="3.655" y2="98.958"/>
				<path class="st10" d="M-55.409,60.386c0,0,0,0-0.603,0c0.603,0.804,23.103,37.065,13.962,31.139
					c-13.962-8.839-56.954-3.616-56.954-3.616l42.891,18.985l-37.668,4.822c0,0,19.587,3.516,25.916,11.15c0,0,0,0.201-0.201,0.502
					c0,0,0,0.201-0.201,0.201c-1.004,2.009-5.123,9.543-7.935,16.474c-0.804,2.21-1.607,4.319-2.009,6.027"/>
				<path class="st10" d="M-16.836,529.379c-19.286-12.355-34.755-29.733-46.909-49.22c-26.92-43.494-37.769-97.535-39.376-131.688
					c-2.009-47.412,10.145-84.176,40.883-114.511"/>
				<path class="st10" d="M52.875,547.259c-4.319,0-8.839-0.201-12.958-0.603c-0.201,0-0.301,0-0.301,0"/>
				<path class="st10" d="M-64.851,481.064h-0.201"/>
				<path class="st10" d="M-72.686,216.081c0,0-3.616,2.612-9.543,7.835c-22.4,19.186-76.341,73.528-69.711,145.55
					c0.603,6.429,1.607,12.857,3.315,19.587c19.989,82.368,82.167,91.81,83.674,91.81l0,0"/>
				<path class="st10" d="M39.616,546.958c-1.507,7.031-5.022,12.958-9.141,16.172l-11.853-17.478L7.372,563.13l-12.154-21.396
					l-9.141,15.268c-3.817-2.813-6.63-8.036-6.63-13.962c0-3.616,0.703-7.132,1.909-10.246c0.301-1.205,0.804-2.009,1.507-3.013
					c5.123-9.543,15.77-15.469,28.326-15.77c18.784-0.502,26.82,9.342,28.728,20.492l0,0
					C40.821,538.319,40.62,542.739,39.616,546.958z"/>
				<polyline class="st10" points="-72.384,307.79 -58.723,328.583 -44.761,307.79 				"/>
				<polyline class="st10" points="-44.259,359.22 -32.104,379.812 -20.252,360.927 				"/>
				<polyline class="st10" points="3.354,331.596 15.508,352.389 31.078,331.596 				"/>
				<polyline class="st10" points="14.001,410.448 27.863,434.154 41.725,410.448 				"/>
				<polyline class="st10" points="-58.723,437.971 -46.067,458.764 -30.598,437.971 				"/>
				<polyline class="st10" points="3.354,474.735 15.508,495.327 31.078,474.735 				"/>
				<path class="st10" d="M-30.598,76.96L-30.598,76.96"/>
				<g id="outlines_2_">
					<path class="st10" d="M172.409,123.367c-0.804-1.306-1.909-2.612-3.214-3.616"/>
					<path class="st10" d="M182.554,145.867c-0.603-2.009-1.205-4.118-2.009-6.027"/>
					<ellipse class="st10" cx="117.865" cy="159.428" rx="28.628" ry="29.733"/>
					<path class="st10" d="M51.77,287.801c48.416-0.201,91.006-21.797,114.712-53.941c4.319-5.726,7.835-11.652,10.648-17.779
						c6.127-12.958,9.543-27.121,9.543-42.088c0-9.643-1.507-19.186-4.319-28.326"/>
					<path class="st11" d="M67.239,198.301c-3.616-4.822-9.844-9.141-12.857-10.848c-1.607-0.804-2.612-1.306-2.612-1.306"/>
					<path class="st11" d="M51.77,236.371c5.324,0,19.286-14.364,19.186-28.126c0-3.817-1.607-7.132-3.616-10.145"/>
					<path class="st10" d="M73.668,175.7c6.328,18.985,23.806,32.746,44.298,32.746c24.509,0,44.398-19.487,46.709-44.298
						c0.201-1.507,0.201-3.013,0.201-4.52c0-26.92-20.994-48.717-46.909-48.717c-25.916,0-46.909,21.797-46.909,48.717
						C71.056,165.053,71.86,170.477,73.668,175.7"/>
					<path class="st10" d="M146.593,160.533c0-0.502,0-0.703,0-1.205c0-16.474-12.857-29.733-28.628-29.733
						c-15.77,0-28.628,13.36-28.628,29.733c0,0.804,0,1.607,0.201,2.31c0.201,3.315,1.004,6.429,2.009,9.342"/>
					<path class="st10" d="M66.636,197.498c0,0,0.201,0.502,0.703,0.804c4.319,5.123,25.916,29.632,62.077,18.985
						c25.313-7.634,48.717-37.668,44.398-67.1c-2.511-15.77-12.857-31.44-35.257-43.494c-1.909-1.205-4.118-2.009-6.127-3.013
						c-14.364-6.63-25.815-5.324-35.157-1.607c-1.607,0.703-3.214,1.507-4.822,2.21c-34.353,16.976-37.97,83.473-37.97,83.473"/>
					<polyline class="st10" points="160.556,60.386 104.204,62.194 51.77,63.7 					"/>
					<line class="st10" x1="135.142" y1="76.96" x2="160.556" y2="60.386"/>
					<line class="st10" x1="101.191" y1="98.958" x2="135.142" y2="76.96"/>
					<line class="st10" x1="97.072" y1="101.469" x2="101.191" y2="98.958"/>
					<path class="st10" d="M160.053,60.386c0,0,0,0,0.603,0c-0.603,0.804-23.103,37.065-13.962,31.139
						c13.962-8.839,56.954-3.616,56.954-3.616l-42.891,18.985l37.668,4.822c0,0-19.587,3.516-25.916,11.15c0,0,0,0.201,0.201,0.502
						c0,0,0,0.201,0.201,0.201c1.004,2.009,5.123,9.543,7.935,16.474c0.804,2.21,1.607,4.319,2.009,6.027"/>
					<path class="st10" d="M121.481,529.379c19.286-12.355,34.755-29.733,46.909-49.22c26.92-43.494,37.769-97.535,39.074-131.688
						c2.009-47.412-10.145-84.176-40.883-114.511"/>
					<path class="st10" d="M51.77,547.259c4.319,0,8.839-0.201,12.958-0.603c0.201,0,0.301,0,0.301,0"/>
					<path class="st10" d="M169.395,481.064h0.201"/>
					<path class="st10" d="M177.23,216.081c0,0,3.616,2.612,9.543,7.835c22.4,19.186,76.341,73.729,69.711,145.55
						c-0.603,6.429-1.607,12.857-3.214,19.587c-19.989,82.368-82.167,91.81-83.674,91.81l0,0"/>
					<path class="st10" d="M64.728,546.958c1.507,7.031,5.022,12.958,9.141,16.172l11.853-17.478l11.25,17.478l12.154-21.396
						l9.141,15.268c3.817-2.813,6.63-8.036,6.63-13.962c0-3.616-0.703-7.132-1.909-10.246c-0.301-1.205-0.804-2.009-1.507-3.013
						c-5.123-9.543-15.77-15.469-28.326-15.77c-18.784-0.502-26.82,9.342-28.728,20.492l0,0
						C63.723,538.319,63.924,542.739,64.728,546.958z"/>
					<polyline class="st10" points="176.929,307.79 163.268,328.583 149.607,307.79 					"/>
					<polyline class="st10" points="148.803,359.22 136.85,379.812 124.796,360.927 					"/>
					<polyline class="st10" points="101.191,331.596 89.237,352.389 73.668,331.596 					"/>
					<polyline class="st10" points="90.543,410.448 76.782,434.154 62.92,410.448 					"/>
					<polyline class="st10" points="163.268,437.971 150.913,458.764 135.343,437.971 					"/>
					<polyline class="st10" points="101.191,474.735 89.237,495.327 73.668,474.735 					"/>
					<path class="st10" d="M135.142,76.96L135.142,76.96"/>
				</g>
			</g>
		</g>
	</g>
	<g id="lens_1_">
		<g id="eye_lens_3_">
			<path id="eye_lens_2_3_" class="st12" d="M-18.745,126.38c3.214,3.817,0.603,14.364-6.127,18.985
				c-6.83,4.52-12.757,5.324-16.172,1.607c-3.214-3.817-3.013-10.145,5.324-16.976C-29.392,124.371-21.959,122.563-18.745,126.38z"
				/>
			<path id="eye_lens_1_3_" class="st12" d="M-28.589,154.204c1.507,1.607,0.201,5.726-1.607,7.333s-4.319,1.607-5.826,0
				s-1.004-4.319,0.703-6.027C-33.41,154.004-29.895,152.698-28.589,154.204z"/>
		</g>
		<g id="eye_lens_2_">
			<path id="eye_lens_2_2_" class="st12" d="M113.546,126.38c3.214,3.817,0.603,14.364-6.127,18.985
				c-6.83,4.52-12.757,5.324-16.172,1.607c-3.315-3.616-3.013-10.145,5.324-16.976C102.999,124.371,110.331,122.563,113.546,126.38z
				"/>
			<path id="eye_lens_1_2_" class="st12" d="M102.095,154.204c1.507,1.607,0.201,5.726-1.607,7.333s-4.319,1.607-5.826,0
				s-1.004-4.319,0.703-6.027C97.072,154.004,100.688,152.698,102.095,154.204z"/>
		</g>
	</g>
</g>
<g id="owl-top_1_">
	<g id="Vrstva_2_1_">
		<g>
			<path id="path1342_1_" class="st13" d="M118.367,109.605c0,0,4.721,18.282,1.205,35.76C158.948,52.048,84.214,7.148,27.36,18.8
				c-49.22-0.402-108.685,87.189-44.599,159.311c-7.031-10.346-23.605-68.908-17.378-81.263c-5.324,12.757,4.319,42.59,4.319,42.59
				c4.621,17.478,14.364,29.331,24.208,37.869c-21.596-30.637-22.802-74.533-16.775-86.988c-5.826,12.657-1.105,52.535,2.813,57.055
				c10.246,18.583,33.048,37.568,38.472,38.472c-21.396-18.583-41.686-84.879-35.76-100.248
				c-4.319,14.264,9.944,42.891,13.761,47.11c-2.31-6.529-4.018-47.211-0.703-55.548c-0.904,9.543,13.962,45.101,21.396,50.124
				c-5.123-7.232-6.63-52.836,0-59.867c-7.935,17.378,7.433,58.059,14.364,58.059c-10.045-19.788-3.214-54.744,4.621-62.68
				c-5.525,6.931-6.931,15.77-6.931,15.77c0,10.246,14.364,41.787,24.61,46.407c-8.337-12.556-7.935-53.84-1.808-64.488
				c-2.411,4.118-3.013,11.652-3.013,11.652c7.935,4.319,11.853,41.787,11.451,51.028c10.045-14.465,3.717-61.073,3.717-64.488
				c10.447,10.045,12.154,41.887,14.364,50.626c4.721-8.839,7.333-48.115,3.214-52.936c4.42,0.502,16.976,44.097,15.77,54.744
				c6.73-4.922-2.813-50.626-2.813-50.626c15.268,16.273,6.73,100.549,6.529,108.183c7.634-10.447,15.569-86.587,11.652-90.002
				c3.717,2.913-2.31,45.503-2.31,45.503c1.808,0.904,0,30.637,0,30.637c6.931-13.259,10.949-76.843,10.648-80.761
				C120.979,78.667,118.367,109.605,118.367,109.605L118.367,109.605z"/>
			<path id="path11907_1_" class="st13" d="M-24.772,63.399c-64.588-46.005-116.52,95.125-110.493,144.847
				c2.009-21.596,25.815-81.665,38.17-99.444c-0.201,0.402,5.726-13.661,11.953-18.483c-19.788,17.779-41.184,106.274-24.61,135.505
				c-5.123-24.61,18.583-100.248,24.61-105.37c-13.761,10.346-19.989,109.087-11.15,117.424
				c0.1-20.893,19.989-100.75,29.733-121.643c-8.739,19.788-9.643,28.025-9.743,28.025c-6.73,26.016,8.839,90.102,13.46,97.234
				c-0.703-31.541,5.123-109.489,9.241-119.735c5.123-8.94,13.46-8.839,14.866-15.77C-30.096,98.857-20.553,68.02-24.772,63.399
				L-24.772,63.399z"/>
			<path id="path11909_1_" class="st13" d="M118.669,63.801c6.73-27.322,29.23-27.824,39.476-21.797
				c59.666,31.34,71.318,133.295,69.611,143.842c-6.529-15.77-31.541-83.975-38.07-88.194c6.027,7.935,22.701,89.6,25.112,103.06
				c-21.396-9.743-34.856-75.638-40.883-84.477c10.648,17.679,15.77,74.231,11.15,91.91c-3.717-19.989-10.246-53.338-16.273-60.37
				c-1.607-4.621-3.214-30.135-8.839-41.787c4.52,12.556,16.674,92.814,14.866,110.493c-16.574-12.656-34.856-76.14-35.257-89.098
				C139.461,118.043,115.856,79.169,118.669,63.801z"/>
			
				<linearGradient id="path5900_2_" gradientUnits="userSpaceOnUse" x1="-1926.0811" y1="-155.6829" x2="-1926.1563" y2="-155.6829" gradientTransform="matrix(39.1007 0 0 170.4216 73960.6563 26683.5762)">
				<stop  offset="0" style="stop-color:#8A8A8A"/>
				<stop  offset="0.2969" style="stop-color:#9F9F9F"/>
				<stop  offset="1" style="stop-color:#6E6E6E"/>
			</linearGradient>
			<path id="path5900_1_" class="st14" d="M-32.808,66.613c-31.641,48.316-39.778,110.393-31.641,170.461
				C-83.835,176.604-62.842,84.594-32.808,66.613z"/>
			
				<linearGradient id="path5904_2_" gradientUnits="userSpaceOnUse" x1="-1939.0565" y1="-156.9512" x2="-1939.1051" y2="-156.9512" gradientTransform="matrix(60.5353 0 0 167.1728 113227.5313 26392.4707)">
				<stop  offset="0" style="stop-color:#8A8A8A"/>
				<stop  offset="0.2969" style="stop-color:#9F9F9F"/>
				<stop  offset="1" style="stop-color:#6E6E6E"/>
			</linearGradient>
			<path id="path5904_1_" class="st15" d="M-39.136,70.933c-34.856,32.144-60.169,102.056-57.155,167.146
				C-110.052,171.682-79.717,90.922-39.136,70.933z"/>
			
				<linearGradient id="path5908_2_" gradientUnits="userSpaceOnUse" x1="-2003.2747" y1="-133.0312" x2="-2003.3473" y2="-133.0312" gradientTransform="matrix(-40.4483 0 0 123.0816 -50801.1992 16526.4355)">
				<stop  offset="0" style="stop-color:#8A8A8A"/>
				<stop  offset="0.2969" style="stop-color:#9F9F9F"/>
				<stop  offset="1" style="stop-color:#6E6E6E"/>
			</linearGradient>
			<path id="path5908_1_" class="st16" d="M132.932,91.223c10.648,46.909,16.474,87.189,40.38,123.049
				C150.009,141.849,154.529,126.882,132.932,91.223z"/>
			
				<linearGradient id="path5912_2_" gradientUnits="userSpaceOnUse" x1="-2048.8594" y1="-179.4285" x2="-2049.0134" y2="-179.4285" gradientTransform="matrix(-19.0989 0 0 81.1949 -24869.4688 14733.7822)">
				<stop  offset="0" style="stop-color:#8A8A8A"/>
				<stop  offset="0.2969" style="stop-color:#9F9F9F"/>
				<stop  offset="1" style="stop-color:#6E6E6E"/>
			</linearGradient>
			<path id="path5912_1_" class="st17" d="M165.478,124.472c3.817,24.71,13.761,40.682,19.085,81.263
				C180.746,161.939,179.139,143.557,165.478,124.472z"/>
			<path id="path9328_1_" class="st18" d="M-43.957,59.883c-4.822-5.625-10.949-23.304-13.259-32.043
				c-2.109-7.031,3.114-10.346,5.324-9.543c3.917,0,6.83,0.603,9.543,1.708c4.118,1.105,3.616,3.415,6.83,2.813
				c3.214-0.603,1.909-3.013,6.228-5.324c4.319-2.21,7.935-4.118,10.949-3.817c1.808,0.703,3.717,2.511,3.013,5.525
				c0.201,3.616-4.319,12.857-7.433,20.09c-1.406,4.018-6.328,16.072-8.036,22.3C-33.712,62.997-40.843,60.386-43.957,59.883
				L-43.957,59.883z"/>
			<path id="path9330_1_" class="st18" d="M-43.757,68.421c-5.625,4.922-9.342,14.063-10.648,18.382
				c-2.913,3.616-4.219,18.884-3.616,20.994c2.511-1.909,4.52-3.717,5.726-3.114c2.21,1.205,2.913,4.42,5.123,6.73
				c3.013,1.105,5.022,0.804,5.726-0.804c0.703-4.42,5.525-34.253,6.228-39.978C-38.634,69.125-41.145,68.723-43.757,68.421z"/>
			<path id="path9334_1_" class="st18" d="M125.7,49.437c4.018-5.826,7.232-35.961,7.534-38.874c-2.109,1.808-0.904,0-1.808-0.603
				c-0.904-0.502-0.502-0.402-1.808-1.909c-4.621-2.511-14.364,1.507-18.683,3.516c-3.415,2.913-11.652,4.621-13.259,4.52
				c-3.315,2.411-0.603,6.73,0.502,9.643c1.607,4.118,4.721,8.136,5.926,10.045c4.42,7.031,9.342,14.063,11.752,17.076
				C118.267,52.551,122.687,51.044,125.7,49.437z"/>
			<path id="path9336_1_" class="st18" d="M126.202,57.473c11.953,7.935,23.304,29.431,25.012,36.764
				c1.306,3.114,0.402,7.735-0.201,8.136c-2.009,0.804-6.529,1.205-8.739-0.201c-2.109-1.708-8.036-0.804-9.844,1.909
				c-4.319,3.114-4.922,5.625-5.123,5.424c-3.516-5.022-8.237-43.394-7.935-49.119C120.778,59.582,125.499,57.774,126.202,57.473z"
				/>
			<path id="path9332_1_" class="st18" d="M126.202,45.821c-2.712-1.406-11.049,1.808-11.953,5.324
				c-0.301,2.411,5.022,9.442,6.831,10.949c1.507,0.904,3.315,0,7.031-2.813C128.914,55.765,128.01,48.03,126.202,45.821z"/>
			<path id="path9326_1_" class="st18" d="M-48.277,58.778c-0.603,2.31-1.808,6.73-0.804,10.246
				c3.516,3.114,7.132,3.917,12.154,4.52c2.21-3.013,3.013-5.625,3.917-9.844s0.402-2.511-0.402-6.73
				C-36.022,55.765-44.46,55.464-48.277,58.778L-48.277,58.778z"/>
			
				<linearGradient id="path4114_2_" gradientUnits="userSpaceOnUse" x1="-2025.6721" y1="-88.1385" x2="-2025.7915" y2="-88.1385" gradientTransform="matrix(-24.6262 0 0 75.3195 -33871.2383 6719.7778)">
				<stop  offset="0" style="stop-color:#8A8A8A"/>
				<stop  offset="0.2969" style="stop-color:#9F9F9F"/>
				<stop  offset="1" style="stop-color:#6E6E6E"/>
			</linearGradient>
			<path id="path4114_1_" class="st19" d="M70.252,34.671c17.277,16.172,20.692,60.37-6.83,93.116
				C101.793,83.087,88.233,51.948,70.252,34.671z"/>
			
				<linearGradient id="path4122_2_" gradientUnits="userSpaceOnUse" x1="-2026.0962" y1="-78.863" x2="-2026.2156" y2="-78.863" gradientTransform="matrix(-24.6262 0 0 75.3195 -33583.7539 6014.2231)">
				<stop  offset="0" style="stop-color:#8A8A8A"/>
				<stop  offset="0.2969" style="stop-color:#9F9F9F"/>
				<stop  offset="1" style="stop-color:#6E6E6E"/>
			</linearGradient>
			<path id="path4122_1_" class="st20" d="M80.699,27.74c17.277,16.172,20.692,60.369-6.831,93.116
				C112.24,76.156,98.579,45.017,80.699,27.74z"/>
			
				<linearGradient id="path4126_2_" gradientUnits="userSpaceOnUse" x1="-1906.4207" y1="-103.9072" x2="-1906.54" y2="-103.9072" gradientTransform="matrix(24.6262 0 0 75.3195 47874.7813 7919.2192)">
				<stop  offset="0" style="stop-color:#8A8A8A"/>
				<stop  offset="0.2969" style="stop-color:#9F9F9F"/>
				<stop  offset="1" style="stop-color:#6E6E6E"/>
			</linearGradient>
			<path id="path4126_1_" class="st21" d="M10.787,46.423c-17.277,16.172-20.692,60.369,6.83,93.116
				C-20.653,94.94-7.093,63.7,10.787,46.423z"/>
			
				<linearGradient id="path4130_2_" gradientUnits="userSpaceOnUse" x1="-1907.118" y1="-93.703" x2="-1907.2375" y2="-93.703" gradientTransform="matrix(24.6262 0 0 75.3195 48347.5391 7143.1099)">
				<stop  offset="0" style="stop-color:#8A8A8A"/>
				<stop  offset="0.2969" style="stop-color:#9F9F9F"/>
				<stop  offset="1" style="stop-color:#6E6E6E"/>
			</linearGradient>
			<path id="path4130_1_" class="st22" d="M27.964,38.89c-17.277,16.172-20.692,60.37,6.83,93.116
				C-3.477,87.306,10.084,56.167,27.964,38.89z"/>
			
				<linearGradient id="path2302_2_" gradientUnits="userSpaceOnUse" x1="-1904.9688" y1="-102.7942" x2="-1905.0883" y2="-102.7942" gradientTransform="matrix(24.6262 0 0 115.1915 46890.4609 11960.7178)">
				<stop  offset="0" style="stop-color:#8A8A8A"/>
				<stop  offset="0.2969" style="stop-color:#9F9F9F"/>
				<stop  offset="1" style="stop-color:#6E6E6E"/>
			</linearGradient>
			<path id="path2302_1_" class="st23" d="M-24.973,62.093c-17.277,20.09-20.692,74.633,6.83,115.214
				C-56.413,122.061-42.852,83.388-24.973,62.093z"/>
			
				<linearGradient id="path4066_2_" gradientUnits="userSpaceOnUse" x1="-1900.4495" y1="-101.6997" x2="-1900.5792" y2="-101.6997" gradientTransform="matrix(22.6704 0 0 104.0527 43298.8398 10706.2969)">
				<stop  offset="0" style="stop-color:#8A8A8A"/>
				<stop  offset="0.2969" style="stop-color:#9F9F9F"/>
				<stop  offset="1" style="stop-color:#6E6E6E"/>
			</linearGradient>
			<path id="path4066_1_" class="st24" d="M-16.836,72.138c-12.154,22.4-16.674,65.191,9.944,104.065
				C-41.145,133.211-29.895,94.839-16.836,72.138z"/>
			
				<linearGradient id="path4070_2_" gradientUnits="userSpaceOnUse" x1="-1925.174" y1="-110.4947" x2="-1925.2538" y2="-110.4947" gradientTransform="matrix(36.8781 0 0 107.3015 72155.2969 11987.3438)">
				<stop  offset="0" style="stop-color:#8A8A8A"/>
				<stop  offset="0.2969" style="stop-color:#9F9F9F"/>
				<stop  offset="1" style="stop-color:#6E6E6E"/>
			</linearGradient>
			<path id="path4070_1_" class="st25" d="M-12.919,77.462c-16.976,20.09,1.105,70.314,28.728,107.279
				C-17.841,155.711-31,99.058-12.919,77.462z"/>
			
				<linearGradient id="path4074_2_" gradientUnits="userSpaceOnUse" x1="-1880.8091" y1="-67.3122" x2="-1880.9811" y2="-67.3122" gradientTransform="matrix(17.0979 0 0 88.5047 32622.9375 6043.9961)">
				<stop  offset="0" style="stop-color:#8A8A8A"/>
				<stop  offset="0.2969" style="stop-color:#9F9F9F"/>
				<stop  offset="1" style="stop-color:#6E6E6E"/>
			</linearGradient>
			<path id="path4074_1_" class="st26" d="M5.865,42.305C-7.696,66.513-9.705,90.721-4.883,130.8
				C-17.539,78.969-9.905,63.801,5.865,42.305z"/>
			
				<linearGradient id="path4078_2_" gradientUnits="userSpaceOnUse" x1="-1850.4243" y1="-64.3487" x2="-1850.6625" y2="-64.3487" gradientTransform="matrix(12.3505 0 0 66.6911 23401.9023 4383.9644)">
				<stop  offset="0" style="stop-color:#8A8A8A"/>
				<stop  offset="0.2969" style="stop-color:#9F9F9F"/>
				<stop  offset="1" style="stop-color:#6E6E6E"/>
			</linearGradient>
			<path id="path4078_1_" class="st27" d="M20.932,59.18C8.778,80.776,10.284,98.054,16.01,125.777
				C5.363,99.56,5.363,81.178,20.932,59.18z"/>
			
				<linearGradient id="path4082_2_" gradientUnits="userSpaceOnUse" x1="-1879.7201" y1="-55.8956" x2="-1879.8984" y2="-55.8956" gradientTransform="matrix(16.4925 0 0 65.763 31985.5586 3768.0896)">
				<stop  offset="0" style="stop-color:#8A8A8A"/>
				<stop  offset="0.2969" style="stop-color:#9F9F9F"/>
				<stop  offset="1" style="stop-color:#6E6E6E"/>
			</linearGradient>
			<path id="path4082_1_" class="st28" d="M37.707,59.381c-13.761,22.099-15.57,38.472-7.232,65.693
				C13.901,94.036,21.635,81.48,37.707,59.381z"/>
			
				<linearGradient id="path4086_2_" gradientUnits="userSpaceOnUse" x1="-1890.8481" y1="-53.9148" x2="-1891.0042" y2="-53.9148" gradientTransform="matrix(18.8432 0 0 62.05 37144.5898 3438.4934)">
				<stop  offset="0" style="stop-color:#8A8A8A"/>
				<stop  offset="0.2969" style="stop-color:#9F9F9F"/>
				<stop  offset="1" style="stop-color:#6E6E6E"/>
			</linearGradient>
			<path id="path4086_1_" class="st29" d="M38.41,62.093c-1.909,23.003,5.123,43.996,14.063,61.977
				C30.374,96.848,30.776,78.065,38.41,62.093z"/>
			
				<linearGradient id="path4090_2_" gradientUnits="userSpaceOnUse" x1="-2110.8435" y1="-54.9605" x2="-2111.1299" y2="-54.9605" gradientTransform="matrix(-10.2686 0 0 54.6241 -15131.3574 3096.3528)">
				<stop  offset="0" style="stop-color:#8A8A8A"/>
				<stop  offset="0.2969" style="stop-color:#9F9F9F"/>
				<stop  offset="1" style="stop-color:#6E6E6E"/>
			</linearGradient>
			<path id="path4090_1_" class="st30" d="M52.875,66.915c4.721,19.587,6.529,30.034,7.735,54.543
				C65.933,104.985,62.317,74.348,52.875,66.915z"/>
			
				<linearGradient id="path4094_2_" gradientUnits="userSpaceOnUse" x1="-2097.6155" y1="-52.1755" x2="-2097.8728" y2="-52.1755" gradientTransform="matrix(-11.4278 0 0 47.8944 -16478.752 2582.1528)">
				<stop  offset="0" style="stop-color:#8A8A8A"/>
				<stop  offset="0.2969" style="stop-color:#9F9F9F"/>
				<stop  offset="1" style="stop-color:#6E6E6E"/>
			</linearGradient>
			<path id="path4094_1_" class="st31" d="M71.86,59.281c9.543,13.259,5.826,36.563,6.73,47.914
				C84.315,76.056,87.329,67.919,71.86,59.281z"/>
			
				<linearGradient id="path4098_2_" gradientUnits="userSpaceOnUse" x1="-2067.8252" y1="-65.3053" x2="-2068.0237" y2="-65.3053" gradientTransform="matrix(-14.8242 0 0 60.1935 -20755.1816 4010.1729)">
				<stop  offset="0" style="stop-color:#8A8A8A"/>
				<stop  offset="0.2969" style="stop-color:#9F9F9F"/>
				<stop  offset="1" style="stop-color:#6E6E6E"/>
			</linearGradient>
			<path id="path4098_1_" class="st32" d="M83.913,49.135c8.94,21.195,7.232,29.934,14.465,60.169
				C100.086,80.877,95.867,61.691,83.913,49.135z"/>
			
				<linearGradient id="path4102_2_" gradientUnits="userSpaceOnUse" x1="-2100.572" y1="-85.0131" x2="-2100.8301" y2="-85.0131" gradientTransform="matrix(-11.3976 0 0 87.3445 -16074.7471 7548.8931)">
				<stop  offset="0" style="stop-color:#8A8A8A"/>
				<stop  offset="0.2969" style="stop-color:#9F9F9F"/>
				<stop  offset="1" style="stop-color:#6E6E6E"/>
			</linearGradient>
			<path id="path4102_1_" class="st33" d="M112.541,79.772c1.507,23.304-1.808,53.74-11.049,87.39
				C107.117,136.726,109.126,103.177,112.541,79.772z"/>
			
				<linearGradient id="path4106_2_" gradientUnits="userSpaceOnUse" x1="-2044.7618" y1="-81.6642" x2="-2044.9136" y2="-81.6642" gradientTransform="matrix(-19.3803 0 0 96.4852 -26206.9746 7972.8149)">
				<stop  offset="0" style="stop-color:#8A8A8A"/>
				<stop  offset="0.2969" style="stop-color:#9F9F9F"/>
				<stop  offset="1" style="stop-color:#6E6E6E"/>
			</linearGradient>
			<path id="path4106_1_" class="st34" d="M109.93,45.218c17.277,20.09,14.866,56.151,10.346,96.43
				C137.553,88.009,127.809,66.513,109.93,45.218z"/>
			
				<linearGradient id="path4110_2_" gradientUnits="userSpaceOnUse" x1="-2105.863" y1="-87.869" x2="-2106.1299" y2="-87.869" gradientTransform="matrix(-11.0205 0 0 107.1512 -15369.6992 9513.1221)">
				<stop  offset="0" style="stop-color:#8A8A8A"/>
				<stop  offset="0.2969" style="stop-color:#9F9F9F"/>
				<stop  offset="1" style="stop-color:#6E6E6E"/>
			</linearGradient>
			<path id="path4110_1_" class="st35" d="M108.222,44.314c10.346,21.998,5.424,56.854,3.013,107.078
				C122.988,87.406,121.682,65.408,108.222,44.314z"/>
		</g>
	</g>
</g>
<rect id="canvas_1_" x="-214" y="-59" class="st36" width="531" height="679"/>
</svg>
