<!-- Generator: Adobe Illustrator 18.1.1, SVG Export Plug-In  -->
<svg version="1.1"
	 xmlns="http://www.w3.org/2000/svg" xmlns:xlink="http://www.w3.org/1999/xlink" xmlns:a="http://ns.adobe.com/AdobeSVGViewerExtensions/3.0/"
	 x="0px" y="0px" width="337.269px" height="526.3px" viewBox="0 0 337.269 526.3" enable-background="new 0 0 337.269 526.3"
	 xml:space="preserve">
<defs>
</defs>
<g id="Vrstva_1_1_">
	<g id="mirror_1_">
		<g>
			<g>
				<g id="XMLID_1_">
					<g id="fill_x5F_bottom_1_">
						<path fill="#42210B" d="M85.584,170.5c38.8,11.5,62.3-14.7,66.9-20.4c-2.2,3.2-3.8,6.8-3.9,10.9c-0.2,14.8,15,30.3,20.7,30.3
							v55.2c-52.2-0.2-98-23.5-123.6-58.1c-4.4-6.2-8.4-12.5-11.4-19.1c-6.6-14-10.3-29.2-10.3-45.3c0-10.4,1.6-20.7,4.6-30.5
							c0.6-2.2,1.3-4.4,2.2-6.5c3-7.3,7.4-15.5,8.5-17.8c0,0,0-0.2,0.2-0.2c0.2-0.2,0.2-0.5,0.2-0.5c-6.8-8.4-27.9-12-27.9-12
							l40.6-5.2l-46.5-20.4c0,0,46.2-5.5,61.4,3.9c9.9,6.3-14.5-32.7-15-33.6l68.3,44.5l-0.2,0.5c-10.3-3.9-22.4-5.4-37.9,1.7
							c-2.2,0.9-4.6,2.2-6.6,3.3C6.484,88.3,43.584,158,85.584,170.5z"/>
						<path fill="#C7B299" d="M169.184,5.1V137c0,0-1.1,0.6-2.8,1.4c0,0-3.9-71.5-40.9-89.9c-1.7-0.8-3.5-1.6-5.2-2.4l0.2-0.5
							l-68.5-44.1l0,0l60.7,1.7L169.184,5.1z"/>
						<path fill="#EFDECE" d="M85.584,170.5c-42.1-12.5-79.2-82.4-9.6-119.1c2.1-1.3,4.4-2.2,6.6-3.3c15.5-7.1,27.8-5.7,37.9-1.7
							c1.7,0.8,3.6,1.6,5.2,2.4c36.9,18.3,40.9,89.9,40.9,89.9c-3.5,1.7-9.2,5.5-13.1,10.7c0,0-0.2,0.5-0.8,0.9
							C147.884,155.8,124.584,182.2,85.584,170.5z M145.684,125.7C145.684,125.7,145.684,125.3,145.684,125.7
							c1.9-5.5,2.8-11.2,2.8-17.2c0-29-22.6-52.5-50.5-52.5s-50.4,23.4-50.4,52.5s22.6,52.5,50.5,52.5
							C120.184,161,138.884,146.2,145.684,125.7z"/>
						<path fill="#42210B" d="M97.884,76.3c-17,0-30.8,14.4-30.8,32c0,17.8,13.9,32,30.8,32c17,0,30.8-14.4,30.8-32
							C128.784,90.6,114.984,76.3,97.884,76.3z M47.384,108.1c0-29,22.6-52.5,50.5-52.5s50.5,23.5,50.5,52.5
							c0,6.2-0.9,11.8-2.8,17.2c0,0,0,0,0,0.2c-6.8,20.5-25.7,35.3-47.7,35.3C69.984,161,47.384,137.2,47.384,108.1z"/>
						<path fill="#0F0602" d="M67.084,108.1c0-17.8,13.9-32,30.8-32c17,0,30.8,14.4,30.8,32c0,17.8-13.9,32-30.8,32
							C80.984,140.5,67.084,126,67.084,108.1z"/>
						<path fill="#FBB03B" d="M169.184,137v54.3c-5.7,0-20.8-15.5-20.7-30.3c0-4.1,1.7-7.7,3.9-10.9c0.6-0.6,0.8-0.9,0.8-0.9
							c3.9-5.2,9.9-8.8,13.1-10.7C168.284,137.5,169.184,137,169.184,137z"/>
						<path fill="#51260E" d="M38.684,70.1c0.2-0.2,0.2-0.5,0.3-0.6c-1.1,2.2-5.5,10.3-8.5,17.8
							C32.884,81.3,35.584,75.6,38.684,70.1z"/>
						<g id="fill_x5F_bottom_2_">
							<path fill="#42210B" d="M251.584,170.5c-38.8,11.5-62.3-14.7-66.9-20.4c2.2,3.2,3.8,6.8,3.9,10.9c0.2,14.8-15,30.3-20.7,30.3
								v55.2c52.2-0.2,98-23.5,123.6-58.1c4.6-6.2,8.4-12.5,11.5-19.1c6.6-14,10.3-29.2,10.3-45.3c0-10.4-1.6-20.7-4.6-30.5
								c-0.6-2.2-1.3-4.4-2.2-6.5c-2.8-7.3-7.4-15.5-8.5-17.8c0,0,0-0.2-0.2-0.2c-0.2-0.2-0.2-0.5-0.2-0.5c6.8-8.4,27.9-12,27.9-12
								l-40.6-5.2l46.4-20.3c0,0-46.2-5.5-61.4,3.9c-9.9,6.3,14.5-32.7,15-33.6l-68.5,44.2l0.2,0.5c10.3-3.9,22.4-5.4,37.9,1.7
								c2.2,0.9,4.6,2.2,6.6,3.3C330.784,88.3,293.884,158,251.584,170.5z"/>
							<path fill="#C7B299" d="M163.984,5.1l3.9,131.9c0,0,1.1,0.6,2.8,1.4c0,0,3.9-71.5,40.9-89.9c1.7-0.8,3.5-1.6,5.2-2.4
								l-0.2-0.5l68.5-44.2l0,0l-61.1,1.7L163.984,5.1z"/>
							<path fill="#EFDECE" d="M251.584,170.5c42.1-12.5,79.2-82.4,9.6-119.1c-2.1-1.3-4.4-2.2-6.6-3.3c-15.5-7.1-27.8-5.7-37.9-1.7
								c-1.7,0.8-3.6,1.6-5.2,2.4c-36.9,18.3-40.9,89.9-40.9,89.9c3.5,1.7,9.2,5.5,13.1,10.7c0,0,0.2,0.5,0.8,0.9
								C189.284,155.8,212.884,182.2,251.584,170.5z M191.584,125.7C191.484,125.7,191.484,125.3,191.584,125.7
								c-1.9-5.5-2.8-11.2-2.8-17.2c0-29,22.6-52.5,50.5-52.5s50.5,23.5,50.5,52.5s-22.6,52.5-50.5,52.5
								C217.184,161,198.384,146.2,191.584,125.7z"/>
							<path fill="#42210B" d="M239.284,76.3c17,0,30.8,14.4,30.8,32c0,17.8-13.9,32-30.8,32c-17,0-30.8-14.4-30.8-32
								S222.184,76.3,239.284,76.3z M289.784,108.1c0-29-22.6-52.5-50.5-52.5s-50.5,23.5-50.5,52.5c0,6.2,0.9,11.8,2.8,17.2
								c0,0,0,0,0,0.2c6.8,20.5,25.7,35.3,47.7,35.3C267.184,161,289.784,137.2,289.784,108.1z"/>
							<path fill="#0F0602" d="M270.084,108.1c0-17.8-13.9-32-30.8-32c-17,0-30.8,14.4-30.8,32c0,17.8,13.9,32,30.8,32
								C256.284,140.5,270.084,126,270.084,108.1z"/>
							<path fill="#FBB03B" d="M167.984,137v54.3c5.7,0,20.8-15.5,20.7-30.3c0-4.1-1.7-7.7-3.9-10.9c-0.6-0.6-0.8-0.9-0.8-0.9
								c-3.9-5.2-9.9-8.8-13.1-10.7C169.184,137.5,167.984,137,167.984,137z"/>
							<path fill="#51260E" d="M298.484,70.1c-0.2-0.2-0.2-0.5-0.3-0.6c1.1,2.2,5.7,10.3,8.5,17.8
								C304.484,81.3,301.584,75.6,298.484,70.1z"/>
						</g>
					</g>
					<g id="fill_x5F_top_1_">
						<path display="none" fill="#AF8C69" d="M169.184,489.7v36.6c-4.7,0-9.5-0.2-14-0.6c0.9-4.6,1.1-9.3,0.3-13.9l0,0
							c-2.1-12-10.9-22.6-30.9-22.1c-13.3,0.2-24.9,6.8-30.5,17l0,0c-20.8-13.3-37.4-32-50.5-53c-29-46.9-40.7-105.1-42.4-141.9
							c-2.2-51.1,10.9-90.7,44-123.4l0.2-0.2c25.7,34.7,71.3,57.9,123.6,58.1v243.3L169.184,489.7L169.184,489.7z"/>
						<path fill="#C4731A" d="M169.184,137.5v54c-5.7,0-20.8-15.5-20.7-30.3c0-4.1,1.7-7.7,3.9-10.9c0.6-0.6,0.8-0.9,0.8-0.9
							c3.9-5.2,9.9-8.8,13.1-10.7C167.984,137.5,169.184,137.5,169.184,137.5z"/>
						<path fill="#AF8C69" d="M169.184,60.2l2.5,1.6l-2.2,74.8c0,0-1.7,0.9-3.5,1.9c0,0-3.9-68.5-40.9-86.9
							c-1.7-0.8-3.5-1.6-5.2-2.4l0.2-0.5l-4.4-2.8"/>
						<path fill="#EFDECE" d="M145.584,125.7C145.584,125.7,145.684,125.3,145.584,125.7c1.9-5.5,2.8-11.2,2.8-17.2
							c0-29-22.6-52.5-50.5-52.5s-50.5,23.5-50.5,52.5c0,1.7,0,3.3,0.2,4.9c2.5,26.7,24.1,47.7,50.3,47.7
							C119.984,161,138.784,146.2,145.584,125.7z M37.584,98.2c2.7-17,13.9-33.9,38.2-46.9c2.1-1.3,4.4-2.2,6.6-3.3
							c15.5-7.1,27.8-5.7,37.9-1.7c1.7,0.8,3.5,1.6,5.2,2.4c36.9,18.3,40.9,89.9,40.9,89.9c-3.5,1.7-9.2,5.5-13.1,10.7
							c0,0-0.2,0.5-0.8,0.9c-4.6,5.5-27.9,31.9-66.9,20.4C58.084,162.3,32.884,129.9,37.584,98.2z"/>
						<path fill="#51260E" d="M135.884,111.6c3.9,0.9,10.1,11,9.6,14c0,0,0,0,0,0.2c-6.8,20.5-25.7,35.3-47.7,35.3
							c-26.2,0-47.8-21-50.3-47.7h0.8c0,0,9.9-16.4,12.1-15.9s6.5,12,6.5,12l0,0c0.6,17.2,14.2,31.1,30.8,31.1
							c12.8,0,23.5-8,28.2-19.4l0,0C126.584,120.3,131.984,110.5,135.884,111.6z"/>
						<path fill="#230F07" d="M128.684,111c-0.2,3.6-1.1,6.9-2.2,10.1l0,0c-4.7,11.5-15.6,19.4-28.2,19.4
							c-16.7,0-30.1-13.9-30.8-31.1c0-0.5,0-0.8,0-1.3c0,0,9.6-1.6,14.7,12.5c5.2,14.2,27.6,11.2,32.3,4.4
							C119.084,118.1,124.284,111,128.684,111z"/>
						<path fill="#51260E" d="M39.184,69.3c0.2-0.2,0.2-0.5,0.2-0.5c-6.8-8.4-27.9-12-27.9-12l40.6-5.2c0,0,4.1,2.8,6.5-2.4
							c4.4-9.4-53-18.2-53-18.2s46.2-5.5,61.4,3.9c9.9,6.3-14.5-32.7-15-33.6l27.3,17.5l0,0c0.6,0.8,12.1,17,4.7,23.7
							c-4.7,4.4-8.4,8.4-8.4,8.4c-24.3,12.8-35.5,29.8-38.2,46.9c-0.9-0.2-1.7-0.5-2.5-0.8c-3.9-2.2-6.6-3.6-6.8-3.8
							c0.6-2.2,1.3-4.4,2.2-6.5C33.484,79.7,37.784,71.7,39.184,69.3C39.184,69.5,39.184,69.3,39.184,69.3z"/>
						<path fill="#51260E" d="M38.684,70.1c0.2-0.2,0.2-0.5,0.3-0.6c-1.1,2.2-5.5,10.3-8.5,17.8
							C32.684,81.3,35.584,75.6,38.684,70.1z"/>
						<g id="fill_x5F_top_2_">
							<path display="none" fill="#AF8C69" d="M167.984,489.7v36.6c4.7,0,9.5-0.2,14-0.6c-0.9-4.6-1.1-9.3-0.3-13.9l0,0
								c2.1-12,10.9-22.6,30.9-22.1c13.3,0.2,24.9,6.8,30.5,17l0,0c20.8-13.3,37.4-32,50.5-53c29-46.9,40.7-105.1,42.1-141.9
								c2.2-51.1-10.9-90.7-44-123.4l-0.2-0.2c-25.7,34.7-71.3,57.9-123.6,58.1L167.984,489.7L167.984,489.7z"/>
							<path fill="#C4731A" d="M167.984,137.5v54c5.7,0,20.8-15.5,20.7-30.3c0-4.1-1.7-7.7-3.9-10.9c-0.6-0.6-0.8-0.9-0.8-0.9
								c-3.9-5.2-9.9-8.8-13.1-10.7C169.184,137.5,167.984,137.5,167.984,137.5z"/>
							<path fill="#AF8C69" d="M167.684,60l0.3,77c0,0,1.1,0.5,2.8,1.4c0,0,3.9-68.5,40.9-86.9c1.7-0.8,3.5-1.6,5.2-2.4l-0.2-0.5
								l4.4-2.8C219.684,46.5,170.484,62.4,167.684,60z"/>
							<path fill="#EFDECE" d="M191.584,125.7C191.584,125.7,191.584,125.3,191.584,125.7c-1.9-5.5-2.8-11.2-2.8-17.2
								c0-29,22.6-52.5,50.5-52.5s50.5,23.5,50.5,52.5c0,1.7,0,3.3-0.2,4.9c-2.5,26.7-24,47.7-50.3,47.7
								C217.184,161,198.384,146.2,191.584,125.7z M299.584,98.2c-2.7-17-13.9-33.9-38-46.9c-2.1-1.3-4.4-2.2-6.6-3.3
								c-15.5-7.1-27.8-5.7-37.9-1.7c-1.7,0.8-3.5,1.6-5.2,2.4c-36.9,18.3-40.9,89.9-40.9,89.9c3.5,1.7,9.2,5.5,13.1,10.7
								c0,0,0.2,0.5,0.8,0.9c4.6,5.5,27.9,31.9,66.9,20.4C279.184,162.3,304.484,129.9,299.584,98.2z"/>
							<path fill="#51260E" d="M201.284,111.6c-3.9,0.9-10.1,11-9.6,14c0,0,0,0,0,0.2c6.8,20.5,25.7,35.3,47.7,35.3
								c26.4,0,47.8-21,50.3-47.7h-0.8c0,0-9.9-16.4-12.1-15.9c-2.2,0.5-6.5,12-6.5,12l0,0c-0.6,17.2-14.2,31.1-30.8,31.1
								c-12.8,0-23.5-8-28.2-19.4l0,0C210.584,120.3,205.184,110.5,201.284,111.6z"/>
							<path fill="#230F07" d="M208.684,111c0.2,3.6,1.1,6.9,2.2,10.1l0,0c4.7,11.5,15.6,19.4,28.2,19.4c16.7,0,30.1-13.9,30.8-31.1
								c0-0.5,0-0.8,0-1.3c0,0-9.6-1.6-14.7,12.5c-5.2,14.2-27.6,11.2-32.3,4.4C218.484,118.1,213.084,111,208.684,111z"/>
							<path fill="#51260E" d="M297.984,69.3c-0.2-0.2-0.2-0.5-0.2-0.5c6.8-8.4,27.9-12,27.9-12l-40.6-5.2c0,0-4.1,2.8-6.5-2.4
								c-4.4-9.4,53-18.2,53-18.2s-46.2-5.5-61.4,3.9c-9.9,6.3,14.5-32.7,15-33.6l-27.3,17.5l0,0c-0.6,0.8-12.1,17-4.7,23.7
								c4.7,4.4,8.4,8.4,8.4,8.4c24.3,12.8,35.5,29.8,38,46.9c0.9-0.2,1.7-0.5,2.5-0.8c3.9-2.2,6.6-3.6,6.8-3.8
								c-0.6-2.2-1.3-4.4-2.2-6.5C303.684,79.7,299.384,71.7,297.984,69.3C298.084,69.5,297.984,69.3,297.984,69.3z"/>
							<path fill="#51260E" d="M298.584,70.1c-0.2-0.2-0.2-0.5-0.3-0.6c1.1,2.2,5.5,10.3,8.5,17.8
								C304.484,81.3,301.784,75.6,298.584,70.1z"/>
						</g>
					</g>
					<g id="outlines_1_">
						<path fill="none" stroke="#000000" stroke-width="3" stroke-miterlimit="10" d="M39.184,69.3c0.9-1.4,2.1-2.8,3.5-3.9"/>
						<path fill="none" stroke="#000000" stroke-width="3" stroke-miterlimit="10" d="M28.284,93.6c0.6-2.2,1.3-4.4,2.2-6.5"/>
						<ellipse fill="none" stroke="#000000" stroke-width="3" stroke-miterlimit="10" cx="97.884" cy="108.1" rx="30.8" ry="32"/>
						<path fill="none" stroke="#000000" stroke-width="3" stroke-miterlimit="10" d="M169.184,246.5c-52.2-0.2-98-23.5-123.6-58.1
							c-4.4-6.2-8.4-12.5-11.4-19.1c-6.6-14-10.3-29.2-10.3-45.3c0-10.4,1.6-20.7,4.6-30.5"/>
						<path fill="none" stroke="#0A0000" stroke-width="3" stroke-miterlimit="10" d="M152.784,149.6c3.9-5.2,10.3-9.5,13.6-11.2
							c1.7-0.9,5.4-0.5,5.4-0.5"/>
						<path fill="none" stroke="#0A0000" stroke-width="3" stroke-miterlimit="10" d="M169.184,191.1c-5.7,0-20.8-15.5-20.7-30.3
							c0-4.1,1.7-7.7,3.9-10.9"/>
						<path fill="none" stroke="#000000" stroke-width="3" stroke-miterlimit="10" d="M145.584,125.7c-6.8,20.5-25.7,35.3-47.7,35.3
							c-26.2,0-47.8-21-50.3-47.7c-0.2-1.6-0.2-3.3-0.2-4.9c0-29,22.6-52.5,50.5-52.5s50.5,23.5,50.5,52.5
							C148.384,114.3,147.484,120.1,145.584,125.7"/>
						<path fill="none" stroke="#000000" stroke-width="3" stroke-miterlimit="10" d="M67.084,109.4c0-0.5,0-0.8,0-1.3
							c0-17.8,13.9-32,30.8-32s30.8,14.4,30.8,32c0,0.9,0,1.7-0.2,2.5c-0.2,3.6-1.1,6.9-2.2,10.1"/>
						<path fill="none" stroke="#000000" stroke-width="3" stroke-miterlimit="10" d="M153.084,149.2c0,0-0.2,0.5-0.8,0.9
							c-4.6,5.5-27.9,31.9-66.9,20.4c-27.3-8.2-52.5-40.6-47.8-72.3c2.7-17,13.9-33.9,38.2-46.9c2.1-1.3,4.4-2.2,6.6-3.3
							c15.5-7.1,27.8-5.7,37.9-1.7c1.7,0.8,3.5,1.6,5.2,2.4c36.9,18.3,40.9,89.9,40.9,89.9"/>
						<polyline fill="none" stroke="#000000" stroke-width="3" stroke-miterlimit="10" points="51.984,1.5 112.884,3.4 169.184,5.1 
													"/>
						<line fill="none" stroke="#000000" stroke-width="3" stroke-miterlimit="10" x1="79.284" y1="19.3" x2="51.984" y2="1.5"/>
						<line fill="none" stroke="#000000" stroke-width="3" stroke-miterlimit="10" x1="116.184" y1="43" x2="79.284" y2="19.3"/>
						<line fill="none" stroke="#000000" stroke-width="3" stroke-miterlimit="10" x1="120.484" y1="45.8" x2="116.184" y2="43"/>
						<path fill="none" stroke="#000000" stroke-width="3" stroke-miterlimit="10" d="M52.584,1.5c0,0,0,0-0.6,0
							c0.6,0.9,24.9,39.9,15,33.6c-15-9.5-61.4-3.9-61.4-3.9l46.2,20.5l-40.6,5.2c0,0,21.1,3.8,27.9,12c0,0,0,0.2-0.2,0.5
							c0,0,0,0.2-0.2,0.2c-1.1,2.2-5.5,10.3-8.5,17.8c-0.9,2.4-1.7,4.6-2.2,6.5"/>
						<path fill="none" stroke="#000000" stroke-width="3" stroke-miterlimit="10" d="M79.284,19.3L79.284,19.3"/>
						<g id="outlines_2_">
							<path fill="none" stroke="#000000" stroke-width="3" stroke-miterlimit="10" d="M297.984,69.3c-0.9-1.4-2.1-2.8-3.5-3.9"/>
							<path fill="none" stroke="#000000" stroke-width="3" stroke-miterlimit="10" d="M308.884,93.6c-0.6-2.2-1.3-4.4-2.2-6.5"/>
							<ellipse fill="none" stroke="#000000" stroke-width="3" stroke-miterlimit="10" cx="239.284" cy="108.1" rx="30.8" ry="32"/>
							<path fill="none" stroke="#000000" stroke-width="3" stroke-miterlimit="10" d="M167.984,246.5c52.2-0.2,98-23.5,123.6-58.1
								c4.6-6.2,8.4-12.5,11.5-19.1c6.6-14,10.3-29.2,10.3-45.3c0-10.4-1.6-20.7-4.6-30.5"/>
							<path fill="none" stroke="#0A0000" stroke-width="3" stroke-miterlimit="10" d="M184.684,150.1c-3.9-5.2-10.6-9.9-13.9-11.7
								c-1.7-0.9-2.8-1.4-2.8-1.4"/>
							<path fill="none" stroke="#0A0000" stroke-width="3" stroke-miterlimit="10" d="M167.984,191.1c5.7,0,20.8-15.5,20.7-30.3
								c0-4.1-1.7-7.7-3.9-10.9"/>
							<path fill="none" stroke="#000000" stroke-width="3" stroke-miterlimit="10" d="M191.584,125.7c6.8,20.5,25.7,35.3,47.7,35.3
								c26.4,0,47.8-21,50.3-47.7c0.2-1.6,0.2-3.3,0.2-4.9c0-29-22.6-52.5-50.5-52.5s-50.5,23.5-50.5,52.5
								C188.784,114.3,189.684,120.1,191.584,125.7"/>
							<path fill="none" stroke="#000000" stroke-width="3" stroke-miterlimit="10" d="M270.184,109.4c0-0.5,0-0.8,0-1.3
								c0-17.8-13.9-32-30.8-32c-16.9,0-30.8,14.4-30.8,32c0,0.9,0,1.7,0.2,2.5c0.2,3.6,1.1,6.9,2.2,10.1"/>
							<path fill="none" stroke="#000000" stroke-width="3" stroke-miterlimit="10" d="M184.084,149.2c0,0,0.2,0.5,0.8,0.9
								c4.6,5.5,27.9,31.9,66.9,20.4c27.3-8.2,52.5-40.6,47.8-72.3c-2.7-17-13.9-33.9-38-46.9c-2.1-1.3-4.4-2.2-6.6-3.3
								c-15.5-7.1-27.8-5.7-37.9-1.7c-1.7,0.8-3.5,1.6-5.2,2.4c-36.9,18.3-40.9,89.9-40.9,89.9"/>
							<polyline fill="none" stroke="#000000" stroke-width="3" stroke-miterlimit="10" points="285.184,1.5 224.484,3.4 
								167.984,5.1 							"/>
							<line fill="none" stroke="#000000" stroke-width="3" stroke-miterlimit="10" x1="257.884" y1="19.3" x2="285.184" y2="1.5"/>
							<line fill="none" stroke="#000000" stroke-width="3" stroke-miterlimit="10" x1="221.284" y1="43" x2="257.884" y2="19.3"/>
							<line fill="none" stroke="#000000" stroke-width="3" stroke-miterlimit="10" x1="216.884" y1="45.8" x2="221.284" y2="43"/>
							<path fill="none" stroke="#000000" stroke-width="3" stroke-miterlimit="10" d="M284.684,1.5c0,0,0,0,0.6,0
								c-0.6,0.9-24.9,39.9-15,33.6c15-9.5,61.4-3.9,61.4-3.9l-46.2,20.5l40.6,5.2c0,0-21.1,3.8-27.9,12c0,0,0,0.2,0.2,0.5
								c0,0,0,0.2,0.2,0.2c1.1,2.2,5.5,10.3,8.5,17.8c0.9,2.4,1.7,4.6,2.2,6.5"/>
							<path fill="none" stroke="#000000" stroke-width="3" stroke-miterlimit="10" d="M257.884,19.3L257.884,19.3"/>
						</g>
					</g>
				</g>
			</g>
		</g>
	</g>
	<g id="top_1_">
		<g id="eye_lens_3_">
			<path id="eye_lens_2_3_" fill="#FFFFFF" d="M92.084,72.6c3.5,4.1,0.6,15.5-6.6,20.4c-7.4,4.9-13.7,5.7-17.4,1.7
				c-3.5-4.1-3.2-10.9,5.7-18.3C80.584,70.4,88.584,68.5,92.084,72.6z"/>
			<path id="eye_lens_1_3_" fill="#FFFFFF" d="M81.484,102.6c1.6,1.7,0.2,6.2-1.7,7.9c-1.9,1.7-4.7,1.7-6.3,0s-1.1-4.7,0.8-6.5
				C76.284,102.3,80.084,100.9,81.484,102.6z"/>
		</g>
		<g id="eye_lens_2_">
			<path id="eye_lens_2_2_" fill="#FFFFFF" d="M234.584,72.6c3.5,4.1,0.6,15.5-6.6,20.4c-7.4,4.9-13.7,5.7-17.4,1.7
				c-3.6-3.9-3.2-10.9,5.7-18.3C223.184,70.4,231.084,68.5,234.584,72.6z"/>
			<path id="eye_lens_1_2_" fill="#FFFFFF" d="M222.184,102.6c1.6,1.7,0.2,6.2-1.7,7.9s-4.7,1.7-6.3,0s-1.1-4.7,0.8-6.5
				C216.884,102.3,220.684,100.9,222.184,102.6z"/>
		</g>
	</g>
</g>
</svg>
