<!-- Generator: Adobe Illustrator 18.1.1, SVG Export Plug-In  -->
<svg version="1.1"
	 xmlns="http://www.w3.org/2000/svg" xmlns:xlink="http://www.w3.org/1999/xlink" xmlns:a="http://ns.adobe.com/AdobeSVGViewerExtensions/3.0/"
	 x="0px" y="0px" width="389.539px" height="541.05px" viewBox="0 0 389.539 541.05" enable-background="new 0 0 389.539 541.05"
	 xml:space="preserve">
<defs>
</defs>
<g id="Vrstva_1_1_">
	<g id="base_1_">
		<path fill="#AF8C69" d="M195.32,278.255c45.7-0.2,85.9-20.6,108.3-50.9l0.2,0.2c29.2,28.7,40.7,63.2,38.6,108.1
			c-1.5,32.3-11.5,83.3-36.9,124.4c-11.5,18.4-26,34.9-44.3,46.4l0,0c-4.8-9-14.9-14.6-26.7-14.9c-17.7-0.4-25.3,8.9-27.1,19.4l0,0
			c-0.7,4-0.5,8.2,0.3,12.2c-4,0.4-8.2,0.5-12.3,0.5s-8.3-0.2-12.3-0.5c0.8-4,1-8.2,0.3-12.2l0,0c-1.8-10.5-9.6-19.8-27.1-19.4
			c-11.7,0.2-21.8,6-26.7,14.9l0,0c-18.2-11.7-32.8-28-44.3-46.4c-25.4-41.1-35.7-92.1-37.2-124.4c-1.9-44.8,9.6-79.5,38.6-108.1
			l0.2-0.2C109.32,257.855,149.52,278.155,195.32,278.255z"/>
	</g>
	<g id="mirror_1_">
		<g>
			<g>
				<g id="XMLID_1_">
					<g id="fill_x5F_bottom_1_">
						<path fill="#C4731A" d="M156.22,491.355c24.4-0.5,29.9,17.3,26.8,31.5c-1.4,6.7-4.7,12.3-8.7,15.2l-11.2-16.4l-10.6,16.5
							l-11.3-20.2l-8.7,14.4c-3.6-2.6-6.2-7.6-6.2-13.1c0-4.7,1.1-9,3.2-12.6C134.52,497.455,144.52,491.555,156.22,491.355z"/>
						<path fill="#AF8C69" d="M195.32,491.355v32.1c-4.1,0-8.3-0.2-12.3-0.5c3.1-14.3-2.6-32.1-26.8-31.5
							c-11.7,0.2-21.7,6-26.7,14.9l0,0c-18.2-11.7-32.8-28-44.3-46.4c-25.4-41.1-35.7-92.1-37.2-124.4
							c-1.9-44.8,9.6-79.5,38.6-108.1l0.2-0.2c22.5,30.4,62.7,50.7,108.3,50.9v31.9c0,0-59.6,4.8-70.4-13.2
							c-14.5-24.1-35.6-30.7-54.9-20.2c-24.2,12.9,1,155.8,19.5,169.1c24.2,17.3,37.6-0.7,54.6,18.5
							C159.82,482.355,174.72,482.055,195.32,491.355z"/>
						<path fill="#42210B" d="M122.02,211.655c34,10.1,54.6-12.9,58.6-17.9c-1.9,2.8-3.3,6-3.4,9.6c-0.2,13,13.1,26.6,18.1,26.6
							v48.3c-45.7-0.2-85.9-20.6-108.3-50.9c-3.9-5.4-7.4-11-10-16.7c-5.8-12.3-9-25.6-9-39.7c0-9.1,1.4-18.1,4-26.7
							c0.5-1.9,1.1-3.9,1.9-5.7c2.6-6.4,6.5-13.6,7.4-15.6c0,0,0-0.2,0.2-0.2c0.2-0.2,0.2-0.4,0.2-0.4c-6-7.4-24.5-10.5-24.5-10.5
							l35.6-4.6l-40.6-18c0,0,40.5-4.8,53.8,3.4c8.7,5.5-12.7-28.7-13.1-29.4l60,38.7l-0.2,0.4c-9-3.4-19.6-4.7-33.2,1.5
							c-1.9,0.8-4,1.9-5.8,2.9C52.82,139.555,85.22,200.655,122.02,211.655z"/>
						<path fill="#C7B299" d="M195.32,66.655v115.6c0,0-1,0.5-2.5,1.2c0,0-3.4-62.7-35.8-78.8c-1.5-0.7-3.1-1.4-4.6-2.1l0.2-0.4
							l-60-38.6l0,0l53.2,1.5L195.32,66.655z"/>
						<path fill="#EFDECE" d="M122.02,211.655c-36.9-11-69.4-72.2-8.4-104.4c1.8-1.1,3.9-1.9,5.8-2.9c13.6-6.2,24.4-5,33.2-1.5
							c1.5,0.7,3.2,1.4,4.6,2.1c32.3,16,35.8,78.8,35.8,78.8c-3.1,1.5-8.1,4.8-11.5,9.4c0,0-0.2,0.4-0.7,0.8
							C176.62,198.855,156.22,221.855,122.02,211.655z M174.72,172.355C174.72,172.355,174.72,172.055,174.72,172.355
							c1.7-4.8,2.5-9.8,2.5-15.1c0-25.4-19.8-46-44.3-46s-44.3,20.6-44.3,46s19.8,46,44.3,46
							C152.42,203.255,168.82,190.355,174.72,172.355z"/>
						<path fill="#42210B" d="M132.82,129.055c-14.9,0-27,12.6-27,28c0,15.6,12.2,28,27,28c14.9,0,27-12.6,27-28
							C159.92,141.555,147.82,129.055,132.82,129.055z M88.62,157.055c0-25.4,19.8-46,44.3-46s44.3,20.6,44.3,46
							c0,5.4-0.8,10.3-2.5,15.1c0,0,0,0,0,0.2c-6,18-22.5,30.9-41.8,30.9C108.42,203.255,88.62,182.455,88.62,157.055z"/>
						<path fill="#0F0602" d="M105.82,157.055c0-15.6,12.2-28,27-28c14.9,0,27,12.6,27,28c0,15.6-12.2,28-27,28
							C118.02,185.355,105.82,172.655,105.82,157.055z"/>
						<path fill="#42210B" d="M5.22,373.855c-23.1-95.5,71.9-163.4,71.9-163.4c2.8,6,6.2,11.5,10,16.7l-0.2,0.2
							c-29.2,28.7-40.7,63.4-38.7,108.1c1.5,32.3,11.5,83.3,37.2,124.4l-1,0.7l0,0C83.02,460.655,24.22,451.455,5.22,373.855z"/>
						<path fill="#FBB03B" d="M195.32,182.255v47.6c-5,0-18.2-13.6-18.1-26.6c0-3.6,1.5-6.7,3.4-9.6c0.5-0.5,0.7-0.8,0.7-0.8
							c3.4-4.6,8.7-7.7,11.5-9.4C194.52,182.755,195.32,182.255,195.32,182.255z"/>
						<path fill="#51260E" d="M80.92,123.655c0.2-0.2,0.2-0.4,0.3-0.5c-1,1.9-4.8,9-7.4,15.6
							C75.92,133.455,78.22,128.455,80.92,123.655z"/>
						<g id="fill_x5F_bottom_2_">
							<path fill="#C4731A" d="M233.32,491.355c-24.4-0.5-29.9,17.3-26.8,31.5c1.4,6.7,4.7,12.3,8.7,15.2l11.2-16.5l10.6,16.5
								l11.3-20.2l8.7,14.4c3.6-2.6,6.2-7.6,6.2-13.1c0-4.7-1.1-9-3.2-12.6C255.12,497.455,245.12,491.555,233.32,491.355z"/>
							<path fill="#AF8C69" d="M194.32,491.355v32.1c4.1,0,8.3-0.2,12.3-0.5c-3.1-14.3,2.6-32.1,26.8-31.5
								c11.7,0.2,21.7,6,26.7,14.9l0,0c18.2-11.7,32.8-28,44.3-46.4c25.4-41.1,35.7-92.1,37.2-124.4c1.9-44.8-9.6-79.5-38.6-108.1
								l-0.2-0.2c-22.5,30.4-62.7,50.7-108.3,50.9v31.9c0,0,59.6,4.8,70.4-13.2c14.5-24.1,35.6-30.7,54.9-20.2
								c24.2,12.9-1,155.8-19.5,169.1c-23.9,17.3-37.6-0.7-54.6,18.5C229.92,482.355,214.92,482.055,194.32,491.355z"/>
							<path fill="#42210B" d="M267.52,211.655c-34,10.1-54.6-12.9-58.6-17.9c1.9,2.8,3.3,6,3.4,9.6c0.2,13-13.1,26.6-18.1,26.6
								v48.3c45.7-0.2,85.9-20.6,108.3-50.9c4-5.4,7.4-11,10.1-16.7c5.8-12.3,9-25.6,9-39.7c0-9.1-1.4-18.1-4-26.7
								c-0.5-1.9-1.1-3.9-1.9-5.7c-2.5-6.4-6.5-13.6-7.4-15.6c0,0,0-0.2-0.2-0.2c-0.2-0.2-0.2-0.4-0.2-0.4
								c6-7.4,24.5-10.5,24.5-10.5l-35.6-4.6l40.5-18c0,0-40.5-4.8-53.8,3.4c-8.7,5.5,12.7-28.7,13.1-29.4l-60,38.7l0.2,0.4
								c9-3.4,19.6-4.7,33.2,1.5c1.9,0.8,4,1.9,5.8,2.9C336.92,139.555,304.62,200.655,267.52,211.655z"/>
							<path fill="#C7B299" d="M190.82,66.655l3.4,115.6c0,0,1,0.5,2.5,1.2c0,0,3.4-62.7,35.8-78.8c1.5-0.7,3.1-1.4,4.6-2.1
								l-0.2-0.4l60-38.7l0,0l-53.5,1.5L190.82,66.655z"/>
							<path fill="#EFDECE" d="M267.52,211.655c36.9-11,69.4-72.2,8.4-104.4c-1.8-1.1-3.9-1.9-5.8-2.9c-13.6-6.2-24.4-5-33.2-1.5
								c-1.5,0.7-3.2,1.4-4.6,2.1c-32.3,16-35.8,78.8-35.8,78.8c3.1,1.5,8.1,4.8,11.5,9.4c0,0,0.2,0.4,0.7,0.8
								C212.92,198.855,233.62,221.855,267.52,211.655z M214.92,172.355C214.92,172.355,214.92,172.055,214.92,172.355
								c-1.7-4.8-2.5-9.8-2.5-15.1c0-25.4,19.8-46,44.3-46s44.3,20.6,44.3,46s-19.8,46-44.3,46
								C237.42,203.255,220.92,190.355,214.92,172.355z"/>
							<path fill="#42210B" d="M256.72,129.055c14.9,0,27,12.6,27,28c0,15.6-12.2,28-27,28c-14.9,0-27-12.6-27-28
								S241.82,129.055,256.72,129.055z M301.02,157.055c0-25.4-19.8-46-44.3-46s-44.3,20.6-44.3,46c0,5.4,0.8,10.3,2.5,15.1
								c0,0,0,0,0,0.2c6,18,22.5,30.9,41.8,30.9C281.22,203.255,301.02,182.455,301.02,157.055z"/>
							<path fill="#0F0602" d="M283.72,157.055c0-15.6-12.2-28-27-28c-14.9,0-27,12.6-27,28c0,15.6,12.2,28,27,28
								C271.62,185.355,283.72,172.655,283.72,157.055z"/>
							<path fill="#42210B" d="M384.32,373.855c23.1-95.5-71.6-163.4-71.6-163.4c-2.8,6-6.2,11.5-10.1,16.7l0.2,0.2
								c29.2,28.7,40.8,63.2,38.6,108c-1.5,32.3-11.5,83.3-37.2,124.4l1,0.7l0,0C307.02,460.655,365.72,451.455,384.32,373.855z"/>
							<path fill="#FBB03B" d="M194.32,182.255v47.6c5,0,18.2-13.6,18.1-26.6c0-3.6-1.5-6.7-3.4-9.6c-0.5-0.5-0.7-0.8-0.7-0.8
								c-3.4-4.6-8.7-7.7-11.5-9.4C195.32,182.755,194.32,182.255,194.32,182.255z"/>
							<path fill="#51260E" d="M308.62,123.655c-0.2-0.2-0.2-0.4-0.3-0.5c1,1.9,5,9,7.4,15.6
								C313.92,133.455,311.32,128.455,308.62,123.655z"/>
						</g>
						<path fill="#C7B299" d="M296.92,381.255c-4.8,54.8-46.6,99.6-104.1,99.6s-101.7-44.7-104.1-99.6
							c-4.3-95.2,46.6-88.5,104.1-88.5S305.12,287.955,296.92,381.255z"/>
					</g>
					<g id="fill_x5F_top_1_">
						<path display="none" fill="#AF8C69" d="M195.32,491.355v32.1c-4.1,0-8.3-0.2-12.3-0.5c0.8-4,1-8.2,0.3-12.2l0,0
							c-1.8-10.5-9.6-19.8-27.1-19.4c-11.7,0.2-21.8,6-26.7,14.9l0,0c-18.2-11.7-32.8-28-44.3-46.4c-25.4-41.1-35.7-92.1-37.2-124.4
							c-1.9-44.8,9.6-79.5,38.6-108.1l0.2-0.2c22.5,30.4,62.5,50.7,108.3,50.9v213.2L195.32,491.355L195.32,491.355z"/>
						<path fill="#C4731A" d="M195.32,182.755v47.3c-5,0-18.2-13.6-18.1-26.6c0-3.6,1.5-6.7,3.4-9.6c0.5-0.5,0.7-0.8,0.7-0.8
							c3.4-4.6,8.7-7.7,11.5-9.4C194.32,182.755,195.32,182.755,195.32,182.755z"/>
						<path fill="#AF8C69" d="M195.32,114.955l2.2,1.4l-1.9,65.6c0,0-1.5,0.8-3.1,1.7c0,0-3.4-60-35.8-76.2
							c-1.5-0.7-3.1-1.4-4.6-2.1l0.2-0.4l-3.9-2.5"/>
						<path fill="#EFDECE" d="M174.62,172.355C174.62,172.355,174.72,172.055,174.62,172.355c1.7-4.8,2.5-9.8,2.5-15.1
							c0-25.4-19.8-46-44.3-46s-44.3,20.6-44.3,46c0,1.5,0,2.9,0.2,4.3c2.2,23.4,21.1,41.8,44.1,41.8
							C152.22,203.255,168.72,190.355,174.62,172.355z M80.02,148.255c2.4-14.9,12.2-29.7,33.5-41.1c1.8-1.1,3.9-1.9,5.8-2.9
							c13.6-6.2,24.4-5,33.2-1.5c1.5,0.7,3.1,1.4,4.6,2.1c32.3,16,35.8,78.8,35.8,78.8c-3.1,1.5-8.1,4.8-11.5,9.4
							c0,0-0.2,0.4-0.7,0.8c-4,4.8-24.5,28-58.6,17.9C98.02,204.555,75.92,176.055,80.02,148.255z"/>
						<path fill="#C4731A" d="M182.92,522.955c-1.4,6.7-4.7,12.3-8.7,15.2l-11.2-16.5l-10.6,16.5l-11.5-20.2l-8.7,14.4
							c-3.6-2.6-6.2-7.6-6.2-13.1c0-3.4,0.7-6.7,1.8-9.6c0,0,10.1-7.4,17.2-7.4c16.2,0,21.1,10.1,29.4,10.1c5,0,7.9-1.2,7.9-1.2
							l0.7-0.2l0,0C184.02,514.755,183.72,518.855,182.92,522.955z"/>
						<path fill="#51260E" d="M166.12,160.055c3.4,0.8,8.9,9.6,8.4,12.3c0,0,0,0,0,0.2c-6,18-22.5,30.9-41.8,30.9
							c-23,0-41.9-18.4-44.1-41.8h0.7c0,0,8.7-14.4,10.6-13.9c1.9,0.4,5.7,10.5,5.7,10.5l0,0c0.5,15.1,12.4,27.3,27,27.3
							c11.2,0,20.6-7,24.7-17l0,0C158.02,167.755,162.72,159.055,166.12,160.055z"/>
						<path fill="#230F07" d="M159.82,159.455c-0.2,3.2-1,6-1.9,8.9l0,0c-4.1,10.1-13.7,17-24.7,17c-14.6,0-26.4-12.2-27-27.3
							c0-0.4,0-0.7,0-1.1c0,0,8.4-1.4,12.9,11c4.6,12.4,24.2,9.8,28.3,3.9C151.42,165.655,156.02,159.455,159.82,159.455z"/>
						<path fill="#51260E" d="M81.42,122.955c0.2-0.2,0.2-0.4,0.2-0.4c-6-7.4-24.5-10.5-24.5-10.5l35.6-4.6c0,0,3.6,2.5,5.7-2.1
							c4-8.3-46.4-16-46.4-16s40.5-4.8,53.8,3.4c8.7,5.5-12.7-28.7-13.1-29.4l23.9,15.3l0,0c0.5,0.7,10.6,14.9,4.1,20.8
							c-4.1,3.9-7.4,7.4-7.4,7.4c-21.3,11.2-31.1,26.1-33.5,41.1c-0.8-0.2-1.5-0.4-2.2-0.7c-3.4-1.9-5.8-3.2-6-3.3
							c0.5-1.9,1.1-3.9,1.9-5.7C76.42,132.055,80.22,125.055,81.42,122.955C81.42,123.155,81.42,122.955,81.42,122.955z"/>
						<path fill="#51260E" d="M80.92,123.655c0.2-0.2,0.2-0.4,0.3-0.5c-1,1.9-4.8,9-7.4,15.6
							C75.72,133.455,78.22,128.455,80.92,123.655z"/>
						<path fill="#51260E" d="M67.92,217.855c0,0,4.7,11.5,0,20.5s-33.5,54.2-31.8,82.7c1.7,28.7-34,34.3-34,34.3
							C-4.18,287.355,46.72,235.855,67.92,217.855z"/>
						<g id="fill_x5F_top_2_">
							<path display="none" fill="#AF8C69" d="M194.32,491.355v32.1c4.1,0,8.3-0.2,12.3-0.5c-0.8-4-1-8.2-0.3-12.2l0,0
								c1.8-10.5,9.6-19.8,27.1-19.4c11.7,0.2,21.8,6,26.7,14.9l0,0c18.2-11.7,32.8-28,44.3-46.4c25.4-41.1,35.7-92.1,36.9-124.4
								c1.9-44.8-9.6-79.5-38.6-108.1l-0.2-0.2c-22.5,30.4-62.5,50.7-108.3,50.9L194.32,491.355L194.32,491.355z"/>
							<path fill="#C4731A" d="M194.32,182.755v47.3c5,0,18.2-13.6,18.1-26.6c0-3.6-1.5-6.7-3.4-9.6c-0.5-0.5-0.7-0.8-0.7-0.8
								c-3.4-4.6-8.7-7.7-11.5-9.4C195.32,182.755,194.32,182.755,194.32,182.755z"/>
							<path fill="#AF8C69" d="M194.02,114.755l0.3,67.5c0,0,1,0.4,2.5,1.2c0,0,3.4-60,35.8-76.2c1.5-0.7,3.1-1.4,4.6-2.1l-0.2-0.4
								l3.9-2.5C239.62,102.955,196.52,116.855,194.02,114.755z"/>
							<path fill="#EFDECE" d="M214.92,172.355C214.92,172.355,214.92,172.055,214.92,172.355c-1.7-4.8-2.5-9.8-2.5-15.1
								c0-25.4,19.8-46,44.3-46s44.3,20.6,44.3,46c0,1.5,0,2.9-0.2,4.3c-2.2,23.4-21,41.8-44.1,41.8
								C237.42,203.255,220.92,190.355,214.92,172.355z M309.62,148.255c-2.4-14.9-12.2-29.7-33.3-41.1c-1.8-1.1-3.9-1.9-5.8-2.9
								c-13.6-6.2-24.4-5-33.2-1.5c-1.5,0.7-3.1,1.4-4.6,2.1c-32.4,16-35.8,78.8-35.8,78.8c3.1,1.5,8.1,4.8,11.5,9.4
								c0,0,0.2,0.4,0.7,0.8c4,4.8,24.5,28,58.6,17.9C291.72,204.555,313.92,176.055,309.62,148.255z"/>
							<path fill="#C4731A" d="M206.52,522.955c1.4,6.7,4.7,12.3,8.7,15.2l11.2-16.5l10.6,16.5l11.5-20.2l8.7,14.4
								c3.6-2.6,6.2-7.6,6.2-13.1c0-3.4-0.7-6.7-1.8-9.6c0,0-10.1-7.4-17.2-7.4c-16.2,0-21.1,10.1-29.4,10.1c-5,0-7.9-1.2-7.9-1.2
								l-0.7-0.2l0,0C205.62,514.755,205.72,518.855,206.52,522.955z"/>
							<path fill="#51260E" d="M223.42,160.055c-3.4,0.8-8.9,9.6-8.4,12.3c0,0,0,0,0,0.2c6,18,22.5,30.9,41.8,30.9
								c23.1,0,41.9-18.4,44.1-41.8h-0.7c0,0-8.7-14.4-10.6-13.9s-5.7,10.5-5.7,10.5l0,0c-0.5,15.1-12.4,27.3-27,27.3
								c-11.2,0-20.6-7-24.7-17l0,0C231.62,167.755,226.92,159.055,223.42,160.055z"/>
							<path fill="#230F07" d="M229.92,159.455c0.2,3.2,1,6,1.9,8.9l0,0c4.1,10.1,13.7,17,24.7,17c14.6,0,26.4-12.2,27-27.3
								c0-0.4,0-0.7,0-1.1c0,0-8.4-1.4-12.9,11c-4.6,12.4-24.2,9.8-28.3,3.9C238.52,165.655,233.82,159.455,229.92,159.455z"/>
							<path fill="#51260E" d="M308.22,122.955c-0.2-0.2-0.2-0.4-0.2-0.4c6-7.4,24.5-10.5,24.5-10.5l-35.6-4.6c0,0-3.6,2.5-5.7-2.1
								c-4-8.3,46.4-16,46.4-16s-40.5-4.8-53.8,3.4c-8.7,5.5,12.6-28.7,13.1-29.5l-23.9,15.3l0,0c-0.5,0.7-10.6,14.9-4.1,20.8
								c4.1,3.9,7.4,7.4,7.4,7.4c21.3,11.2,31.1,26.1,33.3,41.1c0.8-0.2,1.5-0.4,2.2-0.7c3.4-1.9,5.8-3.2,6-3.3
								c-0.5-1.9-1.1-3.9-1.9-5.7C313.22,132.055,309.42,125.055,308.22,122.955C308.42,123.155,308.22,122.955,308.22,122.955z"/>
							<path fill="#51260E" d="M308.72,123.655c-0.2-0.2-0.2-0.4-0.3-0.5c1,1.9,4.8,9,7.4,15.6
								C313.92,133.455,311.52,128.455,308.72,123.655z"/>
							<path fill="#51260E" d="M321.82,217.855c0,0-4.7,11.5,0,20.5s33.5,54.2,31.8,82.7c-1.7,28.7,34,34.4,34,34.4
								C393.82,287.355,343.12,235.855,321.82,217.855z"/>
						</g>
					</g>
					<g id="outlines_1_">
						<path fill="none" stroke="#000000" stroke-width="3" stroke-miterlimit="10" d="M81.42,122.955c0.8-1.2,1.8-2.5,3.1-3.4"/>
						<path fill="none" stroke="#000000" stroke-width="3" stroke-miterlimit="10" d="M71.82,144.255c0.5-1.9,1.1-3.9,1.9-5.7"/>
						<ellipse fill="none" stroke="#000000" stroke-width="3" stroke-miterlimit="10" cx="132.82" cy="157.055" rx="27" ry="28"/>
						<path fill="none" stroke="#000000" stroke-width="3" stroke-miterlimit="10" d="M195.32,278.255
							c-45.7-0.2-85.9-20.6-108.3-50.9c-3.9-5.4-7.4-11-10-16.7c-5.8-12.3-9-25.6-9-39.7c0-9.1,1.4-18.1,4-26.7"/>
						<path fill="none" stroke="#0A0000" stroke-width="3" stroke-miterlimit="10" d="M180.92,193.355c3.4-4.6,9-8.3,11.9-9.8
							c1.5-0.8,4.7-0.4,4.7-0.4"/>
						<path fill="none" stroke="#0A0000" stroke-width="3" stroke-miterlimit="10" d="M195.32,229.655c-5,0-18.2-13.6-18.1-26.6
							c0-3.6,1.5-6.7,3.4-9.6"/>
						<path fill="none" stroke="#000000" stroke-width="3" stroke-miterlimit="10" d="M174.62,172.355c-6,18-22.5,30.9-41.8,30.9
							c-23,0-41.9-18.4-44.1-41.8c-0.2-1.4-0.2-2.9-0.2-4.3c0-25.4,19.8-46,44.3-46s44.3,20.6,44.3,46
							C177.12,162.455,176.32,167.455,174.62,172.355"/>
						<path fill="none" stroke="#000000" stroke-width="3" stroke-miterlimit="10" d="M105.82,158.055c0-0.4,0-0.7,0-1.1
							c0-15.6,12.2-28,27-28s27,12.6,27,28c0,0.8,0,1.5-0.2,2.2c-0.2,3.2-1,6-1.9,8.9"/>
						<path fill="none" stroke="#000000" stroke-width="3" stroke-miterlimit="10" d="M181.22,192.955c0,0-0.2,0.4-0.7,0.8
							c-4,4.8-24.5,28-58.6,17.9c-23.9-7.2-46-35.6-41.9-63.4c2.4-14.9,12.2-29.7,33.5-41.1c1.8-1.1,3.9-1.9,5.8-2.9
							c13.6-6.2,24.4-5,33.2-1.5c1.5,0.7,3.1,1.4,4.6,2.1c32.3,16,35.8,78.8,35.8,78.8"/>
						<polyline fill="none" stroke="#000000" stroke-width="3" stroke-miterlimit="10" points="92.62,63.555 146.02,65.155 
							195.32,66.655 						"/>
						
							<line fill="none" stroke="#000000" stroke-width="3" stroke-miterlimit="10" x1="116.52" y1="79.155" x2="92.62" y2="63.555"/>
						
							<line fill="none" stroke="#000000" stroke-width="3" stroke-miterlimit="10" x1="148.92" y1="99.855" x2="116.52" y2="79.155"/>
						
							<line fill="none" stroke="#000000" stroke-width="3" stroke-miterlimit="10" x1="152.62" y1="102.355" x2="148.92" y2="99.855"/>
						<path fill="none" stroke="#000000" stroke-width="3" stroke-miterlimit="10" d="M93.12,63.555c0,0,0,0-0.5,0
							c0.5,0.8,21.8,35,13.1,29.4c-13.1-8.3-53.8-3.4-53.8-3.4l40.5,18l-35.6,4.6c0,0,18.5,3.3,24.5,10.5c0,0,0,0.2-0.2,0.4
							c0,0,0,0.2-0.2,0.2c-1,1.9-4.8,9-7.4,15.6c-0.8,2.1-1.5,4-1.9,5.7"/>
						<path fill="none" stroke="#000000" stroke-width="3" stroke-miterlimit="10" d="M129.52,506.255c-18.2-11.7-32.8-28-44.3-46.4
							c-25.4-41.1-35.7-92.1-37.2-124.4c-1.9-44.8,9.6-79.5,38.6-108.1"/>
						<path fill="none" stroke="#000000" stroke-width="3" stroke-miterlimit="10" d="M195.32,523.255c-4.1,0-8.3-0.2-12.3-0.5
							c-0.2,0-0.3,0-0.3,0"/>
						<path fill="none" stroke="#000000" stroke-width="3" stroke-miterlimit="10" d="M84.22,460.655h-0.2"/>
						<path fill="none" stroke="#000000" stroke-width="3" stroke-miterlimit="10" d="M76.82,210.455c0,0-3.4,2.5-9,7.4
							c-21.1,18.1-72,69.4-65.8,137.4c0.5,6,1.5,12.2,3.2,18.5c18.8,77.7,77.6,86.7,79,86.7l0,0"/>
						<path fill="none" stroke="#000000" stroke-width="3" stroke-miterlimit="10" d="M182.92,522.955c-1.4,6.7-4.7,12.3-8.7,15.2
							l-11.2-16.5l-10.6,16.5l-11.5-20.2l-8.7,14.4c-3.6-2.6-6.2-7.6-6.2-13.1c0-3.4,0.7-6.7,1.8-9.6c0.3-1.1,0.8-1.9,1.4-2.9
							c4.8-9,14.9-14.6,26.7-14.9c17.7-0.4,25.3,8.9,27.1,19.4l0,0C184.02,514.755,183.72,518.855,182.92,522.955z"/>
						<polyline fill="none" stroke="#000000" stroke-width="3" stroke-miterlimit="10" points="77.12,297.055 90.02,316.655 
							103.22,297.055 						"/>
						<polyline fill="none" stroke="#000000" stroke-width="3" stroke-miterlimit="10" points="103.62,345.655 115.12,365.055 
							126.32,347.355 						"/>
						<polyline fill="none" stroke="#000000" stroke-width="3" stroke-miterlimit="10" points="148.62,319.555 160.12,339.255 
							174.72,319.555 						"/>
						<polyline fill="none" stroke="#000000" stroke-width="3" stroke-miterlimit="10" points="158.72,393.955 171.72,416.455 
							184.82,393.955 						"/>
						<polyline fill="none" stroke="#000000" stroke-width="3" stroke-miterlimit="10" points="90.02,420.155 101.92,439.655 
							116.52,420.155 						"/>
						<polyline fill="none" stroke="#000000" stroke-width="3" stroke-miterlimit="10" points="148.62,454.755 160.12,474.155 
							174.72,454.755 						"/>
						<path fill="none" stroke="#000000" stroke-width="3" stroke-miterlimit="10" d="M116.52,79.155L116.52,79.155"/>
						<g id="outlines_2_">
							<path fill="none" stroke="#000000" stroke-width="3" stroke-miterlimit="10" d="M308.22,122.955c-0.8-1.2-1.8-2.5-3.1-3.4"/>
							<path fill="none" stroke="#000000" stroke-width="3" stroke-miterlimit="10" d="M317.72,144.255c-0.5-1.9-1.1-3.9-1.9-5.7"/>
							<ellipse fill="none" stroke="#000000" stroke-width="3" stroke-miterlimit="10" cx="256.72" cy="157.055" rx="27" ry="28"/>
							<path fill="none" stroke="#000000" stroke-width="3" stroke-miterlimit="10" d="M194.32,278.255
								c45.7-0.2,85.9-20.6,108.3-50.9c4-5.4,7.4-11,10.1-16.7c5.8-12.3,9-25.6,9-39.7c0-9.1-1.4-18.1-4-26.7"/>
							<path fill="none" stroke="#0A0000" stroke-width="3" stroke-miterlimit="10" d="M208.92,193.755c-3.4-4.6-9.3-8.7-12.2-10.3
								c-1.5-0.8-2.5-1.2-2.5-1.2"/>
							<path fill="none" stroke="#0A0000" stroke-width="3" stroke-miterlimit="10" d="M194.32,229.655c5,0,18.2-13.6,18.1-26.6
								c0-3.6-1.5-6.7-3.4-9.6"/>
							<path fill="none" stroke="#000000" stroke-width="3" stroke-miterlimit="10" d="M214.92,172.355c6,18,22.5,30.9,41.8,30.9
								c23.1,0,41.9-18.4,44.1-41.8c0.2-1.4,0.2-2.9,0.2-4.3c0-25.4-19.8-46-44.3-46s-44.3,20.6-44.3,46
								C212.52,162.455,213.32,167.455,214.92,172.355"/>
							<path fill="none" stroke="#000000" stroke-width="3" stroke-miterlimit="10" d="M283.82,158.055c0-0.4,0-0.7,0-1.1
								c0-15.6-12.2-28-27-28s-27,12.6-27,28c0,0.8,0,1.5,0.2,2.2c0.2,3.2,1,6,1.9,8.9"/>
							<path fill="none" stroke="#000000" stroke-width="3" stroke-miterlimit="10" d="M208.42,192.955c0,0,0.2,0.4,0.7,0.8
								c4,4.8,24.5,28,58.6,17.9c23.9-7.2,46-35.6,41.9-63.4c-2.4-14.9-12.2-29.7-33.3-41.1c-1.8-1.1-3.9-1.9-5.8-2.9
								c-13.6-6.2-24.4-5-33.2-1.5c-1.5,0.7-3.1,1.4-4.6,2.1c-32.4,16-35.8,78.8-35.8,78.8"/>
							<polyline fill="none" stroke="#000000" stroke-width="3" stroke-miterlimit="10" points="297.02,63.555 243.82,65.155 
								194.32,66.655 							"/>
							
								<line fill="none" stroke="#000000" stroke-width="3" stroke-miterlimit="10" x1="273.02" y1="79.155" x2="297.02" y2="63.555"/>
							
								<line fill="none" stroke="#000000" stroke-width="3" stroke-miterlimit="10" x1="241.02" y1="99.855" x2="273.02" y2="79.155"/>
							
								<line fill="none" stroke="#000000" stroke-width="3" stroke-miterlimit="10" x1="237.12" y1="102.355" x2="241.02" y2="99.855"/>
							<path fill="none" stroke="#000000" stroke-width="3" stroke-miterlimit="10" d="M296.52,63.555c0,0,0,0,0.5,0
								c-0.5,0.8-21.8,35-13.1,29.4c13.1-8.3,53.8-3.4,53.8-3.4l-40.5,18l35.6,4.6c0,0-18.5,3.3-24.5,10.5c0,0,0,0.2,0.2,0.4
								c0,0,0,0.2,0.2,0.2c1,1.9,4.8,9,7.4,15.6c0.8,2.1,1.5,4,1.9,5.7"/>
							<path fill="none" stroke="#000000" stroke-width="3" stroke-miterlimit="10" d="M260.12,506.255c18.2-11.7,32.8-28,44.3-46.4
								c25.4-41.1,35.7-92.1,36.9-124.4c1.9-44.8-9.6-79.5-38.6-108.1"/>
							<path fill="none" stroke="#000000" stroke-width="3" stroke-miterlimit="10" d="M194.32,523.255c4.1,0,8.3-0.2,12.3-0.5
								c0.2,0,0.3,0,0.3,0"/>
							<path fill="none" stroke="#000000" stroke-width="3" stroke-miterlimit="10" d="M305.42,460.655h0.2"/>
							<path fill="none" stroke="#000000" stroke-width="3" stroke-miterlimit="10" d="M312.72,210.455c0,0,3.4,2.5,9,7.4
								c21.1,18.1,72,69.6,65.8,137.4c-0.5,6-1.5,12.2-3.1,18.5c-18.8,77.7-77.6,86.7-79,86.7l0,0"/>
							<path fill="none" stroke="#000000" stroke-width="3" stroke-miterlimit="10" d="M206.52,522.955c1.4,6.7,4.7,12.3,8.7,15.2
								l11.2-16.5l10.6,16.5l11.5-20.2l8.7,14.4c3.6-2.6,6.2-7.6,6.2-13.1c0-3.4-0.7-6.7-1.8-9.6c-0.3-1.1-0.8-1.9-1.4-2.9
								c-4.8-9-14.9-14.6-26.7-14.9c-17.7-0.4-25.3,8.9-27.1,19.4l0,0C205.62,514.755,205.72,518.855,206.52,522.955z"/>
							<polyline fill="none" stroke="#000000" stroke-width="3" stroke-miterlimit="10" points="312.52,297.055 299.62,316.655 
								286.62,297.055 							"/>
							<polyline fill="none" stroke="#000000" stroke-width="3" stroke-miterlimit="10" points="285.92,345.655 274.62,365.055 
								263.22,347.355 							"/>
							<polyline fill="none" stroke="#000000" stroke-width="3" stroke-miterlimit="10" points="241.02,319.555 229.72,339.255 
								214.92,319.555 							"/>
							<polyline fill="none" stroke="#000000" stroke-width="3" stroke-miterlimit="10" points="230.92,393.955 217.92,416.455 
								204.92,393.955 							"/>
							<polyline fill="none" stroke="#000000" stroke-width="3" stroke-miterlimit="10" points="299.62,420.155 287.92,439.655 
								273.22,420.155 							"/>
							<polyline fill="none" stroke="#000000" stroke-width="3" stroke-miterlimit="10" points="241.02,454.755 229.72,474.155 
								214.92,454.755 							"/>
							<path fill="none" stroke="#000000" stroke-width="3" stroke-miterlimit="10" d="M273.02,79.155L273.02,79.155"/>
						</g>
					</g>
				</g>
			</g>
		</g>
	</g>
	<g id="top_1_">
		<g id="eye_lens_3_">
			<path id="eye_lens_2_3_" fill="#FFFFFF" d="M127.72,125.855c3.1,3.6,0.5,13.6-5.8,17.9c-6.5,4.3-12,5-15.2,1.5
				c-3.1-3.6-2.8-9.6,5-16C117.72,123.855,124.72,122.255,127.72,125.855z"/>
			<path id="eye_lens_1_3_" fill="#FFFFFF" d="M118.52,152.155c1.4,1.5,0.2,5.4-1.5,6.9s-4.1,1.5-5.5,0s-1-4.1,0.7-5.7
				C113.92,151.955,117.22,150.655,118.52,152.155z"/>
		</g>
		<g id="eye_lens_2_">
			<path id="eye_lens_2_2_" fill="#FFFFFF" d="M252.62,125.855c3.1,3.6,0.5,13.6-5.8,17.9c-6.5,4.3-12,5-15.2,1.5
				c-3.2-3.4-2.8-9.6,5-16C242.62,123.855,249.62,122.255,252.62,125.855z"/>
			<path id="eye_lens_1_2_" fill="#FFFFFF" d="M241.82,152.155c1.4,1.5,0.2,5.4-1.5,6.9s-4.1,1.5-5.5,0s-1-4.1,0.7-5.7
				C237.12,151.955,240.42,150.655,241.82,152.155z"/>
		</g>
	</g>
</g>
<g id="Vrstva_2_1_">
	<g>
		<title>Layer 1</title>
		<path id="path37_1_" stroke="#000000" stroke-width="0.5" stroke-miterlimit="10" d="M95.82,122.555c0.2,8.9-1.3,16.7-4.6,24.2
			c-3.3,7.4-9.1,15.8-15.2,19.9c-6.3,4-16.3,8.5-21.9,4.3c-5.6-4.4-8.4-22-11.3-29.9c-3-7.8-5.3-11.7-6-16.9
			c-0.7-5.3-1.2-9.9,2-14.6s8.9-9.3,17.3-13.6l0,0c0.1-5.8,1.5-10.3,4-13.9c2.5-3.7,6-6.1,11-7.6l0,0c-0.1-8.8,2.3-15.7,7-20.9
			c4.8-5.3,11.7-8.6,21.2-10.3l0,0c5.4-7.9,11-13.9,16.9-18.2s12-6.8,18.6-7.6l0,0c3.9-6,8.9-10.2,15.6-12.6
			c6.7-2.5,17.3-2.1,23.9-2c6.6,0,12,0.9,15.2,2s4.4,2.6,3.7,4.6l0,0c8.5-4,16.3-6.7,23.9-8c7.6-1.4,14.7-1.8,21.2,0
			c6.4,1.8,11.9,5.1,16.9,10.3l0,0c8.2-0.4,15.1,1,21.3,3.7c6.1,2.8,11.3,6.8,15.2,12.6c3.9,5.6,6.5,12.4,8,20.9l0,0
			c8.2,5.1,14.7,9.7,19.9,14.3c5.2,4.5,8,7.1,10.6,12.6c2.5,5.4,2.7,15,4.6,19.9c1.9,4.8,4.3,4.4,6.7,9.3c2.2,4.8,5.9,14.2,7,19.5
			s-0.8,8.1-0.6,12.3c0.1,4.1,2.5,6.7,1.3,12.6c-1.3,6-4.6,17.3-8.3,22.5c-3.8,5.1-8.7,8.2-13.6,8.3c-4.9,0-9.7-4.8-15.2-8
			c-5.7-3.2-14.1-7.4-18.2-11c-4.1-3.7-5.6-6.7-6.7-10.6c-1.1-3.9-1.1-8.1,0-12.6l0,0c-5.6-2.6-9.8-4.9-13-7s-5-3.9-5.6-5.3l0,0
			c-7.3-1.6-12.4-2.9-15.6-4c-3.2-1.1-4.4-2-3.7-2.6l0,0c-6.7-0.5-12.4-1.9-17.6-4.3c-5.2-2.5-9.6-5.7-13.3-10l0,0
			c-7.6,1.1-13.7-0.2-18.2-4.3c-4.6-4.2-7.4-10.8-8.9-20.2l0,0l-12.6-2.6l0,0c-3,6.5-7,11.4-12.3,14.9c-5.3,3.6-13.2,5.8-19.3,6.3
			c-6,0.4-11.5-1-16.6-4l0,0c-1.8,4.6-3.9,8.9-6.3,12.6c-2.5,3.8-4,7.4-8.7,10C110.72,120.055,104.32,121.755,95.82,122.555
			L95.82,122.555z"/>
		<path id="path39_1_" fill="#BFBFBF" d="M93.02,120.355c1.1,8.5,0,16.3-3,23.6c-3.2,7.4-9.6,15.7-15.2,19.9
			c-5.7,4.1-13.3,8.2-18.2,4.6c-4.8-3.9-7.9-19.3-10.6-26.9c-2.9-7.6-5.2-13-6-18.2c-0.8-5.3-1.3-9.2,1.7-13.3
			c3.1-4.1,8.3-7.9,16.2-11.3l0,0c0.1-5.8,1.5-10.3,4-13.9c2.5-3.7,6-6.1,11-7.6l0,0c-0.1-8.8,2.3-15.7,7-20.9
			c4.8-5.3,11.7-8.6,21.2-10.3l0,0c5.3-7.9,11-13.9,16.9-18.2s12.1-6.8,18.6-7.6l0,0c3.9-6,8.9-10.2,15.6-12.6
			c6.6-2.5,17.9-1.8,23.9-2c6-0.4,9.4-0.9,11.9,0.4c2.5,1.1,3.6,3.3,3.3,6.7l0,0c10.3-4.2,19.3-6.9,27.5-8.3s15.2-1.7,21.2,0
			c5.9,1.7,10.5,4.9,13.9,10l0,0c10.3,0.2,18.3,1.5,24.3,3.9c5.9,2.4,8.1,5.3,11.3,10.6s5.9,12.2,8,20.9l0,0
			c8.2,5.1,14.7,9.7,19.9,14.3c5.2,4.5,8,7.1,10.6,12.6c2.5,5.4,2.7,15,4.6,19.9c1.9,4.8,4.3,4.4,6.7,9.3c2.3,4.9,5.9,13.6,6.9,19.5
			s-0.7,11.5-0.6,15.6c0.1,4,1.8,3.9,1,8.7c-1,4.8-3.4,15.3-6.7,19.9c-3.2,4.6-8.1,6.8-12.6,7c-4.6-0.1-9.5-4.1-14.6-7
			c-5.3-2.8-12.4-6.2-16.2-9.6c-3.8-3.4-5.6-6.7-6.7-10.6c-1.1-3.9-1.1-8.1,0-12.6l0,0c-6.3-3.7-10.9-6.6-14.3-8.9
			c-3.3-2.5-5.3-4.1-5.6-5.3l0,0c-4.1,0.1-7.7-0.5-11-1.7c-3.2-1.1-6-3-8.3-5.3l0,0c-7.3,0.3-13.5-0.5-18.9-2.6
			c-5.4-2.2-9.7-5.4-13.3-10l0,0c-7.2,1.9-12.8,0.8-16.9-3.3c-4.2-4.2-6.8-11.3-8-21.6l0,0l-16.6-4l0,0c-2.5,6.6-6.2,11.7-11.3,15.2
			c-5.3,3.6-13.1,5.9-19.3,6.3c-6,0.4-11.5-1-16.6-4l0,0c-3,5.3-5.7,10-8.7,13.9s-3.9,7.4-8.7,10
			C107.72,117.755,101.32,119.455,93.02,120.355L93.02,120.355z"/>
		<path id="path41_1_" stroke="#000000" stroke-width="0.5" stroke-miterlimit="10" d="M176.22,75.155c1.5-3.2,3-6.7,4.3-11
			c1.3-4.2,3.4-8.8,4-13.9c0.6-5.3-0.1-13.3-0.4-17.3c-0.4-3.9-1.8-5.5-1.3-6.3c0.4-1,3.2-0.7,3.9,1c0.6,1.7,0.4,4.9,0.4,8.9
			s0.2,10-0.4,14.6c-0.7,4.6-1.9,8.4-3.3,12.6s-3,8.2-5,12.3l0,0C177.82,75.755,177.02,75.555,176.22,75.155L176.22,75.155z"/>
		<path id="path43_1_" stroke="#000000" stroke-width="0.5" stroke-miterlimit="10" d="M191.52,11.455c0.1,2.3-0.2,4.6-0.6,6.6
			c-0.6,2.1-2.3,4.9-2.4,6c0,1,1.3,1,2.4,0c0.9-1.2,2.7-4.3,3.3-6.7c0.4-2.3,0.4-4.6-0.4-6.9l0,0
			C193.02,10.755,192.22,11.155,191.52,11.455L191.52,11.455z"/>
		<path id="path45_1_" stroke="#000000" stroke-width="0.5" stroke-miterlimit="10" d="M201.12,25.655c1.8-2.3,5-4.4,9.3-6.3
			c4.3-2,10.9-4.5,16.6-5.3c5.7-0.9,13.2-1.1,17.3,0.6c3.9,1.8,6,5.2,6.3,10.3l0,0c3.5,0.4,6.7,1.2,10,2.3c3.2,1,7.4,2,8.9,4
			c1.4,1.9,0.4,6.5,0,7.6c-0.4,1-1.8-0.2-2.3-1.3s0.4-4-0.7-5.3c-1.1-1.3-2.9-1.9-6-2.6c-3.2-0.9-7.1-1.7-12.3-2.4l0,0
			c0.6-3.9-0.1-6.7-2-8.6c-2-1.9-6-2.8-9.6-3c-3.7-0.3-8.2,0.4-12.3,1.3c-4.2,1-9,2.7-12.3,4.3c-3.3,1.5-5.3,2.9-7.3,4.6
			c-1.9,1.7-3.2,4.6-4.3,5.3c-1.2,0.5-2.7-0.7-2.7-1.7C197.92,28.655,199.02,27.455,201.12,25.655L201.12,25.655L201.12,25.655z"/>
		<path id="path47_1_" stroke="#000000" stroke-width="0.5" stroke-miterlimit="10" d="M207.42,50.555c2.5-1.2,8-3.2,14.6-3.7
			c6.5-0.4,17.4-0.1,24.3,1c6.7,1.1,11.5,3.4,16.6,5.6c5.1,2.2,10.7,4.1,13.9,7.6s3.6,9.2,5,13.3c1.3,4,1.1,8.4,3,10.6
			c1.7,2,4.7,1.7,7.6,1.7c2.9-0.1,6.2-2.3,9.6-2c3.3,0.3,7.7,1.3,10.3,3.7c2.5,2.4,4,8.4,4.3,10.3c0.1,1.7-2,1.9-3.3,0.4
			c-1.3-1.7-2.3-7.8-4.6-9.6c-2.5-1.8-7.4-1.5-10.3-1.3c-2.9,0.1-4.6,2.2-7,2c-2.6-0.3-6-1.2-8-3s-2.1-3.8-3.3-7.3
			c-1.3-3.7-1.1-10.2-4-13.9c-3-3.8-7.8-6.1-13-8.7c-5.2-2.7-11.8-5.6-17.6-6.9c-5.8-1.3-11.3-1.1-16.6-1s-11.3,0.4-14.9,1.3
			c-3.7,0.9-5.6,3.6-6.7,3.7C206.32,54.155,205.02,51.755,207.42,50.555L207.42,50.555z"/>
		<path id="path49_1_" stroke="#000000" stroke-width="0.5" stroke-miterlimit="10" d="M291.72,129.555c1.4,1.1,5.6,2.3,6.7,4.6
			c1,2.4-1.2,5.8-0.6,9.3c0.5,3.5,2.5,9.5,3.7,11.3c1.1,1.7,3,0.8,3-1c-0.1-1.8-3-6.5-3.3-9.6c-0.4-3.2,2.6-6.4,1.3-9.3
			c-1.4-3-7.2-6.7-9.3-8s-3.2-0.1-3.3,0.4C289.52,127.655,290.12,128.355,291.72,129.555L291.72,129.555z"/>
		<path id="path51_1_" stroke="#000000" stroke-width="0.5" stroke-miterlimit="10" d="M336.52,153.255c-0.2,1.9-1.1,7.4-3.3,9.6
			c-2.4,2.2-8.7,3.5-10.3,3.7c-1.7,0-0.9-2.5,0.4-3.3c1.1-0.9,5-0.9,6.7-2c1.6-1.2,2.5-3.6,3.3-5.3c0.6-1.8,0.5-4.6,1-5
			C334.72,150.355,336.62,151.055,336.52,153.255L336.52,153.255z"/>
		<path id="path53_1_" stroke="#000000" stroke-width="0.5" stroke-miterlimit="10" d="M197.82,62.855c1.5,0.6,5.6,3.2,8.3,6.7
			c2.7,3.4,4,10.8,8,13.9c3.9,3.1,10.5,3.1,15.2,4.6c4.7,1.4,8.8,2.2,12.6,4.3c3.6,2.2,5.2,6.6,9.3,8.9c4,2.3,12.4,3.7,14.9,5
			c2.4,1.2,2.3,3-0.4,2.6s-10.9-2.8-15.2-5.3c-4.5-2.6-6.1-7.5-11-10c-5-2.4-13.7-3.1-18.2-4.3c-4.6-1.3-6.1-1.3-8.7-3.7
			c-2.5-2.5-3.8-7.6-6.3-11c-2.7-3.3-8.2-6.9-9.6-8.9C195.32,63.755,196.22,62.155,197.82,62.855L197.82,62.855z"/>
		<path id="path55_1_" stroke="#000000" stroke-width="0.5" stroke-miterlimit="10" d="M164.92,49.255c-4.3,9.9-8.3,16.8-12.6,21.2
			c-4.3,4.3-8.9,4.2-12.6,4.6c-3.6,0.4-6.6-0.4-8.9-2.4l0,0c-2.8,5.3-6.1,9.6-10.3,13c-4.2,3.2-10.4,5.4-14.6,6.7
			c-4.2,1.1-8.7-0.3-10.3,0.4c-1.6,0.6-1.8,2.8,0.6,3.3c2.4,0.4,9.4-0.1,13.6-1c4.1-1.1,7.6-2.1,11.3-5c3.6-2.9,6.9-7,10.3-12.3l0,0
			c4.9,1.9,9.7,2.2,14.6,0.4c4.8-1.8,10.7-6.7,14.3-11c3.5-4.4,6.1-11.6,6.9-14.6C168.02,49.555,167.32,48.455,164.92,49.255
			L164.92,49.255z"/>
		<path id="path57_1_" stroke="#000000" stroke-width="0.5" stroke-miterlimit="10" d="M173.82,34.355c-2-3.2-4.6-5.6-8-7
			c-3.3-1.5-8.7-2.8-11.9-1.7c-3.2,1.1-5.9,3.9-7.6,8.3l0,0c-10.2,1.5-16.9,3.6-20.9,6.3c-3.9,2.6-4.8,5.9-2.6,9.6l0,0
			c-7,0.6-12.5,2-16.6,4.3c-4.2,2.3-6.1,8.1-8,9.3c-1.8,1.1-3.5-0.4-2.6-2.3c0.8-2.1,3.9-7.3,8-9.6c4-2.4,9.2-3.9,15.9-4.6l0,0
			c-0.6-3.2,0.1-5.8,2.3-8c2.2-2.2,6.8-3.8,10.6-5c3.7-1.2,7.4-2,11.3-2.3l0,0c0.8-4.3,3-7.1,6.7-8.7c3.6-1.5,10.8-1.6,14.9-0.4
			c4.1,1.1,8.5,5,10,7C176.62,31.655,176.22,33.155,173.82,34.355L173.82,34.355z"/>
		<path id="path59_1_" stroke="#000000" stroke-width="0.5" stroke-miterlimit="10" d="M84.32,122.255c-0.3,2.7-2,9.4-5,14.6
			c-3.2,5.2-10.8,14.2-13.2,16.3c-2.5,1.9-2.1-2.7-1.3-4.3c0.7-1.8,3.7-3.4,5.6-6c1.9-2.5,4.2-5.6,6-9.3c1.7-3.9,3-11.4,4.3-13.3
			C81.92,118.355,84.52,119.455,84.32,122.255L84.32,122.255z"/>
		<path id="path71_1_" stroke="#000000" stroke-width="0.5" stroke-miterlimit="10" d="M271.12,107.355c-0.4,0.5,0.1,2.7,0.7,3.3
			c0.4,0.5,2.2,0.5,2.6,0c0.4-0.6,0.4-2.8,0-3.3C273.92,106.755,271.62,106.755,271.12,107.355L271.12,107.355z"/>
		<path id="path73_1_" stroke="#000000" stroke-width="0.5" stroke-miterlimit="10" d="M315.92,103.655c-0.4,0.5,0.1,2.7,0.6,3.3
			c0.4,0.5,2.2,0.5,2.6,0c0.4-0.6,0.4-2.8,0-3.3C318.62,103.155,316.32,103.155,315.92,103.655L315.92,103.655z"/>
		<path id="path75_1_" stroke="#000000" stroke-width="0.5" stroke-miterlimit="10" d="M322.92,128.555c-0.4,0.5,0.1,2.7,0.7,3.3
			c0.4,0.5,2.2,0.5,2.6,0c0.4-0.6,0.4-2.8,0-3.3C325.62,128.055,323.32,128.055,322.92,128.555L322.92,128.555z"/>
		<path id="path77_1_" stroke="#000000" stroke-width="0.5" stroke-miterlimit="10" d="M60.02,156.155c-0.4,0.5,0.1,2.7,0.6,3.3
			c0.5,0.5,2.2,0.5,2.7,0c0.4-0.6,0.4-2.8,0-3.3C62.82,155.555,60.52,155.555,60.02,156.155L60.02,156.155z"/>
	</g>
</g>
</svg>
