<!-- Generator: Adobe Illustrator 18.1.1, SVG Export Plug-In  -->
<svg version="1.1"
	 xmlns="http://www.w3.org/2000/svg" xmlns:xlink="http://www.w3.org/1999/xlink" xmlns:a="http://ns.adobe.com/AdobeSVGViewerExtensions/3.0/"
	 x="0px" y="0px" width="531px" height="679px" viewBox="0 0 531 679" enable-background="new 0 0 531 679" xml:space="preserve">
<defs>
</defs>
<g id="owl-base_2_">
	<g id="body_1_">
		<path fill="#AF8C69" d="M266.875,346.801c48.416-0.201,91.006-21.797,114.712-53.941l0.201,0.201
			c30.938,30.436,43.092,66.899,40.883,114.511c-1.607,34.152-12.154,88.294-39.074,131.688
			c-12.154,19.487-27.523,36.965-46.909,49.22l0,0c-5.123-9.543-15.77-15.469-28.326-15.77c-18.784-0.502-26.82,9.342-28.728,20.492
			l0,0c-0.703,4.319-0.603,8.639,0.301,12.857c-4.319,0.502-8.639,0.603-12.958,0.603s-8.839-0.201-12.958-0.603
			c0.804-4.319,1.004-8.639,0.301-12.857l0,0c-1.909-11.15-10.145-20.994-28.728-20.491c-12.355,0.201-23.103,6.328-28.326,15.77
			l0,0c-19.286-12.355-34.755-29.733-46.909-49.22c-26.92-43.494-37.769-97.535-39.376-131.688
			c-2.009-47.412,10.145-84.176,40.882-114.511l0.201-0.201C175.768,325.204,218.258,346.7,266.875,346.801z"/>
		<g>
			<g id="fill_x5F_bottom_1_">
				<path fill="#C4731A" d="M225.49,572.609c25.815-0.603,31.641,18.282,28.427,33.449c-1.507,7.031-5.022,12.958-9.141,16.172
					l-11.853-17.478l-11.25,17.478l-11.953-21.396l-9.141,15.268c-3.817-2.813-6.63-8.036-6.63-13.962
					c0-5.022,1.205-9.543,3.315-13.36C202.387,578.837,213.035,572.609,225.49,572.609z"/>
				<path fill="#AF8C69" d="M266.875,572.609v33.952c-4.319,0-8.839-0.201-12.958-0.603c3.214-15.168-2.813-33.952-28.427-33.449
					c-12.355,0.201-23.003,6.328-28.326,15.77l0,0c-19.286-12.355-34.755-29.733-46.909-49.22
					c-26.92-43.494-37.769-97.535-39.376-131.688c-2.009-47.412,10.145-84.176,40.883-114.511l0.201-0.201
					c23.806,32.244,66.396,53.74,114.712,53.941v33.851c0,0-63.082,5.123-74.533-14.063c-15.369-25.514-37.668-32.445-58.059-21.395
					c-25.614,13.661,1.004,165.037,20.592,179.1c25.614,18.282,39.778-0.703,57.858,19.587
					C229.207,562.865,245.078,562.665,266.875,572.609z"/>
				<path fill="#42210B" d="M189.228,276.286c36.061,10.648,57.858-13.661,62.077-18.985c-2.009,3.013-3.516,6.328-3.616,10.145
					c-0.201,13.761,13.962,28.126,19.186,28.126v51.229c-48.416-0.201-91.006-21.797-114.712-53.941
					c-4.118-5.726-7.835-11.652-10.547-17.779c-6.127-12.958-9.543-27.121-9.543-42.088c0-9.643,1.507-19.186,4.319-28.326
					c0.603-2.009,1.205-4.118,2.009-6.027c2.813-6.73,6.83-14.364,7.935-16.474c0,0,0-0.201,0.201-0.201
					c0.201-0.201,0.201-0.502,0.201-0.502c-6.328-7.835-25.916-11.15-25.916-11.15l37.668-4.822l-43.193-18.985
					c0,0,42.891-5.123,56.954,3.616c9.141,5.826-13.46-30.335-13.962-31.139l63.584,40.983l-0.201,0.502
					c-9.543-3.616-20.793-5.022-35.157,1.607c-2.009,0.804-4.319,2.009-6.127,3.013
					C115.901,199.945,150.254,264.634,189.228,276.286z"/>
				<path fill="#C7B299" d="M266.875,122.7v122.447c0,0-1.004,0.603-2.612,1.306c0,0-3.616-66.396-37.969-83.473
					c-1.607-0.703-3.214-1.507-4.822-2.21l0.201-0.502l-63.584-40.983l0,0l56.352,1.607L266.875,122.7z"/>
				<path fill="#EFDECE" d="M189.228,276.286c-39.074-11.652-73.528-76.441-8.94-110.594c1.909-1.205,4.118-2.009,6.127-3.013
					c14.364-6.63,25.815-5.324,35.157-1.607c1.607,0.703,3.315,1.507,4.822,2.21c34.253,16.976,37.97,83.473,37.97,83.473
					c-3.214,1.607-8.538,5.123-12.154,9.944c0,0-0.201,0.502-0.703,0.804C247.087,262.625,225.49,287.134,189.228,276.286z
					 M245.078,234.7C245.078,234.7,245.078,234.299,245.078,234.7c1.808-5.123,2.612-10.346,2.612-15.971
					c0-26.92-20.994-48.717-46.909-48.717s-46.909,21.797-46.909,48.717s20.994,48.717,46.909,48.717
					C221.372,267.447,238.749,253.685,245.078,234.7z"/>
				<path fill="#42210B" d="M200.679,188.795c-15.77,0-28.628,13.36-28.628,29.733c0,16.474,12.857,29.733,28.628,29.733
					s28.628-13.36,28.628-29.733C229.307,202.055,216.55,188.795,200.679,188.795z M153.77,218.428
					c0-26.92,20.994-48.717,46.909-48.717s46.909,21.797,46.909,48.717c0,5.726-0.804,10.949-2.612,15.971c0,0,0,0,0,0.201
					c-6.328,18.985-23.806,32.746-44.298,32.746C174.764,267.447,153.77,245.348,153.77,218.428z"/>
				<path fill="#0F0602" d="M172.052,218.428c0-16.474,12.857-29.733,28.628-29.733s28.628,13.36,28.628,29.733
					c0,16.474-12.857,29.733-28.628,29.733C185.009,248.462,172.052,235.002,172.052,218.428z"/>
				<path fill="#42210B" d="M65.476,448.053c-24.509-101.152,76.24-173.073,76.24-173.073c3.013,6.328,6.63,12.154,10.547,17.779
					l-0.201,0.201c-30.938,30.436-43.092,67.1-40.983,114.511c1.607,34.152,12.154,88.294,39.376,131.688l-1.004,0.703l0,0
					C147.844,540.064,85.565,530.32,65.476,448.053z"/>
				<path fill="#FBB03B" d="M266.875,245.147v50.425c-5.324,0-19.286-14.364-19.186-28.126c0-3.817,1.607-7.132,3.616-10.145
					c0.603-0.603,0.703-0.804,0.703-0.804c3.616-4.822,9.141-8.136,12.154-9.944C265.971,245.649,266.875,245.147,266.875,245.147z"
					/>
				<path fill="#51260E" d="M145.734,183.07c0.201-0.201,0.201-0.502,0.301-0.603c-1.004,2.009-5.123,9.543-7.935,16.474
					C140.31,193.517,142.821,188.193,145.734,183.07z"/>
				<g id="fill_x5F_bottom_2_">
					<path fill="#C4731A" d="M307.155,572.609c-25.815-0.603-31.641,18.282-28.427,33.449c1.507,7.031,5.022,12.958,9.141,16.172
						l11.853-17.478l11.25,17.478l11.953-21.396l9.141,15.268c3.817-2.813,6.63-8.036,6.63-13.962c0-5.022-1.205-9.543-3.315-13.36
						C330.157,578.837,319.61,572.609,307.155,572.609z"/>
					<path fill="#AF8C69" d="M265.77,572.609v33.952c4.319,0,8.839-0.201,12.958-0.603c-3.214-15.168,2.813-33.952,28.427-33.449
						c12.355,0.201,23.003,6.328,28.326,15.77l0,0c19.286-12.355,34.755-29.733,46.909-49.22
						c26.92-43.494,37.769-97.535,39.376-131.688c2.009-47.412-10.145-84.176-40.883-114.511l-0.201-0.201
						c-23.806,32.244-66.396,53.74-114.712,53.941v33.851c0,0,63.082,5.123,74.533-14.063
						c15.369-25.514,37.668-32.445,58.059-21.395c25.614,13.661-1.004,165.037-20.592,179.1
						c-25.313,18.282-39.778-0.703-57.858,19.587C303.539,562.865,287.567,562.665,265.77,572.609z"/>
					<path fill="#42210B" d="M343.316,276.286c-36.061,10.648-57.858-13.661-62.077-18.985c2.009,3.013,3.516,6.328,3.616,10.145
						c0.201,13.761-13.962,28.126-19.186,28.126v51.229c48.416-0.201,91.006-21.797,114.712-53.941
						c4.319-5.726,7.835-11.652,10.648-17.779c6.127-12.958,9.543-27.121,9.543-42.088c0-9.643-1.507-19.186-4.319-28.326
						c-0.603-2.009-1.205-4.118-2.009-6.027c-2.612-6.73-6.831-14.364-7.935-16.474c0,0,0-0.201-0.201-0.201
						c-0.201-0.201-0.201-0.502-0.201-0.502c6.328-7.835,25.916-11.15,25.916-11.15l-37.668-4.822l42.891-18.985
						c0,0-42.891-5.123-56.954,3.616c-9.141,5.826,13.46-30.335,13.962-31.139l-63.584,40.983l0.201,0.502
						c9.543-3.616,20.793-5.022,35.157,1.607c2.009,0.804,4.319,2.009,6.127,3.013C416.844,199.945,382.591,264.634,343.316,276.286
						z"/>
					<path fill="#C7B299" d="M262.053,122.7l3.616,122.447c0,0,1.004,0.603,2.612,1.306c0,0,3.616-66.396,37.969-83.473
						c1.607-0.703,3.214-1.507,4.822-2.21l-0.201-0.502l63.584-40.983l0,0l-56.753,1.607L262.053,122.7z"/>
					<path fill="#EFDECE" d="M343.316,276.286c39.074-11.652,73.528-76.441,8.94-110.594c-1.909-1.205-4.118-2.009-6.127-3.013
						c-14.364-6.63-25.815-5.324-35.157-1.607c-1.607,0.703-3.315,1.507-4.822,2.21c-34.253,16.976-37.969,83.473-37.969,83.473
						c3.214,1.607,8.538,5.123,12.154,9.944c0,0,0.201,0.502,0.703,0.804C285.458,262.625,307.456,287.134,343.316,276.286z
						 M287.668,234.7C287.567,234.7,287.567,234.299,287.668,234.7c-1.808-5.123-2.612-10.346-2.612-15.971
						c0-26.92,20.994-48.717,46.909-48.717c25.916,0,46.909,21.797,46.909,48.717s-20.994,48.717-46.909,48.717
						C311.374,267.447,293.996,253.685,287.668,234.7z"/>
					<path fill="#42210B" d="M331.865,188.795c15.77,0,28.628,13.36,28.628,29.733c0,16.474-12.857,29.733-28.628,29.733
						c-15.77,0-28.628-13.36-28.628-29.733S316.095,188.795,331.865,188.795z M378.774,218.428c0-26.92-20.994-48.717-46.909-48.717
						c-25.916,0-46.909,21.797-46.909,48.717c0,5.726,0.804,10.949,2.612,15.971c0,0,0,0,0,0.201
						c6.328,18.985,23.806,32.746,44.298,32.746C357.781,267.447,378.774,245.348,378.774,218.428z"/>
					<path fill="#0F0602" d="M360.493,218.428c0-16.474-12.857-29.733-28.628-29.733c-15.77,0-28.628,13.36-28.628,29.733
						c0,16.474,12.857,29.733,28.628,29.733C347.736,248.462,360.493,235.002,360.493,218.428z"/>
					<path fill="#42210B" d="M467.069,448.053c24.509-101.152-75.839-172.972-75.839-172.972
						c-3.013,6.328-6.63,12.154-10.648,17.779l0.201,0.201c30.938,30.335,43.193,66.899,40.883,114.31
						c-1.607,34.152-12.154,88.294-39.376,131.688l1.004,0.703l0,0C385.103,540.064,447.28,530.32,467.069,448.053z"/>
					<path fill="#FBB03B" d="M265.77,245.147v50.425c5.324,0,19.286-14.364,19.186-28.126c0-3.817-1.607-7.132-3.616-10.145
						c-0.603-0.603-0.703-0.804-0.703-0.804c-3.616-4.822-9.141-8.136-12.154-9.944C266.875,245.649,265.77,245.147,265.77,245.147z
						"/>
					<path fill="#51260E" d="M386.911,183.07c-0.201-0.201-0.201-0.502-0.301-0.603c1.004,2.009,5.324,9.543,7.935,16.474
						C392.435,193.517,389.723,188.193,386.911,183.07z"/>
				</g>
				<path fill="#C7B299" d="M374.455,455.988c-5.123,58.059-49.421,105.471-110.292,105.471S156.482,514.148,153.87,455.988
					c-4.52-100.85,49.421-93.718,110.292-93.718S383.194,357.147,374.455,455.988z"/>
			</g>
			<g id="fill_x5F_top_1_">
				<path display="none" fill="#AF8C69" d="M266.875,572.609v33.952c-4.319,0-8.839-0.201-12.958-0.603
					c0.804-4.319,1.004-8.639,0.301-12.857l0,0c-1.909-11.15-10.145-20.994-28.728-20.492c-12.355,0.201-23.103,6.328-28.326,15.77
					l0,0c-19.286-12.355-34.755-29.733-46.909-49.22c-26.92-43.494-37.769-97.535-39.376-131.688
					c-2.009-47.412,10.145-84.176,40.883-114.511l0.201-0.201c23.806,32.244,66.196,53.74,114.712,53.941v225.808L266.875,572.609
					L266.875,572.609z"/>
				<path fill="#C4731A" d="M266.875,245.649v50.124c-5.324,0-19.286-14.364-19.186-28.126c0-3.817,1.607-7.132,3.616-10.145
					c0.603-0.603,0.703-0.804,0.703-0.804c3.616-4.822,9.141-8.136,12.154-9.944C265.77,245.649,266.875,245.649,266.875,245.649z"
					/>
				<path fill="#AF8C69" d="M266.875,173.929l2.31,1.507l-2.009,69.41c0,0-1.607,0.804-3.214,1.808c0,0-3.616-63.584-37.97-80.66
					c-1.607-0.703-3.214-1.507-4.822-2.21l0.201-0.502l-4.118-2.612"/>
				<path fill="#EFDECE" d="M244.977,234.7C244.977,234.7,245.078,234.299,244.977,234.7c1.808-5.123,2.612-10.346,2.612-15.971
					c0-26.92-20.994-48.717-46.909-48.717s-46.909,21.797-46.909,48.717c0,1.607,0,3.013,0.201,4.52
					c2.31,24.811,22.4,44.298,46.709,44.298C221.171,267.447,238.649,253.685,244.977,234.7z M144.73,209.186
					c2.511-15.77,12.857-31.44,35.458-43.494c1.909-1.205,4.118-2.009,6.127-3.013c14.364-6.63,25.815-5.324,35.157-1.607
					c1.607,0.703,3.214,1.507,4.822,2.21c34.253,16.976,37.97,83.473,37.97,83.473c-3.214,1.607-8.538,5.123-12.154,9.944
					c0,0-0.201,0.502-0.703,0.804c-4.319,5.123-25.916,29.632-62.077,18.985C163.815,268.652,140.31,238.618,144.73,209.186z"/>
				<path fill="#C4731A" d="M253.616,605.958c-1.507,7.031-5.022,12.958-9.141,16.172l-11.853-17.478l-11.25,17.478l-12.154-21.396
					l-9.141,15.268c-3.817-2.813-6.63-8.036-6.63-13.962c0-3.616,0.703-7.132,1.909-10.246c0,0,10.648-7.835,18.181-7.835
					c17.177,0,22.4,10.648,31.139,10.648c5.324,0,8.337-1.306,8.337-1.306l0.703-0.201l0,0
					C254.821,597.319,254.62,601.739,253.616,605.958z"/>
				<path fill="#51260E" d="M235.937,221.642c3.616,0.804,9.342,10.246,8.94,12.958c0,0,0,0,0,0.201
					c-6.328,18.985-23.806,32.746-44.298,32.746c-24.309,0-44.398-19.487-46.709-44.298h0.703c0,0,9.141-15.268,11.25-14.766
					c2.009,0.502,6.027,11.15,6.027,11.15l0,0c0.603,15.971,13.159,28.829,28.628,28.829c11.853,0,21.797-7.433,26.217-17.98l0,0
					C227.298,229.678,232.321,220.537,235.937,221.642z"/>
				<path fill="#230F07" d="M229.207,221.039c-0.201,3.315-1.004,6.429-2.009,9.342l0,0c-4.319,10.648-14.465,17.98-26.217,17.98
					c-15.469,0-27.925-12.857-28.628-28.829c0-0.502,0-0.703,0-1.205c0,0,8.94-1.507,13.661,11.652
					c4.822,13.159,25.614,10.346,29.934,4.118C220.367,227.669,225.189,221.039,229.207,221.039z"/>
				<path fill="#51260E" d="M146.136,182.367c0.201-0.201,0.201-0.502,0.201-0.502c-6.328-7.835-25.916-11.15-25.916-11.15
					l37.668-4.822c0,0,3.817,2.612,6.027-2.21c4.319-8.839-49.119-16.976-49.119-16.976s42.891-5.123,56.954,3.616
					c9.141,5.826-13.46-30.335-13.962-31.139l25.514,16.172l0,0c0.603,0.703,11.25,15.77,4.319,21.998
					c-4.319,4.118-7.835,7.835-7.835,7.835c-22.601,11.853-32.947,27.623-35.458,43.494c-0.804-0.201-1.607-0.502-2.31-0.703
					c-3.616-2.009-6.127-3.315-6.328-3.516c0.603-2.009,1.205-4.118,2.009-6.027C140.913,192.01,144.83,184.577,146.136,182.367
					C146.136,182.467,146.136,182.367,146.136,182.367z"/>
				<path fill="#51260E" d="M145.734,183.07c0.201-0.201,0.201-0.502,0.301-0.603c-1.004,2.009-5.123,9.543-7.935,16.474
					C140.109,193.517,142.821,188.193,145.734,183.07z"/>
				<path fill="#51260E" d="M131.872,282.815c0,0,5.022,12.154,0,21.697c-5.022,9.543-35.458,57.457-33.65,87.591
					c1.808,30.335-36.061,36.262-36.061,36.262C55.531,356.343,109.372,302.001,131.872,282.815z"/>
				<g id="fill_x5F_top_2_">
					<path display="none" fill="#AF8C69" d="M265.77,572.609v33.952c4.319,0,8.839-0.201,12.958-0.603
						c-0.804-4.319-1.004-8.639-0.301-12.857l0,0c1.909-11.15,10.145-20.994,28.728-20.492c12.355,0.201,23.103,6.328,28.326,15.77
						l0,0c19.286-12.355,34.755-29.733,46.909-49.22c26.92-43.494,37.769-97.535,39.074-131.688
						c2.009-47.412-10.145-84.176-40.883-114.511l-0.201-0.201c-23.806,32.244-66.196,53.74-114.712,53.941L265.77,572.609
						L265.77,572.609z"/>
					<path fill="#C4731A" d="M265.77,245.649v50.124c5.324,0,19.286-14.364,19.186-28.126c0-3.817-1.607-7.132-3.616-10.145
						c-0.603-0.603-0.703-0.804-0.703-0.804c-3.616-4.822-9.141-8.136-12.154-9.944C266.875,245.649,265.77,245.649,265.77,245.649z
						"/>
					<path fill="#AF8C69" d="M265.469,173.728l0.301,71.519c0,0,1.004,0.502,2.612,1.306c0,0,3.616-63.584,37.969-80.66
						c1.607-0.703,3.214-1.507,4.822-2.21l-0.201-0.502l4.118-2.612C313.684,161.172,268.08,175.938,265.469,173.728z"/>
					<path fill="#EFDECE" d="M287.668,234.7C287.668,234.7,287.668,234.299,287.668,234.7c-1.808-5.123-2.612-10.346-2.612-15.971
						c0-26.92,20.994-48.717,46.909-48.717c25.916,0,46.909,21.797,46.909,48.717c0,1.607,0,3.013-0.201,4.52
						c-2.31,24.811-22.3,44.298-46.709,44.298C311.374,267.447,293.996,253.685,287.668,234.7z M387.915,209.186
						c-2.511-15.77-12.857-31.44-35.257-43.494c-1.909-1.205-4.118-2.009-6.127-3.013c-14.364-6.63-25.815-5.324-35.157-1.607
						c-1.607,0.703-3.214,1.507-4.822,2.21c-34.353,16.976-37.969,83.473-37.969,83.473c3.214,1.607,8.538,5.123,12.154,9.944
						c0,0,0.201,0.502,0.703,0.804c4.319,5.123,25.916,29.632,62.077,18.985C368.93,268.652,392.435,238.618,387.915,209.186z"/>
					<path fill="#C4731A" d="M278.728,605.958c1.507,7.031,5.022,12.958,9.141,16.172l11.853-17.478l11.25,17.478l12.154-21.396
						l9.141,15.268c3.817-2.813,6.63-8.036,6.63-13.962c0-3.616-0.703-7.132-1.909-10.246c0,0-10.648-7.835-18.181-7.835
						c-17.177,0-22.4,10.648-31.139,10.648c-5.324,0-8.337-1.306-8.337-1.306l-0.703-0.201l0,0
						C277.723,597.319,277.924,601.739,278.728,605.958z"/>
					<path fill="#51260E" d="M296.608,221.642c-3.616,0.804-9.342,10.246-8.94,12.958c0,0,0,0,0,0.201
						c6.328,18.985,23.806,32.746,44.298,32.746c24.509,0,44.398-19.487,46.709-44.298h-0.703c0,0-9.141-15.268-11.25-14.766
						c-2.009,0.502-6.027,11.15-6.027,11.15l0,0c-0.603,15.971-13.159,28.829-28.628,28.829c-11.853,0-21.797-7.433-26.217-17.98
						l0,0C305.246,229.678,300.224,220.537,296.608,221.642z"/>
					<path fill="#230F07" d="M303.539,221.039c0.201,3.315,1.004,6.429,2.009,9.342l0,0c4.319,10.648,14.465,17.98,26.217,17.98
						c15.469,0,27.925-12.857,28.628-28.829c0-0.502,0-0.703,0-1.205c0,0-8.94-1.507-13.661,11.652
						c-4.822,13.159-25.614,10.346-29.934,4.118C312.579,227.669,307.557,221.039,303.539,221.039z"/>
					<path fill="#51260E" d="M386.409,182.367c-0.201-0.201-0.201-0.502-0.201-0.502c6.328-7.835,25.916-11.15,25.916-11.15
						l-37.668-4.822c0,0-3.817,2.612-6.027-2.21c-4.319-8.839,49.119-16.976,49.119-16.976s-42.891-5.123-56.954,3.616
						c-9.141,5.826,13.46-30.335,13.962-31.139l-25.514,16.172l0,0c-0.603,0.703-11.25,15.77-4.319,21.998
						c4.319,4.118,7.835,7.835,7.835,7.835c22.601,11.853,32.947,27.623,35.257,43.494c0.804-0.201,1.607-0.502,2.31-0.703
						c3.616-2.009,6.127-3.315,6.328-3.516c-0.603-2.009-1.205-4.118-2.009-6.027C391.732,192.01,387.714,184.577,386.409,182.367
						C386.609,182.467,386.409,182.367,386.409,182.367z"/>
					<path fill="#51260E" d="M386.911,183.07c-0.201-0.201-0.201-0.502-0.301-0.603c1.004,2.009,5.123,9.543,7.935,16.474
						C392.435,193.517,389.924,188.193,386.911,183.07z"/>
					<path fill="#51260E" d="M400.773,282.815c0,0-5.022,12.154,0,21.697c5.022,9.543,35.458,57.457,33.65,87.591
						c-1.808,30.335,36.061,36.463,36.061,36.463C477.113,356.343,423.374,302.001,400.773,282.815z"/>
				</g>
			</g>
			<g id="outlines_1_">
				<path fill="none" stroke="#000000" stroke-width="3" stroke-miterlimit="10" d="M146.136,182.367
					c0.804-1.306,1.909-2.612,3.214-3.616"/>
				<path fill="none" stroke="#000000" stroke-width="3" stroke-miterlimit="10" d="M136.091,204.867
					c0.603-2.009,1.205-4.118,2.009-6.027"/>
				
					<ellipse fill="none" stroke="#000000" stroke-width="3" stroke-miterlimit="10" cx="200.679" cy="218.428" rx="28.628" ry="29.733"/>
				<path fill="none" stroke="#000000" stroke-width="3" stroke-miterlimit="10" d="M266.875,346.801
					c-48.416-0.201-91.006-21.797-114.712-53.941c-4.118-5.726-7.835-11.652-10.547-17.779c-6.127-12.958-9.543-27.121-9.543-42.088
					c0-9.643,1.507-19.186,4.319-28.326"/>
				<path fill="none" stroke="#0A0000" stroke-width="3" stroke-miterlimit="10" d="M251.607,256.9
					c3.616-4.822,9.543-8.839,12.656-10.346c1.607-0.804,5.022-0.502,5.022-0.502"/>
				<path fill="none" stroke="#0A0000" stroke-width="3" stroke-miterlimit="10" d="M266.875,295.371
					c-5.324,0-19.286-14.364-19.186-28.126c0-3.817,1.607-7.132,3.616-10.145"/>
				<path fill="none" stroke="#000000" stroke-width="3" stroke-miterlimit="10" d="M244.977,234.7
					c-6.328,18.985-23.806,32.746-44.298,32.746c-24.309,0-44.398-19.487-46.709-44.298c-0.201-1.507-0.201-3.013-0.201-4.52
					c0-26.92,20.994-48.717,46.909-48.717s46.909,21.797,46.909,48.717C247.488,224.053,246.685,229.477,244.977,234.7"/>
				<path fill="none" stroke="#000000" stroke-width="3" stroke-miterlimit="10" d="M172.052,219.533c0-0.502,0-0.703,0-1.205
					c0-16.474,12.857-29.733,28.628-29.733s28.628,13.36,28.628,29.733c0,0.804,0,1.607-0.201,2.31
					c-0.201,3.315-1.004,6.429-2.009,9.342"/>
				<path fill="none" stroke="#000000" stroke-width="3" stroke-miterlimit="10" d="M251.908,256.498c0,0-0.201,0.502-0.703,0.804
					c-4.319,5.123-25.916,29.632-62.077,18.985c-25.313-7.634-48.717-37.668-44.398-67.1c2.511-15.77,12.857-31.44,35.458-43.494
					c1.909-1.205,4.118-2.009,6.127-3.013c14.364-6.63,25.815-5.324,35.157-1.607c1.607,0.703,3.214,1.507,4.822,2.21
					c34.253,16.976,37.97,83.473,37.97,83.473"/>
				<polyline fill="none" stroke="#000000" stroke-width="3" stroke-miterlimit="10" points="158.089,119.386 214.541,121.194 
					266.875,122.7 				"/>
				
					<line fill="none" stroke="#000000" stroke-width="3" stroke-miterlimit="10" x1="183.402" y1="135.96" x2="158.089" y2="119.386"/>
				
					<line fill="none" stroke="#000000" stroke-width="3" stroke-miterlimit="10" x1="217.655" y1="157.958" x2="183.402" y2="135.96"/>
				
					<line fill="none" stroke="#000000" stroke-width="3" stroke-miterlimit="10" x1="221.673" y1="160.469" x2="217.655" y2="157.958"/>
				<path fill="none" stroke="#000000" stroke-width="3" stroke-miterlimit="10" d="M158.591,119.386c0,0,0,0-0.603,0
					c0.603,0.804,23.103,37.065,13.962,31.139c-13.962-8.839-56.954-3.616-56.954-3.616l42.891,18.985l-37.668,4.822
					c0,0,19.587,3.516,25.916,11.15c0,0,0,0.201-0.201,0.502c0,0,0,0.201-0.201,0.201c-1.004,2.009-5.123,9.543-7.935,16.474
					c-0.804,2.21-1.607,4.319-2.009,6.027"/>
				<path fill="none" stroke="#000000" stroke-width="3" stroke-miterlimit="10" d="M197.164,588.379
					c-19.286-12.355-34.755-29.733-46.909-49.22c-26.92-43.494-37.769-97.535-39.376-131.688
					c-2.009-47.412,10.145-84.176,40.883-114.511"/>
				<path fill="none" stroke="#000000" stroke-width="3" stroke-miterlimit="10" d="M266.875,606.259
					c-4.319,0-8.839-0.201-12.958-0.603c-0.201,0-0.301,0-0.301,0"/>
				<path fill="none" stroke="#000000" stroke-width="3" stroke-miterlimit="10" d="M149.149,540.064h-0.201"/>
				<path fill="none" stroke="#000000" stroke-width="3" stroke-miterlimit="10" d="M141.314,275.081c0,0-3.616,2.612-9.543,7.835
					c-22.4,19.186-76.341,73.528-69.711,145.55c0.603,6.429,1.607,12.857,3.315,19.587c19.989,82.368,82.167,91.81,83.674,91.81l0,0
					"/>
				<path fill="none" stroke="#000000" stroke-width="3" stroke-miterlimit="10" d="M253.616,605.958
					c-1.507,7.031-5.022,12.958-9.141,16.172l-11.853-17.478l-11.25,17.478l-12.154-21.396l-9.141,15.268
					c-3.817-2.813-6.63-8.036-6.63-13.962c0-3.616,0.703-7.132,1.909-10.246c0.301-1.205,0.804-2.009,1.507-3.013
					c5.123-9.543,15.77-15.469,28.326-15.77c18.784-0.502,26.82,9.342,28.728,20.492l0,0
					C254.821,597.319,254.62,601.739,253.616,605.958z"/>
				<polyline fill="none" stroke="#000000" stroke-width="3" stroke-miterlimit="10" points="141.616,366.79 155.277,387.583 
					169.239,366.79 				"/>
				<polyline fill="none" stroke="#000000" stroke-width="3" stroke-miterlimit="10" points="169.741,418.22 181.896,438.812 
					193.748,419.927 				"/>
				<polyline fill="none" stroke="#000000" stroke-width="3" stroke-miterlimit="10" points="217.354,390.596 229.508,411.389 
					245.078,390.596 				"/>
				<polyline fill="none" stroke="#000000" stroke-width="3" stroke-miterlimit="10" points="228.001,469.448 241.863,493.154 
					255.725,469.448 				"/>
				<polyline fill="none" stroke="#000000" stroke-width="3" stroke-miterlimit="10" points="155.277,496.971 167.933,517.764 
					183.402,496.971 				"/>
				<polyline fill="none" stroke="#000000" stroke-width="3" stroke-miterlimit="10" points="217.354,533.735 229.508,554.327 
					245.078,533.735 				"/>
				<path fill="none" stroke="#000000" stroke-width="3" stroke-miterlimit="10" d="M183.402,135.96L183.402,135.96"/>
				<g id="outlines_2_">
					<path fill="none" stroke="#000000" stroke-width="3" stroke-miterlimit="10" d="M386.409,182.367
						c-0.804-1.306-1.909-2.612-3.214-3.616"/>
					<path fill="none" stroke="#000000" stroke-width="3" stroke-miterlimit="10" d="M396.554,204.867
						c-0.603-2.009-1.205-4.118-2.009-6.027"/>
					
						<ellipse fill="none" stroke="#000000" stroke-width="3" stroke-miterlimit="10" cx="331.865" cy="218.428" rx="28.628" ry="29.733"/>
					<path fill="none" stroke="#000000" stroke-width="3" stroke-miterlimit="10" d="M265.77,346.801
						c48.416-0.201,91.006-21.797,114.712-53.941c4.319-5.726,7.835-11.652,10.648-17.779c6.127-12.958,9.543-27.121,9.543-42.088
						c0-9.643-1.507-19.186-4.319-28.326"/>
					<path fill="none" stroke="#0A0000" stroke-width="3" stroke-miterlimit="10" d="M281.239,257.301
						c-3.616-4.822-9.844-9.141-12.857-10.848c-1.607-0.804-2.612-1.306-2.612-1.306"/>
					<path fill="none" stroke="#0A0000" stroke-width="3" stroke-miterlimit="10" d="M265.77,295.371
						c5.324,0,19.286-14.364,19.186-28.126c0-3.817-1.607-7.132-3.616-10.145"/>
					<path fill="none" stroke="#000000" stroke-width="3" stroke-miterlimit="10" d="M287.668,234.7
						c6.328,18.985,23.806,32.746,44.298,32.746c24.509,0,44.398-19.487,46.709-44.298c0.201-1.507,0.201-3.013,0.201-4.52
						c0-26.92-20.994-48.717-46.909-48.717c-25.916,0-46.909,21.797-46.909,48.717C285.056,224.053,285.86,229.477,287.668,234.7"/>
					<path fill="none" stroke="#000000" stroke-width="3" stroke-miterlimit="10" d="M360.593,219.533c0-0.502,0-0.703,0-1.205
						c0-16.474-12.857-29.733-28.628-29.733c-15.77,0-28.628,13.36-28.628,29.733c0,0.804,0,1.607,0.201,2.31
						c0.201,3.315,1.004,6.429,2.009,9.342"/>
					<path fill="none" stroke="#000000" stroke-width="3" stroke-miterlimit="10" d="M280.636,256.498c0,0,0.201,0.502,0.703,0.804
						c4.319,5.123,25.916,29.632,62.077,18.985c25.313-7.634,48.717-37.668,44.398-67.1c-2.511-15.77-12.857-31.44-35.257-43.494
						c-1.909-1.205-4.118-2.009-6.127-3.013c-14.364-6.63-25.815-5.324-35.157-1.607c-1.607,0.703-3.214,1.507-4.822,2.21
						c-34.353,16.976-37.97,83.473-37.97,83.473"/>
					<polyline fill="none" stroke="#000000" stroke-width="3" stroke-miterlimit="10" points="374.556,119.386 318.204,121.194 
						265.77,122.7 					"/>
					
						<line fill="none" stroke="#000000" stroke-width="3" stroke-miterlimit="10" x1="349.142" y1="135.96" x2="374.556" y2="119.386"/>
					
						<line fill="none" stroke="#000000" stroke-width="3" stroke-miterlimit="10" x1="315.191" y1="157.958" x2="349.142" y2="135.96"/>
					
						<line fill="none" stroke="#000000" stroke-width="3" stroke-miterlimit="10" x1="311.072" y1="160.469" x2="315.191" y2="157.958"/>
					<path fill="none" stroke="#000000" stroke-width="3" stroke-miterlimit="10" d="M374.053,119.386c0,0,0,0,0.603,0
						c-0.603,0.804-23.103,37.065-13.962,31.139c13.962-8.839,56.954-3.616,56.954-3.616l-42.891,18.985l37.668,4.822
						c0,0-19.587,3.516-25.916,11.15c0,0,0,0.201,0.201,0.502c0,0,0,0.201,0.201,0.201c1.004,2.009,5.123,9.543,7.935,16.474
						c0.804,2.21,1.607,4.319,2.009,6.027"/>
					<path fill="none" stroke="#000000" stroke-width="3" stroke-miterlimit="10" d="M335.481,588.379
						c19.286-12.355,34.755-29.733,46.909-49.22c26.92-43.494,37.769-97.535,39.074-131.688
						c2.009-47.412-10.145-84.176-40.883-114.511"/>
					<path fill="none" stroke="#000000" stroke-width="3" stroke-miterlimit="10" d="M265.77,606.259
						c4.319,0,8.839-0.201,12.958-0.603c0.201,0,0.301,0,0.301,0"/>
					<path fill="none" stroke="#000000" stroke-width="3" stroke-miterlimit="10" d="M383.395,540.064h0.201"/>
					<path fill="none" stroke="#000000" stroke-width="3" stroke-miterlimit="10" d="M391.23,275.081c0,0,3.616,2.612,9.543,7.835
						c22.4,19.186,76.341,73.729,69.711,145.55c-0.603,6.429-1.607,12.857-3.214,19.587c-19.989,82.368-82.167,91.81-83.674,91.81
						l0,0"/>
					<path fill="none" stroke="#000000" stroke-width="3" stroke-miterlimit="10" d="M278.728,605.958
						c1.507,7.031,5.022,12.958,9.141,16.172l11.853-17.478l11.25,17.478l12.154-21.396l9.141,15.268
						c3.817-2.813,6.63-8.036,6.63-13.962c0-3.616-0.703-7.132-1.909-10.246c-0.301-1.205-0.804-2.009-1.507-3.013
						c-5.123-9.543-15.77-15.469-28.326-15.77c-18.784-0.502-26.82,9.342-28.728,20.492l0,0
						C277.723,597.319,277.924,601.739,278.728,605.958z"/>
					<polyline fill="none" stroke="#000000" stroke-width="3" stroke-miterlimit="10" points="390.929,366.79 377.268,387.583 
						363.607,366.79 					"/>
					<polyline fill="none" stroke="#000000" stroke-width="3" stroke-miterlimit="10" points="362.803,418.22 350.85,438.812 
						338.796,419.927 					"/>
					<polyline fill="none" stroke="#000000" stroke-width="3" stroke-miterlimit="10" points="315.191,390.596 303.237,411.389 
						287.668,390.596 					"/>
					<polyline fill="none" stroke="#000000" stroke-width="3" stroke-miterlimit="10" points="304.543,469.448 290.782,493.154 
						276.92,469.448 					"/>
					<polyline fill="none" stroke="#000000" stroke-width="3" stroke-miterlimit="10" points="377.268,496.971 364.913,517.764 
						349.343,496.971 					"/>
					<polyline fill="none" stroke="#000000" stroke-width="3" stroke-miterlimit="10" points="315.191,533.735 303.237,554.327 
						287.668,533.735 					"/>
					<path fill="none" stroke="#000000" stroke-width="3" stroke-miterlimit="10" d="M349.142,135.96L349.142,135.96"/>
				</g>
			</g>
		</g>
	</g>
	<g id="lens_1_">
		<g id="eye_lens_3_">
			<path id="eye_lens_2_3_" fill="#FFFFFF" d="M195.255,185.38c3.214,3.817,0.603,14.364-6.127,18.985
				c-6.83,4.52-12.757,5.324-16.172,1.607c-3.214-3.817-3.013-10.145,5.324-16.976C184.608,183.371,192.041,181.563,195.255,185.38z
				"/>
			<path id="eye_lens_1_3_" fill="#FFFFFF" d="M185.411,213.204c1.507,1.607,0.201,5.726-1.607,7.333s-4.319,1.607-5.826,0
				s-1.004-4.319,0.703-6.027C180.59,213.004,184.105,211.698,185.411,213.204z"/>
		</g>
		<g id="eye_lens_2_">
			<path id="eye_lens_2_2_" fill="#FFFFFF" d="M327.546,185.38c3.214,3.817,0.603,14.364-6.127,18.985
				c-6.83,4.52-12.757,5.324-16.172,1.607c-3.315-3.616-3.013-10.145,5.324-16.976C316.999,183.371,324.331,181.563,327.546,185.38z
				"/>
			<path id="eye_lens_1_2_" fill="#FFFFFF" d="M316.095,213.204c1.507,1.607,0.201,5.726-1.607,7.333s-4.319,1.607-5.826,0
				c-1.507-1.607-1.004-4.319,0.703-6.027C311.072,213.004,314.688,211.698,316.095,213.204z"/>
		</g>
	</g>
</g>
<g id="owl-top_1_">
	<g id="Vrstva_2_1_">
		<g>
			<path id="path1342_1_" fill="#FFFF00" stroke="#000000" stroke-width="2.5" d="M332.367,168.605c0,0,4.721,18.282,1.205,35.76
				C372.948,111.048,298.214,66.148,241.36,77.8c-49.22-0.402-108.685,87.189-44.599,159.311
				c-7.031-10.346-23.605-68.908-17.378-81.263c-5.324,12.757,4.319,42.59,4.319,42.59c4.621,17.478,14.364,29.331,24.208,37.869
				c-21.596-30.637-22.802-74.533-16.775-86.988c-5.826,12.657-1.105,52.535,2.813,57.055
				c10.246,18.583,33.048,37.568,38.472,38.472c-21.396-18.583-41.686-84.879-35.76-100.248
				c-4.319,14.264,9.944,42.891,13.761,47.11c-2.31-6.529-4.018-47.211-0.703-55.548c-0.904,9.543,13.962,45.101,21.396,50.124
				c-5.123-7.232-6.63-52.836,0-59.867c-7.935,17.378,7.433,58.059,14.364,58.059c-10.045-19.788-3.214-54.744,4.621-62.68
				c-5.525,6.931-6.931,15.77-6.931,15.77c0,10.246,14.364,41.787,24.61,46.407c-8.337-12.556-7.935-53.84-1.808-64.488
				c-2.411,4.118-3.013,11.652-3.013,11.652c7.935,4.319,11.853,41.787,11.451,51.028c10.045-14.465,3.717-61.073,3.717-64.488
				c10.447,10.045,12.154,41.887,14.364,50.626c4.721-8.839,7.333-48.115,3.214-52.936c4.42,0.502,16.976,44.097,15.77,54.744
				c6.73-4.922-2.813-50.626-2.813-50.626c15.268,16.273,6.73,100.549,6.529,108.183c7.634-10.447,15.569-86.587,11.652-90.002
				c3.717,2.913-2.31,45.503-2.31,45.503c1.808,0.904,0,30.637,0,30.637c6.931-13.259,10.949-76.843,10.648-80.761
				C334.979,137.667,332.367,168.605,332.367,168.605L332.367,168.605z"/>
			<path id="path11907_1_" fill="#FFFF00" stroke="#000000" stroke-width="2.5" d="M189.228,122.399
				C124.64,76.394,72.708,217.524,78.735,267.246c2.009-21.596,25.815-81.665,38.17-99.444c-0.201,0.402,5.726-13.661,11.953-18.483
				c-19.788,17.779-41.184,106.274-24.61,135.505c-5.123-24.61,18.583-100.248,24.61-105.37
				c-13.761,10.346-19.989,109.087-11.15,117.424c0.1-20.893,19.989-100.75,29.733-121.643c-8.739,19.788-9.643,28.025-9.743,28.025
				c-6.73,26.016,8.839,90.102,13.46,97.234c-0.703-31.541,5.123-109.489,9.241-119.735c5.123-8.94,13.46-8.839,14.866-15.77
				C183.904,157.857,193.447,127.02,189.228,122.399L189.228,122.399z"/>
			<path id="path11909_1_" fill="#FFFF00" stroke="#000000" stroke-width="2.5" d="M332.669,122.801
				c6.73-27.322,29.23-27.824,39.476-21.797c59.666,31.34,71.318,133.295,69.611,143.842c-6.529-15.77-31.541-83.975-38.07-88.194
				c6.027,7.935,22.701,89.6,25.112,103.06c-21.396-9.743-34.856-75.638-40.883-84.477c10.648,17.679,15.77,74.231,11.15,91.91
				c-3.717-19.989-10.246-53.338-16.273-60.37c-1.607-4.621-3.214-30.135-8.839-41.787c4.52,12.556,16.674,92.814,14.866,110.493
				c-16.574-12.656-34.856-76.14-35.257-89.098C353.461,177.043,329.856,138.169,332.669,122.801z"/>
			
				<linearGradient id="path5900_3_" gradientUnits="userSpaceOnUse" x1="-1503.5541" y1="716.3309" x2="-1503.6293" y2="716.3309" gradientTransform="matrix(39.1007 0 0 -170.4216 57653.5547 122289.0938)">
				<stop  offset="0" style="stop-color:#8A8A8A"/>
				<stop  offset="0.2969" style="stop-color:#9F9F9F"/>
				<stop  offset="1" style="stop-color:#6E6E6E"/>
			</linearGradient>
			<path id="path5900_1_" fill="url(#path5900_3_)" d="M181.192,125.613c-31.641,48.316-39.778,110.393-31.641,170.461
				C130.165,235.604,151.158,143.594,181.192,125.613z"/>
			
				<linearGradient id="path5904_3_" gradientUnits="userSpaceOnUse" x1="-1514.5917" y1="717.5922" x2="-1514.6403" y2="717.5922" gradientTransform="matrix(60.5353 0 0 -167.1728 87746.4219 120175.4141)">
				<stop  offset="0" style="stop-color:#8A8A8A"/>
				<stop  offset="0.2969" style="stop-color:#9F9F9F"/>
				<stop  offset="1" style="stop-color:#6E6E6E"/>
			</linearGradient>
			<path id="path5904_1_" fill="url(#path5904_3_)" d="M174.864,129.933c-34.856,32.144-60.169,102.056-57.155,167.146
				C103.948,230.682,134.283,149.922,174.864,129.933z"/>
			
				<linearGradient id="path5908_3_" gradientUnits="userSpaceOnUse" x1="-1569.984" y1="693.5437" x2="-1570.0566" y2="693.5437" gradientTransform="matrix(-40.4483 0 0 -123.0816 -33061.3281 85574.2109)">
				<stop  offset="0" style="stop-color:#8A8A8A"/>
				<stop  offset="0.2969" style="stop-color:#9F9F9F"/>
				<stop  offset="1" style="stop-color:#6E6E6E"/>
			</linearGradient>
			<path id="path5908_1_" fill="url(#path5908_3_)" d="M346.932,150.223c10.648,46.909,16.474,87.189,40.38,123.049
				C364.009,200.849,368.529,185.882,346.932,150.223z"/>
			
				<linearGradient id="path5912_3_" gradientUnits="userSpaceOnUse" x1="-1609.6547" y1="739.6895" x2="-1609.8087" y2="739.6895" gradientTransform="matrix(-19.0989 0 0 -81.1949 -16267.1396 60283.1211)">
				<stop  offset="0" style="stop-color:#8A8A8A"/>
				<stop  offset="0.2969" style="stop-color:#9F9F9F"/>
				<stop  offset="1" style="stop-color:#6E6E6E"/>
			</linearGradient>
			<path id="path5912_1_" fill="url(#path5912_3_)" d="M379.478,183.472c3.817,24.71,13.761,40.682,19.085,81.263
				C394.746,220.939,393.139,202.557,379.478,183.472z"/>
			<path id="path9328_1_" fill="#FF007F" stroke="#000000" stroke-width="2.5" d="M170.043,118.883
				c-4.822-5.625-10.949-23.304-13.259-32.043c-2.109-7.031,3.114-10.346,5.324-9.543c3.917,0,6.83,0.603,9.543,1.708
				c4.118,1.105,3.616,3.415,6.83,2.813c3.214-0.603,1.909-3.013,6.228-5.324c4.319-2.21,7.935-4.118,10.949-3.817
				c1.808,0.703,3.717,2.511,3.013,5.525c0.201,3.616-4.319,12.857-7.433,20.09c-1.406,4.018-6.328,16.072-8.036,22.3
				C180.288,121.997,173.157,119.386,170.043,118.883L170.043,118.883z"/>
			<path id="path9330_1_" fill="#FF007F" stroke="#000000" stroke-width="2.5" d="M170.243,127.421
				c-5.625,4.922-9.342,14.063-10.648,18.382c-2.913,3.616-4.219,18.884-3.616,20.994c2.511-1.909,4.52-3.717,5.726-3.114
				c2.21,1.205,2.913,4.42,5.123,6.73c3.013,1.105,5.022,0.804,5.726-0.804c0.703-4.42,5.525-34.253,6.228-39.978
				C175.366,128.125,172.855,127.723,170.243,127.421z"/>
			<path id="path9334_1_" fill="#FF007F" stroke="#000000" stroke-width="2.5" d="M339.7,108.437
				c4.018-5.826,7.232-35.961,7.534-38.874c-2.109,1.808-0.904,0-1.808-0.603c-0.904-0.502-0.502-0.402-1.808-1.909
				c-4.621-2.511-14.364,1.507-18.683,3.516c-3.415,2.913-11.652,4.621-13.259,4.52c-3.315,2.411-0.603,6.73,0.502,9.643
				c1.607,4.118,4.721,8.136,5.926,10.045c4.42,7.031,9.342,14.063,11.752,17.076C332.267,111.551,336.687,110.044,339.7,108.437z"
				/>
			<path id="path9336_1_" fill="#FF007F" stroke="#000000" stroke-width="2.5" d="M340.202,116.473
				c11.953,7.935,23.304,29.431,25.012,36.764c1.306,3.114,0.402,7.735-0.201,8.136c-2.009,0.804-6.529,1.205-8.739-0.201
				c-2.109-1.708-8.036-0.804-9.844,1.909c-4.319,3.114-4.922,5.625-5.123,5.424c-3.516-5.022-8.237-43.394-7.935-49.119
				C334.778,118.582,339.499,116.774,340.202,116.473z"/>
			<path id="path9332_1_" fill="#FF007F" stroke="#000000" stroke-width="2.5" d="M340.202,104.821
				c-2.712-1.406-11.049,1.808-11.953,5.324c-0.301,2.411,5.022,9.442,6.831,10.949c1.507,0.904,3.315,0,7.031-2.813
				C342.914,114.765,342.01,107.03,340.202,104.821z"/>
			<path id="path9326_1_" fill="#FF007F" stroke="#000000" stroke-width="2.5" d="M165.723,117.778
				c-0.603,2.31-1.808,6.73-0.804,10.246c3.516,3.114,7.132,3.917,12.154,4.52c2.21-3.013,3.013-5.625,3.917-9.844
				c0.904-4.219,0.402-2.511-0.402-6.73C177.978,114.765,169.54,114.464,165.723,117.778L165.723,117.778z"/>
			
				<linearGradient id="path4114_3_" gradientUnits="userSpaceOnUse" x1="-1588.9822" y1="648.3419" x2="-1589.1016" y2="648.3419" gradientTransform="matrix(-24.6262 0 0 -75.3195 -22903.2266 48973.0195)">
				<stop  offset="0" style="stop-color:#8A8A8A"/>
				<stop  offset="0.2969" style="stop-color:#9F9F9F"/>
				<stop  offset="1" style="stop-color:#6E6E6E"/>
			</linearGradient>
			<path id="path4114_1_" fill="url(#path4114_3_)" d="M284.252,93.671c17.277,16.172,20.692,60.37-6.83,93.116
				C315.793,142.087,302.233,110.948,284.252,93.671z"/>
			
				<linearGradient id="path4122_3_" gradientUnits="userSpaceOnUse" x1="-1589.4063" y1="639.0664" x2="-1589.5256" y2="639.0664" gradientTransform="matrix(-24.6262 0 0 -75.3195 -22615.7402 48267.4648)">
				<stop  offset="0" style="stop-color:#8A8A8A"/>
				<stop  offset="0.2969" style="stop-color:#9F9F9F"/>
				<stop  offset="1" style="stop-color:#6E6E6E"/>
			</linearGradient>
			<path id="path4122_1_" fill="url(#path4122_3_)" d="M294.699,86.74c17.277,16.172,20.692,60.369-6.831,93.116
				C326.24,135.156,312.579,104.017,294.699,86.74z"/>
			
				<linearGradient id="path4126_3_" gradientUnits="userSpaceOnUse" x1="-1487.1106" y1="664.1106" x2="-1487.23" y2="664.1106" gradientTransform="matrix(24.6262 0 0 -75.3195 37762.7695 50172.4609)">
				<stop  offset="0" style="stop-color:#8A8A8A"/>
				<stop  offset="0.2969" style="stop-color:#9F9F9F"/>
				<stop  offset="1" style="stop-color:#6E6E6E"/>
			</linearGradient>
			<path id="path4126_1_" fill="url(#path4126_3_)" d="M224.787,105.423c-17.277,16.172-20.692,60.369,6.83,93.116
				C193.347,153.94,206.907,122.7,224.787,105.423z"/>
			
				<linearGradient id="path4130_3_" gradientUnits="userSpaceOnUse" x1="-1487.808" y1="653.9064" x2="-1487.9275" y2="653.9064" gradientTransform="matrix(24.6262 0 0 -75.3195 38235.5273 49396.3516)">
				<stop  offset="0" style="stop-color:#8A8A8A"/>
				<stop  offset="0.2969" style="stop-color:#9F9F9F"/>
				<stop  offset="1" style="stop-color:#6E6E6E"/>
			</linearGradient>
			<path id="path4130_1_" fill="url(#path4130_3_)" d="M241.964,97.89c-17.277,16.172-20.692,60.37,6.83,93.116
				C210.523,146.306,224.084,115.167,241.964,97.89z"/>
			
				<linearGradient id="path2302_3_" gradientUnits="userSpaceOnUse" x1="-1485.6587" y1="663.2733" x2="-1485.7782" y2="663.2733" gradientTransform="matrix(24.6262 0 0 -115.1915 36778.4492 76582.1484)">
				<stop  offset="0" style="stop-color:#8A8A8A"/>
				<stop  offset="0.2969" style="stop-color:#9F9F9F"/>
				<stop  offset="1" style="stop-color:#6E6E6E"/>
			</linearGradient>
			<path id="path2302_1_" fill="url(#path2302_3_)" d="M189.027,121.093c-17.277,20.09-20.692,74.633,6.83,115.214
				C157.587,181.061,171.148,142.388,189.027,121.093z"/>
			
				<linearGradient id="path4066_3_" gradientUnits="userSpaceOnUse" x1="-1481.889" y1="662.123" x2="-1482.0188" y2="662.123" gradientTransform="matrix(22.6704 0 0 -104.0527 34023.9102 69078.8594)">
				<stop  offset="0" style="stop-color:#8A8A8A"/>
				<stop  offset="0.2969" style="stop-color:#9F9F9F"/>
				<stop  offset="1" style="stop-color:#6E6E6E"/>
			</linearGradient>
			<path id="path4066_1_" fill="url(#path4066_3_)" d="M197.164,131.138c-12.154,22.4-16.674,65.191,9.944,104.065
				C172.855,192.211,184.105,153.839,197.164,131.138z"/>
			
				<linearGradient id="path4070_3_" gradientUnits="userSpaceOnUse" x1="-1502.9768" y1="670.9355" x2="-1503.0566" y2="670.9355" gradientTransform="matrix(36.8781 0 0 -107.3015 56799.4727 72182.4844)">
				<stop  offset="0" style="stop-color:#8A8A8A"/>
				<stop  offset="0.2969" style="stop-color:#9F9F9F"/>
				<stop  offset="1" style="stop-color:#6E6E6E"/>
			</linearGradient>
			<path id="path4070_1_" fill="url(#path4070_3_)" d="M201.081,136.462c-16.976,20.09,1.105,70.314,28.728,107.279
				C196.159,214.711,183,158.058,201.081,136.462z"/>
			
				<linearGradient id="path4074_3_" gradientUnits="userSpaceOnUse" x1="-1465.3252" y1="627.6343" x2="-1465.4972" y2="627.6343" gradientTransform="matrix(17.0979 0 0 -88.5047 25733.0371 55694.1328)">
				<stop  offset="0" style="stop-color:#8A8A8A"/>
				<stop  offset="0.2969" style="stop-color:#9F9F9F"/>
				<stop  offset="1" style="stop-color:#6E6E6E"/>
			</linearGradient>
			<path id="path4074_1_" fill="url(#path4074_3_)" d="M219.865,101.305c-13.561,24.208-15.57,48.416-10.748,88.495
				C196.461,137.969,204.095,122.801,219.865,101.305z"/>
			
				<linearGradient id="path4078_3_" gradientUnits="userSpaceOnUse" x1="-1439.7516" y1="624.449" x2="-1439.9897" y2="624.449" gradientTransform="matrix(12.3505 0 0 -66.6911 18543.8887 41796.6719)">
				<stop  offset="0" style="stop-color:#8A8A8A"/>
				<stop  offset="0.2969" style="stop-color:#9F9F9F"/>
				<stop  offset="1" style="stop-color:#6E6E6E"/>
			</linearGradient>
			<path id="path4078_1_" fill="url(#path4078_3_)" d="M234.932,118.18c-12.154,21.596-10.648,38.874-4.922,66.597
				C219.363,158.56,219.363,140.178,234.932,118.18z"/>
			
				<linearGradient id="path4082_3_" gradientUnits="userSpaceOnUse" x1="-1464.6957" y1="615.9832" x2="-1464.874" y2="615.9832" gradientTransform="matrix(16.4925 0 0 -65.763 25354.7676 40660.1328)">
				<stop  offset="0" style="stop-color:#8A8A8A"/>
				<stop  offset="0.2969" style="stop-color:#9F9F9F"/>
				<stop  offset="1" style="stop-color:#6E6E6E"/>
			</linearGradient>
			<path id="path4082_1_" fill="url(#path4082_3_)" d="M251.707,118.381c-13.761,22.099-15.57,38.472-7.232,65.693
				C227.901,153.036,235.635,140.48,251.707,118.381z"/>
			
				<linearGradient id="path4086_3_" gradientUnits="userSpaceOnUse" x1="-1474.2051" y1="613.9478" x2="-1474.3611" y2="613.9478" gradientTransform="matrix(18.8432 0 0 -62.05 29507.6992 38247.543)">
				<stop  offset="0" style="stop-color:#8A8A8A"/>
				<stop  offset="0.2969" style="stop-color:#9F9F9F"/>
				<stop  offset="1" style="stop-color:#6E6E6E"/>
			</linearGradient>
			<path id="path4086_1_" fill="url(#path4086_3_)" d="M252.41,121.093c-1.909,23.003,5.123,43.996,14.063,61.977
				C244.374,155.848,244.776,137.065,252.41,121.093z"/>
			
				<linearGradient id="path4090_3_" gradientUnits="userSpaceOnUse" x1="-1662.0033" y1="614.8621" x2="-1662.2897" y2="614.8621" gradientTransform="matrix(-10.2686 0 0 -54.6241 -10308.3965 33739.4727)">
				<stop  offset="0" style="stop-color:#8A8A8A"/>
				<stop  offset="0.2969" style="stop-color:#9F9F9F"/>
				<stop  offset="1" style="stop-color:#6E6E6E"/>
			</linearGradient>
			<path id="path4090_1_" fill="url(#path4090_3_)" d="M266.875,125.915c4.721,19.587,6.529,30.034,7.735,54.543
				C279.933,163.985,276.317,133.348,266.875,125.915z"/>
			
				<linearGradient id="path4094_3_" gradientUnits="userSpaceOnUse" x1="-1650.8892" y1="611.9228" x2="-1651.1466" y2="611.9228" gradientTransform="matrix(-11.4278 0 0 -47.8944 -11159.6543 29449.9121)">
				<stop  offset="0" style="stop-color:#8A8A8A"/>
				<stop  offset="0.2969" style="stop-color:#9F9F9F"/>
				<stop  offset="1" style="stop-color:#6E6E6E"/>
			</linearGradient>
			<path id="path4094_1_" fill="url(#path4094_3_)" d="M285.86,118.281c9.543,13.259,5.826,36.563,6.73,47.914
				C298.315,135.056,301.329,126.919,285.86,118.281z"/>
			
				<linearGradient id="path4098_3_" gradientUnits="userSpaceOnUse" x1="-1625.3894" y1="625.3085" x2="-1625.5878" y2="625.3085" gradientTransform="matrix(-14.8242 0 0 -60.1935 -13982.4248 37777.7266)">
				<stop  offset="0" style="stop-color:#8A8A8A"/>
				<stop  offset="0.2969" style="stop-color:#9F9F9F"/>
				<stop  offset="1" style="stop-color:#6E6E6E"/>
			</linearGradient>
			<path id="path4098_1_" fill="url(#path4098_3_)" d="M297.913,108.135c8.94,21.195,7.232,29.934,14.465,60.169
				C314.086,139.877,309.867,120.691,297.913,108.135z"/>
			
				<linearGradient id="path4102_3_" gradientUnits="userSpaceOnUse" x1="-1653.796" y1="645.3262" x2="-1654.0541" y2="645.3262" gradientTransform="matrix(-11.3976 0 0 -87.3445 -10768.5742 56548.1563)">
				<stop  offset="0" style="stop-color:#8A8A8A"/>
				<stop  offset="0.2969" style="stop-color:#9F9F9F"/>
				<stop  offset="1" style="stop-color:#6E6E6E"/>
			</linearGradient>
			<path id="path4102_1_" fill="url(#path4102_3_)" d="M326.541,138.772c1.507,23.304-1.808,53.74-11.049,87.39
				C321.117,195.726,323.126,162.177,326.541,138.772z"/>
			
				<linearGradient id="path4106_3_" gradientUnits="userSpaceOnUse" x1="-1605.7197" y1="642.0423" x2="-1605.8715" y2="642.0423" gradientTransform="matrix(-19.3803 0 0 -96.4852 -17484.2051 62100.0117)">
				<stop  offset="0" style="stop-color:#8A8A8A"/>
				<stop  offset="0.2969" style="stop-color:#9F9F9F"/>
				<stop  offset="1" style="stop-color:#6E6E6E"/>
			</linearGradient>
			<path id="path4106_1_" fill="url(#path4106_3_)" d="M323.93,104.218c17.277,20.09,14.866,56.151,10.346,96.43
				C351.553,147.009,341.809,125.513,323.93,104.218z"/>
			
				<linearGradient id="path4110_3_" gradientUnits="userSpaceOnUse" x1="-1658.4447" y1="648.3091" x2="-1658.7115" y2="648.3091" gradientTransform="matrix(-11.0205 0 0 -107.1512 -10224.9248 69623.9453)">
				<stop  offset="0" style="stop-color:#8A8A8A"/>
				<stop  offset="0.2969" style="stop-color:#9F9F9F"/>
				<stop  offset="1" style="stop-color:#6E6E6E"/>
			</linearGradient>
			<path id="path4110_1_" fill="url(#path4110_3_)" d="M322.222,103.314c10.346,21.998,5.424,56.854,3.013,107.078
				C336.988,146.406,335.682,124.408,322.222,103.314z"/>
		</g>
	</g>
</g>
<rect id="canvas_1_" fill="none" width="531" height="679"/>
</svg>
