<!-- Generator: Adobe Illustrator 18.1.1, SVG Export Plug-In  -->
<svg version="1.1"
	 xmlns="http://www.w3.org/2000/svg" xmlns:xlink="http://www.w3.org/1999/xlink" xmlns:a="http://ns.adobe.com/AdobeSVGViewerExtensions/3.0/"
	 x="0px" y="0px" width="444.194px" height="546.144px" viewBox="0 0 444.194 546.144" enable-background="new 0 0 444.194 546.144"
	 xml:space="preserve">
<defs>
</defs>
<g id="Vrstva_1_1_">
	<g id="base_1_">
		<path fill="#AF8C69" d="M222.697,246.651c52.2-0.2,98-23.5,123.6-58.1l0.2,0.2c33.3,32.8,46.4,72.1,44,123.4
			c-1.7,36.8-13.1,95.1-42.1,141.9c-13.1,21-29.7,39.8-50.5,53l0,0c-5.5-10.3-17-16.7-30.5-17c-20.2-0.5-28.9,10.1-30.9,22.1l0,0
			c-0.8,4.6-0.6,9.3,0.3,13.9c-4.6,0.5-9.3,0.6-14,0.6s-9.5-0.2-14-0.6c0.9-4.6,1.1-9.3,0.3-13.9l0,0c-2.1-12-10.9-22.6-30.9-22.1
			c-13.3,0.2-24.9,6.8-30.5,17l0,0c-20.8-13.3-37.4-32-50.5-53c-29-46.9-40.7-105.1-42.4-141.9c-2.2-51.1,10.9-90.7,44-123.4
			l0.2-0.2C124.597,223.351,170.397,246.551,222.697,246.651z"/>
	</g>
	<g id="mirror_1_">
		<g>
			<g>
				<g id="XMLID_1_">
					<g id="fill_x5F_bottom_1_">
						<path fill="#C4731A" d="M178.097,489.851c27.8-0.6,34.1,19.7,30.6,36c-1.6,7.6-5.4,14-9.9,17.4l-12.8-18.8l-12.1,18.8
							l-12.9-23l-9.9,16.4c-4.1-3-7.1-8.7-7.1-15c0-5.4,1.3-10.3,3.6-14.4C153.297,496.651,164.697,489.951,178.097,489.851z"/>
						<path fill="#AF8C69" d="M222.697,489.851v36.6c-4.7,0-9.5-0.2-14-0.6c3.5-16.3-3-36.6-30.6-36c-13.3,0.2-24.8,6.8-30.5,17l0,0
							c-20.8-13.3-37.4-32-50.5-53c-29-46.9-40.7-105.1-42.4-141.9c-2.2-51.1,10.9-90.7,44-123.4l0.2-0.2
							c25.7,34.7,71.5,57.9,123.6,58.1v36.4c0,0-68,5.5-80.3-15.1c-16.6-27.5-40.6-35-62.6-23c-27.6,14.7,1.1,177.8,22.2,193
							c27.6,19.7,42.9-0.8,62.3,21.1C182.197,479.451,199.197,479.151,222.697,489.851z"/>
						<path fill="#42210B" d="M139.097,170.651c38.8,11.5,62.3-14.7,66.9-20.4c-2.2,3.2-3.8,6.8-3.9,10.9
							c-0.2,14.8,15,30.3,20.7,30.3v55.2c-52.2-0.2-98-23.5-123.6-58.1c-4.4-6.2-8.4-12.5-11.4-19.1c-6.6-14-10.3-29.2-10.3-45.3
							c0-10.4,1.6-20.7,4.6-30.5c0.6-2.2,1.3-4.4,2.2-6.5c3-7.3,7.4-15.5,8.5-17.8c0,0,0-0.2,0.2-0.2c0.2-0.2,0.2-0.5,0.2-0.5
							c-6.8-8.4-27.9-12-27.9-12l40.6-5.2l-46.5-20.4c0,0,46.2-5.5,61.4,3.9c9.9,6.3-14.5-32.7-15-33.6l81.7,61.2l-15.5-9.2
							c-10.3-3.9-20.4-12.6-35.8-5.5c-2.2,0.9-4.6,2.2-6.6,3.3C60.097,88.451,97.097,158.151,139.097,170.651z"/>
						<path fill="#C7B299" d="M223.197,22.951l-0.5,114.4c0,0-1.1,0.6-2.8,1.4c0,0-7.7-60.3-44.5-78.6c-1.7-0.8-5.5-7.3-7.3-8
							l-5-5.7l-57.3-44.7l0,0c0,0,45.9-0.9,60.7,1.7C181.197,6.251,223.197,22.951,223.197,22.951z"/>
						<path fill="#EFDECE" d="M139.097,170.651c-42.1-12.5-79.2-82.4-9.6-119.1c2.1-1.3,4.4-2.2,6.6-3.3c15.5-7.1,21.9-0.2,32,3.8
							c1.7,0.8,8.5,4.1,10.1,4.9c36.9,18.3,41.8,81.7,41.8,81.7c-3.5,1.7-9.2,5.5-13.1,10.7c0,0-0.2,0.5-0.8,0.9
							C201.397,155.951,178.097,182.351,139.097,170.651z M199.197,125.851C199.197,125.851,199.197,125.451,199.197,125.851
							c1.9-5.5,2.8-11.2,2.8-17.2c0-29-22.6-52.5-50.5-52.5s-50.5,23.5-50.5,52.5s22.6,52.5,50.5,52.5
							C173.697,161.151,192.397,146.351,199.197,125.851z"/>
						<path fill="#42210B" d="M151.397,76.451c-17,0-30.8,14.4-30.8,32c0,17.8,13.9,32,30.8,32c17,0,30.8-14.4,30.8-32
							C182.297,90.751,168.497,76.451,151.397,76.451z M100.897,108.351c0-29,20.5-45.4,48.4-45.4s52.7,16.4,52.7,45.4
							c0,6.2-0.9,11.8-2.8,17.2c0,0,0,0,0,0.2c-6.8,20.5-25.7,35.3-47.7,35.3C123.497,161.151,100.897,137.351,100.897,108.351z"/>
						<path fill="#0F0602" d="M120.597,108.351c0-17.8,13.9-32,30.8-32c17,0,30.8,14.4,30.8,32c0,17.8-13.9,32-30.8,32
							C134.497,140.651,120.597,126.151,120.597,108.351z"/>
						<path fill="#42210B" d="M5.797,355.751c-26.4-109,82.1-186.4,82.1-186.4c3.2,6.8,7.1,13.1,11.4,19.1l-0.2,0.2
							c-33.3,32.8-46.4,72.3-44.2,123.4c1.7,36.8,13.1,95.1,42.4,141.9l-1.1,0.8l0,0C94.497,454.851,27.397,444.351,5.797,355.751z"
							/>
						<path fill="#FBB03B" d="M222.697,137.151v54.3c-5.7,0-20.8-15.5-20.7-30.3c0-4.1,1.7-7.7,3.9-10.9c0.6-0.6,0.8-0.9,0.8-0.9
							c3.9-5.2,9.9-8.8,13.1-10.7C221.797,137.651,222.697,137.151,222.697,137.151z"/>
						<path fill="#51260E" d="M92.197,70.251c0.2-0.2,0.2-0.5,0.3-0.6c-1.1,2.2-5.5,10.3-8.5,17.8
							C86.397,81.451,89.097,75.751,92.197,70.251z"/>
						<g id="fill_x5F_bottom_2_">
							<path fill="#C4731A" d="M266.097,489.851c-27.8-0.6-34.1,19.7-30.6,36c1.6,7.6,5.4,14,9.9,17.4l12.8-18.8l12.1,18.8l12.9-23
								l9.9,16.4c4.1-3,7.1-8.7,7.1-15c0-5.4-1.3-10.3-3.6-14.4C290.897,496.651,279.497,489.951,266.097,489.851z"/>
							<path fill="#AF8C69" d="M221.497,489.851v36.6c4.7,0,9.5-0.2,14-0.6c-3.5-16.3,3-36.6,30.6-36c13.3,0.2,24.8,6.8,30.5,17l0,0
								c20.8-13.3,37.4-32,50.5-53c29-46.9,40.7-105.1,42.4-141.9c2.2-51.1-10.9-90.7-44-123.4l-0.2-0.2
								c-25.7,34.7-71.5,57.9-123.6,58.1v36.4c0,0,68,5.5,80.3-15.1c16.6-27.5,40.6-35,62.6-23c27.6,14.7-1.1,177.8-22.2,193
								c-27.3,19.7-42.9-0.8-62.3,21.1C262.197,479.451,244.997,479.151,221.497,489.851z"/>
							<path fill="#42210B" d="M305.097,170.651c-38.8,11.5-62.3-14.7-66.9-20.4c2.2,3.2,3.8,6.8,3.9,10.9
								c0.2,14.8-15,30.3-20.7,30.3v55.2c52.2-0.2,98-23.5,123.6-58.1c4.6-6.2,8.4-12.5,11.5-19.1c6.6-14,10.3-29.2,10.3-45.3
								c0-10.4-1.6-20.7-4.6-30.5c-0.6-2.2-1.3-4.4-2.2-6.5c-2.8-7.3-7.4-15.5-8.5-17.8c0,0,0-0.2-0.2-0.2c-0.2-0.2-0.2-0.5-0.2-0.5
								c6.8-8.4,27.9-12,27.9-12l-40.6-5.2l46.2-20.5c0,0-46.2-5.5-61.4,3.9c-9.9,6.3,14.5-32.7,15-33.6l-68.5,44.2l0.2,0.5
								c10.3-3.9,22.4-5.4,37.9,1.7c2.2,0.9,4.6,2.2,6.6,3.3C384.297,88.451,347.397,158.151,305.097,170.651z"/>
							<path fill="#C7B299" d="M223.197,22.951l-1.6,114.4c0,0,1.1,0.6,2.8,1.4c0,0,3.9-71.5,40.9-89.9c1.7-0.8,4.9-2.8,4.9-2.8
								l68.5-44.2l0,0c0,0-46.1-1.1-61.1,1.7C263.397,6.251,223.197,22.951,223.197,22.951z"/>
							<path fill="#EFDECE" d="M305.097,170.651c42.1-12.5,79.2-82.4,9.6-119.1c-2.1-1.3-4.4-2.2-6.6-3.3
								c-15.5-7.1-27.8-5.7-37.9-1.7c-1.7,0.8-3.6,1.6-5.2,2.4c-36.9,18.3-40.9,89.9-40.9,89.9c3.5,1.7,9.2,5.5,13.1,10.7
								c0,0,0.2,0.5,0.8,0.9C242.797,155.951,266.397,182.351,305.097,170.651z M245.097,125.851
								C244.997,125.851,244.997,125.451,245.097,125.851c-1.9-5.5-2.8-11.2-2.8-17.2c0-29,22.6-52.5,50.5-52.5s50.5,23.5,50.5,52.5
								s-22.6,52.5-50.5,52.5C270.697,161.151,251.897,146.351,245.097,125.851z"/>
							<path fill="#42210B" d="M292.797,76.551c17,0,30.8,14.4,30.8,32c0,17.8-13.9,32-30.8,32c-17,0-30.8-14.4-30.8-32
								S275.797,76.551,292.797,76.551z M343.297,108.651c0-29-19.9-45.8-47.8-45.8s-53.2,16.7-53.2,45.8c0,6.2,0.9,11.8,2.8,17.2
								c0,0,0,0,0,0.2c6.8,20.5,25.7,35.3,47.7,35.3C320.697,161.351,343.297,137.651,343.297,108.651z"/>
							<path fill="#0F0602" d="M323.597,108.351c0-17.8-13.9-32-30.8-32c-17,0-30.8,14.4-30.8,32c0,17.8,13.9,32,30.8,32
								C309.797,140.651,323.597,126.151,323.597,108.351z"/>
							<path fill="#42210B" d="M438.397,355.751c26.4-109-81.7-186.4-81.7-186.4c-3.2,6.8-7.1,13.1-11.5,19.1l0.2,0.2
								c33.3,32.7,46.5,72.1,44,123.2c-1.7,36.8-13.1,95.1-42.4,141.9l1.1,0.8l0,0C350.097,454.851,417.097,444.351,438.397,355.751
								z"/>
							<path fill="#FBB03B" d="M221.497,137.151v54.3c5.7,0,20.8-15.5,20.7-30.3c0-4.1-1.7-7.7-3.9-10.9c-0.6-0.6-0.8-0.9-0.8-0.9
								c-3.9-5.2-9.9-8.8-13.1-10.7C222.697,137.651,221.497,137.151,221.497,137.151z"/>
							<path fill="#51260E" d="M351.997,70.251c-0.2-0.2-0.2-0.5-0.3-0.6c1.1,2.2,5.7,10.3,8.5,17.8
								C357.997,81.451,355.097,75.751,351.997,70.251z"/>
						</g>
						<path fill="#C7B299" d="M338.597,364.251c-5.5,62.5-53.2,113.6-118.8,113.6s-116-51-118.8-113.6
							c-4.9-108.6,53.2-101,118.8-101S347.997,257.751,338.597,364.251z"/>
					</g>
					<g id="fill_x5F_top_1_">
						<path display="none" fill="#AF8C69" d="M222.697,489.851v36.6c-4.7,0-9.5-0.2-14-0.6c0.9-4.6,1.1-9.3,0.3-13.9l0,0
							c-2.1-12-10.9-22.6-30.9-22.1c-13.3,0.2-24.9,6.8-30.5,17l0,0c-20.8-13.3-37.4-32-50.5-53c-29-46.9-40.7-105.1-42.4-141.9
							c-2.2-51.1,10.9-90.7,44-123.4l0.2-0.2c25.7,34.7,71.3,57.9,123.6,58.1v243.3L222.697,489.851L222.697,489.851z"/>
						<path fill="#C4731A" d="M222.697,137.651v54c-5.7,0-20.8-15.5-20.7-30.3c0-4.1,1.7-7.7,3.9-10.9c0.6-0.6,0.8-0.9,0.8-0.9
							c3.9-5.2,9.9-8.8,13.1-10.7C221.497,137.651,222.697,137.651,222.697,137.651z"/>
						<path fill="#EFDECE" d="M199.097,125.851C199.097,125.851,199.197,125.451,199.097,125.851c1.9-5.5,2.8-11.2,2.8-17.2
							c0-29-24.8-45.8-52.7-45.8s-48.4,16.7-48.4,45.8c0,1.7,0,3.3,0.2,4.9c2.5,26.7,24.1,47.7,50.3,47.7
							C173.497,161.151,192.297,146.351,199.097,125.851z M91.097,98.351c2.7-17,13.9-33.9,38.2-46.9c2.1-1.3,4.4-2.2,6.6-3.3
							c15.5-7.1,40.4,7.9,42.1,8.7c36.9,18.3,41.8,81.7,41.8,81.7c-3.5,1.7-9.2,5.5-13.1,10.7c0,0-0.2,0.5-0.8,0.9
							c-4.6,5.5-27.9,31.9-66.9,20.4C111.697,162.451,86.397,130.051,91.097,98.351z"/>
						<path fill="#C4731A" d="M208.497,525.851c-1.6,7.6-5.4,14-9.9,17.4l-12.8-18.8l-12.1,18.8l-13.1-23l-9.9,16.4
							c-4.1-3-7.1-8.7-7.1-15c0-3.9,0.8-7.7,2.1-11c0,0,11.5-8.4,19.6-8.4c18.5,0,24.1,11.5,33.6,11.5c5.7,0,9-1.4,9-1.4l0.8-0.2
							l0,0C209.797,516.551,209.497,521.251,208.497,525.851z"/>
						<path fill="#51260E" d="M189.397,111.751c3.9,0.9,10.1,11,9.6,14c0,0,0,0,0,0.2c-6.8,20.5-25.7,35.3-47.7,35.3
							c-26.2,0-47.8-21-50.3-47.7h0.8c0,0,9.9-16.4,12.1-15.9s6.5,12,6.5,12l0,0c0.6,17.2,14.2,31.1,30.8,31.1
							c12.8,0,23.5-8,28.2-19.4l0,0C180.097,120.451,185.497,110.651,189.397,111.751z"/>
						<path fill="#230F07" d="M182.197,111.151c-0.2,3.6-1.1,6.9-2.2,10.1l0,0c-4.7,11.5-15.6,19.4-28.2,19.4
							c-16.7,0-30.1-13.9-30.8-31.1c0-0.5,0-0.8,0-1.3c0,0,9.6-1.6,14.7,12.5c5.2,14.2,27.6,11.2,32.3,4.4
							C172.597,118.251,177.797,111.151,182.197,111.151z"/>
						<path fill="#51260E" d="M92.697,69.451c0.2-0.2,0.2-0.5,0.2-0.5c-6.8-8.4-27.9-12-27.9-12l40.6-5.2c0,0,4.1,2.8,6.5-2.4
							c4.6-9.5-52.9-18.3-52.9-18.3s46.2-5.5,61.4,3.9c9.9,6.3-14.5-32.7-15-33.6l27.3,17.5l0,0c0.6,0.8,12.1,17,4.7,23.7
							c-4.7,4.4-8.4,8.4-8.4,8.4c-24.3,12.8-35.5,29.8-38.2,46.9c-0.9-0.2-1.7-0.5-2.5-0.8c-3.9-2.2-6.6-3.6-6.8-3.8
							c0.6-2.2,1.3-4.4,2.2-6.5C86.997,79.851,91.297,71.851,92.697,69.451C92.697,69.651,92.697,69.451,92.697,69.451z"/>
						<path fill="#51260E" d="M92.197,70.251c0.2-0.2,0.2-0.5,0.3-0.6c-1.1,2.2-5.5,10.3-8.5,17.8
							C86.197,81.451,89.097,75.751,92.197,70.251z"/>
						<path fill="#51260E" d="M77.297,177.751c0,0,5.4,13.1,0,23.4s-38.2,61.9-36.3,94.4c1.9,32.7-38.8,39.1-38.8,39.1
							C-5.003,256.951,53.097,198.351,77.297,177.751z"/>
						<g id="fill_x5F_top_2_">
							<path display="none" fill="#AF8C69" d="M221.497,489.851v36.6c4.7,0,9.5-0.2,14-0.6c-0.9-4.6-1.1-9.3-0.3-13.9l0,0
								c2.1-12,10.9-22.6,30.9-22.1c13.3,0.2,24.9,6.8,30.5,17l0,0c20.8-13.3,37.4-32,50.5-53c29-46.9,40.7-105.1,42.1-141.9
								c2.2-51.1-10.9-90.7-44-123.4l-0.2-0.2c-25.7,34.7-71.3,57.9-123.6,58.1L221.497,489.851L221.497,489.851z"/>
							<path fill="#C4731A" d="M221.497,137.651v54c5.7,0,20.8-15.5,20.7-30.3c0-4.1-1.7-7.7-3.9-10.9c-0.6-0.6-0.8-0.9-0.8-0.9
								c-3.9-5.2-9.9-8.8-13.1-10.7C222.697,137.651,221.497,137.651,221.497,137.651z"/>
							<path fill="#EFDECE" d="M245.097,125.851C245.097,125.851,245.097,125.451,245.097,125.851c-1.9-5.5-2.8-11.2-2.8-17.2
								c0-29,24-45.8,51.9-45.8s49.2,16.7,49.2,45.8c0,1.7,0,3.3-0.2,4.9c-2.5,26.7-24,47.7-50.3,47.7
								C270.697,161.151,251.897,146.351,245.097,125.851z M353.097,98.351c-2.7-17-13.9-33.9-38-46.9c-2.1-1.3-4.4-2.2-6.6-3.3
								c-15.5-7.1-20.2-2.4-30.3,1.6c-1.7,0.8-10.9-1.7-12.6-0.9c-36.9,18.3-40.9,89.9-40.9,89.9c3.5,1.7,9.2,5.5,13.1,10.7
								c0,0,0.2,0.5,0.8,0.9c4.6,5.5,27.9,31.9,66.9,20.4C332.697,162.451,357.997,130.051,353.097,98.351z"/>
							<path fill="#C4731A" d="M235.497,525.851c1.6,7.6,5.4,14,9.9,17.4l12.8-18.8l12.1,18.8l13.1-23l9.9,16.4
								c4.1-3,7.1-8.7,7.1-15c0-3.9-0.8-7.7-2.1-11c0,0-11.5-8.4-19.6-8.4c-18.5,0-24.1,11.5-33.6,11.5c-5.7,0-9-1.4-9-1.4l-0.8-0.2
								l0,0C234.397,516.551,234.597,521.251,235.497,525.851z"/>
							<path fill="#51260E" d="M254.797,111.751c-3.9,0.9-10.1,11-9.6,14c0,0,0,0,0,0.2c6.8,20.5,25.7,35.3,47.7,35.3
								c26.4,0,47.8-21,50.3-47.7h-0.8c0,0-9.9-16.4-12.1-15.9c-2.2,0.5-6.5,12-6.5,12l0,0c-0.6,17.2-14.2,31.1-30.8,31.1
								c-12.8,0-23.5-8-28.2-19.4l0,0C264.097,120.451,258.697,110.651,254.797,111.751z"/>
							<path fill="#230F07" d="M262.197,111.151c0.2,3.6,1.1,6.9,2.2,10.1l0,0c4.7,11.5,15.6,19.4,28.2,19.4
								c16.7,0,30.1-13.9,30.8-31.1c0-0.5,0-0.8,0-1.3c0,0-9.6-1.6-14.7,12.5c-5.2,14.2-27.6,11.2-32.3,4.4
								C271.997,118.251,266.597,111.151,262.197,111.151z"/>
							<path fill="#51260E" d="M351.497,69.451c-0.2-0.2-0.2-0.5-0.2-0.5c6.8-8.4,27.9-12,27.9-12l-40.6-5.2c0,0-4.1,2.8-6.5-2.4
								c-4.6-9.5,52.9-18.3,52.9-18.3s-46.2-5.5-61.4,3.9c-9.9,6.3,14.5-32.7,15-33.6l-27.3,17.5l0,0c-0.6,0.8-12.1,17-4.7,23.7
								c4.7,4.4,8.4,8.4,8.4,8.4c24.3,12.8,35.5,29.8,38,46.9c0.9-0.2,1.7-0.5,2.5-0.8c3.9-2.2,6.6-3.6,6.8-3.8
								c-0.6-2.2-1.3-4.4-2.2-6.5C357.197,79.851,352.897,71.851,351.497,69.451C351.697,69.651,351.497,69.451,351.497,69.451z"/>
							<path fill="#51260E" d="M352.097,70.251c-0.2-0.2-0.2-0.5-0.3-0.6c1.1,2.2,5.5,10.3,8.5,17.8
								C357.997,81.451,355.297,75.751,352.097,70.251z"/>
							<path fill="#51260E" d="M366.997,177.751c0,0-5.4,13.1,0,23.4s38.2,61.9,36.3,94.4c-1.9,32.7,38.8,39.3,38.8,39.3
								C449.197,256.951,391.297,198.351,366.997,177.751z"/>
						</g>
					</g>
					<g id="outlines_1_">
						<path fill="none" stroke="#000000" stroke-width="3" stroke-miterlimit="10" d="M92.697,69.451c0.9-1.4,2.1-2.8,3.5-3.9"/>
						<path fill="none" stroke="#000000" stroke-width="3" stroke-miterlimit="10" d="M81.797,93.751c0.6-2.2,1.3-4.4,2.2-6.5"/>
						
							<ellipse fill="none" stroke="#000000" stroke-width="3" stroke-miterlimit="10" cx="151.397" cy="108.351" rx="30.8" ry="32"/>
						<path fill="none" stroke="#000000" stroke-width="3" stroke-miterlimit="10" d="M222.697,246.651
							c-52.2-0.2-98-23.5-123.6-58.1c-4.4-6.2-8.4-12.5-11.4-19.1c-6.6-14-10.3-29.2-10.3-45.3c0-10.4,1.6-20.7,4.6-30.5"/>
						<path fill="none" stroke="#0A0000" stroke-width="3" stroke-miterlimit="10" d="M206.297,149.751c3.9-5.2,10.3-9.5,13.6-11.2
							c1.7-0.9,5.4-0.5,5.4-0.5"/>
						<path fill="none" stroke="#0A0000" stroke-width="3" stroke-miterlimit="10" d="M222.697,191.251c-5.7,0-20.8-15.5-20.7-30.3
							c0-4.1,1.7-7.7,3.9-10.9"/>
						<path fill="none" stroke="#000000" stroke-width="3" stroke-miterlimit="10" d="M199.097,125.851
							c-6.8,20.5-25.7,35.3-47.7,35.3c-26.2,0-47.8-21-50.3-47.7c-0.2-1.6-0.2-3.3-0.2-4.9c0-29,18.8-45.8,46.7-45.8
							s54.3,16.7,54.3,45.8C201.897,114.451,200.997,120.251,199.097,125.851"/>
						<path fill="none" stroke="#000000" stroke-width="3" stroke-miterlimit="10" d="M120.597,109.551c0-0.5,0-0.8,0-1.3
							c0-17.8,13.9-32,30.8-32s30.8,14.4,30.8,32c0,0.9,0,1.7-0.2,2.5c-0.2,3.6-1.1,6.9-2.2,10.1"/>
						<path fill="none" stroke="#000000" stroke-width="3" stroke-miterlimit="10" d="M206.597,149.351c0,0-0.2,0.5-0.8,0.9
							c-4.6,5.5-27.9,31.9-66.9,20.4c-27.3-8.2-52.5-40.6-47.8-72.3c2.7-17,13.9-33.9,38.2-46.9c2.1-1.3,4.4-2.2,6.6-3.3
							c15.5-7.1,42.3,9,44,9.8c36.9,18.3,39.8,80.8,39.8,80.8"/>
						<path fill="none" stroke="#000000" stroke-width="3" stroke-miterlimit="10" d="M105.497,1.651c0,0,45.9-0.8,61.1,1.7
							c15.3,2.7,58.9,19.4,58.9,19.4"/>
						<path fill="#AF8C69" d="M222.697,60.351l2.5,1.6l-2.2,74.8c0,0-1.7,0.9-3.5,1.9c0,0-7.3-24.6-14.2-37.7
							c-14.4-26.8-46.7-54.4-47.8-54.9l-4.1-7.1"/>
						
							<line fill="none" stroke="#000000" stroke-width="3" stroke-miterlimit="10" x1="132.797" y1="19.451" x2="105.497" y2="1.651"/>
						<path fill="none" stroke="#000000" stroke-width="3" stroke-miterlimit="10" d="M217.497,138.551c0,0-5.8-26.2-12.5-36.6
							c-13.3-20.8-72.3-82.5-72.3-82.5"/>
						<path fill="none" stroke="#000000" stroke-width="3" stroke-miterlimit="10" d="M191.697,65.551"/>
						<path fill="none" stroke="#000000" stroke-width="3" stroke-miterlimit="10" d="M106.097,1.651c0,0,0,0-0.6,0
							c0.6,0.9,24.9,39.9,15,33.6c-15-9.5-61.4-3.9-61.4-3.9l46.2,20.5l-40.6,5.2c0,0,21.1,3.8,27.9,12c0,0,0,0.2-0.2,0.5
							c0,0,0,0.2-0.2,0.2c-1.1,2.2-5.5,10.3-8.5,17.8c-0.9,2.4-1.7,4.6-2.2,6.5"/>
						<path fill="none" stroke="#000000" stroke-width="3" stroke-miterlimit="10" d="M147.597,506.851c-20.8-13.3-37.4-32-50.5-53
							c-29-46.9-40.7-105.1-42.4-141.9c-2.2-51.1,10.9-90.7,44-123.4"/>
						<path fill="none" stroke="#000000" stroke-width="3" stroke-miterlimit="10" d="M222.697,526.151c-4.7,0-9.5-0.2-14-0.6
							c-0.2,0-0.3,0-0.3,0"/>
						<path fill="none" stroke="#000000" stroke-width="3" stroke-miterlimit="10" d="M95.897,454.851h-0.2"/>
						<path fill="none" stroke="#000000" stroke-width="3" stroke-miterlimit="10" d="M87.497,169.351c0,0-3.9,2.8-10.3,8.4
							c-24.1,20.7-82.2,79.2-75.1,156.8c0.6,6.9,1.7,13.9,3.6,21.1c21.5,88.7,88.5,98.9,90.1,98.9l0,0"/>
						<path fill="none" stroke="#000000" stroke-width="3" stroke-miterlimit="10" d="M208.497,525.851c-1.6,7.6-5.4,14-9.9,17.4
							l-12.8-18.8l-12.1,18.8l-13.1-23l-9.9,16.4c-4.1-3-7.1-8.7-7.1-15c0-3.9,0.8-7.7,2.1-11c0.3-1.3,0.9-2.2,1.6-3.3
							c5.5-10.3,17-16.7,30.5-17c20.2-0.5,28.9,10.1,30.9,22.1l0,0C209.797,516.551,209.497,521.251,208.497,525.851z"/>
						<polyline fill="none" stroke="#000000" stroke-width="3" stroke-miterlimit="10" points="87.797,268.151 102.497,290.551 
							117.597,268.151 						"/>
						<polyline fill="none" stroke="#000000" stroke-width="3" stroke-miterlimit="10" points="118.097,323.551 131.197,345.751 
							143.997,325.451 						"/>
						<polyline fill="none" stroke="#000000" stroke-width="3" stroke-miterlimit="10" points="169.397,293.851 182.497,316.251 
							199.197,293.851 						"/>
						<polyline fill="none" stroke="#000000" stroke-width="3" stroke-miterlimit="10" points="180.897,378.751 195.797,404.351 
							210.697,378.751 						"/>
						<polyline fill="none" stroke="#000000" stroke-width="3" stroke-miterlimit="10" points="102.497,408.451 116.097,430.851 
							132.797,408.451 						"/>
						<polyline fill="none" stroke="#000000" stroke-width="3" stroke-miterlimit="10" points="169.397,448.051 182.497,470.251 
							199.197,448.051 						"/>
						<path fill="none" stroke="#000000" stroke-width="3" stroke-miterlimit="10" d="M132.797,19.451L132.797,19.451"/>
						<g id="outlines_2_">
							<path fill="none" stroke="#000000" stroke-width="3" stroke-miterlimit="10" d="M351.497,69.451c-0.9-1.4-2.1-2.8-3.5-3.9"/>
							<path fill="none" stroke="#000000" stroke-width="3" stroke-miterlimit="10" d="M362.397,93.751c-0.6-2.2-1.3-4.4-2.2-6.5"/>
							
								<ellipse fill="none" stroke="#000000" stroke-width="3" stroke-miterlimit="10" cx="292.797" cy="108.351" rx="30.8" ry="32"/>
							<path fill="none" stroke="#000000" stroke-width="3" stroke-miterlimit="10" d="M221.497,246.651
								c52.2-0.2,98-23.5,123.6-58.1c4.6-6.2,8.4-12.5,11.5-19.1c6.6-14,10.3-29.2,10.3-45.3c0-10.4-1.6-20.7-4.6-30.5"/>
							<path fill="none" stroke="#0A0000" stroke-width="3" stroke-miterlimit="10" d="M238.197,150.251
								c-3.9-5.2-10.6-9.9-13.9-11.7c-1.7-0.9-2.8-1.4-2.8-1.4"/>
							<path fill="none" stroke="#0A0000" stroke-width="3" stroke-miterlimit="10" d="M221.497,191.251c5.7,0,20.8-15.5,20.7-30.3
								c0-4.1-1.7-7.7-3.9-10.9"/>
							<path fill="none" stroke="#000000" stroke-width="3" stroke-miterlimit="10" d="M245.097,125.851
								c6.8,20.5,25.7,35.3,47.7,35.3c26.4,0,47.8-21,50.3-47.7c0.2-1.6,0.2-3.3,0.2-4.9c0-29-18.8-45.8-46.7-45.8
								s-54.3,16.7-54.3,45.8C242.297,114.451,243.197,120.251,245.097,125.851"/>
							<path fill="none" stroke="#000000" stroke-width="3" stroke-miterlimit="10" d="M323.697,109.551c0-0.5,0-0.8,0-1.3
								c0-17.8-13.9-32-30.8-32s-30.8,14.4-30.8,32c0,0.9,0,1.7,0.2,2.5c0.2,3.6,1.1,6.9,2.2,10.1"/>
							<path fill="none" stroke="#000000" stroke-width="3" stroke-miterlimit="10" d="M237.597,149.351c0,0,0.2,0.5,0.8,0.9
								c4.6,5.5,27.9,31.9,66.9,20.4c27.3-8.2,52.5-40.6,47.8-72.3c-2.7-17-13.9-33.9-38-46.9c-2.1-1.3-4.4-2.2-6.6-3.3
								c-15.5-7.1-27.8-5.7-37.9-1.7c-1.7,0.8-3.5,1.6-5.2,2.4c-37,18.3-40.9,89.9-40.9,89.9"/>
							<path fill="none" stroke="#000000" stroke-width="3" stroke-miterlimit="10" d="M338.697,1.651c0,0-45.9-0.9-60.7,1.7
								c-14.4,2.7-54.8,19.4-54.8,19.4"/>
							<path fill="#AF8C69" d="M221.197,60.151l0.3,77c0,0,1.1,0.5,2.8,1.4c0,0-4.6-21.8,19.6-38.5c1.7-0.8,46.2-43.9,46.2-43.9
								l48.3-54.6C337.097,1.951,223.997,62.551,221.197,60.151z"/>
							<path fill="none" stroke="#000000" stroke-width="3" stroke-miterlimit="10" d="M223.197,139.751c0,0,4.7-21.9,8.7-28.2
								c9.9-15.9,54.8-51.3,54.8-51.3l51.9-58.7"/>
							<path fill="none" stroke="#000000" stroke-width="3" stroke-miterlimit="10" d="M274.797,43.151"/>
							<path fill="none" stroke="#000000" stroke-width="3" stroke-miterlimit="10" d="M338.197,1.651c0,0,0,0,0.6,0
								c-0.6,0.9-24.9,39.9-15,33.6c15-9.5,61.4-3.9,61.4-3.9l-46.2,20.5l40.6,5.2c0,0-21.1,3.8-27.9,12c0,0,0,0.2,0.2,0.5
								c0,0,0,0.2,0.2,0.2c1.1,2.2,5.5,10.3,8.5,17.8c0.9,2.4,1.7,4.6,2.2,6.5"/>
							<path fill="none" stroke="#000000" stroke-width="3" stroke-miterlimit="10" d="M296.597,506.851c20.8-13.3,37.4-32,50.5-53
								c29-46.9,40.7-105.1,42.1-141.9c2.2-51.1-10.9-90.7-44-123.4"/>
							<path fill="none" stroke="#000000" stroke-width="3" stroke-miterlimit="10" d="M221.497,526.151c4.7,0,9.5-0.2,14-0.6
								c0.2,0,0.3,0,0.3,0"/>
							<path fill="none" stroke="#000000" stroke-width="3" stroke-miterlimit="10" d="M348.297,454.851h0.2"/>
							<path fill="none" stroke="#000000" stroke-width="3" stroke-miterlimit="10" d="M356.697,169.351c0,0,3.9,2.8,10.3,8.4
								c24.1,20.7,82.2,79.4,75.1,156.8c-0.6,6.9-1.7,13.9-3.5,21.1c-21.5,88.7-88.5,98.9-90.1,98.9l0,0"/>
							<path fill="none" stroke="#000000" stroke-width="3" stroke-miterlimit="10" d="M235.497,525.851c1.6,7.6,5.4,14,9.9,17.4
								l12.8-18.8l12.1,18.8l13.1-23l9.9,16.4c4.1-3,7.1-8.7,7.1-15c0-3.9-0.8-7.7-2.1-11c-0.3-1.3-0.9-2.2-1.6-3.3
								c-5.5-10.3-17-16.7-30.5-17c-20.2-0.5-28.9,10.1-30.9,22.1l0,0C234.397,516.551,234.597,521.251,235.497,525.851z"/>
							<polyline fill="none" stroke="#000000" stroke-width="3" stroke-miterlimit="10" points="356.397,268.151 341.697,290.551 
								326.897,268.151 							"/>
							<polyline fill="none" stroke="#000000" stroke-width="3" stroke-miterlimit="10" points="326.097,323.551 313.197,345.751 
								300.197,325.451 							"/>
							<polyline fill="none" stroke="#000000" stroke-width="3" stroke-miterlimit="10" points="274.797,293.851 261.897,316.251 
								245.097,293.851 							"/>
							<polyline fill="none" stroke="#000000" stroke-width="3" stroke-miterlimit="10" points="263.297,378.751 248.497,404.351 
								233.597,378.751 							"/>
							<polyline fill="none" stroke="#000000" stroke-width="3" stroke-miterlimit="10" points="341.697,408.451 328.297,430.851 
								311.597,408.451 							"/>
							<polyline fill="none" stroke="#000000" stroke-width="3" stroke-miterlimit="10" points="274.797,448.051 261.897,470.251 
								245.097,448.051 							"/>
						</g>
					</g>
				</g>
			</g>
		</g>
	</g>
	<g id="top_1_">
		<g id="eye_lens_3_">
			<path id="eye_lens_2_3_" fill="#FFFFFF" d="M137.397,84.651c4.3,3.3,3.9,15-2.1,21.3c-6.2,6.5-12.1,8.5-16.6,5.5
				c-4.3-3.3-5.5-9.9,1.6-19.1C125.897,84.951,133.097,81.351,137.397,84.651z"/>
			<path id="eye_lens_1_3_" fill="#FFFFFF" d="M131.797,116.951c1.6,1.7,0.2,6.2-1.7,7.9c-1.9,1.7-4.7,1.7-6.3,0s-1.1-4.7,0.8-6.5
				C126.597,116.651,130.397,115.251,131.797,116.951z"/>
		</g>
		<g id="eye_lens_2_">
			<path id="eye_lens_2_2_" fill="#FFFFFF" d="M276.697,83.051c4.7,2.7,6,14.2,1.1,21.3c-5.2,7.3-10.7,10.3-15.5,7.9
				c-4.7-2.4-6.9-9-1.3-19.3C265.297,85.151,272.097,80.351,276.697,83.051z"/>
			<path id="eye_lens_1_2_" fill="#FFFFFF" d="M272.597,116.951c1.6,1.7,0.2,6.2-1.7,7.9s-4.7,1.7-6.3,0s-1.1-4.7,0.8-6.5
				C267.197,116.651,270.997,115.251,272.597,116.951z"/>
		</g>
	</g>
</g>
<g id="Vrstva_2_1_">
	<g>
		<g id="g4808_1_">
			<path id="path2830_1_" stroke="#000000" d="M306.497,64.251c-23.7,0.2-46.4,7.6-69.4,10.4c-9.6,1.3-19.6,1.6-29.3,0.3
				c-12.9-1.6-25.4-5.5-38.2-7.4c-11.5-1.6-23.2-3.3-34.7-3.3c-20.2-0.2-39.8,6.2-59.6,9.6c0,5.8-1.1,13.3,1.7,17.4
				c3,4.3,8.2,8,9.6,13.7c3.2,13.6,7.7,26.8,13.4,39.4c2.8,6.2,8,10.4,14,13.4c14.2,7.1,31.1,8.2,46.5,6
				c22.2-3.2,34.2-19.9,43.4-38.8c3.5-7.7,3.8-16.7,8.4-23.7c2.7-4.3,9-2.4,13.4-2.5c6.6,0,8.2,7.4,9.6,12.3
				c4.9,17.5,13.1,36,29.3,45.1c24.3,13.7,62.5,11,78.3-13.6c6.2-9.6,7.9-21.3,10.9-32.3c1.9-6.6,3.6-14.5,10.3-18.3
				c2.7-1.4,0.8-7.4,1.3-10.7c0.5-3.8,1.3-7.1-4.1-7.7c-9.3-1.3-18.3-5.2-27.8-6.5C324.497,66.051,315.597,64.251,306.497,64.251z
				 M150.597,70.551c6.6,0,13.4,0.5,19.9,1.9c38.8,8.2,39.6,24.1,23.7,57.3c-12.9,27-39.9,33.6-67.1,27.1
				c-12.5-3-21.1-11.7-25.1-23.7c-4.3-12.6-7.4-26-6.8-39.3c0.9-17.8,21.1-20.4,35.5-21.9
				C136.997,71.251,143.797,70.551,150.597,70.551z M292.097,70.551c6.6,0,13.4,0.6,20,1.4c14.4,1.6,34.6,4.1,35.5,21.9
				c0.8,13.3-2.5,26.7-6.8,39.3c-4.1,12-12.6,20.7-25.1,23.7c-27.1,6.5-54.1-0.3-67.1-27.1c-15.9-33-15.1-49.1,23.7-57.3
				C278.697,71.051,285.497,70.451,292.097,70.551z"/>
			<path id="path2832_1_" opacity="0.85" stroke="#000000" enable-background="new    " d="M130.497,71.851
				c13.3-1.4,26.8-2.4,39.9,0.5c38.8,8.2,39.6,24.1,23.7,57.3c-12.9,27-39.9,33.6-67.1,27.3c-12.5-3-21.1-11.7-25.1-23.7
				c-4.3-12.6-7.6-26-6.8-39.3C95.997,75.951,115.997,73.551,130.497,71.851L130.497,71.851z"/>
			<path id="path2832-1_1_" opacity="0.85" stroke="#000000" enable-background="new    " d="M312.197,71.851
				c-13.3-1.4-26.8-2.4-39.9,0.5c-38.8,8.2-39.6,24.1-23.7,57.3c12.9,27,39.9,33.6,67.1,27.3c12.5-3,21.1-11.7,25.1-23.7
				c4.3-12.6,7.6-26,6.8-39.3C346.697,75.951,326.497,73.551,312.197,71.851L312.197,71.851z"/>
		</g>
		<title>Layer 1</title>
	</g>
</g>
</svg>
