<?xml version="1.0" encoding="utf-8"?>
<!-- Generator: Adobe Illustrator 18.1.1, SVG Export Plug-In . SVG Version: 6.00 Build 0)  -->
<!DOCTYPE svg PUBLIC "-//W3C//DTD SVG 1.1//EN" "http://www.w3.org/Graphics/SVG/1.1/DTD/svg11.dtd">
<svg version="1.1" id="Vrstva_1" xmlns="http://www.w3.org/2000/svg" xmlns:xlink="http://www.w3.org/1999/xlink" x="0px" y="0px"
	 width="444.2px" height="546px" viewBox="-257 8 444.2 546" enable-background="new -257 8 444.2 546" xml:space="preserve">
<g id="owl-base_2_">
	<g id="body_1_">
		<path fill="#AF8C69" d="M-41.1,282.2c46.5-0.2,87.4-20.9,110.2-51.8l0.2,0.2c29.7,29.2,41.4,64.3,39.3,110
			C107,373.4,96.9,425.5,71,467.1c-11.7,18.7-26.4,35.5-45.1,47.3l0,0c-4.9-9.2-15.2-14.9-27.2-15.2c-18-0.5-25.8,9-27.6,19.7l0,0
			c-0.7,4.1-0.6,8.3,0.3,12.4c-4.1,0.5-8.3,0.6-12.4,0.6s-8.5-0.2-12.4-0.6c0.8-4.1,1-8.3,0.3-12.4l0,0
			c-1.8-10.7-9.7-20.2-27.6-19.7c-11.9,0.2-22.2,6.1-27.2,15.2l0,0c-18.5-11.9-33.4-28.6-45.1-47.3c-25.9-41.8-36.3-93.7-37.8-126.5
			c-1.9-45.6,9.7-80.9,39.3-110l0.2-0.2C-128.7,261.5-87.9,282.1-41.1,282.2z"/>
		<g>
			<g id="fill_x5F_bottom_1_">
				<path fill="#C4731A" d="M-80.9,499.2c24.8-0.6,30.4,17.6,27.3,32.1c-1.4,6.8-4.8,12.4-8.8,15.5l-11.4-16.8l-10.8,16.8
					l-11.5-20.6l-8.8,14.7c-3.7-2.7-6.4-7.7-6.4-13.4c0-4.8,1.2-9.2,3.2-12.8C-103.1,505.2-92.9,499.2-80.9,499.2z"/>
				<path fill="#AF8C69" d="M-41.1,499.2v32.6c-4.1,0-8.5-0.2-12.4-0.6c3.1-14.6-2.7-32.6-27.3-32.1c-11.9,0.2-22.1,6.1-27.2,15.2
					l0,0c-18.5-11.9-33.4-28.6-45.1-47.3c-25.9-41.8-36.3-93.7-37.8-126.5c-1.9-45.6,9.7-80.9,39.3-110l0.2-0.2
					c22.9,31,63.8,51.6,110.2,51.8v32.5c0,0-60.6,4.9-71.6-13.5c-14.8-24.5-36.2-31.2-55.8-20.6c-24.6,13.1,1,158.6,19.8,172.1
					c24.6,17.6,38.2-0.7,55.6,18.8C-77.3,489.8-62.1,489.6-41.1,499.2z"/>
				<path fill="#42210B" d="M-115.7,214.5c34.6,10.2,55.6-13.1,59.6-18.2c-1.9,2.9-3.4,6.1-3.5,9.7c-0.2,13.2,13.4,27,18.4,27v49.2
					c-46.5-0.2-87.4-20.9-110.2-51.8c-4-5.5-7.5-11.2-10.1-17.1c-5.9-12.4-9.2-26.1-9.2-40.4c0-9.3,1.4-18.4,4.1-27.2
					c0.6-1.9,1.2-4,1.9-5.8c2.7-6.5,6.6-13.8,7.6-15.8c0,0,0-0.2,0.2-0.2c0.2-0.2,0.2-0.5,0.2-0.5c-6.1-7.5-24.9-10.7-24.9-10.7
					l36.2-4.6l-41.5-18.2c0,0,41.2-4.9,54.7,3.5c8.8,5.6-12.9-29.1-13.4-29.9l61.1,39.4l-0.2,0.5c-9.2-3.5-20-4.8-33.8,1.5
					c-1.9,0.8-4.1,1.9-5.9,2.9C-186.2,141.1-153.2,203.3-115.7,214.5z"/>
				<path fill="#C7B299" d="M-41.1,66.9v117.6c0,0-1,0.6-2.5,1.3c0,0-3.5-63.8-36.5-80.2c-1.5-0.7-3.1-1.4-4.6-2.1l0.2-0.5
					l-61.1-39.4l0,0l54.1,1.5L-41.1,66.9z"/>
				<path fill="#EFDECE" d="M-115.7,214.5c-37.5-11.2-70.6-73.4-8.6-106.3c1.8-1.2,4-1.9,5.9-2.9c13.8-6.4,24.8-5.1,33.8-1.5
					c1.5,0.7,3.2,1.4,4.6,2.1c32.9,16.3,36.5,80.2,36.5,80.2c-3.1,1.5-8.2,4.9-11.7,9.6c0,0-0.2,0.5-0.7,0.8
					C-60.2,201.4-80.9,224.9-115.7,214.5z M-62.1,174.5C-62.1,174.5-62.1,174.2-62.1,174.5c1.7-4.9,2.5-9.9,2.5-15.3
					c0-25.9-20.2-46.8-45.1-46.8s-45.1,20.9-45.1,46.8s20.2,46.8,45.1,46.8C-84.9,206-68.2,192.8-62.1,174.5z"/>
				<path fill="#42210B" d="M-104.7,130.4c-15.2,0-27.5,12.8-27.5,28.6c0,15.8,12.4,28.6,27.5,28.6s27.5-12.8,27.5-28.6
					C-77.2,143.2-89.5,130.4-104.7,130.4z M-149.8,158.9c0-25.9,20.2-46.8,45.1-46.8s45.1,20.9,45.1,46.8c0,5.5-0.8,10.5-2.5,15.3
					c0,0,0,0,0,0.2c-6.1,18.2-22.9,31.5-42.6,31.5C-129.6,206-149.8,184.8-149.8,158.9z"/>
				<path fill="#0F0602" d="M-132.3,158.9c0-15.8,12.4-28.6,27.5-28.6s27.5,12.8,27.5,28.6c0,15.8-12.4,28.6-27.5,28.6
					C-119.8,187.8-132.3,174.8-132.3,158.9z"/>
				<path fill="#42210B" d="M-234.6,379.5c-23.5-97.2,73.2-166.3,73.2-166.3c2.9,6.1,6.4,11.7,10.1,17.1l-0.2,0.2
					c-29.7,29.2-41.4,64.5-39.4,110c1.5,32.8,11.7,84.8,37.8,126.5l-1,0.7l0,0C-155.5,467.9-215.3,458.6-234.6,379.5z"/>
				<path fill="#FBB03B" d="M-41.1,184.6V233c-5.1,0-18.5-13.8-18.4-27c0-3.7,1.5-6.9,3.5-9.7c0.6-0.6,0.7-0.8,0.7-0.8
					c3.5-4.6,8.8-7.8,11.7-9.6C-42,185.1-41.1,184.6-41.1,184.6z"/>
				<path fill="#51260E" d="M-157.5,124.9c0.2-0.2,0.2-0.5,0.3-0.6c-1,1.9-4.9,9.2-7.6,15.8C-162.7,135-160.3,129.9-157.5,124.9z"/>
				<g id="fill_x5F_bottom_2_">
					<path fill="#C4731A" d="M-2.4,499.2c-24.8-0.6-30.4,17.6-27.3,32.1c1.4,6.8,4.8,12.4,8.8,15.5l11.4-16.8l10.8,16.8l11.5-20.6
						l8.8,14.7c3.7-2.7,6.4-7.7,6.4-13.4c0-4.8-1.2-9.2-3.2-12.8C19.7,505.2,9.5,499.2-2.4,499.2z"/>
					<path fill="#AF8C69" d="M-42.2,499.2v32.6c4.1,0,8.5-0.2,12.4-0.6c-3.1-14.6,2.7-32.6,27.3-32.1c11.9,0.2,22.1,6.1,27.2,15.2
						l0,0c18.5-11.9,33.4-28.6,45.1-47.3c25.9-41.8,36.3-93.7,37.8-126.5c1.9-45.6-9.7-80.9-39.3-110l-0.2-0.2
						C45.3,261.2,4.4,281.9-42,282v32.5c0,0,60.6,4.9,71.6-13.5c14.8-24.5,36.2-31.2,55.8-20.6c24.6,13.1-1,158.6-19.8,172.1
						c-24.3,17.6-38.2-0.7-55.6,18.8C-5.9,489.8-21.3,489.6-42.2,499.2z"/>
					<path fill="#42210B" d="M32.3,214.5c-34.6,10.2-55.6-13.1-59.6-18.2c1.9,2.9,3.4,6.1,3.5,9.7c0.2,13.2-13.4,27-18.4,27v49.2
						c46.5-0.2,87.4-20.9,110.2-51.8c4.1-5.5,7.5-11.2,10.2-17.1c5.9-12.4,9.2-26.1,9.2-40.4c0-9.3-1.4-18.4-4.1-27.2
						c-0.6-1.9-1.2-4-1.9-5.8c-2.5-6.5-6.6-13.8-7.6-15.8c0,0,0-0.2-0.2-0.2c-0.2-0.2-0.2-0.5-0.2-0.5c6.1-7.5,24.9-10.7,24.9-10.7
						L61.9,108l41.2-18.2c0,0-41.2-4.9-54.7,3.5c-8.8,5.6,12.9-29.1,13.4-29.9L0.7,102.7l0.2,0.5c9.2-3.5,20-4.8,33.8,1.5
						c1.9,0.8,4.1,1.9,5.9,2.9C102.9,141.1,70,203.3,32.3,214.5z"/>
					<path fill="#C7B299" d="M-45.8,66.9l3.5,117.6c0,0,1,0.6,2.5,1.3c0,0,3.5-63.8,36.5-80.2c1.5-0.7,3.1-1.4,4.6-2.1L1.1,103
						l61.1-39.4l0,0L7.7,65.2L-45.8,66.9z"/>
					<path fill="#EFDECE" d="M32.3,214.5c37.5-11.2,70.6-73.4,8.6-106.3c-1.8-1.2-4-1.9-5.9-2.9c-13.8-6.4-24.8-5.1-33.8-1.5
						c-1.5,0.7-3.2,1.4-4.6,2.1c-32.9,16.3-36.5,80.2-36.5,80.2c3.1,1.5,8.2,4.9,11.7,9.6c0,0,0.2,0.5,0.7,0.8
						C-23.3,201.4-2.2,224.9,32.3,214.5z M-21.2,174.5C-21.3,174.5-21.3,174.2-21.2,174.5c-1.7-4.9-2.5-9.9-2.5-15.3
						c0-25.9,20.2-46.8,45.1-46.8c24.9,0,45.1,20.9,45.1,46.8S46.3,206,21.4,206C1.6,206-15.1,192.8-21.2,174.5z"/>
					<path fill="#42210B" d="M21.3,130.4c15.2,0,27.5,12.8,27.5,28.6c0,15.8-12.4,28.6-27.5,28.6c-15.2,0-27.5-12.8-27.5-28.6
						S6.1,130.4,21.3,130.4z M66.4,158.9c0-25.9-20.2-46.8-45.1-46.8c-24.9,0-45.1,20.9-45.1,46.8c0,5.5,0.8,10.5,2.5,15.3
						c0,0,0,0,0,0.2c6.1,18.2,22.9,31.5,42.6,31.5C46.2,206,66.4,184.8,66.4,158.9z"/>
					<path fill="#0F0602" d="M48.8,158.9c0-15.8-12.4-28.6-27.5-28.6c-15.2,0-27.5,12.8-27.5,28.6c0,15.8,12.4,28.6,27.5,28.6
						C36.5,187.8,48.8,174.8,48.8,158.9z"/>
					<path fill="#42210B" d="M151.2,379.5c23.5-97.2-72.9-166.2-72.9-166.2c-2.9,6.1-6.4,11.7-10.2,17.1l0.2,0.2
						c29.7,29.1,41.5,64.3,39.3,109.8C106,373.2,95.9,425.3,69.7,467l1,0.7l0,0C72.4,467.9,132.2,458.6,151.2,379.5z"/>
					<path fill="#FBB03B" d="M-42.2,184.6V233c5.1,0,18.5-13.8,18.4-27c0-3.7-1.5-6.9-3.5-9.7c-0.6-0.6-0.7-0.8-0.7-0.8
						c-3.5-4.6-8.8-7.8-11.7-9.6C-41.1,185.1-42.2,184.6-42.2,184.6z"/>
					<path fill="#51260E" d="M74.2,124.9c-0.2-0.2-0.2-0.5-0.3-0.6c1,1.9,5.1,9.2,7.6,15.8C79.5,135,76.9,129.9,74.2,124.9z"/>
				</g>
				<path fill="#C7B299" d="M62.2,387.1c-4.9,55.8-47.5,101.3-106,101.3s-103.5-45.5-106-101.3c-4.3-96.9,47.5-90,106-90
					S70.6,292.2,62.2,387.1z"/>
			</g>
			<g id="fill_x5F_top_1_">
				<path display="none" fill="#AF8C69" d="M-41.1,499.2v32.6c-4.1,0-8.5-0.2-12.4-0.6c0.8-4.1,1-8.3,0.3-12.4l0,0
					c-1.8-10.7-9.7-20.2-27.6-19.7c-11.9,0.2-22.2,6.1-27.2,15.2l0,0c-18.5-11.9-33.4-28.6-45.1-47.3
					c-25.9-41.8-36.3-93.7-37.8-126.5c-1.9-45.6,9.7-80.9,39.3-110l0.2-0.2c22.9,31,63.6,51.6,110.2,51.8v216.9L-41.1,499.2
					L-41.1,499.2z"/>
				<path fill="#C4731A" d="M-41.1,185.1v48.2c-5.1,0-18.5-13.8-18.4-27c0-3.7,1.5-6.9,3.5-9.7c0.6-0.6,0.7-0.8,0.7-0.8
					c3.5-4.6,8.8-7.8,11.7-9.6C-42.2,185.1-41.1,185.1-41.1,185.1z"/>
				<path fill="#AF8C69" d="M-41.1,116.1l2.2,1.4l-1.9,66.7c0,0-1.5,0.8-3.1,1.7c0,0-3.5-61.1-36.5-77.5c-1.5-0.7-3.1-1.4-4.6-2.1
					l0.2-0.5l-4-2.5"/>
				<path fill="#EFDECE" d="M-62.2,174.5C-62.2,174.5-62.1,174.2-62.2,174.5c1.7-4.9,2.5-9.9,2.5-15.3c0-25.9-20.2-46.8-45.1-46.8
					s-45.1,20.9-45.1,46.8c0,1.5,0,2.9,0.2,4.3c2.2,23.8,21.5,42.6,44.9,42.6C-85.1,206-68.3,192.8-62.2,174.5z M-158.5,150
					c2.4-15.2,12.4-30.2,34.1-41.8c1.8-1.2,4-1.9,5.9-2.9c13.8-6.4,24.8-5.1,33.8-1.5c1.5,0.7,3.1,1.4,4.6,2.1
					c32.9,16.3,36.5,80.2,36.5,80.2c-3.1,1.5-8.2,4.9-11.7,9.6c0,0-0.2,0.5-0.7,0.8c-4.1,4.9-24.9,28.5-59.6,18.2
					C-140.2,207.2-162.7,178.3-158.5,150z"/>
				<path fill="#C4731A" d="M-53.9,531.2c-1.4,6.8-4.8,12.4-8.8,15.5L-74.1,530l-10.8,16.8l-11.7-20.6l-8.8,14.7
					c-3.7-2.7-6.4-7.7-6.4-13.4c0-3.5,0.7-6.9,1.8-9.8c0,0,10.2-7.5,17.5-7.5c16.5,0,21.5,10.2,29.9,10.2c5.1,0,8-1.3,8-1.3l0.7-0.2
					l0,0C-52.7,522.9-52.9,527.2-53.9,531.2z"/>
				<path fill="#51260E" d="M-70.9,162c3.5,0.8,9,9.8,8.6,12.4c0,0,0,0,0,0.2c-6.1,18.2-22.9,31.5-42.6,31.5
					c-23.4,0-42.7-18.7-44.9-42.6h0.7c0,0,8.8-14.7,10.8-14.2c1.9,0.5,5.8,10.7,5.8,10.7l0,0c0.6,15.3,12.6,27.7,27.5,27.7
					c11.4,0,20.9-7.1,25.2-17.3l0,0C-79.2,169.7-74.3,160.9-70.9,162z"/>
				<path fill="#230F07" d="M-77.3,161.4c-0.2,3.2-1,6.2-1.9,9l0,0c-4.1,10.2-13.9,17.3-25.2,17.3c-14.9,0-26.8-12.4-27.5-27.7
					c0-0.5,0-0.7,0-1.2c0,0,8.6-1.4,13.1,11.2c4.6,12.6,24.6,9.9,28.8,4C-85.8,167.8-81.2,161.4-77.3,161.4z"/>
				<path fill="#51260E" d="M-157.2,124.3c0.2-0.2,0.2-0.5,0.2-0.5c-6.1-7.5-24.9-10.7-24.9-10.7l36.2-4.6c0,0,3.7,2.5,5.8-2.1
					c4.1-8.5-47.2-16.3-47.2-16.3s41.2-4.9,54.7,3.5c8.8,5.6-12.9-29.1-13.4-29.9l24.5,15.5l0,0c0.6,0.7,10.8,15.2,4.1,21.1
					c-4.1,4-7.5,7.5-7.5,7.5c-21.7,11.4-31.7,26.5-34.1,41.8c-0.8-0.2-1.5-0.5-2.2-0.7c-3.5-1.9-5.9-3.2-6.1-3.4
					c0.6-1.9,1.2-4,1.9-5.8C-162.2,133.5-158.4,126.4-157.2,124.3C-157.2,124.4-157.2,124.3-157.2,124.3z"/>
				<path fill="#51260E" d="M-157.5,124.9c0.2-0.2,0.2-0.5,0.3-0.6c-1,1.9-4.9,9.2-7.6,15.8C-162.9,135-160.3,129.9-157.5,124.9z"/>
				<path fill="#51260E" d="M-170.9,220.8c0,0,4.8,11.7,0,20.8c-4.8,9.2-34.1,55.2-32.3,84.2c1.7,29.1-34.6,34.8-34.6,34.8
					C-244.2,291.4-192.5,239.2-170.9,220.8z"/>
				<g id="fill_x5F_top_2_">
					<path display="none" fill="#AF8C69" d="M-42.2,499.2v32.6c4.1,0,8.5-0.2,12.4-0.6c-0.8-4.1-1-8.3-0.3-12.4l0,0
						c1.8-10.7,9.7-20.2,27.6-19.7c11.9,0.2,22.2,6.1,27.2,15.2l0,0c18.5-11.9,33.4-28.6,45.1-47.3c25.9-41.8,36.3-93.7,37.5-126.5
						c1.9-45.6-9.7-80.9-39.3-110l-0.2-0.2c-22.9,31-63.6,51.6-110.2,51.8L-42.2,499.2L-42.2,499.2z"/>
					<path fill="#C4731A" d="M-42.2,185.1v48.2c5.1,0,18.5-13.8,18.4-27c0-3.7-1.5-6.9-3.5-9.7c-0.6-0.6-0.7-0.8-0.7-0.8
						c-3.5-4.6-8.8-7.8-11.7-9.6C-41.1,185.1-42.2,185.1-42.2,185.1z"/>
					<path fill="#AF8C69" d="M-42.5,116l0.3,68.7c0,0,1,0.5,2.5,1.3c0,0,3.5-61.1,36.5-77.5c1.5-0.7,3.1-1.4,4.6-2.1l-0.2-0.5l4-2.5
						C3.8,103.9-40,118.1-42.5,116z"/>
					<path fill="#EFDECE" d="M-21.2,174.5C-21.2,174.5-21.2,174.2-21.2,174.5c-1.7-4.9-2.5-9.9-2.5-15.3c0-25.9,20.2-46.8,45.1-46.8
						c24.9,0,45.1,20.9,45.1,46.8c0,1.5,0,2.9-0.2,4.3c-2.2,23.8-21.4,42.6-44.9,42.6C1.6,206-15.1,192.8-21.2,174.5z M75.1,150
						c-2.4-15.2-12.4-30.2-33.9-41.8c-1.8-1.2-4-1.9-5.9-2.9c-13.8-6.4-24.8-5.1-33.8-1.5c-1.5,0.7-3.1,1.4-4.6,2.1
						c-33,16.3-36.5,80.2-36.5,80.2c3.1,1.5,8.2,4.9,11.7,9.6c0,0,0.2,0.5,0.7,0.8c4.1,4.9,24.9,28.5,59.6,18.2
						C56.9,207.2,79.5,178.3,75.1,150z"/>
					<path fill="#C4731A" d="M-29.8,531.2c1.4,6.8,4.8,12.4,8.8,15.5L-9.6,530l10.8,16.8l11.7-20.6l8.8,14.7
						c3.7-2.7,6.4-7.7,6.4-13.4c0-3.5-0.7-6.9-1.8-9.8c0,0-10.2-7.5-17.5-7.5c-16.5,0-21.5,10.2-29.9,10.2c-5.1,0-8-1.3-8-1.3
						l-0.7-0.2l0,0C-30.7,522.9-30.5,527.2-29.8,531.2z"/>
					<path fill="#51260E" d="M-12.6,162c-3.5,0.8-9,9.8-8.6,12.4c0,0,0,0,0,0.2c6.1,18.2,22.9,31.5,42.6,31.5
						c23.5,0,42.7-18.7,44.9-42.6h-0.7c0,0-8.8-14.7-10.8-14.2c-1.9,0.5-5.8,10.7-5.8,10.7l0,0c-0.6,15.3-12.6,27.7-27.5,27.7
						c-11.4,0-20.9-7.1-25.2-17.3l0,0C-4.3,169.7-9.1,160.9-12.6,162z"/>
					<path fill="#230F07" d="M-5.9,161.4c0.2,3.2,1,6.2,1.9,9l0,0c4.1,10.2,13.9,17.3,25.2,17.3c14.9,0,26.8-12.4,27.5-27.7
						c0-0.5,0-0.7,0-1.2c0,0-8.6-1.4-13.1,11.2c-4.6,12.6-24.6,9.9-28.8,4C2.8,167.8-2.1,161.4-5.9,161.4z"/>
					<path fill="#51260E" d="M73.7,124.3c-0.2-0.2-0.2-0.5-0.2-0.5c6.1-7.5,24.9-10.7,24.9-10.7l-36.2-4.6c0,0-3.7,2.5-5.8-2.1
						C52.3,97.8,103.6,90,103.6,90s-41.2-4.9-54.7,3.5c-8.8,5.6,12.9-29.1,13.4-29.9L37.8,79.1l0,0c-0.6,0.7-10.8,15.2-4.1,21.1
						c4.1,4,7.5,7.5,7.5,7.5c21.7,11.4,31.7,26.5,33.9,41.8c0.8-0.2,1.5-0.5,2.2-0.7c3.5-1.9,5.9-3.2,6.1-3.4
						c-0.6-1.9-1.2-4-1.9-5.8C78.8,133.5,74.9,126.4,73.7,124.3C73.9,124.4,73.7,124.3,73.7,124.3z"/>
					<path fill="#51260E" d="M74.2,124.9c-0.2-0.2-0.2-0.5-0.3-0.6c1,1.9,4.9,9.2,7.6,15.8C79.5,135,77.1,129.9,74.2,124.9z"/>
					<path fill="#51260E" d="M87.5,220.8c0,0-4.8,11.7,0,20.8c4.8,9.2,34.1,55.2,32.3,84.2c-1.7,29.1,34.6,35,34.6,35
						C160.8,291.4,109.2,239.2,87.5,220.8z"/>
				</g>
			</g>
			<g id="outlines_1_">
				<path fill="none" stroke="#000000" stroke-width="3" stroke-miterlimit="10" d="M-157.2,124.3c0.8-1.3,1.8-2.5,3.1-3.5"/>
				<path fill="none" stroke="#000000" stroke-width="3" stroke-miterlimit="10" d="M-166.8,145.9c0.6-1.9,1.2-4,1.9-5.8"/>
				<ellipse fill="none" stroke="#000000" stroke-width="3" stroke-miterlimit="10" cx="-104.7" cy="158.9" rx="27.5" ry="28.6"/>
				<path fill="none" stroke="#000000" stroke-width="3" stroke-miterlimit="10" d="M-41.1,282.2c-46.5-0.2-87.4-20.9-110.2-51.8
					c-4-5.5-7.5-11.2-10.1-17.1c-5.9-12.4-9.2-26.1-9.2-40.4c0-9.3,1.4-18.4,4.1-27.2"/>
				<path fill="none" stroke="#0A0000" stroke-width="3" stroke-miterlimit="10" d="M-55.8,195.9c3.5-4.6,9.2-8.5,12.2-9.9
					c1.5-0.8,4.8-0.5,4.8-0.5"/>
				<path fill="none" stroke="#0A0000" stroke-width="3" stroke-miterlimit="10" d="M-41.1,232.8c-5.1,0-18.5-13.8-18.4-27
					c0-3.7,1.5-6.9,3.5-9.7"/>
				<path fill="none" stroke="#000000" stroke-width="3" stroke-miterlimit="10" d="M-62.2,174.5c-6.1,18.2-22.9,31.5-42.6,31.5
					c-23.4,0-42.7-18.7-44.9-42.6c-0.2-1.4-0.2-2.9-0.2-4.3c0-25.9,20.2-46.8,45.1-46.8s45.1,20.9,45.1,46.8
					C-59.8,164.3-60.5,169.5-62.2,174.5"/>
				<path fill="none" stroke="#000000" stroke-width="3" stroke-miterlimit="10" d="M-132.3,160c0-0.5,0-0.7,0-1.2
					c0-15.8,12.4-28.6,27.5-28.6s27.5,12.8,27.5,28.6c0,0.8,0,1.5-0.2,2.2c-0.2,3.2-1,6.2-1.9,9"/>
				<path fill="none" stroke="#000000" stroke-width="3" stroke-miterlimit="10" d="M-55.5,195.5c0,0-0.2,0.5-0.7,0.8
					c-4.1,4.9-24.9,28.5-59.6,18.2c-24.3-7.3-46.8-36.2-42.7-64.5c2.4-15.2,12.4-30.2,34.1-41.8c1.8-1.2,4-1.9,5.9-2.9
					c13.8-6.4,24.8-5.1,33.8-1.5c1.5,0.7,3.1,1.4,4.6,2.1c32.9,16.3,36.5,80.2,36.5,80.2"/>
				<polyline fill="none" stroke="#000000" stroke-width="3" stroke-miterlimit="10" points="-145.7,63.7 -91.4,65.5 -41.1,66.9 
									"/>
				<line fill="none" stroke="#000000" stroke-width="3" stroke-miterlimit="10" x1="-121.3" y1="79.7" x2="-145.7" y2="63.7"/>
				<line fill="none" stroke="#000000" stroke-width="3" stroke-miterlimit="10" x1="-88.4" y1="100.8" x2="-121.3" y2="79.7"/>
				<line fill="none" stroke="#000000" stroke-width="3" stroke-miterlimit="10" x1="-84.6" y1="103.2" x2="-88.4" y2="100.8"/>
				<path fill="none" stroke="#000000" stroke-width="3" stroke-miterlimit="10" d="M-145.2,63.7c0,0,0,0-0.6,0
					c0.6,0.8,22.2,35.6,13.4,29.9c-13.4-8.5-54.7-3.5-54.7-3.5l41.2,18.2l-36.2,4.6c0,0,18.8,3.4,24.9,10.7c0,0,0,0.2-0.2,0.5
					c0,0,0,0.2-0.2,0.2c-1,1.9-4.9,9.2-7.6,15.8c-0.8,2.1-1.5,4.1-1.9,5.8"/>
				<path fill="none" stroke="#000000" stroke-width="3" stroke-miterlimit="10" d="M-108.1,514.3c-18.5-11.9-33.4-28.6-45.1-47.3
					c-25.9-41.8-36.3-93.7-37.8-126.5c-1.9-45.6,9.7-80.9,39.3-110"/>
				<path fill="none" stroke="#000000" stroke-width="3" stroke-miterlimit="10" d="M-41.1,531.5c-4.1,0-8.5-0.2-12.4-0.6
					c-0.2,0-0.3,0-0.3,0"/>
				<path fill="none" stroke="#000000" stroke-width="3" stroke-miterlimit="10" d="M-154.3,467.9h-0.2"/>
				<path fill="none" stroke="#000000" stroke-width="3" stroke-miterlimit="10" d="M-161.8,213.3c0,0-3.5,2.5-9.2,7.5
					c-21.5,18.4-73.3,70.6-67,139.8c0.6,6.2,1.5,12.4,3.2,18.8c19.2,79.1,78.9,88.2,80.4,88.2l0,0"/>
				<path fill="none" stroke="#000000" stroke-width="3" stroke-miterlimit="10" d="M-53.9,531.2c-1.4,6.8-4.8,12.4-8.8,15.5
					L-74.1,530l-10.8,16.8l-11.7-20.6l-8.8,14.7c-3.7-2.7-6.4-7.7-6.4-13.4c0-3.5,0.7-6.9,1.8-9.8c0.3-1.2,0.8-1.9,1.4-2.9
					c4.9-9.2,15.2-14.9,27.2-15.2c18-0.5,25.8,9,27.6,19.7l0,0C-52.7,522.9-52.9,527.2-53.9,531.2z"/>
				<polyline fill="none" stroke="#000000" stroke-width="3" stroke-miterlimit="10" points="-161.5,301.4 -148.4,321.4 -135,301.4 
									"/>
				<polyline fill="none" stroke="#000000" stroke-width="3" stroke-miterlimit="10" points="-134.5,350.9 -122.8,370.6 
					-111.4,352.5 				"/>
				<polyline fill="none" stroke="#000000" stroke-width="3" stroke-miterlimit="10" points="-88.7,324.3 -77.1,344.3 -62.1,324.3 
									"/>
				<polyline fill="none" stroke="#000000" stroke-width="3" stroke-miterlimit="10" points="-78.5,400.1 -65.2,422.9 -51.9,400.1 
									"/>
				<polyline fill="none" stroke="#000000" stroke-width="3" stroke-miterlimit="10" points="-148.4,426.5 -136.2,446.5 
					-121.3,426.5 				"/>
				<polyline fill="none" stroke="#000000" stroke-width="3" stroke-miterlimit="10" points="-88.7,461.8 -77.1,481.6 -62.1,461.8 
									"/>
				<path fill="none" stroke="#000000" stroke-width="3" stroke-miterlimit="10" d="M-121.3,79.7L-121.3,79.7"/>
				<g id="outlines_2_">
					<path fill="none" stroke="#000000" stroke-width="3" stroke-miterlimit="10" d="M73.7,124.3c-0.8-1.3-1.8-2.5-3.1-3.5"/>
					<path fill="none" stroke="#000000" stroke-width="3" stroke-miterlimit="10" d="M83.4,145.9c-0.6-1.9-1.2-4-1.9-5.8"/>
					<ellipse fill="none" stroke="#000000" stroke-width="3" stroke-miterlimit="10" cx="21.3" cy="158.9" rx="27.5" ry="28.6"/>
					<path fill="none" stroke="#000000" stroke-width="3" stroke-miterlimit="10" d="M-42.2,282.2C4.3,282,45.2,261.3,68,230.4
						c4.1-5.5,7.5-11.2,10.2-17.1c5.9-12.4,9.2-26.1,9.2-40.4c0-9.3-1.4-18.4-4.1-27.2"/>
					<path fill="none" stroke="#0A0000" stroke-width="3" stroke-miterlimit="10" d="M-27.3,196.3c-3.5-4.6-9.5-8.8-12.4-10.4
						c-1.5-0.8-2.5-1.3-2.5-1.3"/>
					<path fill="none" stroke="#0A0000" stroke-width="3" stroke-miterlimit="10" d="M-42.2,232.8c5.1,0,18.5-13.8,18.4-27
						c0-3.7-1.5-6.9-3.5-9.7"/>
					<path fill="none" stroke="#000000" stroke-width="3" stroke-miterlimit="10" d="M-21.2,174.5c6.1,18.2,22.9,31.5,42.6,31.5
						c23.5,0,42.7-18.7,44.9-42.6c0.2-1.4,0.2-2.9,0.2-4.3c0-25.9-20.2-46.8-45.1-46.8c-24.9,0-45.1,20.9-45.1,46.8
						C-23.7,164.3-22.9,169.5-21.2,174.5"/>
					<path fill="none" stroke="#000000" stroke-width="3" stroke-miterlimit="10" d="M48.9,160c0-0.5,0-0.7,0-1.2
						c0-15.8-12.4-28.6-27.5-28.6c-15.2,0-27.5,12.8-27.5,28.6c0,0.8,0,1.5,0.2,2.2c0.2,3.2,1,6.2,1.9,9"/>
					<path fill="none" stroke="#000000" stroke-width="3" stroke-miterlimit="10" d="M-27.9,195.5c0,0,0.2,0.5,0.7,0.8
						c4.1,4.9,24.9,28.5,59.6,18.2c24.3-7.3,46.8-36.2,42.7-64.5c-2.4-15.2-12.4-30.2-33.9-41.8c-1.8-1.2-4-1.9-5.9-2.9
						c-13.8-6.4-24.8-5.1-33.8-1.5c-1.5,0.7-3.1,1.4-4.6,2.1c-33,16.3-36.5,80.2-36.5,80.2"/>
					<polyline fill="none" stroke="#000000" stroke-width="3" stroke-miterlimit="10" points="62.3,63.7 8.2,65.5 -42.2,66.9 					
						"/>
					<line fill="none" stroke="#000000" stroke-width="3" stroke-miterlimit="10" x1="37.9" y1="79.7" x2="62.3" y2="63.7"/>
					<line fill="none" stroke="#000000" stroke-width="3" stroke-miterlimit="10" x1="5.3" y1="100.8" x2="37.9" y2="79.7"/>
					<line fill="none" stroke="#000000" stroke-width="3" stroke-miterlimit="10" x1="1.3" y1="103.2" x2="5.3" y2="100.8"/>
					<path fill="none" stroke="#000000" stroke-width="3" stroke-miterlimit="10" d="M61.8,63.7c0,0,0,0,0.6,0
						C61.8,64.5,40.2,99.4,49,93.7c13.4-8.5,54.7-3.5,54.7-3.5l-41.2,18.2l36.2,4.6c0,0-18.8,3.4-24.9,10.7c0,0,0,0.2,0.2,0.5
						c0,0,0,0.2,0.2,0.2c1,1.9,4.9,9.2,7.6,15.8c0.8,2.1,1.5,4.1,1.9,5.8"/>
					<path fill="none" stroke="#000000" stroke-width="3" stroke-miterlimit="10" d="M24.8,514.3c18.5-11.9,33.4-28.6,45.1-47.3
						c25.9-41.8,36.3-93.7,37.5-126.5c1.9-45.6-9.7-80.9-39.3-110"/>
					<path fill="none" stroke="#000000" stroke-width="3" stroke-miterlimit="10" d="M-42.2,531.5c4.1,0,8.5-0.2,12.4-0.6
						c0.2,0,0.3,0,0.3,0"/>
					<path fill="none" stroke="#000000" stroke-width="3" stroke-miterlimit="10" d="M70.8,467.9H71"/>
					<path fill="none" stroke="#000000" stroke-width="3" stroke-miterlimit="10" d="M78.3,213.3c0,0,3.5,2.5,9.2,7.5
						c21.5,18.4,73.3,70.8,67,139.8c-0.6,6.2-1.5,12.4-3.1,18.8c-19.2,79.1-78.9,88.2-80.4,88.2l0,0"/>
					<path fill="none" stroke="#000000" stroke-width="3" stroke-miterlimit="10" d="M-29.8,531.2c1.4,6.8,4.8,12.4,8.8,15.5
						L-9.6,530l10.8,16.8l11.7-20.6l8.8,14.7c3.7-2.7,6.4-7.7,6.4-13.4c0-3.5-0.7-6.9-1.8-9.8c-0.3-1.2-0.8-1.9-1.4-2.9
						c-4.9-9.2-15.2-14.9-27.2-15.2c-18-0.5-25.8,9-27.6,19.7l0,0C-30.7,522.9-30.5,527.2-29.8,531.2z"/>
					<polyline fill="none" stroke="#000000" stroke-width="3" stroke-miterlimit="10" points="78,301.4 64.9,321.4 51.8,301.4 					
						"/>
					<polyline fill="none" stroke="#000000" stroke-width="3" stroke-miterlimit="10" points="51,350.9 39.5,370.6 28,352.5 					
						"/>
					<polyline fill="none" stroke="#000000" stroke-width="3" stroke-miterlimit="10" points="5.3,324.3 -6.2,344.3 -21.2,324.3 
											"/>
					<polyline fill="none" stroke="#000000" stroke-width="3" stroke-miterlimit="10" points="-5,400.1 -18.2,422.9 -31.5,400.1 
											"/>
					<polyline fill="none" stroke="#000000" stroke-width="3" stroke-miterlimit="10" points="64.9,426.5 53,446.5 38.1,426.5 					
						"/>
					<polyline fill="none" stroke="#000000" stroke-width="3" stroke-miterlimit="10" points="5.3,461.8 -6.2,481.6 -21.2,461.8 
											"/>
					<path fill="none" stroke="#000000" stroke-width="3" stroke-miterlimit="10" d="M37.9,79.7L37.9,79.7"/>
				</g>
			</g>
		</g>
	</g>
	<g id="lens_1_">
		<g id="eye_lens_3_">
			<path id="eye_lens_2_3_" fill="#FFFFFF" d="M-110,127.2c3.1,3.7,0.6,13.8-5.9,18.2c-6.6,4.3-12.3,5.1-15.5,1.5
				c-3.1-3.7-2.9-9.7,5.1-16.3C-120.2,125.2-113,123.5-110,127.2z"/>
			<path id="eye_lens_1_3_" fill="#FFFFFF" d="M-119.4,153.9c1.4,1.5,0.2,5.5-1.5,7c-1.7,1.5-4.1,1.5-5.6,0c-1.4-1.5-1-4.1,0.7-5.8
				C-124,153.7-120.7,152.4-119.4,153.9z"/>
		</g>
		<g id="eye_lens_2_">
			<path id="eye_lens_2_2_" fill="#FFFFFF" d="M17.1,127.2c3.1,3.7,0.6,13.8-5.9,18.2c-6.6,4.3-12.3,5.1-15.5,1.5
				c-3.2-3.5-2.9-9.7,5.1-16.3C7,125.2,14.1,123.5,17.1,127.2z"/>
			<path id="eye_lens_1_2_" fill="#FFFFFF" d="M6.1,153.9c1.4,1.5,0.2,5.5-1.5,7c-1.7,1.5-4.1,1.5-5.6,0c-1.4-1.5-1-4.1,0.7-5.8
				C1.3,153.7,4.8,152.4,6.1,153.9z"/>
		</g>
	</g>
</g>
<g id="owl-top_1_">
	<g id="Vrstva_2_1_">
		<g>
			<path id="path1342_1_" fill="#FFFF00" stroke="#000000" stroke-width="2.5" d="M21.8,111c0,0,4.5,17.6,1.2,34.4
				C60.8,55.7-11,12.6-65.7,23.8c-47.3-0.4-104.4,83.8-42.8,153.1c-6.8-9.9-22.7-66.2-16.7-78.1c-5.1,12.3,4.1,40.9,4.1,40.9
				c4.4,16.8,13.8,28.2,23.3,36.4c-20.7-29.4-21.9-71.6-16.1-83.6c-5.6,12.2-1.1,50.5,2.7,54.8c9.8,17.9,31.8,36.1,37,37
				c-20.6-17.9-40.1-81.5-34.4-96.3c-4.1,13.7,9.6,41.2,13.2,45.3c-2.2-6.3-3.9-45.4-0.7-53.4c-0.9,9.2,13.4,43.3,20.6,48.2
				c-4.9-6.9-6.4-50.8,0-57.5c-7.6,16.7,7.1,55.8,13.8,55.8c-9.7-19-3.1-52.6,4.4-60.2c-5.3,6.7-6.7,15.2-6.7,15.2
				c0,9.8,13.8,40.1,23.6,44.6c-8-12.1-7.6-51.7-1.7-62c-2.3,4-2.9,11.2-2.9,11.2c7.6,4.1,11.4,40.1,11,49c9.7-13.9,3.6-58.7,3.6-62
				c10,9.7,11.7,40.2,13.8,48.6c4.5-8.5,7-46.2,3.1-50.9c4.2,0.5,16.3,42.4,15.2,52.6C8.2,107.8-1,63.8-1,63.8
				c14.7,15.6,6.5,96.6,6.3,103.9c7.3-10,15-83.2,11.2-86.5c3.6,2.8-2.2,43.7-2.2,43.7c1.7,0.9,0,29.4,0,29.4
				c6.7-12.7,10.5-73.8,10.2-77.6C24.3,81.3,21.8,111,21.8,111L21.8,111z"/>
			<path id="path11907_1_" fill="#FFFF00" stroke="#000000" stroke-width="2.5" d="M-115.7,66.6c-62.1-44.2-111.9,91.4-106.2,139.2
				c1.9-20.7,24.8-78.5,36.7-95.5c-0.2,0.4,5.5-13.1,11.5-17.8c-19,17.1-39.6,102.1-23.6,130.2c-4.9-23.6,17.9-96.3,23.6-101.2
				c-13.2,9.9-19.2,104.8-10.7,112.8c0.1-20.1,19.2-96.8,28.6-116.9c-8.4,19-9.3,26.9-9.4,26.9c-6.5,25,8.5,86.6,12.9,93.4
				c-0.7-30.3,4.9-105.2,8.9-115c4.9-8.6,12.9-8.5,14.3-15.2C-120.9,100.7-111.7,71.1-115.7,66.6L-115.7,66.6z"/>
			<path id="path11909_1_" fill="#FFFF00" stroke="#000000" stroke-width="2.5" d="M22.1,67C28.5,40.8,50.1,40.3,60,46.1
				c57.3,30.1,68.5,128.1,66.9,138.2c-6.3-15.2-30.3-80.7-36.6-84.7c5.8,7.6,21.8,86.1,24.1,99c-20.6-9.4-33.5-72.7-39.3-81.2
				c10.2,17,15.2,71.3,10.7,88.3c-3.6-19.2-9.8-51.2-15.6-58c-1.5-4.4-3.1-29-8.5-40.1c4.3,12.1,16,89.2,14.3,106.2
				c-15.9-12.2-33.5-73.2-33.9-85.6C42,119.1,19.4,81.8,22.1,67z"/>
			
				<linearGradient id="path5900_2_" gradientUnits="userSpaceOnUse" x1="-2010.8783" y1="-154.6832" x2="-2010.9506" y2="-154.6832" gradientTransform="matrix(39.1007 0 0 170.4216 77237.3125 26512.9648)">
				<stop  offset="0" style="stop-color:#8A8A8A"/>
				<stop  offset="0.2969" style="stop-color:#9F9F9F"/>
				<stop  offset="1" style="stop-color:#6E6E6E"/>
			</linearGradient>
			<path id="path5900_1_" fill="url(#path5900_2_)" d="M-123.5,69.7c-30.4,46.4-38.2,106.1-30.4,163.8
				C-172.5,175.4-152.3,87-123.5,69.7z"/>
			
				<linearGradient id="path5904_2_" gradientUnits="userSpaceOnUse" x1="-2022.463" y1="-155.9521" x2="-2022.5098" y2="-155.9521" gradientTransform="matrix(60.5353 0 0 167.1728 118347.5703 26225.1309)">
				<stop  offset="0" style="stop-color:#8A8A8A"/>
				<stop  offset="0.2969" style="stop-color:#9F9F9F"/>
				<stop  offset="1" style="stop-color:#6E6E6E"/>
			</linearGradient>
			<path id="path5904_1_" fill="url(#path5904_2_)" d="M-129.6,73.9c-33.5,30.9-57.8,98.1-54.9,160.6
				C-197.7,170.7-168.5,93.1-129.6,73.9z"/>
			
				<linearGradient id="path5908_2_" gradientUnits="userSpaceOnUse" x1="-2059.8115" y1="-132.0345" x2="-2059.8813" y2="-132.0345" gradientTransform="matrix(-40.4483 0 0 123.0816 -54365.7539 16403.4961)">
				<stop  offset="0" style="stop-color:#8A8A8A"/>
				<stop  offset="0.2969" style="stop-color:#9F9F9F"/>
				<stop  offset="1" style="stop-color:#6E6E6E"/>
			</linearGradient>
			<path id="path5908_1_" fill="url(#path5908_2_)" d="M35.8,93.4c10.2,45.1,15.8,83.8,38.8,118.2C52.2,142,56.5,127.6,35.8,93.4z"
				/>
			
				<linearGradient id="path5912_2_" gradientUnits="userSpaceOnUse" x1="-2105.2556" y1="-178.4431" x2="-2105.4036" y2="-178.4431" gradientTransform="matrix(-19.0989 0 0 81.1949 -26597.9746 14653.0244)">
				<stop  offset="0" style="stop-color:#8A8A8A"/>
				<stop  offset="0.2969" style="stop-color:#9F9F9F"/>
				<stop  offset="1" style="stop-color:#6E6E6E"/>
			</linearGradient>
			<path id="path5912_1_" fill="url(#path5912_2_)" d="M67,125.3c3.7,23.7,13.2,39.1,18.3,78.1C81.7,161.3,80.2,143.7,67,125.3z"/>
			<path id="path9328_1_" fill="#FF007F" stroke="#000000" stroke-width="2.5" d="M-134.2,63.3c-4.6-5.4-10.5-22.4-12.7-30.8
				c-2-6.8,3-9.9,5.1-9.2c3.8,0,6.6,0.6,9.2,1.6c4,1.1,3.5,3.3,6.6,2.7c3.1-0.6,1.8-2.9,6-5.1c4.1-2.1,7.6-4,10.5-3.7
				c1.7,0.7,3.6,2.4,2.9,5.3c0.2,3.5-4.1,12.4-7.1,19.3c-1.4,3.9-6.1,15.4-7.7,21.4C-124.3,66.3-131.2,63.7-134.2,63.3L-134.2,63.3z
				"/>
			<path id="path9330_1_" fill="#FF007F" stroke="#000000" stroke-width="2.5" d="M-134,71.5c-5.4,4.7-9,13.5-10.2,17.7
				c-2.8,3.5-4.1,18.1-3.5,20.2c2.4-1.8,4.3-3.6,5.5-3c2.1,1.2,2.8,4.2,4.9,6.5c2.9,1.1,4.8,0.8,5.5-0.8c0.7-4.2,5.3-32.9,6-38.4
				C-129.1,72.1-131.5,71.8-134,71.5z"/>
			<path id="path9334_1_" fill="#FF007F" stroke="#000000" stroke-width="2.5" d="M28.8,53.2c3.9-5.6,6.9-34.6,7.2-37.3
				c-2,1.7-0.9,0-1.7-0.6c-0.9-0.5-0.5-0.4-1.7-1.8c-4.4-2.4-13.8,1.4-18,3.4c-3.3,2.8-11.2,4.4-12.7,4.3c-3.2,2.3-0.6,6.5,0.5,9.3
				c1.5,4,4.5,7.8,5.7,9.7c4.2,6.8,9,13.5,11.3,16.4C21.7,56.2,25.9,54.8,28.8,53.2z"/>
			<path id="path9336_1_" fill="#FF007F" stroke="#000000" stroke-width="2.5" d="M29.3,60.9c11.5,7.6,22.4,28.3,24,35.3
				c1.3,3,0.4,7.4-0.2,7.8c-1.9,0.8-6.3,1.2-8.4-0.2c-2-1.6-7.7-0.8-9.5,1.8c-4.1,3-4.7,5.4-4.9,5.2c-3.4-4.8-7.9-41.7-7.6-47.2
				C24.1,63,28.6,61.2,29.3,60.9z"/>
			<path id="path9332_1_" fill="#FF007F" stroke="#000000" stroke-width="2.5" d="M29.3,49.8c-2.6-1.4-10.6,1.7-11.5,5.1
				c-0.3,2.3,4.8,9.1,6.6,10.5c1.4,0.9,3.2,0,6.8-2.7C31.9,59.3,31,51.9,29.3,49.8z"/>
			<path id="path9326_1_" fill="#FF007F" stroke="#000000" stroke-width="2.5" d="M-138.3,62.2c-0.6,2.2-1.7,6.5-0.8,9.8
				c3.4,3,6.9,3.8,11.7,4.3c2.1-2.9,2.9-5.4,3.8-9.5s0.4-2.4-0.4-6.5C-126.6,59.3-134.7,59-138.3,62.2L-138.3,62.2z"/>
			
				<linearGradient id="path4114_2_" gradientUnits="userSpaceOnUse" x1="-2085.9221" y1="-87.1111" x2="-2086.0369" y2="-87.1111" gradientTransform="matrix(-24.6262 0 0 75.3195 -36075.0938 6644.9365)">
				<stop  offset="0" style="stop-color:#8A8A8A"/>
				<stop  offset="0.2969" style="stop-color:#9F9F9F"/>
				<stop  offset="1" style="stop-color:#6E6E6E"/>
			</linearGradient>
			<path id="path4114_1_" fill="url(#path4114_2_)" d="M-24.5,39C-7.9,54.6-4.6,97-31,128.5C5.9,85.6-7.2,55.6-24.5,39z"/>
			
				<linearGradient id="path4122_2_" gradientUnits="userSpaceOnUse" x1="-2085.8716" y1="-77.832" x2="-2085.9863" y2="-77.832" gradientTransform="matrix(-24.6262 0 0 75.3195 -35787.6055 5939.3818)">
				<stop  offset="0" style="stop-color:#8A8A8A"/>
				<stop  offset="0.2969" style="stop-color:#9F9F9F"/>
				<stop  offset="1" style="stop-color:#6E6E6E"/>
			</linearGradient>
			<path id="path4122_1_" fill="url(#path4122_2_)" d="M-14.4,32.4c16.6,15.5,19.9,58-6.6,89.5C15.9,78.9,2.8,49-14.4,32.4z"/>
			
				<linearGradient id="path4126_2_" gradientUnits="userSpaceOnUse" x1="-1994.1388" y1="-102.8859" x2="-1994.2534" y2="-102.8859" gradientTransform="matrix(24.6262 0 0 75.3195 49906.6367 7844.3779)">
				<stop  offset="0" style="stop-color:#8A8A8A"/>
				<stop  offset="0.2969" style="stop-color:#9F9F9F"/>
				<stop  offset="1" style="stop-color:#6E6E6E"/>
			</linearGradient>
			<path id="path4126_1_" fill="url(#path4126_2_)" d="M-81.6,50.3c-16.6,15.5-19.9,58,6.6,89.5C-111.8,96.9-98.8,66.9-81.6,50.3z"
				/>
			
				<linearGradient id="path4130_2_" gradientUnits="userSpaceOnUse" x1="-1995.5619" y1="-92.6778" x2="-1995.6766" y2="-92.6778" gradientTransform="matrix(24.6262 0 0 75.3195 50379.3945 7068.2686)">
				<stop  offset="0" style="stop-color:#8A8A8A"/>
				<stop  offset="0.2969" style="stop-color:#9F9F9F"/>
				<stop  offset="1" style="stop-color:#6E6E6E"/>
			</linearGradient>
			<path id="path4130_1_" fill="url(#path4130_2_)" d="M-65.1,43.1c-16.6,15.5-19.9,58,6.6,89.5C-95.3,89.6-82.3,59.7-65.1,43.1z"/>
			
				<linearGradient id="path2302_2_" gradientUnits="userSpaceOnUse" x1="-1991.1758" y1="-101.787" x2="-1991.2906" y2="-101.787" gradientTransform="matrix(24.6262 0 0 115.1915 48922.3164 11845.7256)">
				<stop  offset="0" style="stop-color:#8A8A8A"/>
				<stop  offset="0.2969" style="stop-color:#9F9F9F"/>
				<stop  offset="1" style="stop-color:#6E6E6E"/>
			</linearGradient>
			<path id="path2302_1_" fill="url(#path2302_2_)" d="M-115.9,65.4c-16.6,19.3-19.9,71.7,6.6,110.7
				C-146.1,123-133.1,85.8-115.9,65.4z"/>
			
				<linearGradient id="path4066_2_" gradientUnits="userSpaceOnUse" x1="-1987.0837" y1="-100.6941" x2="-1987.2084" y2="-100.6941" gradientTransform="matrix(22.6704 0 0 104.0527 45162.4961 10602.5205)">
				<stop  offset="0" style="stop-color:#8A8A8A"/>
				<stop  offset="0.2969" style="stop-color:#9F9F9F"/>
				<stop  offset="1" style="stop-color:#6E6E6E"/>
			</linearGradient>
			<path id="path4066_1_" fill="url(#path4066_2_)" d="M-108.1,75c-11.7,21.5-16,62.6,9.6,100C-131.5,133.7-120.7,96.8-108.1,75z"/>
			
				<linearGradient id="path4070_2_" gradientUnits="userSpaceOnUse" x1="-2012.5676" y1="-109.4916" x2="-2012.6443" y2="-109.4916" gradientTransform="matrix(36.8781 0 0 107.3015 75240.8203 11880.2959)">
				<stop  offset="0" style="stop-color:#8A8A8A"/>
				<stop  offset="0.2969" style="stop-color:#9F9F9F"/>
				<stop  offset="1" style="stop-color:#6E6E6E"/>
			</linearGradient>
			<path id="path4070_1_" fill="url(#path4070_2_)" d="M-104.4,80.2c-16.3,19.3,1.1,67.6,27.6,103.1
				C-109.1,155.3-121.7,100.9-104.4,80.2z"/>
			
				<linearGradient id="path4074_2_" gradientUnits="userSpaceOnUse" x1="-1968.224" y1="-66.2902" x2="-1968.3893" y2="-66.2902" gradientTransform="matrix(17.0979 0 0 88.5047 34007.3594 5955.8774)">
				<stop  offset="0" style="stop-color:#8A8A8A"/>
				<stop  offset="0.2969" style="stop-color:#9F9F9F"/>
				<stop  offset="1" style="stop-color:#6E6E6E"/>
			</linearGradient>
			<path id="path4074_1_" fill="url(#path4074_2_)" d="M-86.3,46.4c-13,23.3-15,46.5-10.3,85C-108.8,81.6-101.5,67-86.3,46.4z"/>
			
				<linearGradient id="path4078_2_" gradientUnits="userSpaceOnUse" x1="-1938.6475" y1="-63.3253" x2="-1938.8762" y2="-63.3253" gradientTransform="matrix(12.3505 0 0 66.6911 24378.0449 4317.812)">
				<stop  offset="0" style="stop-color:#8A8A8A"/>
				<stop  offset="0.2969" style="stop-color:#9F9F9F"/>
				<stop  offset="1" style="stop-color:#6E6E6E"/>
			</linearGradient>
			<path id="path4078_1_" fill="url(#path4078_2_)" d="M-71.8,62.6c-11.7,20.7-10.2,37.3-4.7,64C-86.8,101.4-86.8,83.7-71.8,62.6z"
				/>
			
				<linearGradient id="path4082_2_" gradientUnits="userSpaceOnUse" x1="-1968.422" y1="-54.8718" x2="-1968.5934" y2="-54.8718" gradientTransform="matrix(16.4925 0 0 65.763 33317.9141 3702.8721)">
				<stop  offset="0" style="stop-color:#8A8A8A"/>
				<stop  offset="0.2969" style="stop-color:#9F9F9F"/>
				<stop  offset="1" style="stop-color:#6E6E6E"/>
			</linearGradient>
			<path id="path4082_1_" fill="url(#path4082_2_)" d="M-55.7,62.8c-13.2,21.2-15,37-6.9,63.1C-78.6,96.1-71.2,84-55.7,62.8z"/>
			
				<linearGradient id="path4086_2_" gradientUnits="userSpaceOnUse" x1="-1980.3179" y1="-52.8905" x2="-1980.4677" y2="-52.8905" gradientTransform="matrix(18.8432 0 0 62.05 38679.1055 3377.0149)">
				<stop  offset="0" style="stop-color:#8A8A8A"/>
				<stop  offset="0.2969" style="stop-color:#9F9F9F"/>
				<stop  offset="1" style="stop-color:#6E6E6E"/>
			</linearGradient>
			<path id="path4086_1_" fill="url(#path4086_2_)" d="M-55,65.4c-1.8,22.1,4.9,42.3,13.5,59.5C-62.8,98.8-62.4,80.7-55,65.4z"/>
			
				<linearGradient id="path4090_2_" gradientUnits="userSpaceOnUse" x1="-2171.2644" y1="-53.9346" x2="-2171.5396" y2="-53.9346" gradientTransform="matrix(-10.2686 0 0 54.6241 -16100.457 3042.3523)">
				<stop  offset="0" style="stop-color:#8A8A8A"/>
				<stop  offset="0.2969" style="stop-color:#9F9F9F"/>
				<stop  offset="1" style="stop-color:#6E6E6E"/>
			</linearGradient>
			<path id="path4090_1_" fill="url(#path4090_2_)" d="M-41.1,70c4.5,18.8,6.3,28.9,7.4,52.4C-28.6,106.6-32.1,77.2-41.1,70z"/>
			
				<linearGradient id="path4094_2_" gradientUnits="userSpaceOnUse" x1="-2157.3757" y1="-51.1381" x2="-2157.623" y2="-51.1381" gradientTransform="matrix(-11.4278 0 0 47.8944 -17547.543 2534.9292)">
				<stop  offset="0" style="stop-color:#8A8A8A"/>
				<stop  offset="0.2969" style="stop-color:#9F9F9F"/>
				<stop  offset="1" style="stop-color:#6E6E6E"/>
			</linearGradient>
			<path id="path4094_1_" fill="url(#path4094_2_)" d="M-22.9,62.7c9.2,12.7,5.6,35.1,6.5,46C-10.9,78.8-8,71-22.9,62.7z"/>
			
				<linearGradient id="path4098_2_" gradientUnits="userSpaceOnUse" x1="-2127.2297" y1="-64.2714" x2="-2127.4204" y2="-64.2714" gradientTransform="matrix(-14.8242 0 0 60.1935 -22116.0625 3950.5637)">
				<stop  offset="0" style="stop-color:#8A8A8A"/>
				<stop  offset="0.2969" style="stop-color:#9F9F9F"/>
				<stop  offset="1" style="stop-color:#6E6E6E"/>
			</linearGradient>
			<path id="path4098_1_" fill="url(#path4098_2_)" d="M-11.3,52.9c8.6,20.4,6.9,28.8,13.9,57.8C4.2,83.4,0.2,65-11.3,52.9z"/>
			
				<linearGradient id="path4102_2_" gradientUnits="userSpaceOnUse" x1="-2158.9741" y1="-84.0075" x2="-2159.2222" y2="-84.0075" gradientTransform="matrix(-11.3976 0 0 87.3445 -17140.9414 7461.9424)">
				<stop  offset="0" style="stop-color:#8A8A8A"/>
				<stop  offset="0.2969" style="stop-color:#9F9F9F"/>
				<stop  offset="1" style="stop-color:#6E6E6E"/>
			</linearGradient>
			<path id="path4102_1_" fill="url(#path4102_2_)" d="M16.2,82.4c1.4,22.4-1.7,51.6-10.6,84C11,137.1,12.9,104.9,16.2,82.4z"/>
			
				<linearGradient id="path4106_2_" gradientUnits="userSpaceOnUse" x1="-2103.2888" y1="-80.6462" x2="-2103.4346" y2="-80.6462" gradientTransform="matrix(-19.3803 0 0 96.4852 -27959.6797 7876.6597)">
				<stop  offset="0" style="stop-color:#8A8A8A"/>
				<stop  offset="0.2969" style="stop-color:#9F9F9F"/>
				<stop  offset="1" style="stop-color:#6E6E6E"/>
			</linearGradient>
			<path id="path4106_1_" fill="url(#path4106_2_)" d="M13.7,49.2c16.6,19.3,14.3,53.9,9.9,92.6C40.2,90.3,30.8,69.6,13.7,49.2z"/>
			
				<linearGradient id="path4110_2_" gradientUnits="userSpaceOnUse" x1="-2163.4233" y1="-86.8537" x2="-2163.6799" y2="-86.8537" gradientTransform="matrix(-11.0205 0 0 107.1512 -16403.4609 9406.2266)">
				<stop  offset="0" style="stop-color:#8A8A8A"/>
				<stop  offset="0.2969" style="stop-color:#9F9F9F"/>
				<stop  offset="1" style="stop-color:#6E6E6E"/>
			</linearGradient>
			<path id="path4110_1_" fill="url(#path4110_2_)" d="M12,48.3c9.9,21.1,5.2,54.6,2.9,102.9C26.2,89.7,25,68.6,12,48.3z"/>
		</g>
	</g>
</g>
</svg>
